G04 EAGLE Gerber RS-274X export*
G75*
%MOMM*%
%FSLAX34Y34*%
%LPD*%
%INBottom Solder Mask*%
%IPPOS*%
%AMOC8*
5,1,8,0,0,1.08239X$1,22.5*%
G01*
%ADD10C,3.203200*%
%ADD11R,2.903200X1.803200*%
%ADD12R,1.803200X2.903200*%
%ADD13R,1.003200X1.403200*%
%ADD14R,2.753200X2.753200*%
%ADD15C,2.753200*%
%ADD16R,2.503200X2.503200*%
%ADD17R,0.603200X0.763200*%
%ADD18R,3.563200X5.063200*%
%ADD19R,1.593200X1.603200*%
%ADD20R,1.403200X0.903200*%
%ADD21R,1.203200X1.003200*%
%ADD22C,3.943200*%
%ADD23C,2.203200*%
%ADD24C,3.987800*%
%ADD25P,1.869504X8X112.500000*%
%ADD26C,0.353406*%
%ADD27R,1.403200X1.003200*%
%ADD28R,2.003200X3.403200*%
%ADD29R,3.403200X2.003200*%
%ADD30C,0.959600*%


D10*
X50000Y2150000D03*
X1400000Y2150000D03*
X1350000Y50000D03*
X50000Y50000D03*
X700000Y950000D03*
X750000Y1650000D03*
X1000000Y750000D03*
D11*
X685800Y699800D03*
X685800Y671800D03*
X694690Y374680D03*
X694690Y346680D03*
D12*
X1249710Y778510D03*
X1221710Y778510D03*
X532100Y1574800D03*
X560100Y1574800D03*
D13*
X384700Y393700D03*
X402700Y393700D03*
X385970Y1314450D03*
X403970Y1314450D03*
D12*
X341600Y685800D03*
X369600Y685800D03*
D14*
X1358900Y1237900D03*
D15*
X1358900Y1198300D03*
X1358900Y1158700D03*
X1358900Y1119100D03*
X1358900Y1079500D03*
X1358900Y1039900D03*
X1358900Y1000300D03*
X1358900Y960700D03*
X1358900Y921100D03*
D14*
X1397000Y324200D03*
D15*
X1397000Y363800D03*
X1397000Y403400D03*
X1397000Y443000D03*
X1397000Y482600D03*
X1397000Y522200D03*
X1397000Y561800D03*
X1397000Y601400D03*
X1397000Y641000D03*
D16*
X368300Y422000D03*
X368300Y467000D03*
D17*
X275590Y1070380D03*
X275590Y1086080D03*
D18*
X1181100Y1459000D03*
D19*
X1190300Y1419180D03*
X1171900Y1419180D03*
D18*
X1181100Y1687600D03*
D19*
X1190300Y1647780D03*
X1171900Y1647780D03*
D18*
X1181100Y1890800D03*
D19*
X1190300Y1850980D03*
X1171900Y1850980D03*
D16*
X359410Y1309730D03*
X359410Y1354730D03*
D18*
X1181100Y239800D03*
D19*
X1190300Y199980D03*
X1171900Y199980D03*
D18*
X1181100Y443000D03*
D19*
X1190300Y403180D03*
X1171900Y403180D03*
D18*
X1181100Y646200D03*
D19*
X1190300Y606380D03*
X1171900Y606380D03*
D18*
X1181100Y824000D03*
D19*
X1190300Y784180D03*
X1171900Y784180D03*
D20*
X339810Y1076960D03*
X302810Y1076960D03*
D21*
X349410Y1113790D03*
X369410Y1113790D03*
D18*
X1181100Y1268500D03*
D19*
X1190300Y1228680D03*
X1171900Y1228680D03*
D22*
X1041400Y127000D03*
X850900Y1295400D03*
X939800Y1651000D03*
X889000Y1778000D03*
X889000Y1917700D03*
X1079500Y2108200D03*
X1016000Y381000D03*
X850900Y660400D03*
X825500Y812800D03*
X1028700Y927100D03*
X939800Y939800D03*
D23*
X1168400Y1592072D03*
X1244600Y1557528D03*
D24*
X1206500Y1574800D03*
D23*
X1244600Y1760728D03*
X1168400Y1795272D03*
D24*
X1206500Y1778000D03*
D23*
X1168400Y1985772D03*
X1244600Y1951228D03*
D24*
X1206500Y1968500D03*
D23*
X1147572Y1066800D03*
X1113028Y990600D03*
D24*
X1130300Y1028700D03*
D23*
X1244600Y2065528D03*
X1168400Y2100072D03*
D24*
X1206500Y2082800D03*
D23*
X1168400Y131572D03*
X1244600Y97028D03*
D24*
X1206500Y114300D03*
D23*
X1244600Y312928D03*
X1168400Y347472D03*
D24*
X1206500Y330200D03*
D23*
X1168400Y550672D03*
X1244600Y516128D03*
D24*
X1206500Y533400D03*
D23*
X1244600Y706628D03*
X1168400Y741172D03*
D24*
X1206500Y723900D03*
D23*
X1168400Y906272D03*
X1244600Y871728D03*
D24*
X1206500Y889000D03*
D23*
X1244600Y1328928D03*
X1168400Y1363472D03*
D24*
X1206500Y1346200D03*
D25*
X1409700Y101600D03*
X1409700Y127000D03*
X1409700Y152400D03*
X1409700Y177800D03*
D26*
X308099Y1116649D02*
X297301Y1116649D01*
X308099Y1116649D02*
X308099Y1112151D01*
X297301Y1112151D01*
X297301Y1116649D01*
X297301Y1115508D02*
X308099Y1115508D01*
X308099Y1097649D02*
X297301Y1097649D01*
X308099Y1097649D02*
X308099Y1093151D01*
X297301Y1093151D01*
X297301Y1097649D01*
X297301Y1096508D02*
X308099Y1096508D01*
X286899Y1107149D02*
X276101Y1107149D01*
X286899Y1107149D02*
X286899Y1102651D01*
X276101Y1102651D01*
X276101Y1107149D01*
X276101Y1106008D02*
X286899Y1106008D01*
D13*
X372000Y1094740D03*
X390000Y1094740D03*
D27*
X356870Y1094850D03*
X356870Y1076850D03*
D22*
X88900Y139700D03*
X74930Y1276350D03*
D28*
X294700Y762000D03*
X238700Y762000D03*
D29*
X774700Y429200D03*
X774700Y485200D03*
D12*
X730280Y316230D03*
X702280Y316230D03*
D28*
X218500Y1587500D03*
X162500Y1587500D03*
D12*
X316200Y1562100D03*
X344200Y1562100D03*
D29*
X787400Y1445200D03*
X787400Y1501200D03*
D12*
X836900Y1435100D03*
X864900Y1435100D03*
X750600Y1168400D03*
X722600Y1168400D03*
D30*
X213360Y1912620D03*
X223520Y1912620D03*
X233680Y1912620D03*
X213360Y1902460D03*
X213360Y1892300D03*
X223520Y1892300D03*
X223520Y1902460D03*
X233680Y1902460D03*
X233680Y1892300D03*
X516890Y1906270D03*
X527050Y1906270D03*
X537210Y1906270D03*
X516890Y1896110D03*
X516890Y1885950D03*
X527050Y1885950D03*
X527050Y1896110D03*
X537210Y1896110D03*
X537210Y1885950D03*
X1047750Y1455420D03*
X1047750Y1445260D03*
X1047750Y1435100D03*
X1037590Y1455420D03*
X1027430Y1455420D03*
X1027430Y1445260D03*
X1037590Y1445260D03*
X1037590Y1435100D03*
X1027430Y1435100D03*
X1035050Y1113790D03*
X1035050Y1103630D03*
X1035050Y1093470D03*
X1024890Y1113790D03*
X1014730Y1113790D03*
X1014730Y1103630D03*
X1024890Y1103630D03*
X1024890Y1093470D03*
X1014730Y1093470D03*
X698500Y1170940D03*
X698500Y1160780D03*
X698500Y1150620D03*
X688340Y1150620D03*
X688340Y1160780D03*
X688340Y1170940D03*
X678180Y1170940D03*
X678180Y1160780D03*
X678180Y1150620D03*
X259080Y1291590D03*
X196850Y1268730D03*
X196850Y1192530D03*
X261620Y1184910D03*
X256540Y1391920D03*
X266700Y1391920D03*
X276860Y1391920D03*
X132080Y770890D03*
X142240Y770890D03*
X132080Y760730D03*
X142240Y760730D03*
X152400Y760730D03*
X152400Y749300D03*
X142240Y749300D03*
X132080Y749300D03*
X293370Y1244600D03*
X293370Y1231900D03*
X293370Y1219200D03*
X308610Y1207770D03*
X321310Y1207770D03*
X341630Y1228090D03*
X341630Y1244600D03*
X266700Y1110770D03*
X444500Y690880D03*
X454660Y690880D03*
X464820Y690880D03*
X464820Y680720D03*
X454660Y680720D03*
X444500Y680720D03*
X444500Y670560D03*
X454660Y670560D03*
X464820Y670560D03*
X783590Y575310D03*
X783590Y565150D03*
X773430Y575310D03*
X773430Y565150D03*
X773430Y554990D03*
X762000Y554990D03*
X762000Y565150D03*
X762000Y575310D03*
X345440Y435610D03*
X309880Y414020D03*
X119380Y439420D03*
X309880Y403860D03*
X119380Y416560D03*
X309880Y393700D03*
X119380Y406400D03*
X539750Y1017270D03*
X549910Y1017270D03*
X560070Y1017270D03*
X539750Y1007110D03*
X539750Y996950D03*
X549910Y996950D03*
X549910Y1007110D03*
X560070Y1007110D03*
X560070Y996950D03*
X247650Y1023620D03*
X257810Y1023620D03*
X267970Y1023620D03*
X247650Y1013460D03*
X247650Y1003300D03*
X257810Y1003300D03*
X257810Y1013460D03*
X267970Y1013460D03*
X267970Y1003300D03*
X254000Y387350D03*
X199390Y364490D03*
X199390Y292100D03*
X280670Y285750D03*
X256540Y477520D03*
X266700Y477520D03*
X276860Y477520D03*
X306070Y344170D03*
X306070Y330200D03*
X306070Y316230D03*
X316230Y306070D03*
X330200Y306070D03*
X344170Y306070D03*
X354330Y316230D03*
X354330Y328930D03*
X354330Y341630D03*
X344170Y354330D03*
X331470Y354330D03*
X318770Y354330D03*
X1033780Y477520D03*
X1033780Y467360D03*
X1033780Y457200D03*
X1023620Y477520D03*
X1013460Y477520D03*
X1013460Y467360D03*
X1023620Y467360D03*
X1023620Y457200D03*
X1013460Y457200D03*
X704850Y288290D03*
X704850Y278130D03*
X704850Y267970D03*
X694690Y267970D03*
X694690Y278130D03*
X694690Y288290D03*
X684530Y288290D03*
X684530Y278130D03*
X684530Y267970D03*
X1033780Y196850D03*
X1033780Y186690D03*
X1033780Y176530D03*
X1023620Y196850D03*
X1013460Y196850D03*
X1013460Y186690D03*
X1023620Y186690D03*
X1023620Y176530D03*
X1013460Y176530D03*
X134620Y690880D03*
X144780Y690880D03*
X154940Y690880D03*
X154940Y680720D03*
X144780Y680720D03*
X134620Y680720D03*
X134620Y670560D03*
X144780Y670560D03*
X154940Y670560D03*
X440690Y770890D03*
X450850Y770890D03*
X440690Y760730D03*
X450850Y760730D03*
X461010Y760730D03*
X461010Y749300D03*
X450850Y749300D03*
X440690Y749300D03*
X105410Y549910D03*
X415290Y398780D03*
X704850Y568960D03*
X704850Y558800D03*
X704850Y548640D03*
X694690Y548640D03*
X694690Y558800D03*
X694690Y568960D03*
X684530Y568960D03*
X684530Y558800D03*
X684530Y548640D03*
X783590Y294640D03*
X783590Y284480D03*
X773430Y294640D03*
X773430Y284480D03*
X773430Y274320D03*
X762000Y274320D03*
X762000Y284480D03*
X762000Y294640D03*
X283210Y609600D03*
X398780Y447040D03*
X590550Y612140D03*
X448310Y389890D03*
X461010Y321310D03*
X632460Y430530D03*
X444500Y261620D03*
X632460Y149860D03*
X304800Y232410D03*
X292100Y254000D03*
X283210Y234950D03*
X173990Y274320D03*
X184150Y274320D03*
X1062990Y254000D03*
X1062990Y243840D03*
X148590Y327660D03*
X158750Y327660D03*
X1062990Y534670D03*
X1062990Y524510D03*
X483870Y1049020D03*
X494030Y1049020D03*
X148590Y356870D03*
X158750Y356870D03*
X191770Y1052830D03*
X201930Y1052830D03*
X148590Y382270D03*
X158750Y382270D03*
X187960Y457200D03*
X321310Y245110D03*
X186690Y427990D03*
X127000Y495300D03*
X209550Y1076960D03*
X593090Y944880D03*
X593090Y934720D03*
X593090Y924560D03*
X603250Y944880D03*
X603250Y934720D03*
X603250Y924560D03*
X613410Y944880D03*
X613410Y934720D03*
X613410Y924560D03*
X300990Y944880D03*
X300990Y934720D03*
X300990Y924560D03*
X311150Y944880D03*
X311150Y934720D03*
X311150Y924560D03*
X321310Y944880D03*
X321310Y934720D03*
X321310Y924560D03*
X157480Y455930D03*
X957580Y424180D03*
X947420Y424180D03*
X937260Y424180D03*
X957580Y414020D03*
X947420Y414020D03*
X937260Y414020D03*
X957580Y403860D03*
X947420Y403860D03*
X937260Y403860D03*
X957580Y143510D03*
X947420Y143510D03*
X937260Y143510D03*
X957580Y133350D03*
X947420Y133350D03*
X937260Y133350D03*
X957580Y123190D03*
X947420Y123190D03*
X937260Y123190D03*
X347980Y478790D03*
X403860Y223520D03*
X684530Y193040D03*
X173990Y262890D03*
X184150Y262890D03*
X1004570Y247650D03*
X1004570Y237490D03*
X449580Y318770D03*
X684530Y473710D03*
X148590Y302260D03*
X158750Y302260D03*
X1004570Y528320D03*
X1004570Y518160D03*
X547370Y664210D03*
X438150Y383540D03*
X488950Y989330D03*
X499110Y989330D03*
X148590Y344170D03*
X158750Y344170D03*
X237490Y664210D03*
X424180Y431800D03*
X196850Y994410D03*
X207010Y994410D03*
X148590Y369570D03*
X158750Y369570D03*
X420370Y1167130D03*
X626110Y1079500D03*
X387350Y1132840D03*
X674370Y1122680D03*
X1012190Y1174750D03*
X1012190Y1164590D03*
X148590Y1177290D03*
X158750Y1177290D03*
X1071880Y1178560D03*
X1071880Y1168400D03*
X148590Y1188720D03*
X158750Y1188720D03*
X453390Y1234440D03*
X641350Y1412240D03*
X708660Y1506220D03*
X708660Y1496060D03*
X708660Y1485900D03*
X698500Y1485900D03*
X698500Y1496060D03*
X698500Y1506220D03*
X688340Y1506220D03*
X688340Y1496060D03*
X688340Y1485900D03*
X779780Y1223010D03*
X779780Y1212850D03*
X769620Y1223010D03*
X769620Y1212850D03*
X769620Y1202690D03*
X758190Y1202690D03*
X758190Y1212850D03*
X758190Y1223010D03*
X439420Y1226820D03*
X689610Y1456690D03*
X1028700Y1517650D03*
X1028700Y1507490D03*
X148590Y1207770D03*
X158750Y1207770D03*
X1089660Y1522730D03*
X1089660Y1512570D03*
X149860Y1230630D03*
X160020Y1230630D03*
X567690Y1499870D03*
X445770Y1287780D03*
X420370Y1576070D03*
X430530Y1576070D03*
X440690Y1576070D03*
X440690Y1565910D03*
X430530Y1565910D03*
X420370Y1565910D03*
X420370Y1555750D03*
X430530Y1555750D03*
X440690Y1555750D03*
X789940Y1562100D03*
X789940Y1551940D03*
X779780Y1562100D03*
X779780Y1551940D03*
X779780Y1541780D03*
X768350Y1541780D03*
X768350Y1551940D03*
X768350Y1562100D03*
X427990Y1287780D03*
X521970Y1548130D03*
X467360Y1893570D03*
X477520Y1893570D03*
X148590Y1258570D03*
X158750Y1258570D03*
X464820Y1953260D03*
X474980Y1953260D03*
X148590Y1271270D03*
X158750Y1271270D03*
X260350Y1498600D03*
X403860Y1356360D03*
X114300Y1578610D03*
X124460Y1578610D03*
X134620Y1578610D03*
X134620Y1568450D03*
X124460Y1568450D03*
X114300Y1568450D03*
X114300Y1558290D03*
X124460Y1558290D03*
X134620Y1558290D03*
X402590Y1301750D03*
X416560Y1656080D03*
X426720Y1656080D03*
X416560Y1645920D03*
X426720Y1645920D03*
X436880Y1645920D03*
X436880Y1634490D03*
X426720Y1634490D03*
X416560Y1634490D03*
X114300Y1657350D03*
X124460Y1657350D03*
X114300Y1647190D03*
X124460Y1647190D03*
X134620Y1647190D03*
X134620Y1635760D03*
X124460Y1635760D03*
X114300Y1635760D03*
X215900Y1553210D03*
X400050Y1338580D03*
X262890Y1832610D03*
X262890Y1822450D03*
X262890Y1812290D03*
X273050Y1832610D03*
X273050Y1822450D03*
X273050Y1812290D03*
X283210Y1832610D03*
X283210Y1822450D03*
X283210Y1812290D03*
X567690Y1833880D03*
X567690Y1823720D03*
X567690Y1813560D03*
X577850Y1833880D03*
X577850Y1823720D03*
X577850Y1813560D03*
X588010Y1833880D03*
X588010Y1823720D03*
X588010Y1813560D03*
X970280Y1413510D03*
X960120Y1413510D03*
X949960Y1413510D03*
X970280Y1403350D03*
X960120Y1403350D03*
X949960Y1403350D03*
X970280Y1393190D03*
X960120Y1393190D03*
X949960Y1393190D03*
X957580Y1070610D03*
X947420Y1070610D03*
X937260Y1070610D03*
X957580Y1060450D03*
X947420Y1060450D03*
X937260Y1060450D03*
X957580Y1050290D03*
X947420Y1050290D03*
X937260Y1050290D03*
X63500Y1981200D03*
X163830Y1892300D03*
X173990Y1892300D03*
X148590Y1283970D03*
X158750Y1283970D03*
X152400Y1955800D03*
X165100Y1955800D03*
X148590Y1296670D03*
X158750Y1296670D03*
X283210Y1155700D03*
X55880Y1183640D03*
X270510Y1130300D03*
X76200Y1163320D03*
X299720Y1131570D03*
X91440Y1143000D03*
X321310Y1146810D03*
X83820Y1200150D03*
X336550Y1303020D03*
X307340Y1346200D03*
M02*
