M48
;GenerationSoftware,Autodesk,EAGLE,9.6.2*%
;CreationDate,2026-02-20T23:40:41Z*%
FMAT,2
ICI,OFF
METRIC,TZ,000.000
T7C0.350
T6C1.016
T5C1.270
T4C1.700
T3C2.490
T2C3.000
T1C3.785
%
G90
M71
T1
X120650Y157480
X120650Y177800
X120650Y196850
X113030Y102870
X120650Y208280
X120650Y11430
X120650Y33020
X120650Y53340
X120650Y72390
X120650Y88900
X120650Y134620
T2
X5000Y215000
X140000Y215000
X135000Y5000
X5000Y5000
X70000Y95000
X75000Y165000
X100000Y75000
T3
X7493Y127635
X85090Y129540
X8890Y13970
X104140Y12700
X93980Y165100
X88900Y177800
X88900Y191770
X107950Y210820
X101600Y38100
X85090Y66040
X93980Y93980
X102870Y92710
X82550Y81280
T4
X139700Y32420
X135890Y111910
X135890Y123790
X135890Y119830
X135890Y115870
X135890Y107950
X135890Y103990
X135890Y100030
X139700Y64100
X139700Y60140
X139700Y56180
X139700Y52220
X139700Y48260
X139700Y44300
X139700Y40340
X139700Y36380
X135890Y96070
X135890Y92110
T5
X116840Y159207
X114757Y106680
X116840Y210007
X124460Y195123
X124460Y155753
X116840Y198577
X116840Y179527
X124460Y176073
X116840Y13157
X124460Y9703
X124460Y31293
X116840Y34747
X116840Y55067
X124460Y51613
X124460Y70663
X116840Y74117
X116840Y90627
X124460Y87173
X124460Y132893
X116840Y136347
X111303Y99060
X124460Y206553
T6
X140970Y10160
X140970Y12700
X140970Y15240
X140970Y17780
T7
X45466Y67056
X46482Y67056
X78359Y57531
X78359Y56515
X77343Y57531
X77343Y56515
X77343Y55499
X76200Y55499
X76200Y56515
X76200Y57531
X34544Y43561
X30988Y41402
X11938Y43942
X30988Y40386
X11938Y41656
X30988Y39370
X11938Y40640
X53975Y101727
X54991Y101727
X56007Y101727
X53975Y100711
X53975Y99695
X54991Y99695
X54991Y100711
X56007Y100711
X56007Y99695
X24765Y102362
X25781Y102362
X26797Y102362
X24765Y101346
X24765Y100330
X25781Y100330
X25781Y101346
X26797Y101346
X26797Y100330
X25400Y38735
X19939Y36449
X19939Y29210
X28067Y28575
X25654Y47752
X26670Y47752
X27686Y47752
X30607Y34417
X30607Y33020
X30607Y31623
X31623Y30607
X33020Y30607
X34417Y30607
X35433Y31623
X35433Y32893
X35433Y34163
X34417Y35433
X33147Y35433
X31877Y35433
X103378Y47752
X103378Y46736
X103378Y45720
X102362Y47752
X101346Y47752
X101346Y46736
X102362Y46736
X102362Y45720
X101346Y45720
X70485Y28829
X70485Y27813
X70485Y26797
X69469Y26797
X69469Y27813
X69469Y28829
X68453Y28829
X68453Y27813
X68453Y26797
X103378Y19685
X103378Y18669
X103378Y17653
X102362Y19685
X101346Y19685
X101346Y18669
X102362Y18669
X102362Y17653
X101346Y17653
X13462Y69088
X14478Y69088
X15494Y69088
X15494Y68072
X14478Y68072
X13462Y68072
X13462Y67056
X14478Y67056
X15494Y67056
X44069Y77089
X45085Y77089
X44069Y76073
X45085Y76073
X46101Y76073
X46101Y74930
X45085Y74930
X44069Y74930
X10541Y54991
X41529Y39878
X70485Y56896
X70485Y55880
X70485Y54864
X69469Y54864
X69469Y55880
X69469Y56896
X68453Y56896
X68453Y55880
X68453Y54864
X78359Y29464
X78359Y28448
X77343Y29464
X77343Y28448
X77343Y27432
X76200Y27432
X76200Y28448
X76200Y29464
X28321Y60960
X39878Y44704
X59055Y61214
X44831Y38989
X46101Y32131
X63246Y43053
X44450Y26162
X63246Y14986
X30480Y23241
X29210Y25400
X28321Y23495
X17399Y27432
X18415Y27432
X106299Y25400
X106299Y24384
X14859Y32766
X15875Y32766
X106299Y53467
X106299Y52451
X48387Y104902
X49403Y104902
X14859Y35687
X15875Y35687
X19177Y105283
X20193Y105283
X14859Y38227
X15875Y38227
X18796Y45720
X32131Y24511
X18669Y42799
X12700Y49530
X20955Y107696
X59309Y94488
X59309Y93472
X59309Y92456
X60325Y94488
X60325Y93472
X60325Y92456
X61341Y94488
X61341Y93472
X61341Y92456
X30099Y94488
X30099Y93472
X30099Y92456
X31115Y94488
X31115Y93472
X31115Y92456
X32131Y94488
X32131Y93472
X32131Y92456
X15748Y45593
X95758Y42418
X94742Y42418
X93726Y42418
X95758Y41402
X94742Y41402
X93726Y41402
X95758Y40386
X94742Y40386
X93726Y40386
X95758Y14351
X94742Y14351
X93726Y14351
X95758Y13335
X94742Y13335
X93726Y13335
X21336Y191262
X94742Y12319
X93726Y12319
X34798Y47879
X40386Y22352
X68453Y19304
X17399Y26289
X18415Y26289
X100457Y24765
X100457Y23749
X44958Y31877
X68453Y47371
X14859Y30226
X15875Y30226
X100457Y52832
X100457Y51816
X54737Y66421
X43815Y38354
X48895Y98933
X49911Y98933
X14859Y34417
X15875Y34417
X23749Y66421
X42418Y43180
X19685Y99441
X20701Y99441
X14859Y36957
X15875Y36957
X42037Y116713
X62611Y107950
X38735Y113284
X67437Y112268
X101219Y117475
X101219Y116459
X14859Y117729
X15875Y117729
X107188Y117856
X107188Y116840
X14859Y118872
X15875Y118872
X45339Y123444
X64135Y141224
X70866Y150622
X70866Y149606
X70866Y148590
X69850Y148590
X69850Y149606
X69850Y150622
X68834Y150622
X68834Y149606
X68834Y148590
X77978Y122301
X77978Y121285
X76962Y122301
X76962Y121285
X76962Y120269
X75819Y120269
X75819Y121285
X75819Y122301
X43942Y122682
X68961Y145669
X102870Y151765
X102870Y150749
X14859Y120777
X15875Y120777
X108966Y152273
X108966Y151257
X14986Y123063
X16002Y123063
X56769Y149987
X44577Y128778
X42037Y157607
X43053Y157607
X44069Y157607
X44069Y156591
X43053Y156591
X42037Y156591
X42037Y155575
X43053Y155575
X44069Y155575
X78994Y156210
X78994Y155194
X77978Y156210
X77978Y155194
X77978Y154178
X76835Y154178
X76835Y155194
X76835Y156210
X42799Y128778
X52197Y154813
X46736Y189357
X47752Y189357
X14859Y125857
X15875Y125857
X46482Y195326
X47498Y195326
X14859Y127127
X15875Y127127
X26035Y149860
X40386Y135636
X11430Y157861
X12446Y157861
X13462Y157861
X13462Y156845
X12446Y156845
X11430Y156845
X11430Y155829
X12446Y155829
X13462Y155829
X40259Y130175
X41656Y165608
X42672Y165608
X41656Y164592
X42672Y164592
X43688Y164592
X43688Y163449
X42672Y163449
X41656Y163449
X11430Y165735
X12446Y165735
X11430Y164719
X12446Y164719
X13462Y164719
X13462Y163576
X12446Y163576
X11430Y163576
X21590Y155321
X40005Y133858
X26289Y183261
X26289Y182245
X26289Y181229
X27305Y183261
X27305Y182245
X27305Y181229
X28321Y183261
X28321Y182245
X28321Y181229
X56769Y183388
X56769Y182372
X56769Y181356
X57785Y183388
X57785Y182372
X57785Y181356
X58801Y183388
X58801Y182372
X58801Y181356
X97028Y141351
X96012Y141351
X94996Y141351
X97028Y140335
X96012Y140335
X94996Y140335
X97028Y139319
X96012Y139319
X94996Y139319
X95758Y107061
X94742Y107061
X93726Y107061
X95758Y106045
X94742Y106045
X93726Y106045
X95758Y105029
X94742Y105029
X93726Y105029
X6350Y198120
X16383Y189230
X17399Y189230
X14859Y128397
X15875Y128397
X15240Y195580
X16510Y195580
X14859Y129667
X15875Y129667
X28321Y115570
X5588Y118364
X27051Y113030
X7620Y116332
X29972Y113157
X9144Y114300
X32131Y114681
X8382Y120015
X33655Y130302
X30734Y134620
X44450Y67056
X44450Y68072
X45466Y68072
X46482Y68072
X46482Y69088
X45466Y69088
X44450Y69088
X26670Y111077
X34163Y124460
X34163Y122809
X32131Y120777
X30861Y120777
X29337Y121920
X29337Y123190
X29337Y124460
X13208Y74930
X14224Y74930
X15240Y74930
X15240Y76073
X14224Y76073
X13208Y76073
X14224Y77089
X13208Y77089
X27686Y139192
X26670Y139192
X25654Y139192
X26162Y118491
X19685Y119253
X19685Y126873
X25908Y129159
X67818Y115062
X67818Y116078
X67818Y117094
X68834Y117094
X68834Y116078
X68834Y115062
X69850Y115062
X69850Y116078
X69850Y117094
X101473Y109347
X102489Y109347
X102489Y110363
X101473Y110363
X101473Y111379
X102489Y111379
X103505Y109347
X103505Y110363
X103505Y111379
X102743Y143510
X103759Y143510
X103759Y144526
X102743Y144526
X102743Y145542
X103759Y145542
X104775Y143510
X104775Y144526
X104775Y145542
X53721Y188595
X53721Y189611
X52705Y189611
X52705Y188595
X51689Y188595
X51689Y189611
X53721Y190627
X52705Y190627
X51689Y190627
X23368Y189230
X23368Y190246
X22352Y190246
X22352Y189230
X21336Y189230
X21336Y190246
X23368Y191262
X22352Y191262
X95758Y12319
M30