G04 EAGLE Gerber RS-274X export*
G75*
%MOMM*%
%FSLAX34Y34*%
%LPD*%
%INBottom Silkscreen*%
%IPPOS*%
%AMOC8*
5,1,8,0,0,1.08239X$1,22.5*%
G01*
%ADD10C,0.101600*%
%ADD11C,0.050800*%
%ADD12C,0.152400*%
%ADD13C,0.254000*%
%ADD14C,0.200000*%
%ADD15C,0.076200*%
%ADD16C,0.127000*%


D10*
X654558Y682056D02*
X654558Y679459D01*
X654560Y679360D01*
X654566Y679260D01*
X654575Y679161D01*
X654588Y679063D01*
X654605Y678965D01*
X654626Y678867D01*
X654651Y678771D01*
X654679Y678676D01*
X654711Y678582D01*
X654746Y678489D01*
X654785Y678397D01*
X654828Y678307D01*
X654873Y678219D01*
X654923Y678132D01*
X654975Y678048D01*
X655031Y677965D01*
X655089Y677885D01*
X655151Y677807D01*
X655216Y677732D01*
X655284Y677659D01*
X655354Y677589D01*
X655427Y677521D01*
X655502Y677456D01*
X655580Y677394D01*
X655660Y677336D01*
X655743Y677280D01*
X655827Y677228D01*
X655914Y677178D01*
X656002Y677133D01*
X656092Y677090D01*
X656184Y677051D01*
X656277Y677016D01*
X656371Y676984D01*
X656466Y676956D01*
X656562Y676931D01*
X656660Y676910D01*
X656758Y676893D01*
X656856Y676880D01*
X656955Y676871D01*
X657055Y676865D01*
X657154Y676863D01*
X663646Y676863D01*
X663745Y676865D01*
X663845Y676871D01*
X663944Y676880D01*
X664042Y676893D01*
X664140Y676910D01*
X664238Y676931D01*
X664334Y676956D01*
X664429Y676984D01*
X664523Y677016D01*
X664616Y677051D01*
X664708Y677090D01*
X664798Y677133D01*
X664886Y677178D01*
X664973Y677228D01*
X665057Y677280D01*
X665140Y677336D01*
X665220Y677394D01*
X665298Y677456D01*
X665373Y677521D01*
X665446Y677589D01*
X665516Y677659D01*
X665584Y677732D01*
X665649Y677807D01*
X665711Y677885D01*
X665769Y677965D01*
X665825Y678048D01*
X665877Y678132D01*
X665927Y678219D01*
X665972Y678307D01*
X666015Y678397D01*
X666054Y678489D01*
X666089Y678581D01*
X666121Y678676D01*
X666149Y678771D01*
X666174Y678867D01*
X666195Y678965D01*
X666212Y679063D01*
X666225Y679161D01*
X666234Y679260D01*
X666240Y679360D01*
X666242Y679459D01*
X666242Y682056D01*
X663646Y686421D02*
X666242Y689666D01*
X654558Y689666D01*
X654558Y686421D02*
X654558Y692912D01*
X660400Y697851D02*
X660630Y697854D01*
X660860Y697862D01*
X661089Y697876D01*
X661318Y697895D01*
X661547Y697920D01*
X661774Y697950D01*
X662002Y697985D01*
X662228Y698026D01*
X662453Y698072D01*
X662677Y698124D01*
X662899Y698181D01*
X663121Y698243D01*
X663340Y698311D01*
X663558Y698384D01*
X663775Y698462D01*
X663989Y698545D01*
X664201Y698633D01*
X664411Y698726D01*
X664619Y698825D01*
X664619Y698824D02*
X664709Y698857D01*
X664798Y698893D01*
X664886Y698933D01*
X664971Y698977D01*
X665055Y699024D01*
X665137Y699074D01*
X665217Y699128D01*
X665294Y699184D01*
X665370Y699244D01*
X665443Y699307D01*
X665513Y699372D01*
X665581Y699441D01*
X665645Y699512D01*
X665707Y699585D01*
X665766Y699661D01*
X665822Y699739D01*
X665875Y699820D01*
X665924Y699902D01*
X665970Y699986D01*
X666013Y700073D01*
X666052Y700160D01*
X666088Y700250D01*
X666120Y700340D01*
X666148Y700432D01*
X666173Y700525D01*
X666194Y700619D01*
X666211Y700713D01*
X666225Y700808D01*
X666234Y700904D01*
X666240Y701000D01*
X666242Y701096D01*
X666240Y701192D01*
X666234Y701288D01*
X666225Y701384D01*
X666211Y701479D01*
X666194Y701573D01*
X666173Y701667D01*
X666148Y701760D01*
X666120Y701852D01*
X666088Y701942D01*
X666052Y702032D01*
X666013Y702119D01*
X665970Y702206D01*
X665924Y702290D01*
X665875Y702372D01*
X665822Y702453D01*
X665766Y702531D01*
X665707Y702607D01*
X665645Y702680D01*
X665581Y702751D01*
X665513Y702820D01*
X665443Y702885D01*
X665370Y702948D01*
X665294Y703008D01*
X665217Y703064D01*
X665137Y703118D01*
X665055Y703168D01*
X664971Y703215D01*
X664886Y703259D01*
X664798Y703299D01*
X664709Y703335D01*
X664619Y703368D01*
X664619Y703369D02*
X664412Y703468D01*
X664202Y703561D01*
X663989Y703649D01*
X663775Y703732D01*
X663559Y703810D01*
X663341Y703883D01*
X663121Y703951D01*
X662900Y704013D01*
X662677Y704070D01*
X662453Y704122D01*
X662228Y704168D01*
X662002Y704209D01*
X661775Y704244D01*
X661547Y704274D01*
X661318Y704299D01*
X661089Y704318D01*
X660860Y704332D01*
X660630Y704340D01*
X660400Y704343D01*
X660400Y697851D02*
X660170Y697854D01*
X659940Y697862D01*
X659711Y697876D01*
X659482Y697895D01*
X659253Y697920D01*
X659025Y697950D01*
X658798Y697985D01*
X658572Y698026D01*
X658347Y698072D01*
X658123Y698124D01*
X657900Y698181D01*
X657679Y698243D01*
X657459Y698311D01*
X657241Y698384D01*
X657025Y698462D01*
X656811Y698545D01*
X656599Y698633D01*
X656388Y698726D01*
X656181Y698825D01*
X656181Y698824D02*
X656091Y698857D01*
X656002Y698893D01*
X655914Y698934D01*
X655829Y698977D01*
X655745Y699024D01*
X655663Y699074D01*
X655583Y699128D01*
X655506Y699184D01*
X655430Y699244D01*
X655357Y699307D01*
X655287Y699372D01*
X655219Y699441D01*
X655155Y699512D01*
X655093Y699585D01*
X655034Y699661D01*
X654978Y699739D01*
X654925Y699820D01*
X654876Y699902D01*
X654830Y699986D01*
X654787Y700073D01*
X654748Y700160D01*
X654712Y700250D01*
X654680Y700340D01*
X654652Y700432D01*
X654627Y700525D01*
X654606Y700619D01*
X654589Y700713D01*
X654575Y700808D01*
X654566Y700904D01*
X654560Y701000D01*
X654558Y701096D01*
X656181Y703368D02*
X656388Y703467D01*
X656599Y703560D01*
X656811Y703648D01*
X657025Y703731D01*
X657241Y703809D01*
X657459Y703882D01*
X657679Y703950D01*
X657900Y704012D01*
X658123Y704069D01*
X658347Y704121D01*
X658572Y704167D01*
X658798Y704208D01*
X659025Y704243D01*
X659253Y704273D01*
X659482Y704298D01*
X659711Y704317D01*
X659940Y704331D01*
X660170Y704339D01*
X660400Y704342D01*
X656181Y703368D02*
X656091Y703335D01*
X656002Y703299D01*
X655914Y703259D01*
X655829Y703215D01*
X655745Y703168D01*
X655663Y703118D01*
X655583Y703064D01*
X655506Y703008D01*
X655430Y702948D01*
X655357Y702885D01*
X655287Y702820D01*
X655219Y702751D01*
X655155Y702680D01*
X655093Y702607D01*
X655034Y702531D01*
X654978Y702453D01*
X654925Y702372D01*
X654876Y702290D01*
X654830Y702206D01*
X654787Y702119D01*
X654748Y702032D01*
X654712Y701942D01*
X654680Y701852D01*
X654652Y701760D01*
X654627Y701667D01*
X654606Y701573D01*
X654589Y701479D01*
X654575Y701384D01*
X654566Y701288D01*
X654560Y701192D01*
X654558Y701096D01*
X657154Y698500D02*
X663646Y703693D01*
X663448Y356936D02*
X663448Y354339D01*
X663450Y354240D01*
X663456Y354140D01*
X663465Y354041D01*
X663478Y353943D01*
X663495Y353845D01*
X663516Y353747D01*
X663541Y353651D01*
X663569Y353556D01*
X663601Y353462D01*
X663636Y353369D01*
X663675Y353277D01*
X663718Y353187D01*
X663763Y353099D01*
X663813Y353012D01*
X663865Y352928D01*
X663921Y352845D01*
X663979Y352765D01*
X664041Y352687D01*
X664106Y352612D01*
X664174Y352539D01*
X664244Y352469D01*
X664317Y352401D01*
X664392Y352336D01*
X664470Y352274D01*
X664550Y352216D01*
X664633Y352160D01*
X664717Y352108D01*
X664804Y352058D01*
X664892Y352013D01*
X664982Y351970D01*
X665074Y351931D01*
X665167Y351896D01*
X665261Y351864D01*
X665356Y351836D01*
X665452Y351811D01*
X665550Y351790D01*
X665648Y351773D01*
X665746Y351760D01*
X665845Y351751D01*
X665945Y351745D01*
X666044Y351743D01*
X672536Y351743D01*
X672635Y351745D01*
X672735Y351751D01*
X672834Y351760D01*
X672932Y351773D01*
X673030Y351790D01*
X673128Y351811D01*
X673224Y351836D01*
X673319Y351864D01*
X673413Y351896D01*
X673506Y351931D01*
X673598Y351970D01*
X673688Y352013D01*
X673776Y352058D01*
X673863Y352108D01*
X673947Y352160D01*
X674030Y352216D01*
X674110Y352274D01*
X674188Y352336D01*
X674263Y352401D01*
X674336Y352469D01*
X674406Y352539D01*
X674474Y352612D01*
X674539Y352687D01*
X674601Y352765D01*
X674659Y352845D01*
X674715Y352928D01*
X674767Y353012D01*
X674817Y353099D01*
X674862Y353187D01*
X674905Y353277D01*
X674944Y353369D01*
X674979Y353461D01*
X675011Y353556D01*
X675039Y353651D01*
X675064Y353747D01*
X675085Y353845D01*
X675102Y353943D01*
X675115Y354041D01*
X675124Y354140D01*
X675130Y354240D01*
X675132Y354339D01*
X675132Y356936D01*
X672536Y361301D02*
X675132Y364546D01*
X663448Y364546D01*
X663448Y361301D02*
X663448Y367792D01*
X672536Y372731D02*
X675132Y375976D01*
X663448Y375976D01*
X663448Y372731D02*
X663448Y379222D01*
X1261759Y747268D02*
X1264356Y747268D01*
X1264455Y747270D01*
X1264555Y747276D01*
X1264654Y747285D01*
X1264752Y747298D01*
X1264850Y747315D01*
X1264948Y747336D01*
X1265044Y747361D01*
X1265139Y747389D01*
X1265233Y747421D01*
X1265326Y747456D01*
X1265418Y747495D01*
X1265508Y747538D01*
X1265596Y747583D01*
X1265683Y747633D01*
X1265767Y747685D01*
X1265850Y747741D01*
X1265930Y747799D01*
X1266008Y747861D01*
X1266083Y747926D01*
X1266156Y747994D01*
X1266226Y748064D01*
X1266294Y748137D01*
X1266359Y748212D01*
X1266421Y748290D01*
X1266479Y748370D01*
X1266535Y748453D01*
X1266587Y748537D01*
X1266637Y748624D01*
X1266682Y748712D01*
X1266725Y748802D01*
X1266764Y748894D01*
X1266799Y748987D01*
X1266831Y749081D01*
X1266859Y749176D01*
X1266884Y749272D01*
X1266905Y749370D01*
X1266922Y749468D01*
X1266935Y749566D01*
X1266944Y749665D01*
X1266950Y749765D01*
X1266952Y749864D01*
X1266952Y756356D01*
X1266950Y756455D01*
X1266944Y756555D01*
X1266935Y756654D01*
X1266922Y756752D01*
X1266905Y756850D01*
X1266884Y756948D01*
X1266859Y757044D01*
X1266831Y757139D01*
X1266799Y757233D01*
X1266764Y757326D01*
X1266725Y757418D01*
X1266682Y757508D01*
X1266637Y757596D01*
X1266587Y757683D01*
X1266535Y757767D01*
X1266479Y757850D01*
X1266421Y757930D01*
X1266359Y758008D01*
X1266294Y758083D01*
X1266226Y758156D01*
X1266156Y758226D01*
X1266083Y758294D01*
X1266008Y758359D01*
X1265930Y758421D01*
X1265850Y758479D01*
X1265767Y758535D01*
X1265683Y758587D01*
X1265596Y758637D01*
X1265508Y758682D01*
X1265418Y758725D01*
X1265326Y758764D01*
X1265233Y758799D01*
X1265139Y758831D01*
X1265044Y758859D01*
X1264948Y758884D01*
X1264850Y758905D01*
X1264752Y758922D01*
X1264654Y758935D01*
X1264555Y758944D01*
X1264455Y758950D01*
X1264356Y758952D01*
X1261759Y758952D01*
X1257394Y756356D02*
X1254148Y758952D01*
X1254148Y747268D01*
X1250903Y747268D02*
X1257394Y747268D01*
X1245964Y747268D02*
X1242718Y747268D01*
X1242605Y747270D01*
X1242492Y747276D01*
X1242379Y747286D01*
X1242266Y747300D01*
X1242154Y747317D01*
X1242043Y747339D01*
X1241933Y747364D01*
X1241823Y747394D01*
X1241715Y747427D01*
X1241608Y747464D01*
X1241502Y747504D01*
X1241398Y747549D01*
X1241295Y747597D01*
X1241194Y747648D01*
X1241095Y747703D01*
X1240998Y747761D01*
X1240903Y747823D01*
X1240810Y747888D01*
X1240720Y747956D01*
X1240632Y748027D01*
X1240546Y748102D01*
X1240463Y748179D01*
X1240383Y748259D01*
X1240306Y748342D01*
X1240231Y748428D01*
X1240160Y748516D01*
X1240092Y748606D01*
X1240027Y748699D01*
X1239965Y748794D01*
X1239907Y748891D01*
X1239852Y748990D01*
X1239801Y749091D01*
X1239753Y749194D01*
X1239708Y749298D01*
X1239668Y749404D01*
X1239631Y749511D01*
X1239598Y749619D01*
X1239568Y749729D01*
X1239543Y749839D01*
X1239521Y749950D01*
X1239504Y750062D01*
X1239490Y750175D01*
X1239480Y750288D01*
X1239474Y750401D01*
X1239472Y750514D01*
X1239474Y750627D01*
X1239480Y750740D01*
X1239490Y750853D01*
X1239504Y750966D01*
X1239521Y751078D01*
X1239543Y751189D01*
X1239568Y751299D01*
X1239598Y751409D01*
X1239631Y751517D01*
X1239668Y751624D01*
X1239708Y751730D01*
X1239753Y751834D01*
X1239801Y751937D01*
X1239852Y752038D01*
X1239907Y752137D01*
X1239965Y752234D01*
X1240027Y752329D01*
X1240092Y752422D01*
X1240160Y752512D01*
X1240231Y752600D01*
X1240306Y752686D01*
X1240383Y752769D01*
X1240463Y752849D01*
X1240546Y752926D01*
X1240632Y753001D01*
X1240720Y753072D01*
X1240810Y753140D01*
X1240903Y753205D01*
X1240998Y753267D01*
X1241095Y753325D01*
X1241194Y753380D01*
X1241295Y753431D01*
X1241398Y753479D01*
X1241502Y753524D01*
X1241608Y753564D01*
X1241715Y753601D01*
X1241823Y753634D01*
X1241933Y753664D01*
X1242043Y753689D01*
X1242154Y753711D01*
X1242266Y753728D01*
X1242379Y753742D01*
X1242492Y753752D01*
X1242605Y753758D01*
X1242718Y753760D01*
X1242069Y758952D02*
X1245964Y758952D01*
X1242069Y758952D02*
X1241968Y758950D01*
X1241868Y758944D01*
X1241768Y758934D01*
X1241668Y758921D01*
X1241569Y758903D01*
X1241470Y758882D01*
X1241373Y758857D01*
X1241276Y758828D01*
X1241181Y758795D01*
X1241087Y758759D01*
X1240995Y758719D01*
X1240904Y758676D01*
X1240815Y758629D01*
X1240728Y758579D01*
X1240642Y758525D01*
X1240559Y758468D01*
X1240479Y758408D01*
X1240400Y758345D01*
X1240324Y758278D01*
X1240251Y758209D01*
X1240181Y758137D01*
X1240113Y758063D01*
X1240048Y757986D01*
X1239987Y757906D01*
X1239928Y757824D01*
X1239873Y757740D01*
X1239821Y757654D01*
X1239772Y757566D01*
X1239727Y757476D01*
X1239685Y757384D01*
X1239647Y757291D01*
X1239613Y757196D01*
X1239582Y757101D01*
X1239555Y757004D01*
X1239532Y756906D01*
X1239512Y756807D01*
X1239497Y756707D01*
X1239485Y756607D01*
X1239477Y756507D01*
X1239473Y756406D01*
X1239473Y756306D01*
X1239477Y756205D01*
X1239485Y756105D01*
X1239497Y756005D01*
X1239512Y755905D01*
X1239532Y755806D01*
X1239555Y755708D01*
X1239582Y755611D01*
X1239613Y755516D01*
X1239647Y755421D01*
X1239685Y755328D01*
X1239727Y755236D01*
X1239772Y755146D01*
X1239821Y755058D01*
X1239873Y754972D01*
X1239928Y754888D01*
X1239987Y754806D01*
X1240048Y754726D01*
X1240113Y754649D01*
X1240181Y754575D01*
X1240251Y754503D01*
X1240324Y754434D01*
X1240400Y754367D01*
X1240479Y754304D01*
X1240559Y754244D01*
X1240642Y754187D01*
X1240728Y754133D01*
X1240815Y754083D01*
X1240904Y754036D01*
X1240995Y753993D01*
X1241087Y753953D01*
X1241181Y753917D01*
X1241276Y753884D01*
X1241373Y753855D01*
X1241470Y753830D01*
X1241569Y753809D01*
X1241668Y753791D01*
X1241768Y753778D01*
X1241868Y753768D01*
X1241968Y753762D01*
X1242069Y753760D01*
X1242069Y753759D02*
X1244666Y753759D01*
D11*
X554966Y1548384D02*
X553385Y1548384D01*
X554966Y1548384D02*
X555044Y1548386D01*
X555121Y1548392D01*
X555198Y1548401D01*
X555274Y1548414D01*
X555350Y1548431D01*
X555425Y1548452D01*
X555498Y1548476D01*
X555571Y1548504D01*
X555642Y1548536D01*
X555711Y1548571D01*
X555778Y1548609D01*
X555844Y1548650D01*
X555907Y1548695D01*
X555968Y1548743D01*
X556027Y1548793D01*
X556083Y1548847D01*
X556137Y1548903D01*
X556187Y1548962D01*
X556235Y1549023D01*
X556280Y1549086D01*
X556321Y1549152D01*
X556359Y1549219D01*
X556394Y1549288D01*
X556426Y1549359D01*
X556454Y1549432D01*
X556478Y1549505D01*
X556499Y1549580D01*
X556516Y1549656D01*
X556529Y1549732D01*
X556538Y1549809D01*
X556544Y1549886D01*
X556546Y1549964D01*
X556546Y1553916D01*
X556544Y1553994D01*
X556538Y1554071D01*
X556529Y1554148D01*
X556516Y1554224D01*
X556499Y1554300D01*
X556478Y1554375D01*
X556454Y1554448D01*
X556426Y1554521D01*
X556394Y1554592D01*
X556359Y1554661D01*
X556321Y1554728D01*
X556280Y1554794D01*
X556235Y1554857D01*
X556187Y1554918D01*
X556137Y1554977D01*
X556083Y1555033D01*
X556027Y1555087D01*
X555968Y1555137D01*
X555907Y1555185D01*
X555844Y1555230D01*
X555778Y1555271D01*
X555711Y1555309D01*
X555642Y1555344D01*
X555571Y1555376D01*
X555498Y1555404D01*
X555425Y1555428D01*
X555350Y1555449D01*
X555274Y1555466D01*
X555198Y1555479D01*
X555121Y1555488D01*
X555044Y1555494D01*
X554966Y1555496D01*
X553385Y1555496D01*
X550813Y1553916D02*
X548838Y1555496D01*
X548838Y1548384D01*
X550813Y1548384D02*
X546862Y1548384D01*
X543955Y1552335D02*
X541584Y1552335D01*
X541506Y1552333D01*
X541429Y1552327D01*
X541352Y1552318D01*
X541276Y1552305D01*
X541200Y1552288D01*
X541125Y1552267D01*
X541052Y1552243D01*
X540979Y1552215D01*
X540908Y1552183D01*
X540839Y1552148D01*
X540772Y1552110D01*
X540706Y1552069D01*
X540643Y1552024D01*
X540582Y1551976D01*
X540523Y1551926D01*
X540467Y1551872D01*
X540413Y1551816D01*
X540363Y1551757D01*
X540315Y1551696D01*
X540270Y1551633D01*
X540229Y1551567D01*
X540191Y1551500D01*
X540156Y1551431D01*
X540124Y1551360D01*
X540096Y1551287D01*
X540072Y1551214D01*
X540051Y1551139D01*
X540034Y1551063D01*
X540021Y1550987D01*
X540012Y1550910D01*
X540006Y1550833D01*
X540004Y1550755D01*
X540004Y1550360D01*
X540006Y1550273D01*
X540012Y1550185D01*
X540021Y1550098D01*
X540035Y1550012D01*
X540052Y1549926D01*
X540073Y1549842D01*
X540098Y1549758D01*
X540127Y1549675D01*
X540159Y1549594D01*
X540194Y1549514D01*
X540233Y1549436D01*
X540276Y1549359D01*
X540322Y1549285D01*
X540371Y1549213D01*
X540423Y1549143D01*
X540479Y1549075D01*
X540537Y1549010D01*
X540598Y1548947D01*
X540662Y1548888D01*
X540729Y1548831D01*
X540797Y1548777D01*
X540869Y1548726D01*
X540942Y1548679D01*
X541017Y1548634D01*
X541095Y1548593D01*
X541174Y1548556D01*
X541254Y1548522D01*
X541336Y1548492D01*
X541419Y1548465D01*
X541504Y1548442D01*
X541589Y1548423D01*
X541675Y1548408D01*
X541762Y1548396D01*
X541849Y1548388D01*
X541936Y1548384D01*
X542024Y1548384D01*
X542111Y1548388D01*
X542198Y1548396D01*
X542285Y1548408D01*
X542371Y1548423D01*
X542456Y1548442D01*
X542541Y1548465D01*
X542624Y1548492D01*
X542706Y1548522D01*
X542786Y1548556D01*
X542865Y1548593D01*
X542943Y1548634D01*
X543018Y1548679D01*
X543091Y1548726D01*
X543163Y1548777D01*
X543231Y1548831D01*
X543298Y1548888D01*
X543362Y1548947D01*
X543423Y1549010D01*
X543481Y1549075D01*
X543537Y1549143D01*
X543589Y1549213D01*
X543638Y1549285D01*
X543684Y1549359D01*
X543727Y1549436D01*
X543766Y1549514D01*
X543801Y1549594D01*
X543833Y1549675D01*
X543862Y1549758D01*
X543887Y1549842D01*
X543908Y1549926D01*
X543925Y1550012D01*
X543939Y1550098D01*
X543948Y1550185D01*
X543954Y1550273D01*
X543956Y1550360D01*
X543955Y1550360D02*
X543955Y1552335D01*
X543953Y1552445D01*
X543947Y1552556D01*
X543938Y1552665D01*
X543924Y1552775D01*
X543907Y1552884D01*
X543886Y1552992D01*
X543861Y1553100D01*
X543833Y1553206D01*
X543800Y1553312D01*
X543764Y1553416D01*
X543725Y1553519D01*
X543682Y1553621D01*
X543635Y1553721D01*
X543585Y1553819D01*
X543532Y1553916D01*
X543475Y1554010D01*
X543415Y1554103D01*
X543351Y1554193D01*
X543285Y1554281D01*
X543215Y1554367D01*
X543143Y1554450D01*
X543068Y1554531D01*
X542990Y1554609D01*
X542909Y1554684D01*
X542826Y1554756D01*
X542740Y1554826D01*
X542652Y1554892D01*
X542562Y1554956D01*
X542469Y1555016D01*
X542375Y1555073D01*
X542278Y1555126D01*
X542180Y1555176D01*
X542080Y1555223D01*
X541978Y1555266D01*
X541875Y1555305D01*
X541771Y1555341D01*
X541665Y1555374D01*
X541559Y1555402D01*
X541451Y1555427D01*
X541343Y1555448D01*
X541234Y1555465D01*
X541124Y1555479D01*
X541015Y1555488D01*
X540904Y1555494D01*
X540794Y1555496D01*
D12*
X396700Y387700D02*
X390700Y387700D01*
X390700Y399700D02*
X396700Y399700D01*
D11*
X403367Y406019D02*
X404383Y406019D01*
X404444Y406021D01*
X404505Y406026D01*
X404566Y406036D01*
X404626Y406049D01*
X404685Y406065D01*
X404743Y406085D01*
X404800Y406109D01*
X404855Y406135D01*
X404909Y406166D01*
X404960Y406199D01*
X405010Y406235D01*
X405057Y406275D01*
X405101Y406317D01*
X405143Y406361D01*
X405183Y406408D01*
X405219Y406458D01*
X405252Y406509D01*
X405283Y406563D01*
X405309Y406618D01*
X405333Y406675D01*
X405353Y406733D01*
X405369Y406792D01*
X405382Y406852D01*
X405392Y406913D01*
X405397Y406974D01*
X405399Y407035D01*
X405399Y409575D01*
X405397Y409636D01*
X405392Y409697D01*
X405382Y409758D01*
X405369Y409818D01*
X405353Y409877D01*
X405333Y409935D01*
X405309Y409992D01*
X405283Y410047D01*
X405252Y410101D01*
X405219Y410152D01*
X405183Y410202D01*
X405143Y410249D01*
X405101Y410293D01*
X405057Y410335D01*
X405010Y410375D01*
X404960Y410411D01*
X404909Y410444D01*
X404855Y410475D01*
X404800Y410501D01*
X404743Y410525D01*
X404685Y410545D01*
X404626Y410561D01*
X404566Y410574D01*
X404505Y410584D01*
X404444Y410589D01*
X404383Y410591D01*
X403367Y410591D01*
X400558Y410591D02*
X401574Y407035D01*
X399034Y407035D01*
X399796Y408051D02*
X399796Y406019D01*
D12*
X397970Y1308450D02*
X391970Y1308450D01*
X391970Y1320450D02*
X397970Y1320450D01*
D11*
X392953Y1288669D02*
X391937Y1288669D01*
X392953Y1288669D02*
X393014Y1288671D01*
X393075Y1288676D01*
X393136Y1288686D01*
X393196Y1288699D01*
X393255Y1288715D01*
X393313Y1288735D01*
X393370Y1288759D01*
X393425Y1288785D01*
X393479Y1288816D01*
X393530Y1288849D01*
X393580Y1288885D01*
X393627Y1288925D01*
X393671Y1288967D01*
X393713Y1289011D01*
X393753Y1289058D01*
X393789Y1289108D01*
X393822Y1289159D01*
X393853Y1289213D01*
X393879Y1289268D01*
X393903Y1289325D01*
X393923Y1289383D01*
X393939Y1289442D01*
X393952Y1289502D01*
X393962Y1289563D01*
X393967Y1289624D01*
X393969Y1289685D01*
X393969Y1292225D01*
X393967Y1292286D01*
X393962Y1292347D01*
X393952Y1292408D01*
X393939Y1292468D01*
X393923Y1292527D01*
X393903Y1292585D01*
X393879Y1292642D01*
X393853Y1292697D01*
X393822Y1292751D01*
X393789Y1292802D01*
X393753Y1292852D01*
X393713Y1292899D01*
X393671Y1292943D01*
X393627Y1292985D01*
X393580Y1293025D01*
X393530Y1293061D01*
X393479Y1293094D01*
X393425Y1293125D01*
X393370Y1293151D01*
X393313Y1293175D01*
X393255Y1293195D01*
X393196Y1293211D01*
X393136Y1293224D01*
X393075Y1293234D01*
X393014Y1293239D01*
X392953Y1293241D01*
X391937Y1293241D01*
X390144Y1289939D02*
X390142Y1290009D01*
X390136Y1290079D01*
X390127Y1290148D01*
X390113Y1290217D01*
X390096Y1290285D01*
X390075Y1290351D01*
X390051Y1290417D01*
X390023Y1290481D01*
X389991Y1290543D01*
X389956Y1290604D01*
X389918Y1290663D01*
X389876Y1290719D01*
X389832Y1290773D01*
X389784Y1290825D01*
X389734Y1290873D01*
X389681Y1290919D01*
X389626Y1290962D01*
X389569Y1291002D01*
X389509Y1291039D01*
X389447Y1291072D01*
X389384Y1291102D01*
X389319Y1291128D01*
X389253Y1291151D01*
X389186Y1291170D01*
X389117Y1291185D01*
X389048Y1291197D01*
X388979Y1291205D01*
X388909Y1291209D01*
X388839Y1291209D01*
X388769Y1291205D01*
X388700Y1291197D01*
X388631Y1291185D01*
X388562Y1291170D01*
X388495Y1291151D01*
X388429Y1291128D01*
X388364Y1291102D01*
X388301Y1291072D01*
X388239Y1291039D01*
X388179Y1291002D01*
X388122Y1290962D01*
X388067Y1290919D01*
X388014Y1290873D01*
X387964Y1290825D01*
X387916Y1290773D01*
X387872Y1290719D01*
X387830Y1290663D01*
X387792Y1290604D01*
X387757Y1290543D01*
X387725Y1290481D01*
X387697Y1290417D01*
X387673Y1290351D01*
X387652Y1290285D01*
X387635Y1290217D01*
X387621Y1290148D01*
X387612Y1290079D01*
X387606Y1290009D01*
X387604Y1289939D01*
X387606Y1289869D01*
X387612Y1289799D01*
X387621Y1289730D01*
X387635Y1289661D01*
X387652Y1289593D01*
X387673Y1289527D01*
X387697Y1289461D01*
X387725Y1289397D01*
X387757Y1289335D01*
X387792Y1289274D01*
X387830Y1289215D01*
X387872Y1289159D01*
X387916Y1289105D01*
X387964Y1289053D01*
X388014Y1289005D01*
X388067Y1288959D01*
X388122Y1288916D01*
X388179Y1288876D01*
X388239Y1288839D01*
X388301Y1288806D01*
X388364Y1288776D01*
X388429Y1288750D01*
X388495Y1288727D01*
X388562Y1288708D01*
X388631Y1288693D01*
X388700Y1288681D01*
X388769Y1288673D01*
X388839Y1288669D01*
X388909Y1288669D01*
X388979Y1288673D01*
X389048Y1288681D01*
X389117Y1288693D01*
X389186Y1288708D01*
X389253Y1288727D01*
X389319Y1288750D01*
X389384Y1288776D01*
X389447Y1288806D01*
X389509Y1288839D01*
X389569Y1288876D01*
X389626Y1288916D01*
X389681Y1288959D01*
X389734Y1289005D01*
X389784Y1289053D01*
X389832Y1289105D01*
X389876Y1289159D01*
X389918Y1289215D01*
X389956Y1289274D01*
X389991Y1289335D01*
X390023Y1289397D01*
X390051Y1289461D01*
X390075Y1289527D01*
X390096Y1289593D01*
X390113Y1289661D01*
X390127Y1289730D01*
X390136Y1289799D01*
X390142Y1289869D01*
X390144Y1289939D01*
X389890Y1292225D02*
X389888Y1292288D01*
X389882Y1292350D01*
X389873Y1292412D01*
X389859Y1292473D01*
X389842Y1292533D01*
X389821Y1292592D01*
X389797Y1292650D01*
X389769Y1292706D01*
X389738Y1292760D01*
X389703Y1292812D01*
X389666Y1292862D01*
X389625Y1292909D01*
X389581Y1292954D01*
X389535Y1292997D01*
X389486Y1293036D01*
X389435Y1293072D01*
X389382Y1293105D01*
X389327Y1293134D01*
X389270Y1293161D01*
X389212Y1293183D01*
X389152Y1293202D01*
X389091Y1293217D01*
X389030Y1293229D01*
X388968Y1293237D01*
X388905Y1293241D01*
X388843Y1293241D01*
X388780Y1293237D01*
X388718Y1293229D01*
X388657Y1293217D01*
X388596Y1293202D01*
X388536Y1293183D01*
X388478Y1293161D01*
X388421Y1293134D01*
X388366Y1293105D01*
X388313Y1293072D01*
X388262Y1293036D01*
X388213Y1292997D01*
X388167Y1292954D01*
X388123Y1292909D01*
X388082Y1292862D01*
X388045Y1292812D01*
X388010Y1292760D01*
X387979Y1292706D01*
X387951Y1292650D01*
X387927Y1292592D01*
X387906Y1292533D01*
X387889Y1292473D01*
X387875Y1292412D01*
X387866Y1292350D01*
X387860Y1292288D01*
X387858Y1292225D01*
X387860Y1292162D01*
X387866Y1292100D01*
X387875Y1292038D01*
X387889Y1291977D01*
X387906Y1291917D01*
X387927Y1291858D01*
X387951Y1291800D01*
X387979Y1291744D01*
X388010Y1291690D01*
X388045Y1291638D01*
X388082Y1291588D01*
X388123Y1291541D01*
X388167Y1291496D01*
X388213Y1291453D01*
X388262Y1291414D01*
X388313Y1291378D01*
X388366Y1291345D01*
X388421Y1291316D01*
X388478Y1291289D01*
X388536Y1291267D01*
X388596Y1291248D01*
X388657Y1291233D01*
X388718Y1291221D01*
X388780Y1291213D01*
X388843Y1291209D01*
X388905Y1291209D01*
X388968Y1291213D01*
X389030Y1291221D01*
X389091Y1291233D01*
X389152Y1291248D01*
X389212Y1291267D01*
X389270Y1291289D01*
X389327Y1291316D01*
X389382Y1291345D01*
X389435Y1291378D01*
X389486Y1291414D01*
X389535Y1291453D01*
X389581Y1291496D01*
X389625Y1291541D01*
X389666Y1291588D01*
X389703Y1291638D01*
X389738Y1291690D01*
X389769Y1291744D01*
X389797Y1291800D01*
X389821Y1291858D01*
X389842Y1291917D01*
X389859Y1291977D01*
X389873Y1292038D01*
X389882Y1292100D01*
X389888Y1292162D01*
X389890Y1292225D01*
D10*
X350511Y654558D02*
X347914Y654558D01*
X350511Y654558D02*
X350610Y654560D01*
X350710Y654566D01*
X350809Y654575D01*
X350907Y654588D01*
X351005Y654605D01*
X351103Y654626D01*
X351199Y654651D01*
X351294Y654679D01*
X351388Y654711D01*
X351481Y654746D01*
X351573Y654785D01*
X351663Y654828D01*
X351751Y654873D01*
X351838Y654923D01*
X351922Y654975D01*
X352005Y655031D01*
X352085Y655089D01*
X352163Y655151D01*
X352238Y655216D01*
X352311Y655284D01*
X352381Y655354D01*
X352449Y655427D01*
X352514Y655502D01*
X352576Y655580D01*
X352634Y655660D01*
X352690Y655743D01*
X352742Y655827D01*
X352792Y655914D01*
X352837Y656002D01*
X352880Y656092D01*
X352919Y656184D01*
X352954Y656277D01*
X352986Y656371D01*
X353014Y656466D01*
X353039Y656562D01*
X353060Y656660D01*
X353077Y656758D01*
X353090Y656856D01*
X353099Y656955D01*
X353105Y657055D01*
X353107Y657154D01*
X353107Y663646D01*
X353105Y663745D01*
X353099Y663845D01*
X353090Y663944D01*
X353077Y664042D01*
X353060Y664140D01*
X353039Y664238D01*
X353014Y664334D01*
X352986Y664429D01*
X352954Y664523D01*
X352919Y664616D01*
X352880Y664708D01*
X352837Y664798D01*
X352792Y664886D01*
X352742Y664973D01*
X352690Y665057D01*
X352634Y665140D01*
X352576Y665220D01*
X352514Y665298D01*
X352449Y665373D01*
X352381Y665446D01*
X352311Y665516D01*
X352238Y665584D01*
X352163Y665649D01*
X352085Y665711D01*
X352005Y665769D01*
X351922Y665825D01*
X351838Y665877D01*
X351751Y665927D01*
X351663Y665972D01*
X351573Y666015D01*
X351481Y666054D01*
X351388Y666089D01*
X351294Y666121D01*
X351199Y666149D01*
X351103Y666174D01*
X351005Y666195D01*
X350907Y666212D01*
X350809Y666225D01*
X350710Y666234D01*
X350610Y666240D01*
X350511Y666242D01*
X347914Y666242D01*
X340953Y659751D02*
X337058Y659751D01*
X340953Y659751D02*
X341052Y659753D01*
X341152Y659759D01*
X341251Y659768D01*
X341349Y659781D01*
X341447Y659798D01*
X341545Y659819D01*
X341641Y659844D01*
X341736Y659872D01*
X341830Y659904D01*
X341923Y659939D01*
X342015Y659978D01*
X342105Y660021D01*
X342193Y660066D01*
X342280Y660116D01*
X342364Y660168D01*
X342447Y660224D01*
X342527Y660282D01*
X342605Y660344D01*
X342680Y660409D01*
X342753Y660477D01*
X342823Y660547D01*
X342891Y660620D01*
X342956Y660695D01*
X343018Y660773D01*
X343076Y660853D01*
X343132Y660936D01*
X343184Y661020D01*
X343234Y661107D01*
X343279Y661195D01*
X343322Y661285D01*
X343361Y661377D01*
X343396Y661470D01*
X343428Y661564D01*
X343456Y661659D01*
X343481Y661755D01*
X343502Y661853D01*
X343519Y661951D01*
X343532Y662049D01*
X343541Y662148D01*
X343547Y662248D01*
X343549Y662347D01*
X343549Y662996D01*
X343550Y662996D02*
X343548Y663109D01*
X343542Y663222D01*
X343532Y663335D01*
X343518Y663448D01*
X343501Y663560D01*
X343479Y663671D01*
X343454Y663781D01*
X343424Y663891D01*
X343391Y663999D01*
X343354Y664106D01*
X343314Y664212D01*
X343269Y664316D01*
X343221Y664419D01*
X343170Y664520D01*
X343115Y664619D01*
X343057Y664716D01*
X342995Y664811D01*
X342930Y664904D01*
X342862Y664994D01*
X342791Y665082D01*
X342716Y665168D01*
X342639Y665251D01*
X342559Y665331D01*
X342476Y665408D01*
X342390Y665483D01*
X342302Y665554D01*
X342212Y665622D01*
X342119Y665687D01*
X342024Y665749D01*
X341927Y665807D01*
X341828Y665862D01*
X341727Y665913D01*
X341624Y665961D01*
X341520Y666006D01*
X341414Y666046D01*
X341307Y666083D01*
X341199Y666116D01*
X341089Y666146D01*
X340979Y666171D01*
X340868Y666193D01*
X340756Y666210D01*
X340643Y666224D01*
X340530Y666234D01*
X340417Y666240D01*
X340304Y666242D01*
X340191Y666240D01*
X340078Y666234D01*
X339965Y666224D01*
X339852Y666210D01*
X339740Y666193D01*
X339629Y666171D01*
X339519Y666146D01*
X339409Y666116D01*
X339301Y666083D01*
X339194Y666046D01*
X339088Y666006D01*
X338984Y665961D01*
X338881Y665913D01*
X338780Y665862D01*
X338681Y665807D01*
X338584Y665749D01*
X338489Y665687D01*
X338396Y665622D01*
X338306Y665554D01*
X338218Y665483D01*
X338132Y665408D01*
X338049Y665331D01*
X337969Y665251D01*
X337892Y665168D01*
X337817Y665082D01*
X337746Y664994D01*
X337678Y664904D01*
X337613Y664811D01*
X337551Y664716D01*
X337493Y664619D01*
X337438Y664520D01*
X337387Y664419D01*
X337339Y664316D01*
X337294Y664212D01*
X337254Y664106D01*
X337217Y663999D01*
X337184Y663891D01*
X337154Y663781D01*
X337129Y663671D01*
X337107Y663560D01*
X337090Y663448D01*
X337076Y663335D01*
X337066Y663222D01*
X337060Y663109D01*
X337058Y662996D01*
X337058Y659751D01*
X337060Y659608D01*
X337066Y659465D01*
X337076Y659322D01*
X337090Y659180D01*
X337107Y659038D01*
X337129Y658896D01*
X337154Y658755D01*
X337184Y658615D01*
X337217Y658476D01*
X337254Y658338D01*
X337295Y658201D01*
X337339Y658065D01*
X337388Y657930D01*
X337440Y657797D01*
X337495Y657665D01*
X337555Y657535D01*
X337618Y657406D01*
X337684Y657279D01*
X337754Y657155D01*
X337827Y657032D01*
X337904Y656911D01*
X337984Y656792D01*
X338067Y656676D01*
X338153Y656561D01*
X338242Y656450D01*
X338335Y656340D01*
X338430Y656234D01*
X338529Y656130D01*
X338630Y656029D01*
X338734Y655930D01*
X338840Y655835D01*
X338950Y655742D01*
X339061Y655653D01*
X339176Y655567D01*
X339292Y655484D01*
X339411Y655404D01*
X339532Y655327D01*
X339654Y655254D01*
X339779Y655184D01*
X339906Y655118D01*
X340035Y655055D01*
X340165Y654995D01*
X340297Y654940D01*
X340430Y654888D01*
X340565Y654839D01*
X340701Y654795D01*
X340838Y654754D01*
X340976Y654717D01*
X341115Y654684D01*
X341255Y654654D01*
X341396Y654629D01*
X341538Y654607D01*
X341680Y654590D01*
X341822Y654576D01*
X341965Y654566D01*
X342108Y654560D01*
X342251Y654558D01*
D13*
X350800Y438150D02*
X385800Y438150D01*
D14*
X387400Y421900D02*
X387400Y467100D01*
X387400Y421900D02*
X383300Y421900D01*
X383300Y467100D02*
X387400Y467100D01*
X349200Y467100D02*
X349200Y421900D01*
X349200Y467100D02*
X353300Y467100D01*
X353300Y421900D02*
X349200Y421900D01*
D15*
X394081Y464674D02*
X401447Y464674D01*
X401447Y466720D01*
X401445Y466809D01*
X401439Y466898D01*
X401429Y466987D01*
X401416Y467075D01*
X401399Y467163D01*
X401377Y467250D01*
X401352Y467335D01*
X401324Y467420D01*
X401291Y467503D01*
X401255Y467585D01*
X401216Y467665D01*
X401173Y467743D01*
X401127Y467819D01*
X401077Y467894D01*
X401024Y467966D01*
X400968Y468035D01*
X400909Y468102D01*
X400848Y468167D01*
X400783Y468228D01*
X400716Y468287D01*
X400647Y468343D01*
X400575Y468396D01*
X400500Y468446D01*
X400424Y468492D01*
X400346Y468535D01*
X400266Y468574D01*
X400184Y468610D01*
X400101Y468643D01*
X400016Y468671D01*
X399931Y468696D01*
X399844Y468718D01*
X399756Y468735D01*
X399668Y468748D01*
X399579Y468758D01*
X399490Y468764D01*
X399401Y468766D01*
X399401Y468767D02*
X396127Y468767D01*
X396127Y468766D02*
X396038Y468764D01*
X395949Y468758D01*
X395860Y468748D01*
X395772Y468735D01*
X395684Y468718D01*
X395597Y468696D01*
X395512Y468671D01*
X395427Y468643D01*
X395344Y468610D01*
X395262Y468574D01*
X395182Y468535D01*
X395104Y468492D01*
X395028Y468446D01*
X394953Y468396D01*
X394881Y468343D01*
X394812Y468287D01*
X394745Y468228D01*
X394680Y468167D01*
X394619Y468102D01*
X394560Y468035D01*
X394504Y467966D01*
X394451Y467894D01*
X394401Y467819D01*
X394355Y467743D01*
X394312Y467665D01*
X394273Y467585D01*
X394237Y467503D01*
X394204Y467420D01*
X394176Y467335D01*
X394151Y467250D01*
X394129Y467163D01*
X394112Y467075D01*
X394099Y466987D01*
X394089Y466898D01*
X394083Y466809D01*
X394081Y466720D01*
X394081Y464674D01*
X399810Y472233D02*
X401447Y474280D01*
X394081Y474280D01*
X394081Y476326D02*
X394081Y472233D01*
D16*
X280790Y1071730D02*
X280790Y1084730D01*
X270390Y1084730D02*
X270390Y1071730D01*
D14*
X274590Y1061230D02*
X274592Y1061293D01*
X274598Y1061355D01*
X274608Y1061417D01*
X274621Y1061479D01*
X274639Y1061539D01*
X274660Y1061598D01*
X274685Y1061656D01*
X274714Y1061712D01*
X274746Y1061766D01*
X274781Y1061818D01*
X274819Y1061867D01*
X274861Y1061915D01*
X274905Y1061959D01*
X274953Y1062001D01*
X275002Y1062039D01*
X275054Y1062074D01*
X275108Y1062106D01*
X275164Y1062135D01*
X275222Y1062160D01*
X275281Y1062181D01*
X275341Y1062199D01*
X275403Y1062212D01*
X275465Y1062222D01*
X275527Y1062228D01*
X275590Y1062230D01*
X275653Y1062228D01*
X275715Y1062222D01*
X275777Y1062212D01*
X275839Y1062199D01*
X275899Y1062181D01*
X275958Y1062160D01*
X276016Y1062135D01*
X276072Y1062106D01*
X276126Y1062074D01*
X276178Y1062039D01*
X276227Y1062001D01*
X276275Y1061959D01*
X276319Y1061915D01*
X276361Y1061867D01*
X276399Y1061818D01*
X276434Y1061766D01*
X276466Y1061712D01*
X276495Y1061656D01*
X276520Y1061598D01*
X276541Y1061539D01*
X276559Y1061479D01*
X276572Y1061417D01*
X276582Y1061355D01*
X276588Y1061293D01*
X276590Y1061230D01*
X276588Y1061167D01*
X276582Y1061105D01*
X276572Y1061043D01*
X276559Y1060981D01*
X276541Y1060921D01*
X276520Y1060862D01*
X276495Y1060804D01*
X276466Y1060748D01*
X276434Y1060694D01*
X276399Y1060642D01*
X276361Y1060593D01*
X276319Y1060545D01*
X276275Y1060501D01*
X276227Y1060459D01*
X276178Y1060421D01*
X276126Y1060386D01*
X276072Y1060354D01*
X276016Y1060325D01*
X275958Y1060300D01*
X275899Y1060279D01*
X275839Y1060261D01*
X275777Y1060248D01*
X275715Y1060238D01*
X275653Y1060232D01*
X275590Y1060230D01*
X275527Y1060232D01*
X275465Y1060238D01*
X275403Y1060248D01*
X275341Y1060261D01*
X275281Y1060279D01*
X275222Y1060300D01*
X275164Y1060325D01*
X275108Y1060354D01*
X275054Y1060386D01*
X275002Y1060421D01*
X274953Y1060459D01*
X274905Y1060501D01*
X274861Y1060545D01*
X274819Y1060593D01*
X274781Y1060642D01*
X274746Y1060694D01*
X274714Y1060748D01*
X274685Y1060804D01*
X274660Y1060862D01*
X274639Y1060921D01*
X274621Y1060981D01*
X274608Y1061043D01*
X274598Y1061105D01*
X274592Y1061167D01*
X274590Y1061230D01*
D11*
X265016Y1071184D02*
X260444Y1071184D01*
X265016Y1071184D02*
X265016Y1072454D01*
X265014Y1072523D01*
X265009Y1072591D01*
X264999Y1072659D01*
X264986Y1072727D01*
X264970Y1072794D01*
X264950Y1072860D01*
X264926Y1072924D01*
X264899Y1072987D01*
X264868Y1073049D01*
X264834Y1073109D01*
X264797Y1073167D01*
X264757Y1073223D01*
X264714Y1073276D01*
X264668Y1073327D01*
X264619Y1073376D01*
X264568Y1073422D01*
X264515Y1073465D01*
X264459Y1073505D01*
X264401Y1073542D01*
X264341Y1073576D01*
X264279Y1073607D01*
X264216Y1073634D01*
X264152Y1073658D01*
X264086Y1073678D01*
X264019Y1073694D01*
X263951Y1073707D01*
X263883Y1073717D01*
X263815Y1073722D01*
X263746Y1073724D01*
X261714Y1073724D01*
X261645Y1073722D01*
X261577Y1073717D01*
X261509Y1073707D01*
X261441Y1073694D01*
X261374Y1073678D01*
X261308Y1073658D01*
X261244Y1073634D01*
X261181Y1073607D01*
X261119Y1073576D01*
X261059Y1073542D01*
X261001Y1073505D01*
X260945Y1073465D01*
X260892Y1073422D01*
X260841Y1073376D01*
X260792Y1073327D01*
X260746Y1073276D01*
X260703Y1073223D01*
X260663Y1073167D01*
X260626Y1073109D01*
X260592Y1073049D01*
X260561Y1072987D01*
X260534Y1072924D01*
X260510Y1072860D01*
X260490Y1072794D01*
X260474Y1072727D01*
X260461Y1072659D01*
X260451Y1072591D01*
X260446Y1072523D01*
X260444Y1072454D01*
X260444Y1071184D01*
X264000Y1075908D02*
X265016Y1077178D01*
X260444Y1077178D01*
X260444Y1075908D02*
X260444Y1078448D01*
X262730Y1080480D02*
X262852Y1080482D01*
X262974Y1080488D01*
X263096Y1080498D01*
X263217Y1080512D01*
X263338Y1080529D01*
X263458Y1080551D01*
X263577Y1080576D01*
X263696Y1080606D01*
X263813Y1080639D01*
X263930Y1080676D01*
X264045Y1080717D01*
X264158Y1080761D01*
X264271Y1080809D01*
X264381Y1080861D01*
X264435Y1080881D01*
X264489Y1080905D01*
X264540Y1080933D01*
X264590Y1080963D01*
X264638Y1080996D01*
X264683Y1081033D01*
X264727Y1081072D01*
X264767Y1081113D01*
X264806Y1081157D01*
X264841Y1081204D01*
X264873Y1081252D01*
X264903Y1081302D01*
X264929Y1081355D01*
X264952Y1081408D01*
X264971Y1081463D01*
X264987Y1081519D01*
X265000Y1081576D01*
X265009Y1081634D01*
X265014Y1081692D01*
X265016Y1081750D01*
X265014Y1081808D01*
X265009Y1081866D01*
X265000Y1081924D01*
X264987Y1081981D01*
X264971Y1082037D01*
X264952Y1082092D01*
X264929Y1082145D01*
X264903Y1082198D01*
X264873Y1082248D01*
X264841Y1082296D01*
X264806Y1082343D01*
X264767Y1082387D01*
X264727Y1082428D01*
X264683Y1082467D01*
X264638Y1082504D01*
X264590Y1082537D01*
X264540Y1082567D01*
X264489Y1082595D01*
X264435Y1082619D01*
X264381Y1082639D01*
X264381Y1082640D02*
X264271Y1082692D01*
X264158Y1082740D01*
X264045Y1082784D01*
X263930Y1082825D01*
X263813Y1082862D01*
X263696Y1082895D01*
X263577Y1082925D01*
X263458Y1082950D01*
X263338Y1082972D01*
X263217Y1082989D01*
X263096Y1083003D01*
X262974Y1083013D01*
X262852Y1083019D01*
X262730Y1083021D01*
X262730Y1080480D02*
X262608Y1080482D01*
X262486Y1080488D01*
X262364Y1080498D01*
X262243Y1080512D01*
X262122Y1080529D01*
X262002Y1080551D01*
X261883Y1080576D01*
X261764Y1080606D01*
X261647Y1080639D01*
X261530Y1080676D01*
X261415Y1080717D01*
X261302Y1080761D01*
X261189Y1080809D01*
X261079Y1080861D01*
X261025Y1080881D01*
X260971Y1080905D01*
X260920Y1080933D01*
X260870Y1080963D01*
X260822Y1080996D01*
X260777Y1081033D01*
X260733Y1081072D01*
X260693Y1081113D01*
X260654Y1081157D01*
X260619Y1081204D01*
X260587Y1081252D01*
X260557Y1081302D01*
X260531Y1081355D01*
X260508Y1081408D01*
X260489Y1081463D01*
X260473Y1081519D01*
X260460Y1081576D01*
X260451Y1081634D01*
X260446Y1081692D01*
X260444Y1081750D01*
X261079Y1082640D02*
X261189Y1082692D01*
X261302Y1082740D01*
X261415Y1082784D01*
X261530Y1082825D01*
X261647Y1082862D01*
X261764Y1082895D01*
X261883Y1082925D01*
X262002Y1082950D01*
X262122Y1082972D01*
X262243Y1082989D01*
X262364Y1083003D01*
X262486Y1083013D01*
X262608Y1083019D01*
X262730Y1083021D01*
X261079Y1082639D02*
X261025Y1082619D01*
X260971Y1082595D01*
X260920Y1082567D01*
X260870Y1082537D01*
X260822Y1082504D01*
X260777Y1082467D01*
X260733Y1082428D01*
X260693Y1082387D01*
X260654Y1082343D01*
X260619Y1082296D01*
X260587Y1082248D01*
X260557Y1082198D01*
X260531Y1082145D01*
X260508Y1082092D01*
X260489Y1082037D01*
X260473Y1081981D01*
X260460Y1081924D01*
X260451Y1081866D01*
X260446Y1081808D01*
X260444Y1081750D01*
X261460Y1080734D02*
X264000Y1082766D01*
D16*
X1155700Y1397000D02*
X1206500Y1397000D01*
X1155700Y1397000D02*
X1155700Y1498600D01*
X1206500Y1498600D01*
X1206500Y1397000D01*
X1206500Y1625600D02*
X1155700Y1625600D01*
X1155700Y1727200D01*
X1206500Y1727200D01*
X1206500Y1625600D01*
X1206500Y1828800D02*
X1155700Y1828800D01*
X1155700Y1930400D01*
X1206500Y1930400D01*
X1206500Y1828800D01*
D13*
X376910Y1325880D02*
X341910Y1325880D01*
D14*
X378510Y1309630D02*
X378510Y1354830D01*
X378510Y1309630D02*
X374410Y1309630D01*
X374410Y1354830D02*
X378510Y1354830D01*
X340310Y1354830D02*
X340310Y1309630D01*
X340310Y1354830D02*
X344410Y1354830D01*
X344410Y1309630D02*
X340310Y1309630D01*
D15*
X385191Y1327004D02*
X392557Y1327004D01*
X392557Y1329050D01*
X392555Y1329139D01*
X392549Y1329228D01*
X392539Y1329317D01*
X392526Y1329405D01*
X392509Y1329493D01*
X392487Y1329580D01*
X392462Y1329665D01*
X392434Y1329750D01*
X392401Y1329833D01*
X392365Y1329915D01*
X392326Y1329995D01*
X392283Y1330073D01*
X392237Y1330149D01*
X392187Y1330224D01*
X392134Y1330296D01*
X392078Y1330365D01*
X392019Y1330432D01*
X391958Y1330497D01*
X391893Y1330558D01*
X391826Y1330617D01*
X391757Y1330673D01*
X391685Y1330726D01*
X391610Y1330776D01*
X391534Y1330822D01*
X391456Y1330865D01*
X391376Y1330904D01*
X391294Y1330940D01*
X391211Y1330973D01*
X391126Y1331001D01*
X391041Y1331026D01*
X390954Y1331048D01*
X390866Y1331065D01*
X390778Y1331078D01*
X390689Y1331088D01*
X390600Y1331094D01*
X390511Y1331096D01*
X390511Y1331097D02*
X387237Y1331097D01*
X387237Y1331096D02*
X387148Y1331094D01*
X387059Y1331088D01*
X386970Y1331078D01*
X386882Y1331065D01*
X386794Y1331048D01*
X386707Y1331026D01*
X386622Y1331001D01*
X386537Y1330973D01*
X386454Y1330940D01*
X386372Y1330904D01*
X386292Y1330865D01*
X386214Y1330822D01*
X386138Y1330776D01*
X386063Y1330726D01*
X385991Y1330673D01*
X385922Y1330617D01*
X385855Y1330558D01*
X385790Y1330497D01*
X385729Y1330432D01*
X385670Y1330365D01*
X385614Y1330296D01*
X385561Y1330224D01*
X385511Y1330149D01*
X385465Y1330073D01*
X385422Y1329995D01*
X385383Y1329915D01*
X385347Y1329833D01*
X385314Y1329750D01*
X385286Y1329665D01*
X385261Y1329580D01*
X385239Y1329493D01*
X385222Y1329405D01*
X385209Y1329317D01*
X385199Y1329228D01*
X385193Y1329139D01*
X385191Y1329050D01*
X385191Y1327004D01*
X385191Y1334563D02*
X385191Y1336610D01*
X385193Y1336699D01*
X385199Y1336788D01*
X385209Y1336877D01*
X385222Y1336965D01*
X385239Y1337053D01*
X385261Y1337140D01*
X385286Y1337225D01*
X385314Y1337310D01*
X385347Y1337393D01*
X385383Y1337475D01*
X385422Y1337555D01*
X385465Y1337633D01*
X385511Y1337709D01*
X385561Y1337784D01*
X385614Y1337856D01*
X385670Y1337925D01*
X385729Y1337992D01*
X385790Y1338057D01*
X385855Y1338118D01*
X385922Y1338177D01*
X385991Y1338233D01*
X386063Y1338286D01*
X386138Y1338336D01*
X386214Y1338382D01*
X386292Y1338425D01*
X386372Y1338464D01*
X386454Y1338500D01*
X386537Y1338533D01*
X386622Y1338561D01*
X386707Y1338586D01*
X386794Y1338608D01*
X386882Y1338625D01*
X386970Y1338638D01*
X387059Y1338648D01*
X387148Y1338654D01*
X387237Y1338656D01*
X387326Y1338654D01*
X387415Y1338648D01*
X387504Y1338638D01*
X387592Y1338625D01*
X387680Y1338608D01*
X387767Y1338586D01*
X387852Y1338561D01*
X387937Y1338533D01*
X388020Y1338500D01*
X388102Y1338464D01*
X388182Y1338425D01*
X388260Y1338382D01*
X388336Y1338336D01*
X388411Y1338286D01*
X388483Y1338233D01*
X388552Y1338177D01*
X388619Y1338118D01*
X388684Y1338057D01*
X388745Y1337992D01*
X388804Y1337925D01*
X388860Y1337856D01*
X388913Y1337784D01*
X388963Y1337709D01*
X389009Y1337633D01*
X389052Y1337555D01*
X389091Y1337475D01*
X389127Y1337393D01*
X389160Y1337310D01*
X389188Y1337225D01*
X389213Y1337140D01*
X389235Y1337053D01*
X389252Y1336965D01*
X389265Y1336877D01*
X389275Y1336788D01*
X389281Y1336699D01*
X389283Y1336610D01*
X392557Y1337019D02*
X392557Y1334563D01*
X392557Y1337019D02*
X392555Y1337098D01*
X392549Y1337177D01*
X392540Y1337256D01*
X392527Y1337334D01*
X392509Y1337411D01*
X392489Y1337487D01*
X392464Y1337562D01*
X392436Y1337636D01*
X392405Y1337709D01*
X392369Y1337780D01*
X392331Y1337849D01*
X392289Y1337916D01*
X392244Y1337981D01*
X392196Y1338044D01*
X392145Y1338105D01*
X392091Y1338162D01*
X392035Y1338218D01*
X391976Y1338270D01*
X391914Y1338320D01*
X391850Y1338366D01*
X391784Y1338410D01*
X391716Y1338450D01*
X391646Y1338486D01*
X391574Y1338520D01*
X391500Y1338550D01*
X391426Y1338576D01*
X391350Y1338599D01*
X391273Y1338617D01*
X391196Y1338633D01*
X391117Y1338644D01*
X391039Y1338652D01*
X390960Y1338656D01*
X390880Y1338656D01*
X390801Y1338652D01*
X390723Y1338644D01*
X390644Y1338633D01*
X390567Y1338617D01*
X390490Y1338599D01*
X390414Y1338576D01*
X390340Y1338550D01*
X390266Y1338520D01*
X390194Y1338486D01*
X390124Y1338450D01*
X390056Y1338410D01*
X389990Y1338366D01*
X389926Y1338320D01*
X389864Y1338270D01*
X389805Y1338218D01*
X389749Y1338162D01*
X389695Y1338105D01*
X389644Y1338044D01*
X389596Y1337981D01*
X389551Y1337916D01*
X389509Y1337849D01*
X389471Y1337780D01*
X389435Y1337709D01*
X389404Y1337636D01*
X389376Y1337562D01*
X389351Y1337487D01*
X389331Y1337411D01*
X389313Y1337334D01*
X389300Y1337256D01*
X389291Y1337177D01*
X389285Y1337098D01*
X389283Y1337019D01*
X389283Y1335382D01*
D16*
X1155700Y177800D02*
X1206500Y177800D01*
X1155700Y177800D02*
X1155700Y279400D01*
X1206500Y279400D01*
X1206500Y177800D01*
X1206500Y381000D02*
X1155700Y381000D01*
X1155700Y482600D01*
X1206500Y482600D01*
X1206500Y381000D01*
X1206500Y584200D02*
X1155700Y584200D01*
X1155700Y685800D01*
X1206500Y685800D01*
X1206500Y584200D01*
X1206500Y762000D02*
X1155700Y762000D01*
X1155700Y863600D01*
X1206500Y863600D01*
X1206500Y762000D01*
X339090Y1084580D02*
X303530Y1084580D01*
X303530Y1069340D01*
X339090Y1069340D01*
X339090Y1084580D01*
D11*
X332056Y1087214D02*
X332056Y1091786D01*
X330786Y1091786D01*
X330717Y1091784D01*
X330649Y1091779D01*
X330581Y1091769D01*
X330513Y1091756D01*
X330446Y1091740D01*
X330380Y1091720D01*
X330316Y1091696D01*
X330253Y1091669D01*
X330191Y1091638D01*
X330131Y1091604D01*
X330073Y1091567D01*
X330017Y1091527D01*
X329964Y1091484D01*
X329913Y1091438D01*
X329864Y1091389D01*
X329818Y1091338D01*
X329775Y1091285D01*
X329735Y1091229D01*
X329698Y1091171D01*
X329664Y1091111D01*
X329633Y1091049D01*
X329606Y1090986D01*
X329582Y1090922D01*
X329562Y1090856D01*
X329546Y1090789D01*
X329533Y1090721D01*
X329523Y1090653D01*
X329518Y1090585D01*
X329516Y1090516D01*
X329516Y1088484D01*
X329518Y1088415D01*
X329523Y1088347D01*
X329533Y1088279D01*
X329546Y1088211D01*
X329562Y1088144D01*
X329582Y1088078D01*
X329606Y1088014D01*
X329633Y1087951D01*
X329664Y1087889D01*
X329698Y1087829D01*
X329735Y1087771D01*
X329775Y1087715D01*
X329818Y1087662D01*
X329864Y1087611D01*
X329913Y1087562D01*
X329964Y1087516D01*
X330017Y1087473D01*
X330073Y1087433D01*
X330131Y1087396D01*
X330191Y1087362D01*
X330253Y1087331D01*
X330316Y1087304D01*
X330380Y1087280D01*
X330446Y1087260D01*
X330513Y1087244D01*
X330581Y1087231D01*
X330649Y1087221D01*
X330717Y1087216D01*
X330786Y1087214D01*
X332056Y1087214D01*
X327332Y1088484D02*
X327330Y1088554D01*
X327324Y1088624D01*
X327315Y1088693D01*
X327301Y1088762D01*
X327284Y1088830D01*
X327263Y1088896D01*
X327239Y1088962D01*
X327211Y1089026D01*
X327179Y1089088D01*
X327144Y1089149D01*
X327106Y1089208D01*
X327064Y1089264D01*
X327020Y1089318D01*
X326972Y1089370D01*
X326922Y1089418D01*
X326869Y1089464D01*
X326814Y1089507D01*
X326757Y1089547D01*
X326697Y1089584D01*
X326635Y1089617D01*
X326572Y1089647D01*
X326507Y1089673D01*
X326441Y1089696D01*
X326374Y1089715D01*
X326305Y1089730D01*
X326236Y1089742D01*
X326167Y1089750D01*
X326097Y1089754D01*
X326027Y1089754D01*
X325957Y1089750D01*
X325888Y1089742D01*
X325819Y1089730D01*
X325750Y1089715D01*
X325683Y1089696D01*
X325617Y1089673D01*
X325552Y1089647D01*
X325489Y1089617D01*
X325427Y1089584D01*
X325367Y1089547D01*
X325310Y1089507D01*
X325255Y1089464D01*
X325202Y1089418D01*
X325152Y1089370D01*
X325104Y1089318D01*
X325060Y1089264D01*
X325018Y1089208D01*
X324980Y1089149D01*
X324945Y1089088D01*
X324913Y1089026D01*
X324885Y1088962D01*
X324861Y1088896D01*
X324840Y1088830D01*
X324823Y1088762D01*
X324809Y1088693D01*
X324800Y1088624D01*
X324794Y1088554D01*
X324792Y1088484D01*
X324794Y1088414D01*
X324800Y1088344D01*
X324809Y1088275D01*
X324823Y1088206D01*
X324840Y1088138D01*
X324861Y1088072D01*
X324885Y1088006D01*
X324913Y1087942D01*
X324945Y1087880D01*
X324980Y1087819D01*
X325018Y1087760D01*
X325060Y1087704D01*
X325104Y1087650D01*
X325152Y1087598D01*
X325202Y1087550D01*
X325255Y1087504D01*
X325310Y1087461D01*
X325367Y1087421D01*
X325427Y1087384D01*
X325489Y1087351D01*
X325552Y1087321D01*
X325617Y1087295D01*
X325683Y1087272D01*
X325750Y1087253D01*
X325819Y1087238D01*
X325888Y1087226D01*
X325957Y1087218D01*
X326027Y1087214D01*
X326097Y1087214D01*
X326167Y1087218D01*
X326236Y1087226D01*
X326305Y1087238D01*
X326374Y1087253D01*
X326441Y1087272D01*
X326507Y1087295D01*
X326572Y1087321D01*
X326635Y1087351D01*
X326697Y1087384D01*
X326757Y1087421D01*
X326814Y1087461D01*
X326869Y1087504D01*
X326922Y1087550D01*
X326972Y1087598D01*
X327020Y1087650D01*
X327064Y1087704D01*
X327106Y1087760D01*
X327144Y1087819D01*
X327179Y1087880D01*
X327211Y1087942D01*
X327239Y1088006D01*
X327263Y1088072D01*
X327284Y1088138D01*
X327301Y1088206D01*
X327315Y1088275D01*
X327324Y1088344D01*
X327330Y1088414D01*
X327332Y1088484D01*
X327078Y1090770D02*
X327076Y1090833D01*
X327070Y1090895D01*
X327061Y1090957D01*
X327047Y1091018D01*
X327030Y1091078D01*
X327009Y1091137D01*
X326985Y1091195D01*
X326957Y1091251D01*
X326926Y1091305D01*
X326891Y1091357D01*
X326854Y1091407D01*
X326813Y1091454D01*
X326769Y1091499D01*
X326723Y1091542D01*
X326674Y1091581D01*
X326623Y1091617D01*
X326570Y1091650D01*
X326515Y1091679D01*
X326458Y1091706D01*
X326400Y1091728D01*
X326340Y1091747D01*
X326279Y1091762D01*
X326218Y1091774D01*
X326156Y1091782D01*
X326093Y1091786D01*
X326031Y1091786D01*
X325968Y1091782D01*
X325906Y1091774D01*
X325845Y1091762D01*
X325784Y1091747D01*
X325724Y1091728D01*
X325666Y1091706D01*
X325609Y1091679D01*
X325554Y1091650D01*
X325501Y1091617D01*
X325450Y1091581D01*
X325401Y1091542D01*
X325355Y1091499D01*
X325311Y1091454D01*
X325270Y1091407D01*
X325233Y1091357D01*
X325198Y1091305D01*
X325167Y1091251D01*
X325139Y1091195D01*
X325115Y1091137D01*
X325094Y1091078D01*
X325077Y1091018D01*
X325063Y1090957D01*
X325054Y1090895D01*
X325048Y1090833D01*
X325046Y1090770D01*
X325048Y1090707D01*
X325054Y1090645D01*
X325063Y1090583D01*
X325077Y1090522D01*
X325094Y1090462D01*
X325115Y1090403D01*
X325139Y1090345D01*
X325167Y1090289D01*
X325198Y1090235D01*
X325233Y1090183D01*
X325270Y1090133D01*
X325311Y1090086D01*
X325355Y1090041D01*
X325401Y1089998D01*
X325450Y1089959D01*
X325501Y1089923D01*
X325554Y1089890D01*
X325609Y1089861D01*
X325666Y1089834D01*
X325724Y1089812D01*
X325784Y1089793D01*
X325845Y1089778D01*
X325906Y1089766D01*
X325968Y1089758D01*
X326031Y1089754D01*
X326093Y1089754D01*
X326156Y1089758D01*
X326218Y1089766D01*
X326279Y1089778D01*
X326340Y1089793D01*
X326400Y1089812D01*
X326458Y1089834D01*
X326515Y1089861D01*
X326570Y1089890D01*
X326623Y1089923D01*
X326674Y1089959D01*
X326723Y1089998D01*
X326769Y1090041D01*
X326813Y1090086D01*
X326854Y1090133D01*
X326891Y1090183D01*
X326926Y1090235D01*
X326957Y1090289D01*
X326985Y1090345D01*
X327009Y1090403D01*
X327030Y1090462D01*
X327047Y1090522D01*
X327061Y1090583D01*
X327070Y1090645D01*
X327076Y1090707D01*
X327078Y1090770D01*
D16*
X350910Y1107290D02*
X367910Y1107290D01*
X367910Y1120290D01*
X350910Y1120290D01*
X350910Y1107290D01*
X363410Y1107790D02*
X363410Y1119790D01*
X362410Y1119790D01*
X362410Y1107790D01*
D11*
X361628Y1125364D02*
X361628Y1129936D01*
X360358Y1129936D01*
X360289Y1129934D01*
X360221Y1129929D01*
X360153Y1129919D01*
X360085Y1129906D01*
X360018Y1129890D01*
X359952Y1129870D01*
X359888Y1129846D01*
X359825Y1129819D01*
X359763Y1129788D01*
X359703Y1129754D01*
X359645Y1129717D01*
X359589Y1129677D01*
X359536Y1129634D01*
X359485Y1129588D01*
X359436Y1129539D01*
X359390Y1129488D01*
X359347Y1129435D01*
X359307Y1129379D01*
X359270Y1129321D01*
X359236Y1129261D01*
X359205Y1129199D01*
X359178Y1129136D01*
X359154Y1129072D01*
X359134Y1129006D01*
X359118Y1128939D01*
X359105Y1128871D01*
X359095Y1128803D01*
X359090Y1128735D01*
X359088Y1128666D01*
X359088Y1126634D01*
X359090Y1126565D01*
X359095Y1126497D01*
X359105Y1126429D01*
X359118Y1126361D01*
X359134Y1126294D01*
X359154Y1126228D01*
X359178Y1126164D01*
X359205Y1126101D01*
X359236Y1126039D01*
X359270Y1125979D01*
X359307Y1125921D01*
X359347Y1125865D01*
X359390Y1125812D01*
X359436Y1125761D01*
X359485Y1125712D01*
X359536Y1125666D01*
X359589Y1125623D01*
X359645Y1125583D01*
X359703Y1125546D01*
X359763Y1125512D01*
X359825Y1125481D01*
X359888Y1125454D01*
X359952Y1125430D01*
X360018Y1125410D01*
X360085Y1125394D01*
X360153Y1125381D01*
X360221Y1125371D01*
X360289Y1125366D01*
X360358Y1125364D01*
X361628Y1125364D01*
X355888Y1127396D02*
X354364Y1127396D01*
X355888Y1127396D02*
X355949Y1127398D01*
X356010Y1127403D01*
X356071Y1127413D01*
X356131Y1127426D01*
X356190Y1127442D01*
X356248Y1127462D01*
X356305Y1127486D01*
X356360Y1127512D01*
X356414Y1127543D01*
X356465Y1127576D01*
X356515Y1127612D01*
X356562Y1127652D01*
X356606Y1127694D01*
X356648Y1127738D01*
X356688Y1127785D01*
X356724Y1127835D01*
X356757Y1127886D01*
X356788Y1127940D01*
X356814Y1127995D01*
X356838Y1128052D01*
X356858Y1128110D01*
X356874Y1128169D01*
X356887Y1128229D01*
X356897Y1128290D01*
X356902Y1128351D01*
X356904Y1128412D01*
X356904Y1128666D01*
X356902Y1128736D01*
X356896Y1128806D01*
X356887Y1128875D01*
X356873Y1128944D01*
X356856Y1129012D01*
X356835Y1129078D01*
X356811Y1129144D01*
X356783Y1129208D01*
X356751Y1129270D01*
X356716Y1129331D01*
X356678Y1129390D01*
X356636Y1129446D01*
X356592Y1129500D01*
X356544Y1129552D01*
X356494Y1129600D01*
X356441Y1129646D01*
X356386Y1129689D01*
X356329Y1129729D01*
X356269Y1129766D01*
X356207Y1129799D01*
X356144Y1129829D01*
X356079Y1129855D01*
X356013Y1129878D01*
X355946Y1129897D01*
X355877Y1129912D01*
X355808Y1129924D01*
X355739Y1129932D01*
X355669Y1129936D01*
X355599Y1129936D01*
X355529Y1129932D01*
X355460Y1129924D01*
X355391Y1129912D01*
X355322Y1129897D01*
X355255Y1129878D01*
X355189Y1129855D01*
X355124Y1129829D01*
X355061Y1129799D01*
X354999Y1129766D01*
X354939Y1129729D01*
X354882Y1129689D01*
X354827Y1129646D01*
X354774Y1129600D01*
X354724Y1129552D01*
X354676Y1129500D01*
X354632Y1129446D01*
X354590Y1129390D01*
X354552Y1129331D01*
X354517Y1129270D01*
X354485Y1129208D01*
X354457Y1129144D01*
X354433Y1129078D01*
X354412Y1129012D01*
X354395Y1128944D01*
X354381Y1128875D01*
X354372Y1128806D01*
X354366Y1128736D01*
X354364Y1128666D01*
X354364Y1127396D01*
X354366Y1127307D01*
X354372Y1127219D01*
X354381Y1127131D01*
X354395Y1127043D01*
X354412Y1126956D01*
X354433Y1126870D01*
X354458Y1126785D01*
X354487Y1126701D01*
X354519Y1126618D01*
X354554Y1126537D01*
X354594Y1126458D01*
X354636Y1126380D01*
X354682Y1126304D01*
X354731Y1126230D01*
X354784Y1126159D01*
X354839Y1126090D01*
X354898Y1126023D01*
X354959Y1125959D01*
X355023Y1125898D01*
X355090Y1125839D01*
X355159Y1125784D01*
X355230Y1125731D01*
X355304Y1125682D01*
X355380Y1125636D01*
X355458Y1125594D01*
X355537Y1125554D01*
X355618Y1125519D01*
X355701Y1125487D01*
X355785Y1125458D01*
X355870Y1125433D01*
X355956Y1125412D01*
X356043Y1125395D01*
X356131Y1125381D01*
X356219Y1125372D01*
X356307Y1125366D01*
X356396Y1125364D01*
D16*
X1155700Y1206500D02*
X1206500Y1206500D01*
X1155700Y1206500D02*
X1155700Y1308100D01*
X1206500Y1308100D01*
X1206500Y1206500D01*
X293350Y1119400D02*
X285600Y1119400D01*
X285600Y1111100D01*
X285600Y1098700D02*
X285600Y1090400D01*
X293350Y1090400D01*
D14*
X313600Y1114400D02*
X313602Y1114463D01*
X313608Y1114525D01*
X313618Y1114587D01*
X313631Y1114649D01*
X313649Y1114709D01*
X313670Y1114768D01*
X313695Y1114826D01*
X313724Y1114882D01*
X313756Y1114936D01*
X313791Y1114988D01*
X313829Y1115037D01*
X313871Y1115085D01*
X313915Y1115129D01*
X313963Y1115171D01*
X314012Y1115209D01*
X314064Y1115244D01*
X314118Y1115276D01*
X314174Y1115305D01*
X314232Y1115330D01*
X314291Y1115351D01*
X314351Y1115369D01*
X314413Y1115382D01*
X314475Y1115392D01*
X314537Y1115398D01*
X314600Y1115400D01*
X314663Y1115398D01*
X314725Y1115392D01*
X314787Y1115382D01*
X314849Y1115369D01*
X314909Y1115351D01*
X314968Y1115330D01*
X315026Y1115305D01*
X315082Y1115276D01*
X315136Y1115244D01*
X315188Y1115209D01*
X315237Y1115171D01*
X315285Y1115129D01*
X315329Y1115085D01*
X315371Y1115037D01*
X315409Y1114988D01*
X315444Y1114936D01*
X315476Y1114882D01*
X315505Y1114826D01*
X315530Y1114768D01*
X315551Y1114709D01*
X315569Y1114649D01*
X315582Y1114587D01*
X315592Y1114525D01*
X315598Y1114463D01*
X315600Y1114400D01*
X315598Y1114337D01*
X315592Y1114275D01*
X315582Y1114213D01*
X315569Y1114151D01*
X315551Y1114091D01*
X315530Y1114032D01*
X315505Y1113974D01*
X315476Y1113918D01*
X315444Y1113864D01*
X315409Y1113812D01*
X315371Y1113763D01*
X315329Y1113715D01*
X315285Y1113671D01*
X315237Y1113629D01*
X315188Y1113591D01*
X315136Y1113556D01*
X315082Y1113524D01*
X315026Y1113495D01*
X314968Y1113470D01*
X314909Y1113449D01*
X314849Y1113431D01*
X314787Y1113418D01*
X314725Y1113408D01*
X314663Y1113402D01*
X314600Y1113400D01*
X314537Y1113402D01*
X314475Y1113408D01*
X314413Y1113418D01*
X314351Y1113431D01*
X314291Y1113449D01*
X314232Y1113470D01*
X314174Y1113495D01*
X314118Y1113524D01*
X314064Y1113556D01*
X314012Y1113591D01*
X313963Y1113629D01*
X313915Y1113671D01*
X313871Y1113715D01*
X313829Y1113763D01*
X313791Y1113812D01*
X313756Y1113864D01*
X313724Y1113918D01*
X313695Y1113974D01*
X313670Y1114032D01*
X313649Y1114091D01*
X313631Y1114151D01*
X313618Y1114213D01*
X313608Y1114275D01*
X313602Y1114337D01*
X313600Y1114400D01*
D16*
X298600Y1108200D02*
X298600Y1101600D01*
D11*
X314346Y1123924D02*
X314346Y1125956D01*
X314344Y1126026D01*
X314338Y1126096D01*
X314329Y1126165D01*
X314315Y1126234D01*
X314298Y1126302D01*
X314277Y1126368D01*
X314253Y1126434D01*
X314225Y1126498D01*
X314193Y1126560D01*
X314158Y1126621D01*
X314120Y1126680D01*
X314078Y1126736D01*
X314034Y1126790D01*
X313986Y1126842D01*
X313936Y1126890D01*
X313883Y1126936D01*
X313828Y1126979D01*
X313771Y1127019D01*
X313711Y1127056D01*
X313649Y1127089D01*
X313586Y1127119D01*
X313521Y1127145D01*
X313455Y1127168D01*
X313388Y1127187D01*
X313319Y1127202D01*
X313250Y1127214D01*
X313181Y1127222D01*
X313111Y1127226D01*
X313041Y1127226D01*
X312971Y1127222D01*
X312902Y1127214D01*
X312833Y1127202D01*
X312764Y1127187D01*
X312697Y1127168D01*
X312631Y1127145D01*
X312566Y1127119D01*
X312503Y1127089D01*
X312441Y1127056D01*
X312381Y1127019D01*
X312324Y1126979D01*
X312269Y1126936D01*
X312216Y1126890D01*
X312166Y1126842D01*
X312118Y1126790D01*
X312074Y1126736D01*
X312032Y1126680D01*
X311994Y1126621D01*
X311959Y1126560D01*
X311927Y1126498D01*
X311899Y1126434D01*
X311875Y1126368D01*
X311854Y1126302D01*
X311837Y1126234D01*
X311823Y1126165D01*
X311814Y1126096D01*
X311808Y1126026D01*
X311806Y1125956D01*
X311806Y1123924D01*
X311808Y1123854D01*
X311814Y1123784D01*
X311823Y1123715D01*
X311837Y1123646D01*
X311854Y1123578D01*
X311875Y1123512D01*
X311899Y1123446D01*
X311927Y1123382D01*
X311959Y1123320D01*
X311994Y1123259D01*
X312032Y1123200D01*
X312074Y1123144D01*
X312118Y1123090D01*
X312166Y1123038D01*
X312216Y1122990D01*
X312269Y1122944D01*
X312324Y1122901D01*
X312381Y1122861D01*
X312441Y1122824D01*
X312503Y1122791D01*
X312566Y1122761D01*
X312631Y1122735D01*
X312697Y1122712D01*
X312764Y1122693D01*
X312833Y1122678D01*
X312902Y1122666D01*
X312971Y1122658D01*
X313041Y1122654D01*
X313111Y1122654D01*
X313181Y1122658D01*
X313250Y1122666D01*
X313319Y1122678D01*
X313388Y1122693D01*
X313455Y1122712D01*
X313521Y1122735D01*
X313586Y1122761D01*
X313649Y1122791D01*
X313711Y1122824D01*
X313771Y1122861D01*
X313828Y1122901D01*
X313883Y1122944D01*
X313936Y1122990D01*
X313986Y1123038D01*
X314034Y1123090D01*
X314078Y1123144D01*
X314120Y1123200D01*
X314158Y1123259D01*
X314193Y1123320D01*
X314225Y1123382D01*
X314253Y1123446D01*
X314277Y1123512D01*
X314298Y1123578D01*
X314315Y1123646D01*
X314329Y1123715D01*
X314338Y1123784D01*
X314344Y1123854D01*
X314346Y1123924D01*
X312314Y1123670D02*
X311298Y1122654D01*
X309922Y1123670D02*
X308906Y1127226D01*
X309922Y1123670D02*
X307382Y1123670D01*
X308144Y1124686D02*
X308144Y1122654D01*
D12*
X378000Y1088740D02*
X384000Y1088740D01*
X384000Y1100740D02*
X378000Y1100740D01*
D11*
X385285Y1086231D02*
X385285Y1081659D01*
X385285Y1086231D02*
X384015Y1086231D01*
X383945Y1086229D01*
X383875Y1086223D01*
X383806Y1086214D01*
X383737Y1086200D01*
X383669Y1086183D01*
X383603Y1086162D01*
X383537Y1086138D01*
X383473Y1086110D01*
X383411Y1086078D01*
X383350Y1086043D01*
X383291Y1086005D01*
X383235Y1085963D01*
X383181Y1085919D01*
X383129Y1085871D01*
X383081Y1085821D01*
X383035Y1085768D01*
X382992Y1085713D01*
X382952Y1085656D01*
X382915Y1085596D01*
X382882Y1085534D01*
X382852Y1085471D01*
X382826Y1085406D01*
X382803Y1085340D01*
X382784Y1085273D01*
X382769Y1085204D01*
X382757Y1085135D01*
X382749Y1085066D01*
X382745Y1084996D01*
X382745Y1084926D01*
X382749Y1084856D01*
X382757Y1084787D01*
X382769Y1084718D01*
X382784Y1084649D01*
X382803Y1084582D01*
X382826Y1084516D01*
X382852Y1084451D01*
X382882Y1084388D01*
X382915Y1084326D01*
X382952Y1084266D01*
X382992Y1084209D01*
X383035Y1084154D01*
X383081Y1084101D01*
X383129Y1084051D01*
X383181Y1084003D01*
X383235Y1083959D01*
X383291Y1083917D01*
X383350Y1083879D01*
X383411Y1083844D01*
X383473Y1083812D01*
X383537Y1083784D01*
X383603Y1083760D01*
X383669Y1083739D01*
X383737Y1083722D01*
X383806Y1083708D01*
X383875Y1083699D01*
X383945Y1083693D01*
X384015Y1083691D01*
X385285Y1083691D01*
X383761Y1083691D02*
X382745Y1081659D01*
X380746Y1081659D02*
X379222Y1081659D01*
X379161Y1081661D01*
X379100Y1081666D01*
X379039Y1081676D01*
X378979Y1081689D01*
X378920Y1081705D01*
X378862Y1081725D01*
X378805Y1081749D01*
X378750Y1081775D01*
X378696Y1081806D01*
X378645Y1081839D01*
X378595Y1081875D01*
X378548Y1081915D01*
X378504Y1081957D01*
X378462Y1082001D01*
X378422Y1082048D01*
X378386Y1082098D01*
X378353Y1082149D01*
X378322Y1082203D01*
X378296Y1082258D01*
X378272Y1082315D01*
X378252Y1082373D01*
X378236Y1082432D01*
X378223Y1082492D01*
X378213Y1082553D01*
X378208Y1082614D01*
X378206Y1082675D01*
X378206Y1083183D01*
X378208Y1083244D01*
X378213Y1083305D01*
X378223Y1083366D01*
X378236Y1083426D01*
X378252Y1083485D01*
X378272Y1083543D01*
X378296Y1083600D01*
X378322Y1083655D01*
X378353Y1083709D01*
X378386Y1083760D01*
X378422Y1083810D01*
X378462Y1083857D01*
X378504Y1083901D01*
X378548Y1083943D01*
X378595Y1083983D01*
X378645Y1084019D01*
X378696Y1084052D01*
X378750Y1084083D01*
X378805Y1084109D01*
X378862Y1084133D01*
X378920Y1084153D01*
X378979Y1084169D01*
X379039Y1084182D01*
X379100Y1084192D01*
X379161Y1084197D01*
X379222Y1084199D01*
X380746Y1084199D01*
X380746Y1086231D01*
X378206Y1086231D01*
X375158Y1086231D02*
X376174Y1082675D01*
X373634Y1082675D01*
X374396Y1083691D02*
X374396Y1081659D01*
D12*
X350870Y1082850D02*
X350870Y1088850D01*
X362870Y1088850D02*
X362870Y1082850D01*
D11*
X345821Y1085375D02*
X341249Y1085375D01*
X345821Y1085375D02*
X345821Y1086645D01*
X345819Y1086715D01*
X345813Y1086785D01*
X345804Y1086854D01*
X345790Y1086923D01*
X345773Y1086991D01*
X345752Y1087057D01*
X345728Y1087123D01*
X345700Y1087187D01*
X345668Y1087249D01*
X345633Y1087310D01*
X345595Y1087369D01*
X345553Y1087425D01*
X345509Y1087479D01*
X345461Y1087531D01*
X345411Y1087579D01*
X345358Y1087625D01*
X345303Y1087668D01*
X345246Y1087708D01*
X345186Y1087745D01*
X345124Y1087778D01*
X345061Y1087808D01*
X344996Y1087834D01*
X344930Y1087857D01*
X344863Y1087876D01*
X344794Y1087891D01*
X344725Y1087903D01*
X344656Y1087911D01*
X344586Y1087915D01*
X344516Y1087915D01*
X344446Y1087911D01*
X344377Y1087903D01*
X344308Y1087891D01*
X344239Y1087876D01*
X344172Y1087857D01*
X344106Y1087834D01*
X344041Y1087808D01*
X343978Y1087778D01*
X343916Y1087745D01*
X343856Y1087708D01*
X343799Y1087668D01*
X343744Y1087625D01*
X343691Y1087579D01*
X343641Y1087531D01*
X343593Y1087479D01*
X343549Y1087425D01*
X343507Y1087369D01*
X343469Y1087310D01*
X343434Y1087249D01*
X343402Y1087187D01*
X343374Y1087123D01*
X343350Y1087057D01*
X343329Y1086991D01*
X343312Y1086923D01*
X343298Y1086854D01*
X343289Y1086785D01*
X343283Y1086715D01*
X343281Y1086645D01*
X343281Y1085375D01*
X343281Y1086899D02*
X341249Y1087915D01*
X341249Y1089914D02*
X341249Y1091438D01*
X341251Y1091499D01*
X341256Y1091560D01*
X341266Y1091621D01*
X341279Y1091681D01*
X341295Y1091740D01*
X341315Y1091798D01*
X341339Y1091855D01*
X341365Y1091910D01*
X341396Y1091964D01*
X341429Y1092015D01*
X341465Y1092065D01*
X341505Y1092112D01*
X341547Y1092156D01*
X341591Y1092198D01*
X341638Y1092238D01*
X341688Y1092274D01*
X341739Y1092307D01*
X341793Y1092338D01*
X341848Y1092364D01*
X341905Y1092388D01*
X341963Y1092408D01*
X342022Y1092424D01*
X342082Y1092437D01*
X342143Y1092447D01*
X342204Y1092452D01*
X342265Y1092454D01*
X342773Y1092454D01*
X342834Y1092452D01*
X342895Y1092447D01*
X342956Y1092437D01*
X343016Y1092424D01*
X343075Y1092408D01*
X343133Y1092388D01*
X343190Y1092364D01*
X343245Y1092338D01*
X343299Y1092307D01*
X343350Y1092274D01*
X343400Y1092238D01*
X343447Y1092198D01*
X343491Y1092156D01*
X343533Y1092112D01*
X343573Y1092065D01*
X343609Y1092015D01*
X343642Y1091964D01*
X343673Y1091910D01*
X343699Y1091855D01*
X343723Y1091798D01*
X343743Y1091740D01*
X343759Y1091681D01*
X343772Y1091621D01*
X343782Y1091560D01*
X343787Y1091499D01*
X343789Y1091438D01*
X343789Y1089914D01*
X345821Y1089914D01*
X345821Y1092454D01*
X343789Y1094486D02*
X343789Y1096010D01*
X343787Y1096071D01*
X343782Y1096132D01*
X343772Y1096193D01*
X343759Y1096253D01*
X343743Y1096312D01*
X343723Y1096370D01*
X343699Y1096427D01*
X343673Y1096482D01*
X343642Y1096536D01*
X343609Y1096587D01*
X343573Y1096637D01*
X343533Y1096684D01*
X343491Y1096728D01*
X343447Y1096770D01*
X343400Y1096810D01*
X343350Y1096846D01*
X343299Y1096879D01*
X343245Y1096910D01*
X343190Y1096936D01*
X343133Y1096960D01*
X343075Y1096980D01*
X343016Y1096996D01*
X342956Y1097009D01*
X342895Y1097019D01*
X342834Y1097024D01*
X342773Y1097026D01*
X342519Y1097026D01*
X342449Y1097024D01*
X342379Y1097018D01*
X342310Y1097009D01*
X342241Y1096995D01*
X342173Y1096978D01*
X342107Y1096957D01*
X342041Y1096933D01*
X341977Y1096905D01*
X341915Y1096873D01*
X341854Y1096838D01*
X341795Y1096800D01*
X341739Y1096758D01*
X341685Y1096714D01*
X341633Y1096666D01*
X341585Y1096616D01*
X341539Y1096563D01*
X341496Y1096508D01*
X341456Y1096451D01*
X341419Y1096391D01*
X341386Y1096329D01*
X341356Y1096266D01*
X341330Y1096201D01*
X341307Y1096135D01*
X341288Y1096068D01*
X341273Y1095999D01*
X341261Y1095930D01*
X341253Y1095861D01*
X341249Y1095791D01*
X341249Y1095721D01*
X341253Y1095651D01*
X341261Y1095582D01*
X341273Y1095513D01*
X341288Y1095444D01*
X341307Y1095377D01*
X341330Y1095311D01*
X341356Y1095246D01*
X341386Y1095183D01*
X341419Y1095121D01*
X341456Y1095061D01*
X341496Y1095004D01*
X341539Y1094949D01*
X341585Y1094896D01*
X341633Y1094846D01*
X341685Y1094798D01*
X341739Y1094754D01*
X341795Y1094712D01*
X341854Y1094674D01*
X341915Y1094639D01*
X341977Y1094607D01*
X342041Y1094579D01*
X342107Y1094555D01*
X342173Y1094534D01*
X342241Y1094517D01*
X342310Y1094503D01*
X342379Y1094494D01*
X342449Y1094488D01*
X342519Y1094486D01*
X343789Y1094486D01*
X343878Y1094488D01*
X343966Y1094494D01*
X344054Y1094503D01*
X344142Y1094517D01*
X344229Y1094534D01*
X344315Y1094555D01*
X344400Y1094580D01*
X344484Y1094609D01*
X344567Y1094641D01*
X344648Y1094676D01*
X344727Y1094716D01*
X344805Y1094758D01*
X344881Y1094804D01*
X344955Y1094853D01*
X345026Y1094906D01*
X345095Y1094961D01*
X345162Y1095020D01*
X345226Y1095081D01*
X345287Y1095145D01*
X345346Y1095212D01*
X345401Y1095281D01*
X345454Y1095352D01*
X345503Y1095426D01*
X345549Y1095502D01*
X345591Y1095580D01*
X345631Y1095659D01*
X345666Y1095740D01*
X345698Y1095823D01*
X345727Y1095907D01*
X345752Y1095992D01*
X345773Y1096078D01*
X345790Y1096165D01*
X345804Y1096253D01*
X345813Y1096341D01*
X345819Y1096429D01*
X345821Y1096518D01*
D10*
X291592Y793242D02*
X291592Y781558D01*
X291592Y793242D02*
X288346Y793242D01*
X288233Y793240D01*
X288120Y793234D01*
X288007Y793224D01*
X287894Y793210D01*
X287782Y793193D01*
X287671Y793171D01*
X287561Y793146D01*
X287451Y793116D01*
X287343Y793083D01*
X287236Y793046D01*
X287130Y793006D01*
X287026Y792961D01*
X286923Y792913D01*
X286822Y792862D01*
X286723Y792807D01*
X286626Y792749D01*
X286531Y792687D01*
X286438Y792622D01*
X286348Y792554D01*
X286260Y792483D01*
X286174Y792408D01*
X286091Y792331D01*
X286011Y792251D01*
X285934Y792168D01*
X285859Y792082D01*
X285788Y791994D01*
X285720Y791904D01*
X285655Y791811D01*
X285593Y791716D01*
X285535Y791619D01*
X285480Y791520D01*
X285429Y791419D01*
X285381Y791316D01*
X285336Y791212D01*
X285296Y791106D01*
X285259Y790999D01*
X285226Y790891D01*
X285196Y790781D01*
X285171Y790671D01*
X285149Y790560D01*
X285132Y790448D01*
X285118Y790335D01*
X285108Y790222D01*
X285102Y790109D01*
X285100Y789996D01*
X285102Y789883D01*
X285108Y789770D01*
X285118Y789657D01*
X285132Y789544D01*
X285149Y789432D01*
X285171Y789321D01*
X285196Y789211D01*
X285226Y789101D01*
X285259Y788993D01*
X285296Y788886D01*
X285336Y788780D01*
X285381Y788676D01*
X285429Y788573D01*
X285480Y788472D01*
X285535Y788373D01*
X285593Y788276D01*
X285655Y788181D01*
X285720Y788088D01*
X285788Y787998D01*
X285859Y787910D01*
X285934Y787824D01*
X286011Y787741D01*
X286091Y787661D01*
X286174Y787584D01*
X286260Y787509D01*
X286348Y787438D01*
X286438Y787370D01*
X286531Y787305D01*
X286626Y787243D01*
X286723Y787185D01*
X286822Y787130D01*
X286923Y787079D01*
X287026Y787031D01*
X287130Y786986D01*
X287236Y786946D01*
X287343Y786909D01*
X287451Y786876D01*
X287561Y786846D01*
X287671Y786821D01*
X287782Y786799D01*
X287894Y786782D01*
X288007Y786768D01*
X288120Y786758D01*
X288233Y786752D01*
X288346Y786750D01*
X288346Y786751D02*
X291592Y786751D01*
X287697Y786751D02*
X285101Y781558D01*
X280236Y790646D02*
X276990Y793242D01*
X276990Y781558D01*
X273745Y781558D02*
X280236Y781558D01*
X268806Y790646D02*
X265560Y793242D01*
X265560Y781558D01*
X262315Y781558D02*
X268806Y781558D01*
X794258Y432308D02*
X805942Y432308D01*
X805942Y435554D01*
X805940Y435667D01*
X805934Y435780D01*
X805924Y435893D01*
X805910Y436006D01*
X805893Y436118D01*
X805871Y436229D01*
X805846Y436339D01*
X805816Y436449D01*
X805783Y436557D01*
X805746Y436664D01*
X805706Y436770D01*
X805661Y436874D01*
X805613Y436977D01*
X805562Y437078D01*
X805507Y437177D01*
X805449Y437274D01*
X805387Y437369D01*
X805322Y437462D01*
X805254Y437552D01*
X805183Y437640D01*
X805108Y437726D01*
X805031Y437809D01*
X804951Y437889D01*
X804868Y437966D01*
X804782Y438041D01*
X804694Y438112D01*
X804604Y438180D01*
X804511Y438245D01*
X804416Y438307D01*
X804319Y438365D01*
X804220Y438420D01*
X804119Y438471D01*
X804016Y438519D01*
X803912Y438564D01*
X803806Y438604D01*
X803699Y438641D01*
X803591Y438674D01*
X803481Y438704D01*
X803371Y438729D01*
X803260Y438751D01*
X803148Y438768D01*
X803035Y438782D01*
X802922Y438792D01*
X802809Y438798D01*
X802696Y438800D01*
X802583Y438798D01*
X802470Y438792D01*
X802357Y438782D01*
X802244Y438768D01*
X802132Y438751D01*
X802021Y438729D01*
X801911Y438704D01*
X801801Y438674D01*
X801693Y438641D01*
X801586Y438604D01*
X801480Y438564D01*
X801376Y438519D01*
X801273Y438471D01*
X801172Y438420D01*
X801073Y438365D01*
X800976Y438307D01*
X800881Y438245D01*
X800788Y438180D01*
X800698Y438112D01*
X800610Y438041D01*
X800524Y437966D01*
X800441Y437889D01*
X800361Y437809D01*
X800284Y437726D01*
X800209Y437640D01*
X800138Y437552D01*
X800070Y437462D01*
X800005Y437369D01*
X799943Y437274D01*
X799885Y437177D01*
X799830Y437078D01*
X799779Y436977D01*
X799731Y436874D01*
X799686Y436770D01*
X799646Y436664D01*
X799609Y436557D01*
X799576Y436449D01*
X799546Y436339D01*
X799521Y436229D01*
X799499Y436118D01*
X799482Y436006D01*
X799468Y435893D01*
X799458Y435780D01*
X799452Y435667D01*
X799450Y435554D01*
X799451Y435554D02*
X799451Y432308D01*
X799451Y436203D02*
X794258Y438799D01*
X803346Y443664D02*
X805942Y446910D01*
X794258Y446910D01*
X794258Y450155D02*
X794258Y443664D01*
X805942Y458664D02*
X805940Y458771D01*
X805934Y458877D01*
X805924Y458983D01*
X805911Y459089D01*
X805893Y459195D01*
X805872Y459299D01*
X805847Y459403D01*
X805818Y459506D01*
X805786Y459607D01*
X805749Y459707D01*
X805709Y459806D01*
X805666Y459904D01*
X805619Y460000D01*
X805568Y460094D01*
X805514Y460186D01*
X805457Y460276D01*
X805397Y460364D01*
X805333Y460449D01*
X805266Y460532D01*
X805196Y460613D01*
X805124Y460691D01*
X805048Y460767D01*
X804970Y460839D01*
X804889Y460909D01*
X804806Y460976D01*
X804721Y461040D01*
X804633Y461100D01*
X804543Y461157D01*
X804451Y461211D01*
X804357Y461262D01*
X804261Y461309D01*
X804163Y461352D01*
X804064Y461392D01*
X803964Y461429D01*
X803863Y461461D01*
X803760Y461490D01*
X803656Y461515D01*
X803552Y461536D01*
X803446Y461554D01*
X803340Y461567D01*
X803234Y461577D01*
X803128Y461583D01*
X803021Y461585D01*
X805942Y458664D02*
X805940Y458543D01*
X805934Y458422D01*
X805924Y458302D01*
X805911Y458181D01*
X805893Y458062D01*
X805872Y457942D01*
X805847Y457824D01*
X805818Y457707D01*
X805785Y457590D01*
X805749Y457475D01*
X805708Y457361D01*
X805665Y457248D01*
X805617Y457136D01*
X805566Y457027D01*
X805511Y456919D01*
X805453Y456812D01*
X805392Y456708D01*
X805327Y456606D01*
X805259Y456506D01*
X805188Y456408D01*
X805114Y456312D01*
X805037Y456219D01*
X804956Y456129D01*
X804873Y456041D01*
X804787Y455956D01*
X804698Y455873D01*
X804607Y455794D01*
X804513Y455717D01*
X804417Y455644D01*
X804319Y455574D01*
X804218Y455507D01*
X804115Y455443D01*
X804010Y455383D01*
X803903Y455326D01*
X803795Y455272D01*
X803685Y455222D01*
X803573Y455176D01*
X803460Y455133D01*
X803345Y455094D01*
X800749Y460612D02*
X800826Y460691D01*
X800907Y460767D01*
X800990Y460840D01*
X801075Y460910D01*
X801163Y460977D01*
X801253Y461041D01*
X801345Y461101D01*
X801440Y461158D01*
X801536Y461212D01*
X801634Y461263D01*
X801734Y461310D01*
X801836Y461354D01*
X801939Y461394D01*
X802043Y461430D01*
X802149Y461462D01*
X802255Y461491D01*
X802363Y461516D01*
X802471Y461538D01*
X802581Y461555D01*
X802690Y461569D01*
X802800Y461578D01*
X802911Y461584D01*
X803021Y461586D01*
X800749Y460612D02*
X794258Y455094D01*
X794258Y461585D01*
X757626Y335788D02*
X755029Y335788D01*
X757626Y335788D02*
X757725Y335790D01*
X757825Y335796D01*
X757924Y335805D01*
X758022Y335818D01*
X758120Y335835D01*
X758218Y335856D01*
X758314Y335881D01*
X758409Y335909D01*
X758503Y335941D01*
X758596Y335976D01*
X758688Y336015D01*
X758778Y336058D01*
X758866Y336103D01*
X758953Y336153D01*
X759037Y336205D01*
X759120Y336261D01*
X759200Y336319D01*
X759278Y336381D01*
X759353Y336446D01*
X759426Y336514D01*
X759496Y336584D01*
X759564Y336657D01*
X759629Y336732D01*
X759691Y336810D01*
X759749Y336890D01*
X759805Y336973D01*
X759857Y337057D01*
X759907Y337144D01*
X759952Y337232D01*
X759995Y337322D01*
X760034Y337414D01*
X760069Y337507D01*
X760101Y337601D01*
X760129Y337696D01*
X760154Y337792D01*
X760175Y337890D01*
X760192Y337988D01*
X760205Y338086D01*
X760214Y338185D01*
X760220Y338285D01*
X760222Y338384D01*
X760222Y344876D01*
X760220Y344975D01*
X760214Y345075D01*
X760205Y345174D01*
X760192Y345272D01*
X760175Y345370D01*
X760154Y345468D01*
X760129Y345564D01*
X760101Y345659D01*
X760069Y345753D01*
X760034Y345846D01*
X759995Y345938D01*
X759952Y346028D01*
X759907Y346116D01*
X759857Y346203D01*
X759805Y346287D01*
X759749Y346370D01*
X759691Y346450D01*
X759629Y346528D01*
X759564Y346603D01*
X759496Y346676D01*
X759426Y346746D01*
X759353Y346814D01*
X759278Y346879D01*
X759200Y346941D01*
X759120Y346999D01*
X759037Y347055D01*
X758953Y347107D01*
X758866Y347157D01*
X758778Y347202D01*
X758688Y347245D01*
X758596Y347284D01*
X758503Y347319D01*
X758409Y347351D01*
X758314Y347379D01*
X758218Y347404D01*
X758120Y347425D01*
X758022Y347442D01*
X757924Y347455D01*
X757825Y347464D01*
X757725Y347470D01*
X757626Y347472D01*
X755029Y347472D01*
X750664Y344876D02*
X747418Y347472D01*
X747418Y335788D01*
X744173Y335788D02*
X750664Y335788D01*
X735664Y347472D02*
X735557Y347470D01*
X735451Y347464D01*
X735345Y347454D01*
X735239Y347441D01*
X735133Y347423D01*
X735029Y347402D01*
X734925Y347377D01*
X734822Y347348D01*
X734721Y347316D01*
X734621Y347279D01*
X734522Y347239D01*
X734424Y347196D01*
X734328Y347149D01*
X734234Y347098D01*
X734142Y347044D01*
X734052Y346987D01*
X733964Y346927D01*
X733879Y346863D01*
X733796Y346796D01*
X733715Y346726D01*
X733637Y346654D01*
X733561Y346578D01*
X733489Y346500D01*
X733419Y346419D01*
X733352Y346336D01*
X733288Y346251D01*
X733228Y346163D01*
X733171Y346073D01*
X733117Y345981D01*
X733066Y345887D01*
X733019Y345791D01*
X732976Y345693D01*
X732936Y345594D01*
X732899Y345494D01*
X732867Y345393D01*
X732838Y345290D01*
X732813Y345186D01*
X732792Y345082D01*
X732774Y344976D01*
X732761Y344870D01*
X732751Y344764D01*
X732745Y344658D01*
X732743Y344551D01*
X735664Y347472D02*
X735785Y347470D01*
X735906Y347464D01*
X736026Y347454D01*
X736147Y347441D01*
X736266Y347423D01*
X736386Y347402D01*
X736504Y347377D01*
X736621Y347348D01*
X736738Y347315D01*
X736853Y347279D01*
X736967Y347238D01*
X737080Y347195D01*
X737192Y347147D01*
X737301Y347096D01*
X737409Y347041D01*
X737516Y346983D01*
X737620Y346922D01*
X737722Y346857D01*
X737822Y346789D01*
X737920Y346718D01*
X738016Y346644D01*
X738109Y346567D01*
X738199Y346486D01*
X738287Y346403D01*
X738372Y346317D01*
X738455Y346228D01*
X738534Y346137D01*
X738611Y346043D01*
X738684Y345947D01*
X738754Y345849D01*
X738821Y345748D01*
X738885Y345645D01*
X738946Y345540D01*
X739003Y345433D01*
X739056Y345325D01*
X739106Y345215D01*
X739152Y345103D01*
X739195Y344990D01*
X739234Y344875D01*
X733717Y342279D02*
X733638Y342357D01*
X733562Y342437D01*
X733489Y342520D01*
X733419Y342606D01*
X733352Y342693D01*
X733288Y342784D01*
X733228Y342876D01*
X733170Y342970D01*
X733116Y343067D01*
X733066Y343165D01*
X733019Y343265D01*
X732975Y343366D01*
X732935Y343469D01*
X732899Y343574D01*
X732867Y343679D01*
X732838Y343786D01*
X732813Y343893D01*
X732791Y344002D01*
X732774Y344111D01*
X732760Y344220D01*
X732751Y344330D01*
X732745Y344441D01*
X732743Y344551D01*
X733716Y342279D02*
X739234Y335788D01*
X732743Y335788D01*
D11*
X215646Y1606804D02*
X215646Y1613916D01*
X213670Y1613916D01*
X213583Y1613914D01*
X213495Y1613908D01*
X213408Y1613899D01*
X213322Y1613885D01*
X213236Y1613868D01*
X213152Y1613847D01*
X213068Y1613822D01*
X212985Y1613793D01*
X212904Y1613761D01*
X212824Y1613726D01*
X212746Y1613687D01*
X212669Y1613644D01*
X212595Y1613598D01*
X212523Y1613549D01*
X212453Y1613497D01*
X212385Y1613441D01*
X212320Y1613383D01*
X212257Y1613322D01*
X212198Y1613258D01*
X212141Y1613191D01*
X212087Y1613123D01*
X212036Y1613051D01*
X211989Y1612978D01*
X211944Y1612903D01*
X211903Y1612825D01*
X211866Y1612746D01*
X211832Y1612666D01*
X211802Y1612584D01*
X211775Y1612501D01*
X211752Y1612416D01*
X211733Y1612331D01*
X211718Y1612245D01*
X211706Y1612158D01*
X211698Y1612071D01*
X211694Y1611984D01*
X211694Y1611896D01*
X211698Y1611809D01*
X211706Y1611722D01*
X211718Y1611635D01*
X211733Y1611549D01*
X211752Y1611464D01*
X211775Y1611379D01*
X211802Y1611296D01*
X211832Y1611214D01*
X211866Y1611134D01*
X211903Y1611055D01*
X211944Y1610977D01*
X211989Y1610902D01*
X212036Y1610829D01*
X212087Y1610757D01*
X212141Y1610689D01*
X212198Y1610622D01*
X212257Y1610558D01*
X212320Y1610497D01*
X212385Y1610439D01*
X212453Y1610383D01*
X212523Y1610331D01*
X212595Y1610282D01*
X212669Y1610236D01*
X212746Y1610193D01*
X212824Y1610154D01*
X212904Y1610119D01*
X212985Y1610087D01*
X213068Y1610058D01*
X213152Y1610033D01*
X213236Y1610012D01*
X213322Y1609995D01*
X213408Y1609981D01*
X213495Y1609972D01*
X213583Y1609966D01*
X213670Y1609964D01*
X213670Y1609965D02*
X215646Y1609965D01*
X213275Y1609965D02*
X211695Y1606804D01*
X208829Y1612336D02*
X206853Y1613916D01*
X206853Y1606804D01*
X208829Y1606804D02*
X204877Y1606804D01*
X201971Y1606804D02*
X199600Y1606804D01*
X199522Y1606806D01*
X199445Y1606812D01*
X199368Y1606821D01*
X199292Y1606834D01*
X199216Y1606851D01*
X199141Y1606872D01*
X199068Y1606896D01*
X198995Y1606924D01*
X198924Y1606956D01*
X198855Y1606991D01*
X198788Y1607029D01*
X198722Y1607070D01*
X198659Y1607115D01*
X198598Y1607163D01*
X198539Y1607213D01*
X198483Y1607267D01*
X198429Y1607323D01*
X198379Y1607382D01*
X198331Y1607443D01*
X198286Y1607506D01*
X198245Y1607572D01*
X198207Y1607639D01*
X198172Y1607708D01*
X198140Y1607779D01*
X198112Y1607852D01*
X198088Y1607925D01*
X198067Y1608000D01*
X198050Y1608076D01*
X198037Y1608152D01*
X198028Y1608229D01*
X198022Y1608306D01*
X198020Y1608384D01*
X198019Y1608384D02*
X198019Y1609175D01*
X198020Y1609175D02*
X198022Y1609253D01*
X198028Y1609330D01*
X198037Y1609407D01*
X198050Y1609483D01*
X198067Y1609559D01*
X198088Y1609634D01*
X198112Y1609707D01*
X198140Y1609780D01*
X198172Y1609851D01*
X198207Y1609920D01*
X198245Y1609987D01*
X198286Y1610053D01*
X198331Y1610116D01*
X198379Y1610177D01*
X198429Y1610236D01*
X198483Y1610292D01*
X198539Y1610346D01*
X198598Y1610396D01*
X198659Y1610444D01*
X198722Y1610489D01*
X198788Y1610530D01*
X198855Y1610568D01*
X198924Y1610603D01*
X198995Y1610635D01*
X199068Y1610663D01*
X199141Y1610687D01*
X199216Y1610708D01*
X199292Y1610725D01*
X199368Y1610738D01*
X199445Y1610747D01*
X199522Y1610753D01*
X199600Y1610755D01*
X201971Y1610755D01*
X201971Y1613916D01*
X198019Y1613916D01*
X324785Y1535684D02*
X326366Y1535684D01*
X326444Y1535686D01*
X326521Y1535692D01*
X326598Y1535701D01*
X326674Y1535714D01*
X326750Y1535731D01*
X326825Y1535752D01*
X326898Y1535776D01*
X326971Y1535804D01*
X327042Y1535836D01*
X327111Y1535871D01*
X327178Y1535909D01*
X327244Y1535950D01*
X327307Y1535995D01*
X327368Y1536043D01*
X327427Y1536093D01*
X327483Y1536147D01*
X327537Y1536203D01*
X327587Y1536262D01*
X327635Y1536323D01*
X327680Y1536386D01*
X327721Y1536452D01*
X327759Y1536519D01*
X327794Y1536588D01*
X327826Y1536659D01*
X327854Y1536732D01*
X327878Y1536805D01*
X327899Y1536880D01*
X327916Y1536956D01*
X327929Y1537032D01*
X327938Y1537109D01*
X327944Y1537186D01*
X327946Y1537264D01*
X327946Y1541216D01*
X327944Y1541294D01*
X327938Y1541371D01*
X327929Y1541448D01*
X327916Y1541524D01*
X327899Y1541600D01*
X327878Y1541675D01*
X327854Y1541748D01*
X327826Y1541821D01*
X327794Y1541892D01*
X327759Y1541961D01*
X327721Y1542028D01*
X327680Y1542094D01*
X327635Y1542157D01*
X327587Y1542218D01*
X327537Y1542277D01*
X327483Y1542333D01*
X327427Y1542387D01*
X327368Y1542437D01*
X327307Y1542485D01*
X327244Y1542530D01*
X327178Y1542571D01*
X327111Y1542609D01*
X327042Y1542644D01*
X326971Y1542676D01*
X326898Y1542704D01*
X326825Y1542728D01*
X326750Y1542749D01*
X326674Y1542766D01*
X326598Y1542779D01*
X326521Y1542788D01*
X326444Y1542794D01*
X326366Y1542796D01*
X324785Y1542796D01*
X322213Y1541216D02*
X320238Y1542796D01*
X320238Y1535684D01*
X322213Y1535684D02*
X318262Y1535684D01*
X315355Y1535684D02*
X312984Y1535684D01*
X312906Y1535686D01*
X312829Y1535692D01*
X312752Y1535701D01*
X312676Y1535714D01*
X312600Y1535731D01*
X312525Y1535752D01*
X312452Y1535776D01*
X312379Y1535804D01*
X312308Y1535836D01*
X312239Y1535871D01*
X312172Y1535909D01*
X312106Y1535950D01*
X312043Y1535995D01*
X311982Y1536043D01*
X311923Y1536093D01*
X311867Y1536147D01*
X311813Y1536203D01*
X311763Y1536262D01*
X311715Y1536323D01*
X311670Y1536386D01*
X311629Y1536452D01*
X311591Y1536519D01*
X311556Y1536588D01*
X311524Y1536659D01*
X311496Y1536732D01*
X311472Y1536805D01*
X311451Y1536880D01*
X311434Y1536956D01*
X311421Y1537032D01*
X311412Y1537109D01*
X311406Y1537186D01*
X311404Y1537264D01*
X311404Y1538055D01*
X311406Y1538133D01*
X311412Y1538210D01*
X311421Y1538287D01*
X311434Y1538363D01*
X311451Y1538439D01*
X311472Y1538514D01*
X311496Y1538587D01*
X311524Y1538660D01*
X311556Y1538731D01*
X311591Y1538800D01*
X311629Y1538867D01*
X311670Y1538933D01*
X311715Y1538996D01*
X311763Y1539057D01*
X311813Y1539116D01*
X311867Y1539172D01*
X311923Y1539226D01*
X311982Y1539276D01*
X312043Y1539324D01*
X312106Y1539369D01*
X312172Y1539410D01*
X312239Y1539448D01*
X312308Y1539483D01*
X312379Y1539515D01*
X312452Y1539543D01*
X312525Y1539567D01*
X312600Y1539588D01*
X312676Y1539605D01*
X312752Y1539618D01*
X312829Y1539627D01*
X312906Y1539633D01*
X312984Y1539635D01*
X315355Y1539635D01*
X315355Y1542796D01*
X311404Y1542796D01*
D10*
X756158Y1422908D02*
X767842Y1422908D01*
X767842Y1426154D01*
X767840Y1426267D01*
X767834Y1426380D01*
X767824Y1426493D01*
X767810Y1426606D01*
X767793Y1426718D01*
X767771Y1426829D01*
X767746Y1426939D01*
X767716Y1427049D01*
X767683Y1427157D01*
X767646Y1427264D01*
X767606Y1427370D01*
X767561Y1427474D01*
X767513Y1427577D01*
X767462Y1427678D01*
X767407Y1427777D01*
X767349Y1427874D01*
X767287Y1427969D01*
X767222Y1428062D01*
X767154Y1428152D01*
X767083Y1428240D01*
X767008Y1428326D01*
X766931Y1428409D01*
X766851Y1428489D01*
X766768Y1428566D01*
X766682Y1428641D01*
X766594Y1428712D01*
X766504Y1428780D01*
X766411Y1428845D01*
X766316Y1428907D01*
X766219Y1428965D01*
X766120Y1429020D01*
X766019Y1429071D01*
X765916Y1429119D01*
X765812Y1429164D01*
X765706Y1429204D01*
X765599Y1429241D01*
X765491Y1429274D01*
X765381Y1429304D01*
X765271Y1429329D01*
X765160Y1429351D01*
X765048Y1429368D01*
X764935Y1429382D01*
X764822Y1429392D01*
X764709Y1429398D01*
X764596Y1429400D01*
X764483Y1429398D01*
X764370Y1429392D01*
X764257Y1429382D01*
X764144Y1429368D01*
X764032Y1429351D01*
X763921Y1429329D01*
X763811Y1429304D01*
X763701Y1429274D01*
X763593Y1429241D01*
X763486Y1429204D01*
X763380Y1429164D01*
X763276Y1429119D01*
X763173Y1429071D01*
X763072Y1429020D01*
X762973Y1428965D01*
X762876Y1428907D01*
X762781Y1428845D01*
X762688Y1428780D01*
X762598Y1428712D01*
X762510Y1428641D01*
X762424Y1428566D01*
X762341Y1428489D01*
X762261Y1428409D01*
X762184Y1428326D01*
X762109Y1428240D01*
X762038Y1428152D01*
X761970Y1428062D01*
X761905Y1427969D01*
X761843Y1427874D01*
X761785Y1427777D01*
X761730Y1427678D01*
X761679Y1427577D01*
X761631Y1427474D01*
X761586Y1427370D01*
X761546Y1427264D01*
X761509Y1427157D01*
X761476Y1427049D01*
X761446Y1426939D01*
X761421Y1426829D01*
X761399Y1426718D01*
X761382Y1426606D01*
X761368Y1426493D01*
X761358Y1426380D01*
X761352Y1426267D01*
X761350Y1426154D01*
X761351Y1426154D02*
X761351Y1422908D01*
X761351Y1426803D02*
X756158Y1429399D01*
X765246Y1434264D02*
X767842Y1437510D01*
X756158Y1437510D01*
X756158Y1440755D02*
X756158Y1434264D01*
X762649Y1445694D02*
X762649Y1449589D01*
X762647Y1449688D01*
X762641Y1449788D01*
X762632Y1449887D01*
X762619Y1449985D01*
X762602Y1450083D01*
X762581Y1450181D01*
X762556Y1450277D01*
X762528Y1450372D01*
X762496Y1450466D01*
X762461Y1450559D01*
X762422Y1450651D01*
X762379Y1450741D01*
X762334Y1450829D01*
X762284Y1450916D01*
X762232Y1451000D01*
X762176Y1451083D01*
X762118Y1451163D01*
X762056Y1451241D01*
X761991Y1451316D01*
X761923Y1451389D01*
X761853Y1451459D01*
X761780Y1451527D01*
X761705Y1451592D01*
X761627Y1451654D01*
X761547Y1451712D01*
X761464Y1451768D01*
X761380Y1451820D01*
X761293Y1451870D01*
X761205Y1451915D01*
X761115Y1451958D01*
X761023Y1451997D01*
X760930Y1452032D01*
X760836Y1452064D01*
X760741Y1452092D01*
X760645Y1452117D01*
X760547Y1452138D01*
X760449Y1452155D01*
X760351Y1452168D01*
X760252Y1452177D01*
X760152Y1452183D01*
X760053Y1452185D01*
X759404Y1452185D01*
X759404Y1452186D02*
X759291Y1452184D01*
X759178Y1452178D01*
X759065Y1452168D01*
X758952Y1452154D01*
X758840Y1452137D01*
X758729Y1452115D01*
X758619Y1452090D01*
X758509Y1452060D01*
X758401Y1452027D01*
X758294Y1451990D01*
X758188Y1451950D01*
X758084Y1451905D01*
X757981Y1451857D01*
X757880Y1451806D01*
X757781Y1451751D01*
X757684Y1451693D01*
X757589Y1451631D01*
X757496Y1451566D01*
X757406Y1451498D01*
X757318Y1451427D01*
X757232Y1451352D01*
X757149Y1451275D01*
X757069Y1451195D01*
X756992Y1451112D01*
X756917Y1451026D01*
X756846Y1450938D01*
X756778Y1450848D01*
X756713Y1450755D01*
X756651Y1450660D01*
X756593Y1450563D01*
X756538Y1450464D01*
X756487Y1450363D01*
X756439Y1450260D01*
X756394Y1450156D01*
X756354Y1450050D01*
X756317Y1449943D01*
X756284Y1449835D01*
X756254Y1449725D01*
X756229Y1449615D01*
X756207Y1449504D01*
X756190Y1449392D01*
X756176Y1449279D01*
X756166Y1449166D01*
X756160Y1449053D01*
X756158Y1448940D01*
X756160Y1448827D01*
X756166Y1448714D01*
X756176Y1448601D01*
X756190Y1448488D01*
X756207Y1448376D01*
X756229Y1448265D01*
X756254Y1448155D01*
X756284Y1448045D01*
X756317Y1447937D01*
X756354Y1447830D01*
X756394Y1447724D01*
X756439Y1447620D01*
X756487Y1447517D01*
X756538Y1447416D01*
X756593Y1447317D01*
X756651Y1447220D01*
X756713Y1447125D01*
X756778Y1447032D01*
X756846Y1446942D01*
X756917Y1446854D01*
X756992Y1446768D01*
X757069Y1446685D01*
X757149Y1446605D01*
X757232Y1446528D01*
X757318Y1446453D01*
X757406Y1446382D01*
X757496Y1446314D01*
X757589Y1446249D01*
X757684Y1446187D01*
X757781Y1446129D01*
X757880Y1446074D01*
X757981Y1446023D01*
X758084Y1445975D01*
X758188Y1445930D01*
X758294Y1445890D01*
X758401Y1445853D01*
X758509Y1445820D01*
X758619Y1445790D01*
X758729Y1445765D01*
X758840Y1445743D01*
X758952Y1445726D01*
X759065Y1445712D01*
X759178Y1445702D01*
X759291Y1445696D01*
X759404Y1445694D01*
X762649Y1445694D01*
X762792Y1445696D01*
X762935Y1445702D01*
X763078Y1445712D01*
X763220Y1445726D01*
X763362Y1445743D01*
X763504Y1445765D01*
X763645Y1445790D01*
X763785Y1445820D01*
X763924Y1445853D01*
X764062Y1445890D01*
X764199Y1445931D01*
X764335Y1445975D01*
X764470Y1446024D01*
X764603Y1446076D01*
X764735Y1446131D01*
X764865Y1446191D01*
X764994Y1446254D01*
X765121Y1446320D01*
X765245Y1446390D01*
X765368Y1446463D01*
X765489Y1446540D01*
X765608Y1446620D01*
X765724Y1446703D01*
X765839Y1446789D01*
X765950Y1446878D01*
X766060Y1446971D01*
X766166Y1447066D01*
X766270Y1447165D01*
X766371Y1447266D01*
X766470Y1447370D01*
X766565Y1447476D01*
X766658Y1447586D01*
X766747Y1447697D01*
X766833Y1447812D01*
X766916Y1447928D01*
X766996Y1448047D01*
X767073Y1448168D01*
X767146Y1448290D01*
X767216Y1448415D01*
X767282Y1448542D01*
X767345Y1448671D01*
X767405Y1448801D01*
X767460Y1448933D01*
X767512Y1449066D01*
X767561Y1449201D01*
X767605Y1449337D01*
X767646Y1449474D01*
X767683Y1449612D01*
X767716Y1449751D01*
X767746Y1449891D01*
X767771Y1450032D01*
X767793Y1450174D01*
X767810Y1450316D01*
X767824Y1450458D01*
X767834Y1450601D01*
X767840Y1450744D01*
X767842Y1450887D01*
X854644Y1403858D02*
X857241Y1403858D01*
X857340Y1403860D01*
X857440Y1403866D01*
X857539Y1403875D01*
X857637Y1403888D01*
X857735Y1403905D01*
X857833Y1403926D01*
X857929Y1403951D01*
X858024Y1403979D01*
X858118Y1404011D01*
X858211Y1404046D01*
X858303Y1404085D01*
X858393Y1404128D01*
X858481Y1404173D01*
X858568Y1404223D01*
X858652Y1404275D01*
X858735Y1404331D01*
X858815Y1404389D01*
X858893Y1404451D01*
X858968Y1404516D01*
X859041Y1404584D01*
X859111Y1404654D01*
X859179Y1404727D01*
X859244Y1404802D01*
X859306Y1404880D01*
X859364Y1404960D01*
X859420Y1405043D01*
X859472Y1405127D01*
X859522Y1405214D01*
X859567Y1405302D01*
X859610Y1405392D01*
X859649Y1405484D01*
X859684Y1405577D01*
X859716Y1405671D01*
X859744Y1405766D01*
X859769Y1405862D01*
X859790Y1405960D01*
X859807Y1406058D01*
X859820Y1406156D01*
X859829Y1406255D01*
X859835Y1406355D01*
X859837Y1406454D01*
X859837Y1412946D01*
X859835Y1413045D01*
X859829Y1413145D01*
X859820Y1413244D01*
X859807Y1413342D01*
X859790Y1413440D01*
X859769Y1413538D01*
X859744Y1413634D01*
X859716Y1413729D01*
X859684Y1413823D01*
X859649Y1413916D01*
X859610Y1414008D01*
X859567Y1414098D01*
X859522Y1414186D01*
X859472Y1414273D01*
X859420Y1414357D01*
X859364Y1414440D01*
X859306Y1414520D01*
X859244Y1414598D01*
X859179Y1414673D01*
X859111Y1414746D01*
X859041Y1414816D01*
X858968Y1414884D01*
X858893Y1414949D01*
X858815Y1415011D01*
X858735Y1415069D01*
X858652Y1415125D01*
X858568Y1415177D01*
X858481Y1415227D01*
X858393Y1415272D01*
X858303Y1415315D01*
X858211Y1415354D01*
X858118Y1415389D01*
X858024Y1415421D01*
X857929Y1415449D01*
X857833Y1415474D01*
X857735Y1415495D01*
X857637Y1415512D01*
X857539Y1415525D01*
X857440Y1415534D01*
X857340Y1415540D01*
X857241Y1415542D01*
X854644Y1415542D01*
X850279Y1412946D02*
X847034Y1415542D01*
X847034Y1403858D01*
X850279Y1403858D02*
X843788Y1403858D01*
X838849Y1414244D02*
X838849Y1415542D01*
X832358Y1415542D01*
X835604Y1403858D01*
D11*
X753816Y1187704D02*
X752235Y1187704D01*
X753816Y1187704D02*
X753894Y1187706D01*
X753971Y1187712D01*
X754048Y1187721D01*
X754124Y1187734D01*
X754200Y1187751D01*
X754275Y1187772D01*
X754348Y1187796D01*
X754421Y1187824D01*
X754492Y1187856D01*
X754561Y1187891D01*
X754628Y1187929D01*
X754694Y1187970D01*
X754757Y1188015D01*
X754818Y1188063D01*
X754877Y1188113D01*
X754933Y1188167D01*
X754987Y1188223D01*
X755037Y1188282D01*
X755085Y1188343D01*
X755130Y1188406D01*
X755171Y1188472D01*
X755209Y1188539D01*
X755244Y1188608D01*
X755276Y1188679D01*
X755304Y1188752D01*
X755328Y1188825D01*
X755349Y1188900D01*
X755366Y1188976D01*
X755379Y1189052D01*
X755388Y1189129D01*
X755394Y1189206D01*
X755396Y1189284D01*
X755396Y1193236D01*
X755394Y1193314D01*
X755388Y1193391D01*
X755379Y1193468D01*
X755366Y1193544D01*
X755349Y1193620D01*
X755328Y1193695D01*
X755304Y1193768D01*
X755276Y1193841D01*
X755244Y1193912D01*
X755209Y1193981D01*
X755171Y1194048D01*
X755130Y1194114D01*
X755085Y1194177D01*
X755037Y1194238D01*
X754987Y1194297D01*
X754933Y1194353D01*
X754877Y1194407D01*
X754818Y1194457D01*
X754757Y1194505D01*
X754694Y1194550D01*
X754628Y1194591D01*
X754561Y1194629D01*
X754492Y1194664D01*
X754421Y1194696D01*
X754348Y1194724D01*
X754275Y1194748D01*
X754200Y1194769D01*
X754124Y1194786D01*
X754048Y1194799D01*
X753971Y1194808D01*
X753894Y1194814D01*
X753816Y1194816D01*
X752235Y1194816D01*
X749663Y1193236D02*
X747687Y1194816D01*
X747687Y1187704D01*
X745712Y1187704D02*
X749663Y1187704D01*
X742805Y1189680D02*
X742803Y1189767D01*
X742797Y1189855D01*
X742788Y1189942D01*
X742774Y1190028D01*
X742757Y1190114D01*
X742736Y1190198D01*
X742711Y1190282D01*
X742682Y1190365D01*
X742650Y1190446D01*
X742615Y1190526D01*
X742576Y1190604D01*
X742533Y1190681D01*
X742487Y1190755D01*
X742438Y1190827D01*
X742386Y1190897D01*
X742330Y1190965D01*
X742272Y1191030D01*
X742211Y1191093D01*
X742147Y1191152D01*
X742080Y1191209D01*
X742012Y1191263D01*
X741940Y1191314D01*
X741867Y1191361D01*
X741792Y1191406D01*
X741714Y1191447D01*
X741635Y1191484D01*
X741555Y1191518D01*
X741473Y1191548D01*
X741390Y1191575D01*
X741305Y1191598D01*
X741220Y1191617D01*
X741134Y1191632D01*
X741047Y1191644D01*
X740960Y1191652D01*
X740873Y1191656D01*
X740785Y1191656D01*
X740698Y1191652D01*
X740611Y1191644D01*
X740524Y1191632D01*
X740438Y1191617D01*
X740353Y1191598D01*
X740268Y1191575D01*
X740185Y1191548D01*
X740103Y1191518D01*
X740023Y1191484D01*
X739944Y1191447D01*
X739866Y1191406D01*
X739791Y1191361D01*
X739718Y1191314D01*
X739646Y1191263D01*
X739578Y1191209D01*
X739511Y1191152D01*
X739447Y1191093D01*
X739386Y1191030D01*
X739328Y1190965D01*
X739272Y1190897D01*
X739220Y1190827D01*
X739171Y1190755D01*
X739125Y1190681D01*
X739082Y1190604D01*
X739043Y1190526D01*
X739008Y1190446D01*
X738976Y1190365D01*
X738947Y1190282D01*
X738922Y1190198D01*
X738901Y1190114D01*
X738884Y1190028D01*
X738870Y1189942D01*
X738861Y1189855D01*
X738855Y1189767D01*
X738853Y1189680D01*
X738855Y1189593D01*
X738861Y1189505D01*
X738870Y1189418D01*
X738884Y1189332D01*
X738901Y1189246D01*
X738922Y1189162D01*
X738947Y1189078D01*
X738976Y1188995D01*
X739008Y1188914D01*
X739043Y1188834D01*
X739082Y1188756D01*
X739125Y1188679D01*
X739171Y1188605D01*
X739220Y1188533D01*
X739272Y1188463D01*
X739328Y1188395D01*
X739386Y1188330D01*
X739447Y1188267D01*
X739511Y1188208D01*
X739578Y1188151D01*
X739646Y1188097D01*
X739718Y1188046D01*
X739791Y1187999D01*
X739866Y1187954D01*
X739944Y1187913D01*
X740023Y1187876D01*
X740103Y1187842D01*
X740185Y1187812D01*
X740268Y1187785D01*
X740353Y1187762D01*
X740438Y1187743D01*
X740524Y1187728D01*
X740611Y1187716D01*
X740698Y1187708D01*
X740785Y1187704D01*
X740873Y1187704D01*
X740960Y1187708D01*
X741047Y1187716D01*
X741134Y1187728D01*
X741220Y1187743D01*
X741305Y1187762D01*
X741390Y1187785D01*
X741473Y1187812D01*
X741555Y1187842D01*
X741635Y1187876D01*
X741714Y1187913D01*
X741792Y1187954D01*
X741867Y1187999D01*
X741940Y1188046D01*
X742012Y1188097D01*
X742080Y1188151D01*
X742147Y1188208D01*
X742211Y1188267D01*
X742272Y1188330D01*
X742330Y1188395D01*
X742386Y1188463D01*
X742438Y1188533D01*
X742487Y1188605D01*
X742533Y1188679D01*
X742576Y1188756D01*
X742615Y1188834D01*
X742650Y1188914D01*
X742682Y1188995D01*
X742711Y1189078D01*
X742736Y1189162D01*
X742757Y1189246D01*
X742774Y1189332D01*
X742788Y1189418D01*
X742797Y1189505D01*
X742803Y1189593D01*
X742805Y1189680D01*
X742409Y1193236D02*
X742407Y1193315D01*
X742401Y1193393D01*
X742391Y1193471D01*
X742378Y1193549D01*
X742360Y1193626D01*
X742339Y1193702D01*
X742314Y1193776D01*
X742285Y1193850D01*
X742253Y1193922D01*
X742217Y1193992D01*
X742177Y1194060D01*
X742134Y1194126D01*
X742088Y1194190D01*
X742039Y1194252D01*
X741987Y1194311D01*
X741932Y1194367D01*
X741874Y1194421D01*
X741814Y1194471D01*
X741751Y1194519D01*
X741686Y1194563D01*
X741619Y1194604D01*
X741550Y1194642D01*
X741479Y1194676D01*
X741406Y1194707D01*
X741332Y1194734D01*
X741257Y1194757D01*
X741181Y1194776D01*
X741103Y1194792D01*
X741025Y1194804D01*
X740947Y1194812D01*
X740868Y1194816D01*
X740790Y1194816D01*
X740711Y1194812D01*
X740633Y1194804D01*
X740555Y1194792D01*
X740477Y1194776D01*
X740401Y1194757D01*
X740326Y1194734D01*
X740252Y1194707D01*
X740179Y1194676D01*
X740108Y1194642D01*
X740039Y1194604D01*
X739972Y1194563D01*
X739907Y1194519D01*
X739844Y1194471D01*
X739784Y1194421D01*
X739726Y1194367D01*
X739671Y1194311D01*
X739619Y1194252D01*
X739570Y1194190D01*
X739524Y1194126D01*
X739481Y1194060D01*
X739441Y1193992D01*
X739405Y1193922D01*
X739373Y1193850D01*
X739344Y1193776D01*
X739319Y1193702D01*
X739298Y1193626D01*
X739280Y1193549D01*
X739267Y1193471D01*
X739257Y1193393D01*
X739251Y1193315D01*
X739249Y1193236D01*
X739251Y1193157D01*
X739257Y1193079D01*
X739267Y1193001D01*
X739280Y1192923D01*
X739298Y1192846D01*
X739319Y1192770D01*
X739344Y1192696D01*
X739373Y1192622D01*
X739405Y1192550D01*
X739441Y1192480D01*
X739481Y1192412D01*
X739524Y1192346D01*
X739570Y1192282D01*
X739619Y1192220D01*
X739671Y1192161D01*
X739726Y1192105D01*
X739784Y1192051D01*
X739844Y1192001D01*
X739907Y1191953D01*
X739972Y1191909D01*
X740039Y1191868D01*
X740108Y1191830D01*
X740179Y1191796D01*
X740252Y1191765D01*
X740326Y1191738D01*
X740401Y1191715D01*
X740477Y1191696D01*
X740555Y1191680D01*
X740633Y1191668D01*
X740711Y1191660D01*
X740790Y1191656D01*
X740868Y1191656D01*
X740947Y1191660D01*
X741025Y1191668D01*
X741103Y1191680D01*
X741181Y1191696D01*
X741257Y1191715D01*
X741332Y1191738D01*
X741406Y1191765D01*
X741479Y1191796D01*
X741550Y1191830D01*
X741619Y1191868D01*
X741686Y1191909D01*
X741751Y1191953D01*
X741814Y1192001D01*
X741874Y1192051D01*
X741932Y1192105D01*
X741987Y1192161D01*
X742039Y1192220D01*
X742088Y1192282D01*
X742134Y1192346D01*
X742177Y1192412D01*
X742217Y1192480D01*
X742253Y1192550D01*
X742285Y1192622D01*
X742314Y1192696D01*
X742339Y1192770D01*
X742360Y1192846D01*
X742378Y1192923D01*
X742391Y1193001D01*
X742401Y1193079D01*
X742407Y1193157D01*
X742409Y1193236D01*
M02*
