G04 EAGLE Gerber RS-274X export*
G75*
%MOMM*%
%FSLAX34Y34*%
%LPD*%
%INMechanical*%
%IPPOS*%
%AMOC8*
5,1,8,0,0,1.08239X$1,22.5*%
G01*
%ADD10C,0.000000*%
%ADD11C,0.254000*%


D10*
X0Y0D02*
X1450000Y0D01*
X1450000Y2200000D01*
X0Y2200000D01*
X0Y0D01*
X35000Y2150000D02*
X35005Y2150368D01*
X35018Y2150736D01*
X35041Y2151103D01*
X35072Y2151470D01*
X35113Y2151836D01*
X35162Y2152201D01*
X35221Y2152564D01*
X35288Y2152926D01*
X35364Y2153287D01*
X35450Y2153645D01*
X35543Y2154001D01*
X35646Y2154354D01*
X35757Y2154705D01*
X35877Y2155053D01*
X36005Y2155398D01*
X36142Y2155740D01*
X36287Y2156079D01*
X36440Y2156413D01*
X36602Y2156744D01*
X36771Y2157071D01*
X36949Y2157393D01*
X37134Y2157712D01*
X37327Y2158025D01*
X37528Y2158334D01*
X37736Y2158637D01*
X37952Y2158935D01*
X38175Y2159228D01*
X38405Y2159516D01*
X38642Y2159798D01*
X38886Y2160073D01*
X39136Y2160343D01*
X39393Y2160607D01*
X39657Y2160864D01*
X39927Y2161114D01*
X40202Y2161358D01*
X40484Y2161595D01*
X40772Y2161825D01*
X41065Y2162048D01*
X41363Y2162264D01*
X41666Y2162472D01*
X41975Y2162673D01*
X42288Y2162866D01*
X42607Y2163051D01*
X42929Y2163229D01*
X43256Y2163398D01*
X43587Y2163560D01*
X43921Y2163713D01*
X44260Y2163858D01*
X44602Y2163995D01*
X44947Y2164123D01*
X45295Y2164243D01*
X45646Y2164354D01*
X45999Y2164457D01*
X46355Y2164550D01*
X46713Y2164636D01*
X47074Y2164712D01*
X47436Y2164779D01*
X47799Y2164838D01*
X48164Y2164887D01*
X48530Y2164928D01*
X48897Y2164959D01*
X49264Y2164982D01*
X49632Y2164995D01*
X50000Y2165000D01*
X50368Y2164995D01*
X50736Y2164982D01*
X51103Y2164959D01*
X51470Y2164928D01*
X51836Y2164887D01*
X52201Y2164838D01*
X52564Y2164779D01*
X52926Y2164712D01*
X53287Y2164636D01*
X53645Y2164550D01*
X54001Y2164457D01*
X54354Y2164354D01*
X54705Y2164243D01*
X55053Y2164123D01*
X55398Y2163995D01*
X55740Y2163858D01*
X56079Y2163713D01*
X56413Y2163560D01*
X56744Y2163398D01*
X57071Y2163229D01*
X57393Y2163051D01*
X57712Y2162866D01*
X58025Y2162673D01*
X58334Y2162472D01*
X58637Y2162264D01*
X58935Y2162048D01*
X59228Y2161825D01*
X59516Y2161595D01*
X59798Y2161358D01*
X60073Y2161114D01*
X60343Y2160864D01*
X60607Y2160607D01*
X60864Y2160343D01*
X61114Y2160073D01*
X61358Y2159798D01*
X61595Y2159516D01*
X61825Y2159228D01*
X62048Y2158935D01*
X62264Y2158637D01*
X62472Y2158334D01*
X62673Y2158025D01*
X62866Y2157712D01*
X63051Y2157393D01*
X63229Y2157071D01*
X63398Y2156744D01*
X63560Y2156413D01*
X63713Y2156079D01*
X63858Y2155740D01*
X63995Y2155398D01*
X64123Y2155053D01*
X64243Y2154705D01*
X64354Y2154354D01*
X64457Y2154001D01*
X64550Y2153645D01*
X64636Y2153287D01*
X64712Y2152926D01*
X64779Y2152564D01*
X64838Y2152201D01*
X64887Y2151836D01*
X64928Y2151470D01*
X64959Y2151103D01*
X64982Y2150736D01*
X64995Y2150368D01*
X65000Y2150000D01*
X64995Y2149632D01*
X64982Y2149264D01*
X64959Y2148897D01*
X64928Y2148530D01*
X64887Y2148164D01*
X64838Y2147799D01*
X64779Y2147436D01*
X64712Y2147074D01*
X64636Y2146713D01*
X64550Y2146355D01*
X64457Y2145999D01*
X64354Y2145646D01*
X64243Y2145295D01*
X64123Y2144947D01*
X63995Y2144602D01*
X63858Y2144260D01*
X63713Y2143921D01*
X63560Y2143587D01*
X63398Y2143256D01*
X63229Y2142929D01*
X63051Y2142607D01*
X62866Y2142288D01*
X62673Y2141975D01*
X62472Y2141666D01*
X62264Y2141363D01*
X62048Y2141065D01*
X61825Y2140772D01*
X61595Y2140484D01*
X61358Y2140202D01*
X61114Y2139927D01*
X60864Y2139657D01*
X60607Y2139393D01*
X60343Y2139136D01*
X60073Y2138886D01*
X59798Y2138642D01*
X59516Y2138405D01*
X59228Y2138175D01*
X58935Y2137952D01*
X58637Y2137736D01*
X58334Y2137528D01*
X58025Y2137327D01*
X57712Y2137134D01*
X57393Y2136949D01*
X57071Y2136771D01*
X56744Y2136602D01*
X56413Y2136440D01*
X56079Y2136287D01*
X55740Y2136142D01*
X55398Y2136005D01*
X55053Y2135877D01*
X54705Y2135757D01*
X54354Y2135646D01*
X54001Y2135543D01*
X53645Y2135450D01*
X53287Y2135364D01*
X52926Y2135288D01*
X52564Y2135221D01*
X52201Y2135162D01*
X51836Y2135113D01*
X51470Y2135072D01*
X51103Y2135041D01*
X50736Y2135018D01*
X50368Y2135005D01*
X50000Y2135000D01*
X49632Y2135005D01*
X49264Y2135018D01*
X48897Y2135041D01*
X48530Y2135072D01*
X48164Y2135113D01*
X47799Y2135162D01*
X47436Y2135221D01*
X47074Y2135288D01*
X46713Y2135364D01*
X46355Y2135450D01*
X45999Y2135543D01*
X45646Y2135646D01*
X45295Y2135757D01*
X44947Y2135877D01*
X44602Y2136005D01*
X44260Y2136142D01*
X43921Y2136287D01*
X43587Y2136440D01*
X43256Y2136602D01*
X42929Y2136771D01*
X42607Y2136949D01*
X42288Y2137134D01*
X41975Y2137327D01*
X41666Y2137528D01*
X41363Y2137736D01*
X41065Y2137952D01*
X40772Y2138175D01*
X40484Y2138405D01*
X40202Y2138642D01*
X39927Y2138886D01*
X39657Y2139136D01*
X39393Y2139393D01*
X39136Y2139657D01*
X38886Y2139927D01*
X38642Y2140202D01*
X38405Y2140484D01*
X38175Y2140772D01*
X37952Y2141065D01*
X37736Y2141363D01*
X37528Y2141666D01*
X37327Y2141975D01*
X37134Y2142288D01*
X36949Y2142607D01*
X36771Y2142929D01*
X36602Y2143256D01*
X36440Y2143587D01*
X36287Y2143921D01*
X36142Y2144260D01*
X36005Y2144602D01*
X35877Y2144947D01*
X35757Y2145295D01*
X35646Y2145646D01*
X35543Y2145999D01*
X35450Y2146355D01*
X35364Y2146713D01*
X35288Y2147074D01*
X35221Y2147436D01*
X35162Y2147799D01*
X35113Y2148164D01*
X35072Y2148530D01*
X35041Y2148897D01*
X35018Y2149264D01*
X35005Y2149632D01*
X35000Y2150000D01*
X1385000Y2150000D02*
X1385005Y2150368D01*
X1385018Y2150736D01*
X1385041Y2151103D01*
X1385072Y2151470D01*
X1385113Y2151836D01*
X1385162Y2152201D01*
X1385221Y2152564D01*
X1385288Y2152926D01*
X1385364Y2153287D01*
X1385450Y2153645D01*
X1385543Y2154001D01*
X1385646Y2154354D01*
X1385757Y2154705D01*
X1385877Y2155053D01*
X1386005Y2155398D01*
X1386142Y2155740D01*
X1386287Y2156079D01*
X1386440Y2156413D01*
X1386602Y2156744D01*
X1386771Y2157071D01*
X1386949Y2157393D01*
X1387134Y2157712D01*
X1387327Y2158025D01*
X1387528Y2158334D01*
X1387736Y2158637D01*
X1387952Y2158935D01*
X1388175Y2159228D01*
X1388405Y2159516D01*
X1388642Y2159798D01*
X1388886Y2160073D01*
X1389136Y2160343D01*
X1389393Y2160607D01*
X1389657Y2160864D01*
X1389927Y2161114D01*
X1390202Y2161358D01*
X1390484Y2161595D01*
X1390772Y2161825D01*
X1391065Y2162048D01*
X1391363Y2162264D01*
X1391666Y2162472D01*
X1391975Y2162673D01*
X1392288Y2162866D01*
X1392607Y2163051D01*
X1392929Y2163229D01*
X1393256Y2163398D01*
X1393587Y2163560D01*
X1393921Y2163713D01*
X1394260Y2163858D01*
X1394602Y2163995D01*
X1394947Y2164123D01*
X1395295Y2164243D01*
X1395646Y2164354D01*
X1395999Y2164457D01*
X1396355Y2164550D01*
X1396713Y2164636D01*
X1397074Y2164712D01*
X1397436Y2164779D01*
X1397799Y2164838D01*
X1398164Y2164887D01*
X1398530Y2164928D01*
X1398897Y2164959D01*
X1399264Y2164982D01*
X1399632Y2164995D01*
X1400000Y2165000D01*
X1400368Y2164995D01*
X1400736Y2164982D01*
X1401103Y2164959D01*
X1401470Y2164928D01*
X1401836Y2164887D01*
X1402201Y2164838D01*
X1402564Y2164779D01*
X1402926Y2164712D01*
X1403287Y2164636D01*
X1403645Y2164550D01*
X1404001Y2164457D01*
X1404354Y2164354D01*
X1404705Y2164243D01*
X1405053Y2164123D01*
X1405398Y2163995D01*
X1405740Y2163858D01*
X1406079Y2163713D01*
X1406413Y2163560D01*
X1406744Y2163398D01*
X1407071Y2163229D01*
X1407393Y2163051D01*
X1407712Y2162866D01*
X1408025Y2162673D01*
X1408334Y2162472D01*
X1408637Y2162264D01*
X1408935Y2162048D01*
X1409228Y2161825D01*
X1409516Y2161595D01*
X1409798Y2161358D01*
X1410073Y2161114D01*
X1410343Y2160864D01*
X1410607Y2160607D01*
X1410864Y2160343D01*
X1411114Y2160073D01*
X1411358Y2159798D01*
X1411595Y2159516D01*
X1411825Y2159228D01*
X1412048Y2158935D01*
X1412264Y2158637D01*
X1412472Y2158334D01*
X1412673Y2158025D01*
X1412866Y2157712D01*
X1413051Y2157393D01*
X1413229Y2157071D01*
X1413398Y2156744D01*
X1413560Y2156413D01*
X1413713Y2156079D01*
X1413858Y2155740D01*
X1413995Y2155398D01*
X1414123Y2155053D01*
X1414243Y2154705D01*
X1414354Y2154354D01*
X1414457Y2154001D01*
X1414550Y2153645D01*
X1414636Y2153287D01*
X1414712Y2152926D01*
X1414779Y2152564D01*
X1414838Y2152201D01*
X1414887Y2151836D01*
X1414928Y2151470D01*
X1414959Y2151103D01*
X1414982Y2150736D01*
X1414995Y2150368D01*
X1415000Y2150000D01*
X1414995Y2149632D01*
X1414982Y2149264D01*
X1414959Y2148897D01*
X1414928Y2148530D01*
X1414887Y2148164D01*
X1414838Y2147799D01*
X1414779Y2147436D01*
X1414712Y2147074D01*
X1414636Y2146713D01*
X1414550Y2146355D01*
X1414457Y2145999D01*
X1414354Y2145646D01*
X1414243Y2145295D01*
X1414123Y2144947D01*
X1413995Y2144602D01*
X1413858Y2144260D01*
X1413713Y2143921D01*
X1413560Y2143587D01*
X1413398Y2143256D01*
X1413229Y2142929D01*
X1413051Y2142607D01*
X1412866Y2142288D01*
X1412673Y2141975D01*
X1412472Y2141666D01*
X1412264Y2141363D01*
X1412048Y2141065D01*
X1411825Y2140772D01*
X1411595Y2140484D01*
X1411358Y2140202D01*
X1411114Y2139927D01*
X1410864Y2139657D01*
X1410607Y2139393D01*
X1410343Y2139136D01*
X1410073Y2138886D01*
X1409798Y2138642D01*
X1409516Y2138405D01*
X1409228Y2138175D01*
X1408935Y2137952D01*
X1408637Y2137736D01*
X1408334Y2137528D01*
X1408025Y2137327D01*
X1407712Y2137134D01*
X1407393Y2136949D01*
X1407071Y2136771D01*
X1406744Y2136602D01*
X1406413Y2136440D01*
X1406079Y2136287D01*
X1405740Y2136142D01*
X1405398Y2136005D01*
X1405053Y2135877D01*
X1404705Y2135757D01*
X1404354Y2135646D01*
X1404001Y2135543D01*
X1403645Y2135450D01*
X1403287Y2135364D01*
X1402926Y2135288D01*
X1402564Y2135221D01*
X1402201Y2135162D01*
X1401836Y2135113D01*
X1401470Y2135072D01*
X1401103Y2135041D01*
X1400736Y2135018D01*
X1400368Y2135005D01*
X1400000Y2135000D01*
X1399632Y2135005D01*
X1399264Y2135018D01*
X1398897Y2135041D01*
X1398530Y2135072D01*
X1398164Y2135113D01*
X1397799Y2135162D01*
X1397436Y2135221D01*
X1397074Y2135288D01*
X1396713Y2135364D01*
X1396355Y2135450D01*
X1395999Y2135543D01*
X1395646Y2135646D01*
X1395295Y2135757D01*
X1394947Y2135877D01*
X1394602Y2136005D01*
X1394260Y2136142D01*
X1393921Y2136287D01*
X1393587Y2136440D01*
X1393256Y2136602D01*
X1392929Y2136771D01*
X1392607Y2136949D01*
X1392288Y2137134D01*
X1391975Y2137327D01*
X1391666Y2137528D01*
X1391363Y2137736D01*
X1391065Y2137952D01*
X1390772Y2138175D01*
X1390484Y2138405D01*
X1390202Y2138642D01*
X1389927Y2138886D01*
X1389657Y2139136D01*
X1389393Y2139393D01*
X1389136Y2139657D01*
X1388886Y2139927D01*
X1388642Y2140202D01*
X1388405Y2140484D01*
X1388175Y2140772D01*
X1387952Y2141065D01*
X1387736Y2141363D01*
X1387528Y2141666D01*
X1387327Y2141975D01*
X1387134Y2142288D01*
X1386949Y2142607D01*
X1386771Y2142929D01*
X1386602Y2143256D01*
X1386440Y2143587D01*
X1386287Y2143921D01*
X1386142Y2144260D01*
X1386005Y2144602D01*
X1385877Y2144947D01*
X1385757Y2145295D01*
X1385646Y2145646D01*
X1385543Y2145999D01*
X1385450Y2146355D01*
X1385364Y2146713D01*
X1385288Y2147074D01*
X1385221Y2147436D01*
X1385162Y2147799D01*
X1385113Y2148164D01*
X1385072Y2148530D01*
X1385041Y2148897D01*
X1385018Y2149264D01*
X1385005Y2149632D01*
X1385000Y2150000D01*
X1335000Y50000D02*
X1335005Y50368D01*
X1335018Y50736D01*
X1335041Y51103D01*
X1335072Y51470D01*
X1335113Y51836D01*
X1335162Y52201D01*
X1335221Y52564D01*
X1335288Y52926D01*
X1335364Y53287D01*
X1335450Y53645D01*
X1335543Y54001D01*
X1335646Y54354D01*
X1335757Y54705D01*
X1335877Y55053D01*
X1336005Y55398D01*
X1336142Y55740D01*
X1336287Y56079D01*
X1336440Y56413D01*
X1336602Y56744D01*
X1336771Y57071D01*
X1336949Y57393D01*
X1337134Y57712D01*
X1337327Y58025D01*
X1337528Y58334D01*
X1337736Y58637D01*
X1337952Y58935D01*
X1338175Y59228D01*
X1338405Y59516D01*
X1338642Y59798D01*
X1338886Y60073D01*
X1339136Y60343D01*
X1339393Y60607D01*
X1339657Y60864D01*
X1339927Y61114D01*
X1340202Y61358D01*
X1340484Y61595D01*
X1340772Y61825D01*
X1341065Y62048D01*
X1341363Y62264D01*
X1341666Y62472D01*
X1341975Y62673D01*
X1342288Y62866D01*
X1342607Y63051D01*
X1342929Y63229D01*
X1343256Y63398D01*
X1343587Y63560D01*
X1343921Y63713D01*
X1344260Y63858D01*
X1344602Y63995D01*
X1344947Y64123D01*
X1345295Y64243D01*
X1345646Y64354D01*
X1345999Y64457D01*
X1346355Y64550D01*
X1346713Y64636D01*
X1347074Y64712D01*
X1347436Y64779D01*
X1347799Y64838D01*
X1348164Y64887D01*
X1348530Y64928D01*
X1348897Y64959D01*
X1349264Y64982D01*
X1349632Y64995D01*
X1350000Y65000D01*
X1350368Y64995D01*
X1350736Y64982D01*
X1351103Y64959D01*
X1351470Y64928D01*
X1351836Y64887D01*
X1352201Y64838D01*
X1352564Y64779D01*
X1352926Y64712D01*
X1353287Y64636D01*
X1353645Y64550D01*
X1354001Y64457D01*
X1354354Y64354D01*
X1354705Y64243D01*
X1355053Y64123D01*
X1355398Y63995D01*
X1355740Y63858D01*
X1356079Y63713D01*
X1356413Y63560D01*
X1356744Y63398D01*
X1357071Y63229D01*
X1357393Y63051D01*
X1357712Y62866D01*
X1358025Y62673D01*
X1358334Y62472D01*
X1358637Y62264D01*
X1358935Y62048D01*
X1359228Y61825D01*
X1359516Y61595D01*
X1359798Y61358D01*
X1360073Y61114D01*
X1360343Y60864D01*
X1360607Y60607D01*
X1360864Y60343D01*
X1361114Y60073D01*
X1361358Y59798D01*
X1361595Y59516D01*
X1361825Y59228D01*
X1362048Y58935D01*
X1362264Y58637D01*
X1362472Y58334D01*
X1362673Y58025D01*
X1362866Y57712D01*
X1363051Y57393D01*
X1363229Y57071D01*
X1363398Y56744D01*
X1363560Y56413D01*
X1363713Y56079D01*
X1363858Y55740D01*
X1363995Y55398D01*
X1364123Y55053D01*
X1364243Y54705D01*
X1364354Y54354D01*
X1364457Y54001D01*
X1364550Y53645D01*
X1364636Y53287D01*
X1364712Y52926D01*
X1364779Y52564D01*
X1364838Y52201D01*
X1364887Y51836D01*
X1364928Y51470D01*
X1364959Y51103D01*
X1364982Y50736D01*
X1364995Y50368D01*
X1365000Y50000D01*
X1364995Y49632D01*
X1364982Y49264D01*
X1364959Y48897D01*
X1364928Y48530D01*
X1364887Y48164D01*
X1364838Y47799D01*
X1364779Y47436D01*
X1364712Y47074D01*
X1364636Y46713D01*
X1364550Y46355D01*
X1364457Y45999D01*
X1364354Y45646D01*
X1364243Y45295D01*
X1364123Y44947D01*
X1363995Y44602D01*
X1363858Y44260D01*
X1363713Y43921D01*
X1363560Y43587D01*
X1363398Y43256D01*
X1363229Y42929D01*
X1363051Y42607D01*
X1362866Y42288D01*
X1362673Y41975D01*
X1362472Y41666D01*
X1362264Y41363D01*
X1362048Y41065D01*
X1361825Y40772D01*
X1361595Y40484D01*
X1361358Y40202D01*
X1361114Y39927D01*
X1360864Y39657D01*
X1360607Y39393D01*
X1360343Y39136D01*
X1360073Y38886D01*
X1359798Y38642D01*
X1359516Y38405D01*
X1359228Y38175D01*
X1358935Y37952D01*
X1358637Y37736D01*
X1358334Y37528D01*
X1358025Y37327D01*
X1357712Y37134D01*
X1357393Y36949D01*
X1357071Y36771D01*
X1356744Y36602D01*
X1356413Y36440D01*
X1356079Y36287D01*
X1355740Y36142D01*
X1355398Y36005D01*
X1355053Y35877D01*
X1354705Y35757D01*
X1354354Y35646D01*
X1354001Y35543D01*
X1353645Y35450D01*
X1353287Y35364D01*
X1352926Y35288D01*
X1352564Y35221D01*
X1352201Y35162D01*
X1351836Y35113D01*
X1351470Y35072D01*
X1351103Y35041D01*
X1350736Y35018D01*
X1350368Y35005D01*
X1350000Y35000D01*
X1349632Y35005D01*
X1349264Y35018D01*
X1348897Y35041D01*
X1348530Y35072D01*
X1348164Y35113D01*
X1347799Y35162D01*
X1347436Y35221D01*
X1347074Y35288D01*
X1346713Y35364D01*
X1346355Y35450D01*
X1345999Y35543D01*
X1345646Y35646D01*
X1345295Y35757D01*
X1344947Y35877D01*
X1344602Y36005D01*
X1344260Y36142D01*
X1343921Y36287D01*
X1343587Y36440D01*
X1343256Y36602D01*
X1342929Y36771D01*
X1342607Y36949D01*
X1342288Y37134D01*
X1341975Y37327D01*
X1341666Y37528D01*
X1341363Y37736D01*
X1341065Y37952D01*
X1340772Y38175D01*
X1340484Y38405D01*
X1340202Y38642D01*
X1339927Y38886D01*
X1339657Y39136D01*
X1339393Y39393D01*
X1339136Y39657D01*
X1338886Y39927D01*
X1338642Y40202D01*
X1338405Y40484D01*
X1338175Y40772D01*
X1337952Y41065D01*
X1337736Y41363D01*
X1337528Y41666D01*
X1337327Y41975D01*
X1337134Y42288D01*
X1336949Y42607D01*
X1336771Y42929D01*
X1336602Y43256D01*
X1336440Y43587D01*
X1336287Y43921D01*
X1336142Y44260D01*
X1336005Y44602D01*
X1335877Y44947D01*
X1335757Y45295D01*
X1335646Y45646D01*
X1335543Y45999D01*
X1335450Y46355D01*
X1335364Y46713D01*
X1335288Y47074D01*
X1335221Y47436D01*
X1335162Y47799D01*
X1335113Y48164D01*
X1335072Y48530D01*
X1335041Y48897D01*
X1335018Y49264D01*
X1335005Y49632D01*
X1335000Y50000D01*
X35000Y50000D02*
X35005Y50368D01*
X35018Y50736D01*
X35041Y51103D01*
X35072Y51470D01*
X35113Y51836D01*
X35162Y52201D01*
X35221Y52564D01*
X35288Y52926D01*
X35364Y53287D01*
X35450Y53645D01*
X35543Y54001D01*
X35646Y54354D01*
X35757Y54705D01*
X35877Y55053D01*
X36005Y55398D01*
X36142Y55740D01*
X36287Y56079D01*
X36440Y56413D01*
X36602Y56744D01*
X36771Y57071D01*
X36949Y57393D01*
X37134Y57712D01*
X37327Y58025D01*
X37528Y58334D01*
X37736Y58637D01*
X37952Y58935D01*
X38175Y59228D01*
X38405Y59516D01*
X38642Y59798D01*
X38886Y60073D01*
X39136Y60343D01*
X39393Y60607D01*
X39657Y60864D01*
X39927Y61114D01*
X40202Y61358D01*
X40484Y61595D01*
X40772Y61825D01*
X41065Y62048D01*
X41363Y62264D01*
X41666Y62472D01*
X41975Y62673D01*
X42288Y62866D01*
X42607Y63051D01*
X42929Y63229D01*
X43256Y63398D01*
X43587Y63560D01*
X43921Y63713D01*
X44260Y63858D01*
X44602Y63995D01*
X44947Y64123D01*
X45295Y64243D01*
X45646Y64354D01*
X45999Y64457D01*
X46355Y64550D01*
X46713Y64636D01*
X47074Y64712D01*
X47436Y64779D01*
X47799Y64838D01*
X48164Y64887D01*
X48530Y64928D01*
X48897Y64959D01*
X49264Y64982D01*
X49632Y64995D01*
X50000Y65000D01*
X50368Y64995D01*
X50736Y64982D01*
X51103Y64959D01*
X51470Y64928D01*
X51836Y64887D01*
X52201Y64838D01*
X52564Y64779D01*
X52926Y64712D01*
X53287Y64636D01*
X53645Y64550D01*
X54001Y64457D01*
X54354Y64354D01*
X54705Y64243D01*
X55053Y64123D01*
X55398Y63995D01*
X55740Y63858D01*
X56079Y63713D01*
X56413Y63560D01*
X56744Y63398D01*
X57071Y63229D01*
X57393Y63051D01*
X57712Y62866D01*
X58025Y62673D01*
X58334Y62472D01*
X58637Y62264D01*
X58935Y62048D01*
X59228Y61825D01*
X59516Y61595D01*
X59798Y61358D01*
X60073Y61114D01*
X60343Y60864D01*
X60607Y60607D01*
X60864Y60343D01*
X61114Y60073D01*
X61358Y59798D01*
X61595Y59516D01*
X61825Y59228D01*
X62048Y58935D01*
X62264Y58637D01*
X62472Y58334D01*
X62673Y58025D01*
X62866Y57712D01*
X63051Y57393D01*
X63229Y57071D01*
X63398Y56744D01*
X63560Y56413D01*
X63713Y56079D01*
X63858Y55740D01*
X63995Y55398D01*
X64123Y55053D01*
X64243Y54705D01*
X64354Y54354D01*
X64457Y54001D01*
X64550Y53645D01*
X64636Y53287D01*
X64712Y52926D01*
X64779Y52564D01*
X64838Y52201D01*
X64887Y51836D01*
X64928Y51470D01*
X64959Y51103D01*
X64982Y50736D01*
X64995Y50368D01*
X65000Y50000D01*
X64995Y49632D01*
X64982Y49264D01*
X64959Y48897D01*
X64928Y48530D01*
X64887Y48164D01*
X64838Y47799D01*
X64779Y47436D01*
X64712Y47074D01*
X64636Y46713D01*
X64550Y46355D01*
X64457Y45999D01*
X64354Y45646D01*
X64243Y45295D01*
X64123Y44947D01*
X63995Y44602D01*
X63858Y44260D01*
X63713Y43921D01*
X63560Y43587D01*
X63398Y43256D01*
X63229Y42929D01*
X63051Y42607D01*
X62866Y42288D01*
X62673Y41975D01*
X62472Y41666D01*
X62264Y41363D01*
X62048Y41065D01*
X61825Y40772D01*
X61595Y40484D01*
X61358Y40202D01*
X61114Y39927D01*
X60864Y39657D01*
X60607Y39393D01*
X60343Y39136D01*
X60073Y38886D01*
X59798Y38642D01*
X59516Y38405D01*
X59228Y38175D01*
X58935Y37952D01*
X58637Y37736D01*
X58334Y37528D01*
X58025Y37327D01*
X57712Y37134D01*
X57393Y36949D01*
X57071Y36771D01*
X56744Y36602D01*
X56413Y36440D01*
X56079Y36287D01*
X55740Y36142D01*
X55398Y36005D01*
X55053Y35877D01*
X54705Y35757D01*
X54354Y35646D01*
X54001Y35543D01*
X53645Y35450D01*
X53287Y35364D01*
X52926Y35288D01*
X52564Y35221D01*
X52201Y35162D01*
X51836Y35113D01*
X51470Y35072D01*
X51103Y35041D01*
X50736Y35018D01*
X50368Y35005D01*
X50000Y35000D01*
X49632Y35005D01*
X49264Y35018D01*
X48897Y35041D01*
X48530Y35072D01*
X48164Y35113D01*
X47799Y35162D01*
X47436Y35221D01*
X47074Y35288D01*
X46713Y35364D01*
X46355Y35450D01*
X45999Y35543D01*
X45646Y35646D01*
X45295Y35757D01*
X44947Y35877D01*
X44602Y36005D01*
X44260Y36142D01*
X43921Y36287D01*
X43587Y36440D01*
X43256Y36602D01*
X42929Y36771D01*
X42607Y36949D01*
X42288Y37134D01*
X41975Y37327D01*
X41666Y37528D01*
X41363Y37736D01*
X41065Y37952D01*
X40772Y38175D01*
X40484Y38405D01*
X40202Y38642D01*
X39927Y38886D01*
X39657Y39136D01*
X39393Y39393D01*
X39136Y39657D01*
X38886Y39927D01*
X38642Y40202D01*
X38405Y40484D01*
X38175Y40772D01*
X37952Y41065D01*
X37736Y41363D01*
X37528Y41666D01*
X37327Y41975D01*
X37134Y42288D01*
X36949Y42607D01*
X36771Y42929D01*
X36602Y43256D01*
X36440Y43587D01*
X36287Y43921D01*
X36142Y44260D01*
X36005Y44602D01*
X35877Y44947D01*
X35757Y45295D01*
X35646Y45646D01*
X35543Y45999D01*
X35450Y46355D01*
X35364Y46713D01*
X35288Y47074D01*
X35221Y47436D01*
X35162Y47799D01*
X35113Y48164D01*
X35072Y48530D01*
X35041Y48897D01*
X35018Y49264D01*
X35005Y49632D01*
X35000Y50000D01*
X685000Y950000D02*
X685005Y950368D01*
X685018Y950736D01*
X685041Y951103D01*
X685072Y951470D01*
X685113Y951836D01*
X685162Y952201D01*
X685221Y952564D01*
X685288Y952926D01*
X685364Y953287D01*
X685450Y953645D01*
X685543Y954001D01*
X685646Y954354D01*
X685757Y954705D01*
X685877Y955053D01*
X686005Y955398D01*
X686142Y955740D01*
X686287Y956079D01*
X686440Y956413D01*
X686602Y956744D01*
X686771Y957071D01*
X686949Y957393D01*
X687134Y957712D01*
X687327Y958025D01*
X687528Y958334D01*
X687736Y958637D01*
X687952Y958935D01*
X688175Y959228D01*
X688405Y959516D01*
X688642Y959798D01*
X688886Y960073D01*
X689136Y960343D01*
X689393Y960607D01*
X689657Y960864D01*
X689927Y961114D01*
X690202Y961358D01*
X690484Y961595D01*
X690772Y961825D01*
X691065Y962048D01*
X691363Y962264D01*
X691666Y962472D01*
X691975Y962673D01*
X692288Y962866D01*
X692607Y963051D01*
X692929Y963229D01*
X693256Y963398D01*
X693587Y963560D01*
X693921Y963713D01*
X694260Y963858D01*
X694602Y963995D01*
X694947Y964123D01*
X695295Y964243D01*
X695646Y964354D01*
X695999Y964457D01*
X696355Y964550D01*
X696713Y964636D01*
X697074Y964712D01*
X697436Y964779D01*
X697799Y964838D01*
X698164Y964887D01*
X698530Y964928D01*
X698897Y964959D01*
X699264Y964982D01*
X699632Y964995D01*
X700000Y965000D01*
X700368Y964995D01*
X700736Y964982D01*
X701103Y964959D01*
X701470Y964928D01*
X701836Y964887D01*
X702201Y964838D01*
X702564Y964779D01*
X702926Y964712D01*
X703287Y964636D01*
X703645Y964550D01*
X704001Y964457D01*
X704354Y964354D01*
X704705Y964243D01*
X705053Y964123D01*
X705398Y963995D01*
X705740Y963858D01*
X706079Y963713D01*
X706413Y963560D01*
X706744Y963398D01*
X707071Y963229D01*
X707393Y963051D01*
X707712Y962866D01*
X708025Y962673D01*
X708334Y962472D01*
X708637Y962264D01*
X708935Y962048D01*
X709228Y961825D01*
X709516Y961595D01*
X709798Y961358D01*
X710073Y961114D01*
X710343Y960864D01*
X710607Y960607D01*
X710864Y960343D01*
X711114Y960073D01*
X711358Y959798D01*
X711595Y959516D01*
X711825Y959228D01*
X712048Y958935D01*
X712264Y958637D01*
X712472Y958334D01*
X712673Y958025D01*
X712866Y957712D01*
X713051Y957393D01*
X713229Y957071D01*
X713398Y956744D01*
X713560Y956413D01*
X713713Y956079D01*
X713858Y955740D01*
X713995Y955398D01*
X714123Y955053D01*
X714243Y954705D01*
X714354Y954354D01*
X714457Y954001D01*
X714550Y953645D01*
X714636Y953287D01*
X714712Y952926D01*
X714779Y952564D01*
X714838Y952201D01*
X714887Y951836D01*
X714928Y951470D01*
X714959Y951103D01*
X714982Y950736D01*
X714995Y950368D01*
X715000Y950000D01*
X714995Y949632D01*
X714982Y949264D01*
X714959Y948897D01*
X714928Y948530D01*
X714887Y948164D01*
X714838Y947799D01*
X714779Y947436D01*
X714712Y947074D01*
X714636Y946713D01*
X714550Y946355D01*
X714457Y945999D01*
X714354Y945646D01*
X714243Y945295D01*
X714123Y944947D01*
X713995Y944602D01*
X713858Y944260D01*
X713713Y943921D01*
X713560Y943587D01*
X713398Y943256D01*
X713229Y942929D01*
X713051Y942607D01*
X712866Y942288D01*
X712673Y941975D01*
X712472Y941666D01*
X712264Y941363D01*
X712048Y941065D01*
X711825Y940772D01*
X711595Y940484D01*
X711358Y940202D01*
X711114Y939927D01*
X710864Y939657D01*
X710607Y939393D01*
X710343Y939136D01*
X710073Y938886D01*
X709798Y938642D01*
X709516Y938405D01*
X709228Y938175D01*
X708935Y937952D01*
X708637Y937736D01*
X708334Y937528D01*
X708025Y937327D01*
X707712Y937134D01*
X707393Y936949D01*
X707071Y936771D01*
X706744Y936602D01*
X706413Y936440D01*
X706079Y936287D01*
X705740Y936142D01*
X705398Y936005D01*
X705053Y935877D01*
X704705Y935757D01*
X704354Y935646D01*
X704001Y935543D01*
X703645Y935450D01*
X703287Y935364D01*
X702926Y935288D01*
X702564Y935221D01*
X702201Y935162D01*
X701836Y935113D01*
X701470Y935072D01*
X701103Y935041D01*
X700736Y935018D01*
X700368Y935005D01*
X700000Y935000D01*
X699632Y935005D01*
X699264Y935018D01*
X698897Y935041D01*
X698530Y935072D01*
X698164Y935113D01*
X697799Y935162D01*
X697436Y935221D01*
X697074Y935288D01*
X696713Y935364D01*
X696355Y935450D01*
X695999Y935543D01*
X695646Y935646D01*
X695295Y935757D01*
X694947Y935877D01*
X694602Y936005D01*
X694260Y936142D01*
X693921Y936287D01*
X693587Y936440D01*
X693256Y936602D01*
X692929Y936771D01*
X692607Y936949D01*
X692288Y937134D01*
X691975Y937327D01*
X691666Y937528D01*
X691363Y937736D01*
X691065Y937952D01*
X690772Y938175D01*
X690484Y938405D01*
X690202Y938642D01*
X689927Y938886D01*
X689657Y939136D01*
X689393Y939393D01*
X689136Y939657D01*
X688886Y939927D01*
X688642Y940202D01*
X688405Y940484D01*
X688175Y940772D01*
X687952Y941065D01*
X687736Y941363D01*
X687528Y941666D01*
X687327Y941975D01*
X687134Y942288D01*
X686949Y942607D01*
X686771Y942929D01*
X686602Y943256D01*
X686440Y943587D01*
X686287Y943921D01*
X686142Y944260D01*
X686005Y944602D01*
X685877Y944947D01*
X685757Y945295D01*
X685646Y945646D01*
X685543Y945999D01*
X685450Y946355D01*
X685364Y946713D01*
X685288Y947074D01*
X685221Y947436D01*
X685162Y947799D01*
X685113Y948164D01*
X685072Y948530D01*
X685041Y948897D01*
X685018Y949264D01*
X685005Y949632D01*
X685000Y950000D01*
X735000Y1650000D02*
X735005Y1650368D01*
X735018Y1650736D01*
X735041Y1651103D01*
X735072Y1651470D01*
X735113Y1651836D01*
X735162Y1652201D01*
X735221Y1652564D01*
X735288Y1652926D01*
X735364Y1653287D01*
X735450Y1653645D01*
X735543Y1654001D01*
X735646Y1654354D01*
X735757Y1654705D01*
X735877Y1655053D01*
X736005Y1655398D01*
X736142Y1655740D01*
X736287Y1656079D01*
X736440Y1656413D01*
X736602Y1656744D01*
X736771Y1657071D01*
X736949Y1657393D01*
X737134Y1657712D01*
X737327Y1658025D01*
X737528Y1658334D01*
X737736Y1658637D01*
X737952Y1658935D01*
X738175Y1659228D01*
X738405Y1659516D01*
X738642Y1659798D01*
X738886Y1660073D01*
X739136Y1660343D01*
X739393Y1660607D01*
X739657Y1660864D01*
X739927Y1661114D01*
X740202Y1661358D01*
X740484Y1661595D01*
X740772Y1661825D01*
X741065Y1662048D01*
X741363Y1662264D01*
X741666Y1662472D01*
X741975Y1662673D01*
X742288Y1662866D01*
X742607Y1663051D01*
X742929Y1663229D01*
X743256Y1663398D01*
X743587Y1663560D01*
X743921Y1663713D01*
X744260Y1663858D01*
X744602Y1663995D01*
X744947Y1664123D01*
X745295Y1664243D01*
X745646Y1664354D01*
X745999Y1664457D01*
X746355Y1664550D01*
X746713Y1664636D01*
X747074Y1664712D01*
X747436Y1664779D01*
X747799Y1664838D01*
X748164Y1664887D01*
X748530Y1664928D01*
X748897Y1664959D01*
X749264Y1664982D01*
X749632Y1664995D01*
X750000Y1665000D01*
X750368Y1664995D01*
X750736Y1664982D01*
X751103Y1664959D01*
X751470Y1664928D01*
X751836Y1664887D01*
X752201Y1664838D01*
X752564Y1664779D01*
X752926Y1664712D01*
X753287Y1664636D01*
X753645Y1664550D01*
X754001Y1664457D01*
X754354Y1664354D01*
X754705Y1664243D01*
X755053Y1664123D01*
X755398Y1663995D01*
X755740Y1663858D01*
X756079Y1663713D01*
X756413Y1663560D01*
X756744Y1663398D01*
X757071Y1663229D01*
X757393Y1663051D01*
X757712Y1662866D01*
X758025Y1662673D01*
X758334Y1662472D01*
X758637Y1662264D01*
X758935Y1662048D01*
X759228Y1661825D01*
X759516Y1661595D01*
X759798Y1661358D01*
X760073Y1661114D01*
X760343Y1660864D01*
X760607Y1660607D01*
X760864Y1660343D01*
X761114Y1660073D01*
X761358Y1659798D01*
X761595Y1659516D01*
X761825Y1659228D01*
X762048Y1658935D01*
X762264Y1658637D01*
X762472Y1658334D01*
X762673Y1658025D01*
X762866Y1657712D01*
X763051Y1657393D01*
X763229Y1657071D01*
X763398Y1656744D01*
X763560Y1656413D01*
X763713Y1656079D01*
X763858Y1655740D01*
X763995Y1655398D01*
X764123Y1655053D01*
X764243Y1654705D01*
X764354Y1654354D01*
X764457Y1654001D01*
X764550Y1653645D01*
X764636Y1653287D01*
X764712Y1652926D01*
X764779Y1652564D01*
X764838Y1652201D01*
X764887Y1651836D01*
X764928Y1651470D01*
X764959Y1651103D01*
X764982Y1650736D01*
X764995Y1650368D01*
X765000Y1650000D01*
X764995Y1649632D01*
X764982Y1649264D01*
X764959Y1648897D01*
X764928Y1648530D01*
X764887Y1648164D01*
X764838Y1647799D01*
X764779Y1647436D01*
X764712Y1647074D01*
X764636Y1646713D01*
X764550Y1646355D01*
X764457Y1645999D01*
X764354Y1645646D01*
X764243Y1645295D01*
X764123Y1644947D01*
X763995Y1644602D01*
X763858Y1644260D01*
X763713Y1643921D01*
X763560Y1643587D01*
X763398Y1643256D01*
X763229Y1642929D01*
X763051Y1642607D01*
X762866Y1642288D01*
X762673Y1641975D01*
X762472Y1641666D01*
X762264Y1641363D01*
X762048Y1641065D01*
X761825Y1640772D01*
X761595Y1640484D01*
X761358Y1640202D01*
X761114Y1639927D01*
X760864Y1639657D01*
X760607Y1639393D01*
X760343Y1639136D01*
X760073Y1638886D01*
X759798Y1638642D01*
X759516Y1638405D01*
X759228Y1638175D01*
X758935Y1637952D01*
X758637Y1637736D01*
X758334Y1637528D01*
X758025Y1637327D01*
X757712Y1637134D01*
X757393Y1636949D01*
X757071Y1636771D01*
X756744Y1636602D01*
X756413Y1636440D01*
X756079Y1636287D01*
X755740Y1636142D01*
X755398Y1636005D01*
X755053Y1635877D01*
X754705Y1635757D01*
X754354Y1635646D01*
X754001Y1635543D01*
X753645Y1635450D01*
X753287Y1635364D01*
X752926Y1635288D01*
X752564Y1635221D01*
X752201Y1635162D01*
X751836Y1635113D01*
X751470Y1635072D01*
X751103Y1635041D01*
X750736Y1635018D01*
X750368Y1635005D01*
X750000Y1635000D01*
X749632Y1635005D01*
X749264Y1635018D01*
X748897Y1635041D01*
X748530Y1635072D01*
X748164Y1635113D01*
X747799Y1635162D01*
X747436Y1635221D01*
X747074Y1635288D01*
X746713Y1635364D01*
X746355Y1635450D01*
X745999Y1635543D01*
X745646Y1635646D01*
X745295Y1635757D01*
X744947Y1635877D01*
X744602Y1636005D01*
X744260Y1636142D01*
X743921Y1636287D01*
X743587Y1636440D01*
X743256Y1636602D01*
X742929Y1636771D01*
X742607Y1636949D01*
X742288Y1637134D01*
X741975Y1637327D01*
X741666Y1637528D01*
X741363Y1637736D01*
X741065Y1637952D01*
X740772Y1638175D01*
X740484Y1638405D01*
X740202Y1638642D01*
X739927Y1638886D01*
X739657Y1639136D01*
X739393Y1639393D01*
X739136Y1639657D01*
X738886Y1639927D01*
X738642Y1640202D01*
X738405Y1640484D01*
X738175Y1640772D01*
X737952Y1641065D01*
X737736Y1641363D01*
X737528Y1641666D01*
X737327Y1641975D01*
X737134Y1642288D01*
X736949Y1642607D01*
X736771Y1642929D01*
X736602Y1643256D01*
X736440Y1643587D01*
X736287Y1643921D01*
X736142Y1644260D01*
X736005Y1644602D01*
X735877Y1644947D01*
X735757Y1645295D01*
X735646Y1645646D01*
X735543Y1645999D01*
X735450Y1646355D01*
X735364Y1646713D01*
X735288Y1647074D01*
X735221Y1647436D01*
X735162Y1647799D01*
X735113Y1648164D01*
X735072Y1648530D01*
X735041Y1648897D01*
X735018Y1649264D01*
X735005Y1649632D01*
X735000Y1650000D01*
X985000Y750000D02*
X985005Y750368D01*
X985018Y750736D01*
X985041Y751103D01*
X985072Y751470D01*
X985113Y751836D01*
X985162Y752201D01*
X985221Y752564D01*
X985288Y752926D01*
X985364Y753287D01*
X985450Y753645D01*
X985543Y754001D01*
X985646Y754354D01*
X985757Y754705D01*
X985877Y755053D01*
X986005Y755398D01*
X986142Y755740D01*
X986287Y756079D01*
X986440Y756413D01*
X986602Y756744D01*
X986771Y757071D01*
X986949Y757393D01*
X987134Y757712D01*
X987327Y758025D01*
X987528Y758334D01*
X987736Y758637D01*
X987952Y758935D01*
X988175Y759228D01*
X988405Y759516D01*
X988642Y759798D01*
X988886Y760073D01*
X989136Y760343D01*
X989393Y760607D01*
X989657Y760864D01*
X989927Y761114D01*
X990202Y761358D01*
X990484Y761595D01*
X990772Y761825D01*
X991065Y762048D01*
X991363Y762264D01*
X991666Y762472D01*
X991975Y762673D01*
X992288Y762866D01*
X992607Y763051D01*
X992929Y763229D01*
X993256Y763398D01*
X993587Y763560D01*
X993921Y763713D01*
X994260Y763858D01*
X994602Y763995D01*
X994947Y764123D01*
X995295Y764243D01*
X995646Y764354D01*
X995999Y764457D01*
X996355Y764550D01*
X996713Y764636D01*
X997074Y764712D01*
X997436Y764779D01*
X997799Y764838D01*
X998164Y764887D01*
X998530Y764928D01*
X998897Y764959D01*
X999264Y764982D01*
X999632Y764995D01*
X1000000Y765000D01*
X1000368Y764995D01*
X1000736Y764982D01*
X1001103Y764959D01*
X1001470Y764928D01*
X1001836Y764887D01*
X1002201Y764838D01*
X1002564Y764779D01*
X1002926Y764712D01*
X1003287Y764636D01*
X1003645Y764550D01*
X1004001Y764457D01*
X1004354Y764354D01*
X1004705Y764243D01*
X1005053Y764123D01*
X1005398Y763995D01*
X1005740Y763858D01*
X1006079Y763713D01*
X1006413Y763560D01*
X1006744Y763398D01*
X1007071Y763229D01*
X1007393Y763051D01*
X1007712Y762866D01*
X1008025Y762673D01*
X1008334Y762472D01*
X1008637Y762264D01*
X1008935Y762048D01*
X1009228Y761825D01*
X1009516Y761595D01*
X1009798Y761358D01*
X1010073Y761114D01*
X1010343Y760864D01*
X1010607Y760607D01*
X1010864Y760343D01*
X1011114Y760073D01*
X1011358Y759798D01*
X1011595Y759516D01*
X1011825Y759228D01*
X1012048Y758935D01*
X1012264Y758637D01*
X1012472Y758334D01*
X1012673Y758025D01*
X1012866Y757712D01*
X1013051Y757393D01*
X1013229Y757071D01*
X1013398Y756744D01*
X1013560Y756413D01*
X1013713Y756079D01*
X1013858Y755740D01*
X1013995Y755398D01*
X1014123Y755053D01*
X1014243Y754705D01*
X1014354Y754354D01*
X1014457Y754001D01*
X1014550Y753645D01*
X1014636Y753287D01*
X1014712Y752926D01*
X1014779Y752564D01*
X1014838Y752201D01*
X1014887Y751836D01*
X1014928Y751470D01*
X1014959Y751103D01*
X1014982Y750736D01*
X1014995Y750368D01*
X1015000Y750000D01*
X1014995Y749632D01*
X1014982Y749264D01*
X1014959Y748897D01*
X1014928Y748530D01*
X1014887Y748164D01*
X1014838Y747799D01*
X1014779Y747436D01*
X1014712Y747074D01*
X1014636Y746713D01*
X1014550Y746355D01*
X1014457Y745999D01*
X1014354Y745646D01*
X1014243Y745295D01*
X1014123Y744947D01*
X1013995Y744602D01*
X1013858Y744260D01*
X1013713Y743921D01*
X1013560Y743587D01*
X1013398Y743256D01*
X1013229Y742929D01*
X1013051Y742607D01*
X1012866Y742288D01*
X1012673Y741975D01*
X1012472Y741666D01*
X1012264Y741363D01*
X1012048Y741065D01*
X1011825Y740772D01*
X1011595Y740484D01*
X1011358Y740202D01*
X1011114Y739927D01*
X1010864Y739657D01*
X1010607Y739393D01*
X1010343Y739136D01*
X1010073Y738886D01*
X1009798Y738642D01*
X1009516Y738405D01*
X1009228Y738175D01*
X1008935Y737952D01*
X1008637Y737736D01*
X1008334Y737528D01*
X1008025Y737327D01*
X1007712Y737134D01*
X1007393Y736949D01*
X1007071Y736771D01*
X1006744Y736602D01*
X1006413Y736440D01*
X1006079Y736287D01*
X1005740Y736142D01*
X1005398Y736005D01*
X1005053Y735877D01*
X1004705Y735757D01*
X1004354Y735646D01*
X1004001Y735543D01*
X1003645Y735450D01*
X1003287Y735364D01*
X1002926Y735288D01*
X1002564Y735221D01*
X1002201Y735162D01*
X1001836Y735113D01*
X1001470Y735072D01*
X1001103Y735041D01*
X1000736Y735018D01*
X1000368Y735005D01*
X1000000Y735000D01*
X999632Y735005D01*
X999264Y735018D01*
X998897Y735041D01*
X998530Y735072D01*
X998164Y735113D01*
X997799Y735162D01*
X997436Y735221D01*
X997074Y735288D01*
X996713Y735364D01*
X996355Y735450D01*
X995999Y735543D01*
X995646Y735646D01*
X995295Y735757D01*
X994947Y735877D01*
X994602Y736005D01*
X994260Y736142D01*
X993921Y736287D01*
X993587Y736440D01*
X993256Y736602D01*
X992929Y736771D01*
X992607Y736949D01*
X992288Y737134D01*
X991975Y737327D01*
X991666Y737528D01*
X991363Y737736D01*
X991065Y737952D01*
X990772Y738175D01*
X990484Y738405D01*
X990202Y738642D01*
X989927Y738886D01*
X989657Y739136D01*
X989393Y739393D01*
X989136Y739657D01*
X988886Y739927D01*
X988642Y740202D01*
X988405Y740484D01*
X988175Y740772D01*
X987952Y741065D01*
X987736Y741363D01*
X987528Y741666D01*
X987327Y741975D01*
X987134Y742288D01*
X986949Y742607D01*
X986771Y742929D01*
X986602Y743256D01*
X986440Y743587D01*
X986287Y743921D01*
X986142Y744260D01*
X986005Y744602D01*
X985877Y744947D01*
X985757Y745295D01*
X985646Y745646D01*
X985543Y745999D01*
X985450Y746355D01*
X985364Y746713D01*
X985288Y747074D01*
X985221Y747436D01*
X985162Y747799D01*
X985113Y748164D01*
X985072Y748530D01*
X985041Y748897D01*
X985018Y749264D01*
X985005Y749632D01*
X985000Y750000D01*
X1187577Y1574800D02*
X1187583Y1575264D01*
X1187600Y1575729D01*
X1187628Y1576192D01*
X1187668Y1576655D01*
X1187719Y1577116D01*
X1187782Y1577577D01*
X1187856Y1578035D01*
X1187941Y1578492D01*
X1188037Y1578946D01*
X1188144Y1579398D01*
X1188262Y1579847D01*
X1188392Y1580293D01*
X1188532Y1580736D01*
X1188683Y1581175D01*
X1188845Y1581610D01*
X1189017Y1582042D01*
X1189200Y1582468D01*
X1189394Y1582891D01*
X1189598Y1583308D01*
X1189811Y1583720D01*
X1190035Y1584127D01*
X1190269Y1584528D01*
X1190513Y1584924D01*
X1190766Y1585313D01*
X1191029Y1585696D01*
X1191301Y1586072D01*
X1191582Y1586442D01*
X1191872Y1586805D01*
X1192171Y1587160D01*
X1192479Y1587508D01*
X1192795Y1587848D01*
X1193119Y1588181D01*
X1193452Y1588505D01*
X1193792Y1588821D01*
X1194140Y1589129D01*
X1194495Y1589428D01*
X1194858Y1589718D01*
X1195228Y1589999D01*
X1195604Y1590271D01*
X1195987Y1590534D01*
X1196376Y1590787D01*
X1196772Y1591031D01*
X1197173Y1591265D01*
X1197580Y1591489D01*
X1197992Y1591702D01*
X1198409Y1591906D01*
X1198832Y1592100D01*
X1199258Y1592283D01*
X1199690Y1592455D01*
X1200125Y1592617D01*
X1200564Y1592768D01*
X1201007Y1592908D01*
X1201453Y1593038D01*
X1201902Y1593156D01*
X1202354Y1593263D01*
X1202808Y1593359D01*
X1203265Y1593444D01*
X1203723Y1593518D01*
X1204184Y1593581D01*
X1204645Y1593632D01*
X1205108Y1593672D01*
X1205571Y1593700D01*
X1206036Y1593717D01*
X1206500Y1593723D01*
X1206964Y1593717D01*
X1207429Y1593700D01*
X1207892Y1593672D01*
X1208355Y1593632D01*
X1208816Y1593581D01*
X1209277Y1593518D01*
X1209735Y1593444D01*
X1210192Y1593359D01*
X1210646Y1593263D01*
X1211098Y1593156D01*
X1211547Y1593038D01*
X1211993Y1592908D01*
X1212436Y1592768D01*
X1212875Y1592617D01*
X1213310Y1592455D01*
X1213742Y1592283D01*
X1214168Y1592100D01*
X1214591Y1591906D01*
X1215008Y1591702D01*
X1215420Y1591489D01*
X1215827Y1591265D01*
X1216228Y1591031D01*
X1216624Y1590787D01*
X1217013Y1590534D01*
X1217396Y1590271D01*
X1217772Y1589999D01*
X1218142Y1589718D01*
X1218505Y1589428D01*
X1218860Y1589129D01*
X1219208Y1588821D01*
X1219548Y1588505D01*
X1219881Y1588181D01*
X1220205Y1587848D01*
X1220521Y1587508D01*
X1220829Y1587160D01*
X1221128Y1586805D01*
X1221418Y1586442D01*
X1221699Y1586072D01*
X1221971Y1585696D01*
X1222234Y1585313D01*
X1222487Y1584924D01*
X1222731Y1584528D01*
X1222965Y1584127D01*
X1223189Y1583720D01*
X1223402Y1583308D01*
X1223606Y1582891D01*
X1223800Y1582468D01*
X1223983Y1582042D01*
X1224155Y1581610D01*
X1224317Y1581175D01*
X1224468Y1580736D01*
X1224608Y1580293D01*
X1224738Y1579847D01*
X1224856Y1579398D01*
X1224963Y1578946D01*
X1225059Y1578492D01*
X1225144Y1578035D01*
X1225218Y1577577D01*
X1225281Y1577116D01*
X1225332Y1576655D01*
X1225372Y1576192D01*
X1225400Y1575729D01*
X1225417Y1575264D01*
X1225423Y1574800D01*
X1225417Y1574336D01*
X1225400Y1573871D01*
X1225372Y1573408D01*
X1225332Y1572945D01*
X1225281Y1572484D01*
X1225218Y1572023D01*
X1225144Y1571565D01*
X1225059Y1571108D01*
X1224963Y1570654D01*
X1224856Y1570202D01*
X1224738Y1569753D01*
X1224608Y1569307D01*
X1224468Y1568864D01*
X1224317Y1568425D01*
X1224155Y1567990D01*
X1223983Y1567558D01*
X1223800Y1567132D01*
X1223606Y1566709D01*
X1223402Y1566292D01*
X1223189Y1565880D01*
X1222965Y1565473D01*
X1222731Y1565072D01*
X1222487Y1564676D01*
X1222234Y1564287D01*
X1221971Y1563904D01*
X1221699Y1563528D01*
X1221418Y1563158D01*
X1221128Y1562795D01*
X1220829Y1562440D01*
X1220521Y1562092D01*
X1220205Y1561752D01*
X1219881Y1561419D01*
X1219548Y1561095D01*
X1219208Y1560779D01*
X1218860Y1560471D01*
X1218505Y1560172D01*
X1218142Y1559882D01*
X1217772Y1559601D01*
X1217396Y1559329D01*
X1217013Y1559066D01*
X1216624Y1558813D01*
X1216228Y1558569D01*
X1215827Y1558335D01*
X1215420Y1558111D01*
X1215008Y1557898D01*
X1214591Y1557694D01*
X1214168Y1557500D01*
X1213742Y1557317D01*
X1213310Y1557145D01*
X1212875Y1556983D01*
X1212436Y1556832D01*
X1211993Y1556692D01*
X1211547Y1556562D01*
X1211098Y1556444D01*
X1210646Y1556337D01*
X1210192Y1556241D01*
X1209735Y1556156D01*
X1209277Y1556082D01*
X1208816Y1556019D01*
X1208355Y1555968D01*
X1207892Y1555928D01*
X1207429Y1555900D01*
X1206964Y1555883D01*
X1206500Y1555877D01*
X1206036Y1555883D01*
X1205571Y1555900D01*
X1205108Y1555928D01*
X1204645Y1555968D01*
X1204184Y1556019D01*
X1203723Y1556082D01*
X1203265Y1556156D01*
X1202808Y1556241D01*
X1202354Y1556337D01*
X1201902Y1556444D01*
X1201453Y1556562D01*
X1201007Y1556692D01*
X1200564Y1556832D01*
X1200125Y1556983D01*
X1199690Y1557145D01*
X1199258Y1557317D01*
X1198832Y1557500D01*
X1198409Y1557694D01*
X1197992Y1557898D01*
X1197580Y1558111D01*
X1197173Y1558335D01*
X1196772Y1558569D01*
X1196376Y1558813D01*
X1195987Y1559066D01*
X1195604Y1559329D01*
X1195228Y1559601D01*
X1194858Y1559882D01*
X1194495Y1560172D01*
X1194140Y1560471D01*
X1193792Y1560779D01*
X1193452Y1561095D01*
X1193119Y1561419D01*
X1192795Y1561752D01*
X1192479Y1562092D01*
X1192171Y1562440D01*
X1191872Y1562795D01*
X1191582Y1563158D01*
X1191301Y1563528D01*
X1191029Y1563904D01*
X1190766Y1564287D01*
X1190513Y1564676D01*
X1190269Y1565072D01*
X1190035Y1565473D01*
X1189811Y1565880D01*
X1189598Y1566292D01*
X1189394Y1566709D01*
X1189200Y1567132D01*
X1189017Y1567558D01*
X1188845Y1567990D01*
X1188683Y1568425D01*
X1188532Y1568864D01*
X1188392Y1569307D01*
X1188262Y1569753D01*
X1188144Y1570202D01*
X1188037Y1570654D01*
X1187941Y1571108D01*
X1187856Y1571565D01*
X1187782Y1572023D01*
X1187719Y1572484D01*
X1187668Y1572945D01*
X1187628Y1573408D01*
X1187600Y1573871D01*
X1187583Y1574336D01*
X1187577Y1574800D01*
X1187577Y1778000D02*
X1187583Y1778464D01*
X1187600Y1778929D01*
X1187628Y1779392D01*
X1187668Y1779855D01*
X1187719Y1780316D01*
X1187782Y1780777D01*
X1187856Y1781235D01*
X1187941Y1781692D01*
X1188037Y1782146D01*
X1188144Y1782598D01*
X1188262Y1783047D01*
X1188392Y1783493D01*
X1188532Y1783936D01*
X1188683Y1784375D01*
X1188845Y1784810D01*
X1189017Y1785242D01*
X1189200Y1785668D01*
X1189394Y1786091D01*
X1189598Y1786508D01*
X1189811Y1786920D01*
X1190035Y1787327D01*
X1190269Y1787728D01*
X1190513Y1788124D01*
X1190766Y1788513D01*
X1191029Y1788896D01*
X1191301Y1789272D01*
X1191582Y1789642D01*
X1191872Y1790005D01*
X1192171Y1790360D01*
X1192479Y1790708D01*
X1192795Y1791048D01*
X1193119Y1791381D01*
X1193452Y1791705D01*
X1193792Y1792021D01*
X1194140Y1792329D01*
X1194495Y1792628D01*
X1194858Y1792918D01*
X1195228Y1793199D01*
X1195604Y1793471D01*
X1195987Y1793734D01*
X1196376Y1793987D01*
X1196772Y1794231D01*
X1197173Y1794465D01*
X1197580Y1794689D01*
X1197992Y1794902D01*
X1198409Y1795106D01*
X1198832Y1795300D01*
X1199258Y1795483D01*
X1199690Y1795655D01*
X1200125Y1795817D01*
X1200564Y1795968D01*
X1201007Y1796108D01*
X1201453Y1796238D01*
X1201902Y1796356D01*
X1202354Y1796463D01*
X1202808Y1796559D01*
X1203265Y1796644D01*
X1203723Y1796718D01*
X1204184Y1796781D01*
X1204645Y1796832D01*
X1205108Y1796872D01*
X1205571Y1796900D01*
X1206036Y1796917D01*
X1206500Y1796923D01*
X1206964Y1796917D01*
X1207429Y1796900D01*
X1207892Y1796872D01*
X1208355Y1796832D01*
X1208816Y1796781D01*
X1209277Y1796718D01*
X1209735Y1796644D01*
X1210192Y1796559D01*
X1210646Y1796463D01*
X1211098Y1796356D01*
X1211547Y1796238D01*
X1211993Y1796108D01*
X1212436Y1795968D01*
X1212875Y1795817D01*
X1213310Y1795655D01*
X1213742Y1795483D01*
X1214168Y1795300D01*
X1214591Y1795106D01*
X1215008Y1794902D01*
X1215420Y1794689D01*
X1215827Y1794465D01*
X1216228Y1794231D01*
X1216624Y1793987D01*
X1217013Y1793734D01*
X1217396Y1793471D01*
X1217772Y1793199D01*
X1218142Y1792918D01*
X1218505Y1792628D01*
X1218860Y1792329D01*
X1219208Y1792021D01*
X1219548Y1791705D01*
X1219881Y1791381D01*
X1220205Y1791048D01*
X1220521Y1790708D01*
X1220829Y1790360D01*
X1221128Y1790005D01*
X1221418Y1789642D01*
X1221699Y1789272D01*
X1221971Y1788896D01*
X1222234Y1788513D01*
X1222487Y1788124D01*
X1222731Y1787728D01*
X1222965Y1787327D01*
X1223189Y1786920D01*
X1223402Y1786508D01*
X1223606Y1786091D01*
X1223800Y1785668D01*
X1223983Y1785242D01*
X1224155Y1784810D01*
X1224317Y1784375D01*
X1224468Y1783936D01*
X1224608Y1783493D01*
X1224738Y1783047D01*
X1224856Y1782598D01*
X1224963Y1782146D01*
X1225059Y1781692D01*
X1225144Y1781235D01*
X1225218Y1780777D01*
X1225281Y1780316D01*
X1225332Y1779855D01*
X1225372Y1779392D01*
X1225400Y1778929D01*
X1225417Y1778464D01*
X1225423Y1778000D01*
X1225417Y1777536D01*
X1225400Y1777071D01*
X1225372Y1776608D01*
X1225332Y1776145D01*
X1225281Y1775684D01*
X1225218Y1775223D01*
X1225144Y1774765D01*
X1225059Y1774308D01*
X1224963Y1773854D01*
X1224856Y1773402D01*
X1224738Y1772953D01*
X1224608Y1772507D01*
X1224468Y1772064D01*
X1224317Y1771625D01*
X1224155Y1771190D01*
X1223983Y1770758D01*
X1223800Y1770332D01*
X1223606Y1769909D01*
X1223402Y1769492D01*
X1223189Y1769080D01*
X1222965Y1768673D01*
X1222731Y1768272D01*
X1222487Y1767876D01*
X1222234Y1767487D01*
X1221971Y1767104D01*
X1221699Y1766728D01*
X1221418Y1766358D01*
X1221128Y1765995D01*
X1220829Y1765640D01*
X1220521Y1765292D01*
X1220205Y1764952D01*
X1219881Y1764619D01*
X1219548Y1764295D01*
X1219208Y1763979D01*
X1218860Y1763671D01*
X1218505Y1763372D01*
X1218142Y1763082D01*
X1217772Y1762801D01*
X1217396Y1762529D01*
X1217013Y1762266D01*
X1216624Y1762013D01*
X1216228Y1761769D01*
X1215827Y1761535D01*
X1215420Y1761311D01*
X1215008Y1761098D01*
X1214591Y1760894D01*
X1214168Y1760700D01*
X1213742Y1760517D01*
X1213310Y1760345D01*
X1212875Y1760183D01*
X1212436Y1760032D01*
X1211993Y1759892D01*
X1211547Y1759762D01*
X1211098Y1759644D01*
X1210646Y1759537D01*
X1210192Y1759441D01*
X1209735Y1759356D01*
X1209277Y1759282D01*
X1208816Y1759219D01*
X1208355Y1759168D01*
X1207892Y1759128D01*
X1207429Y1759100D01*
X1206964Y1759083D01*
X1206500Y1759077D01*
X1206036Y1759083D01*
X1205571Y1759100D01*
X1205108Y1759128D01*
X1204645Y1759168D01*
X1204184Y1759219D01*
X1203723Y1759282D01*
X1203265Y1759356D01*
X1202808Y1759441D01*
X1202354Y1759537D01*
X1201902Y1759644D01*
X1201453Y1759762D01*
X1201007Y1759892D01*
X1200564Y1760032D01*
X1200125Y1760183D01*
X1199690Y1760345D01*
X1199258Y1760517D01*
X1198832Y1760700D01*
X1198409Y1760894D01*
X1197992Y1761098D01*
X1197580Y1761311D01*
X1197173Y1761535D01*
X1196772Y1761769D01*
X1196376Y1762013D01*
X1195987Y1762266D01*
X1195604Y1762529D01*
X1195228Y1762801D01*
X1194858Y1763082D01*
X1194495Y1763372D01*
X1194140Y1763671D01*
X1193792Y1763979D01*
X1193452Y1764295D01*
X1193119Y1764619D01*
X1192795Y1764952D01*
X1192479Y1765292D01*
X1192171Y1765640D01*
X1191872Y1765995D01*
X1191582Y1766358D01*
X1191301Y1766728D01*
X1191029Y1767104D01*
X1190766Y1767487D01*
X1190513Y1767876D01*
X1190269Y1768272D01*
X1190035Y1768673D01*
X1189811Y1769080D01*
X1189598Y1769492D01*
X1189394Y1769909D01*
X1189200Y1770332D01*
X1189017Y1770758D01*
X1188845Y1771190D01*
X1188683Y1771625D01*
X1188532Y1772064D01*
X1188392Y1772507D01*
X1188262Y1772953D01*
X1188144Y1773402D01*
X1188037Y1773854D01*
X1187941Y1774308D01*
X1187856Y1774765D01*
X1187782Y1775223D01*
X1187719Y1775684D01*
X1187668Y1776145D01*
X1187628Y1776608D01*
X1187600Y1777071D01*
X1187583Y1777536D01*
X1187577Y1778000D01*
X1187577Y1968500D02*
X1187583Y1968964D01*
X1187600Y1969429D01*
X1187628Y1969892D01*
X1187668Y1970355D01*
X1187719Y1970816D01*
X1187782Y1971277D01*
X1187856Y1971735D01*
X1187941Y1972192D01*
X1188037Y1972646D01*
X1188144Y1973098D01*
X1188262Y1973547D01*
X1188392Y1973993D01*
X1188532Y1974436D01*
X1188683Y1974875D01*
X1188845Y1975310D01*
X1189017Y1975742D01*
X1189200Y1976168D01*
X1189394Y1976591D01*
X1189598Y1977008D01*
X1189811Y1977420D01*
X1190035Y1977827D01*
X1190269Y1978228D01*
X1190513Y1978624D01*
X1190766Y1979013D01*
X1191029Y1979396D01*
X1191301Y1979772D01*
X1191582Y1980142D01*
X1191872Y1980505D01*
X1192171Y1980860D01*
X1192479Y1981208D01*
X1192795Y1981548D01*
X1193119Y1981881D01*
X1193452Y1982205D01*
X1193792Y1982521D01*
X1194140Y1982829D01*
X1194495Y1983128D01*
X1194858Y1983418D01*
X1195228Y1983699D01*
X1195604Y1983971D01*
X1195987Y1984234D01*
X1196376Y1984487D01*
X1196772Y1984731D01*
X1197173Y1984965D01*
X1197580Y1985189D01*
X1197992Y1985402D01*
X1198409Y1985606D01*
X1198832Y1985800D01*
X1199258Y1985983D01*
X1199690Y1986155D01*
X1200125Y1986317D01*
X1200564Y1986468D01*
X1201007Y1986608D01*
X1201453Y1986738D01*
X1201902Y1986856D01*
X1202354Y1986963D01*
X1202808Y1987059D01*
X1203265Y1987144D01*
X1203723Y1987218D01*
X1204184Y1987281D01*
X1204645Y1987332D01*
X1205108Y1987372D01*
X1205571Y1987400D01*
X1206036Y1987417D01*
X1206500Y1987423D01*
X1206964Y1987417D01*
X1207429Y1987400D01*
X1207892Y1987372D01*
X1208355Y1987332D01*
X1208816Y1987281D01*
X1209277Y1987218D01*
X1209735Y1987144D01*
X1210192Y1987059D01*
X1210646Y1986963D01*
X1211098Y1986856D01*
X1211547Y1986738D01*
X1211993Y1986608D01*
X1212436Y1986468D01*
X1212875Y1986317D01*
X1213310Y1986155D01*
X1213742Y1985983D01*
X1214168Y1985800D01*
X1214591Y1985606D01*
X1215008Y1985402D01*
X1215420Y1985189D01*
X1215827Y1984965D01*
X1216228Y1984731D01*
X1216624Y1984487D01*
X1217013Y1984234D01*
X1217396Y1983971D01*
X1217772Y1983699D01*
X1218142Y1983418D01*
X1218505Y1983128D01*
X1218860Y1982829D01*
X1219208Y1982521D01*
X1219548Y1982205D01*
X1219881Y1981881D01*
X1220205Y1981548D01*
X1220521Y1981208D01*
X1220829Y1980860D01*
X1221128Y1980505D01*
X1221418Y1980142D01*
X1221699Y1979772D01*
X1221971Y1979396D01*
X1222234Y1979013D01*
X1222487Y1978624D01*
X1222731Y1978228D01*
X1222965Y1977827D01*
X1223189Y1977420D01*
X1223402Y1977008D01*
X1223606Y1976591D01*
X1223800Y1976168D01*
X1223983Y1975742D01*
X1224155Y1975310D01*
X1224317Y1974875D01*
X1224468Y1974436D01*
X1224608Y1973993D01*
X1224738Y1973547D01*
X1224856Y1973098D01*
X1224963Y1972646D01*
X1225059Y1972192D01*
X1225144Y1971735D01*
X1225218Y1971277D01*
X1225281Y1970816D01*
X1225332Y1970355D01*
X1225372Y1969892D01*
X1225400Y1969429D01*
X1225417Y1968964D01*
X1225423Y1968500D01*
X1225417Y1968036D01*
X1225400Y1967571D01*
X1225372Y1967108D01*
X1225332Y1966645D01*
X1225281Y1966184D01*
X1225218Y1965723D01*
X1225144Y1965265D01*
X1225059Y1964808D01*
X1224963Y1964354D01*
X1224856Y1963902D01*
X1224738Y1963453D01*
X1224608Y1963007D01*
X1224468Y1962564D01*
X1224317Y1962125D01*
X1224155Y1961690D01*
X1223983Y1961258D01*
X1223800Y1960832D01*
X1223606Y1960409D01*
X1223402Y1959992D01*
X1223189Y1959580D01*
X1222965Y1959173D01*
X1222731Y1958772D01*
X1222487Y1958376D01*
X1222234Y1957987D01*
X1221971Y1957604D01*
X1221699Y1957228D01*
X1221418Y1956858D01*
X1221128Y1956495D01*
X1220829Y1956140D01*
X1220521Y1955792D01*
X1220205Y1955452D01*
X1219881Y1955119D01*
X1219548Y1954795D01*
X1219208Y1954479D01*
X1218860Y1954171D01*
X1218505Y1953872D01*
X1218142Y1953582D01*
X1217772Y1953301D01*
X1217396Y1953029D01*
X1217013Y1952766D01*
X1216624Y1952513D01*
X1216228Y1952269D01*
X1215827Y1952035D01*
X1215420Y1951811D01*
X1215008Y1951598D01*
X1214591Y1951394D01*
X1214168Y1951200D01*
X1213742Y1951017D01*
X1213310Y1950845D01*
X1212875Y1950683D01*
X1212436Y1950532D01*
X1211993Y1950392D01*
X1211547Y1950262D01*
X1211098Y1950144D01*
X1210646Y1950037D01*
X1210192Y1949941D01*
X1209735Y1949856D01*
X1209277Y1949782D01*
X1208816Y1949719D01*
X1208355Y1949668D01*
X1207892Y1949628D01*
X1207429Y1949600D01*
X1206964Y1949583D01*
X1206500Y1949577D01*
X1206036Y1949583D01*
X1205571Y1949600D01*
X1205108Y1949628D01*
X1204645Y1949668D01*
X1204184Y1949719D01*
X1203723Y1949782D01*
X1203265Y1949856D01*
X1202808Y1949941D01*
X1202354Y1950037D01*
X1201902Y1950144D01*
X1201453Y1950262D01*
X1201007Y1950392D01*
X1200564Y1950532D01*
X1200125Y1950683D01*
X1199690Y1950845D01*
X1199258Y1951017D01*
X1198832Y1951200D01*
X1198409Y1951394D01*
X1197992Y1951598D01*
X1197580Y1951811D01*
X1197173Y1952035D01*
X1196772Y1952269D01*
X1196376Y1952513D01*
X1195987Y1952766D01*
X1195604Y1953029D01*
X1195228Y1953301D01*
X1194858Y1953582D01*
X1194495Y1953872D01*
X1194140Y1954171D01*
X1193792Y1954479D01*
X1193452Y1954795D01*
X1193119Y1955119D01*
X1192795Y1955452D01*
X1192479Y1955792D01*
X1192171Y1956140D01*
X1191872Y1956495D01*
X1191582Y1956858D01*
X1191301Y1957228D01*
X1191029Y1957604D01*
X1190766Y1957987D01*
X1190513Y1958376D01*
X1190269Y1958772D01*
X1190035Y1959173D01*
X1189811Y1959580D01*
X1189598Y1959992D01*
X1189394Y1960409D01*
X1189200Y1960832D01*
X1189017Y1961258D01*
X1188845Y1961690D01*
X1188683Y1962125D01*
X1188532Y1962564D01*
X1188392Y1963007D01*
X1188262Y1963453D01*
X1188144Y1963902D01*
X1188037Y1964354D01*
X1187941Y1964808D01*
X1187856Y1965265D01*
X1187782Y1965723D01*
X1187719Y1966184D01*
X1187668Y1966645D01*
X1187628Y1967108D01*
X1187600Y1967571D01*
X1187583Y1968036D01*
X1187577Y1968500D01*
X1111377Y1028700D02*
X1111383Y1029164D01*
X1111400Y1029629D01*
X1111428Y1030092D01*
X1111468Y1030555D01*
X1111519Y1031016D01*
X1111582Y1031477D01*
X1111656Y1031935D01*
X1111741Y1032392D01*
X1111837Y1032846D01*
X1111944Y1033298D01*
X1112062Y1033747D01*
X1112192Y1034193D01*
X1112332Y1034636D01*
X1112483Y1035075D01*
X1112645Y1035510D01*
X1112817Y1035942D01*
X1113000Y1036368D01*
X1113194Y1036791D01*
X1113398Y1037208D01*
X1113611Y1037620D01*
X1113835Y1038027D01*
X1114069Y1038428D01*
X1114313Y1038824D01*
X1114566Y1039213D01*
X1114829Y1039596D01*
X1115101Y1039972D01*
X1115382Y1040342D01*
X1115672Y1040705D01*
X1115971Y1041060D01*
X1116279Y1041408D01*
X1116595Y1041748D01*
X1116919Y1042081D01*
X1117252Y1042405D01*
X1117592Y1042721D01*
X1117940Y1043029D01*
X1118295Y1043328D01*
X1118658Y1043618D01*
X1119028Y1043899D01*
X1119404Y1044171D01*
X1119787Y1044434D01*
X1120176Y1044687D01*
X1120572Y1044931D01*
X1120973Y1045165D01*
X1121380Y1045389D01*
X1121792Y1045602D01*
X1122209Y1045806D01*
X1122632Y1046000D01*
X1123058Y1046183D01*
X1123490Y1046355D01*
X1123925Y1046517D01*
X1124364Y1046668D01*
X1124807Y1046808D01*
X1125253Y1046938D01*
X1125702Y1047056D01*
X1126154Y1047163D01*
X1126608Y1047259D01*
X1127065Y1047344D01*
X1127523Y1047418D01*
X1127984Y1047481D01*
X1128445Y1047532D01*
X1128908Y1047572D01*
X1129371Y1047600D01*
X1129836Y1047617D01*
X1130300Y1047623D01*
X1130764Y1047617D01*
X1131229Y1047600D01*
X1131692Y1047572D01*
X1132155Y1047532D01*
X1132616Y1047481D01*
X1133077Y1047418D01*
X1133535Y1047344D01*
X1133992Y1047259D01*
X1134446Y1047163D01*
X1134898Y1047056D01*
X1135347Y1046938D01*
X1135793Y1046808D01*
X1136236Y1046668D01*
X1136675Y1046517D01*
X1137110Y1046355D01*
X1137542Y1046183D01*
X1137968Y1046000D01*
X1138391Y1045806D01*
X1138808Y1045602D01*
X1139220Y1045389D01*
X1139627Y1045165D01*
X1140028Y1044931D01*
X1140424Y1044687D01*
X1140813Y1044434D01*
X1141196Y1044171D01*
X1141572Y1043899D01*
X1141942Y1043618D01*
X1142305Y1043328D01*
X1142660Y1043029D01*
X1143008Y1042721D01*
X1143348Y1042405D01*
X1143681Y1042081D01*
X1144005Y1041748D01*
X1144321Y1041408D01*
X1144629Y1041060D01*
X1144928Y1040705D01*
X1145218Y1040342D01*
X1145499Y1039972D01*
X1145771Y1039596D01*
X1146034Y1039213D01*
X1146287Y1038824D01*
X1146531Y1038428D01*
X1146765Y1038027D01*
X1146989Y1037620D01*
X1147202Y1037208D01*
X1147406Y1036791D01*
X1147600Y1036368D01*
X1147783Y1035942D01*
X1147955Y1035510D01*
X1148117Y1035075D01*
X1148268Y1034636D01*
X1148408Y1034193D01*
X1148538Y1033747D01*
X1148656Y1033298D01*
X1148763Y1032846D01*
X1148859Y1032392D01*
X1148944Y1031935D01*
X1149018Y1031477D01*
X1149081Y1031016D01*
X1149132Y1030555D01*
X1149172Y1030092D01*
X1149200Y1029629D01*
X1149217Y1029164D01*
X1149223Y1028700D01*
X1149217Y1028236D01*
X1149200Y1027771D01*
X1149172Y1027308D01*
X1149132Y1026845D01*
X1149081Y1026384D01*
X1149018Y1025923D01*
X1148944Y1025465D01*
X1148859Y1025008D01*
X1148763Y1024554D01*
X1148656Y1024102D01*
X1148538Y1023653D01*
X1148408Y1023207D01*
X1148268Y1022764D01*
X1148117Y1022325D01*
X1147955Y1021890D01*
X1147783Y1021458D01*
X1147600Y1021032D01*
X1147406Y1020609D01*
X1147202Y1020192D01*
X1146989Y1019780D01*
X1146765Y1019373D01*
X1146531Y1018972D01*
X1146287Y1018576D01*
X1146034Y1018187D01*
X1145771Y1017804D01*
X1145499Y1017428D01*
X1145218Y1017058D01*
X1144928Y1016695D01*
X1144629Y1016340D01*
X1144321Y1015992D01*
X1144005Y1015652D01*
X1143681Y1015319D01*
X1143348Y1014995D01*
X1143008Y1014679D01*
X1142660Y1014371D01*
X1142305Y1014072D01*
X1141942Y1013782D01*
X1141572Y1013501D01*
X1141196Y1013229D01*
X1140813Y1012966D01*
X1140424Y1012713D01*
X1140028Y1012469D01*
X1139627Y1012235D01*
X1139220Y1012011D01*
X1138808Y1011798D01*
X1138391Y1011594D01*
X1137968Y1011400D01*
X1137542Y1011217D01*
X1137110Y1011045D01*
X1136675Y1010883D01*
X1136236Y1010732D01*
X1135793Y1010592D01*
X1135347Y1010462D01*
X1134898Y1010344D01*
X1134446Y1010237D01*
X1133992Y1010141D01*
X1133535Y1010056D01*
X1133077Y1009982D01*
X1132616Y1009919D01*
X1132155Y1009868D01*
X1131692Y1009828D01*
X1131229Y1009800D01*
X1130764Y1009783D01*
X1130300Y1009777D01*
X1129836Y1009783D01*
X1129371Y1009800D01*
X1128908Y1009828D01*
X1128445Y1009868D01*
X1127984Y1009919D01*
X1127523Y1009982D01*
X1127065Y1010056D01*
X1126608Y1010141D01*
X1126154Y1010237D01*
X1125702Y1010344D01*
X1125253Y1010462D01*
X1124807Y1010592D01*
X1124364Y1010732D01*
X1123925Y1010883D01*
X1123490Y1011045D01*
X1123058Y1011217D01*
X1122632Y1011400D01*
X1122209Y1011594D01*
X1121792Y1011798D01*
X1121380Y1012011D01*
X1120973Y1012235D01*
X1120572Y1012469D01*
X1120176Y1012713D01*
X1119787Y1012966D01*
X1119404Y1013229D01*
X1119028Y1013501D01*
X1118658Y1013782D01*
X1118295Y1014072D01*
X1117940Y1014371D01*
X1117592Y1014679D01*
X1117252Y1014995D01*
X1116919Y1015319D01*
X1116595Y1015652D01*
X1116279Y1015992D01*
X1115971Y1016340D01*
X1115672Y1016695D01*
X1115382Y1017058D01*
X1115101Y1017428D01*
X1114829Y1017804D01*
X1114566Y1018187D01*
X1114313Y1018576D01*
X1114069Y1018972D01*
X1113835Y1019373D01*
X1113611Y1019780D01*
X1113398Y1020192D01*
X1113194Y1020609D01*
X1113000Y1021032D01*
X1112817Y1021458D01*
X1112645Y1021890D01*
X1112483Y1022325D01*
X1112332Y1022764D01*
X1112192Y1023207D01*
X1112062Y1023653D01*
X1111944Y1024102D01*
X1111837Y1024554D01*
X1111741Y1025008D01*
X1111656Y1025465D01*
X1111582Y1025923D01*
X1111519Y1026384D01*
X1111468Y1026845D01*
X1111428Y1027308D01*
X1111400Y1027771D01*
X1111383Y1028236D01*
X1111377Y1028700D01*
X1187577Y2082800D02*
X1187583Y2083264D01*
X1187600Y2083729D01*
X1187628Y2084192D01*
X1187668Y2084655D01*
X1187719Y2085116D01*
X1187782Y2085577D01*
X1187856Y2086035D01*
X1187941Y2086492D01*
X1188037Y2086946D01*
X1188144Y2087398D01*
X1188262Y2087847D01*
X1188392Y2088293D01*
X1188532Y2088736D01*
X1188683Y2089175D01*
X1188845Y2089610D01*
X1189017Y2090042D01*
X1189200Y2090468D01*
X1189394Y2090891D01*
X1189598Y2091308D01*
X1189811Y2091720D01*
X1190035Y2092127D01*
X1190269Y2092528D01*
X1190513Y2092924D01*
X1190766Y2093313D01*
X1191029Y2093696D01*
X1191301Y2094072D01*
X1191582Y2094442D01*
X1191872Y2094805D01*
X1192171Y2095160D01*
X1192479Y2095508D01*
X1192795Y2095848D01*
X1193119Y2096181D01*
X1193452Y2096505D01*
X1193792Y2096821D01*
X1194140Y2097129D01*
X1194495Y2097428D01*
X1194858Y2097718D01*
X1195228Y2097999D01*
X1195604Y2098271D01*
X1195987Y2098534D01*
X1196376Y2098787D01*
X1196772Y2099031D01*
X1197173Y2099265D01*
X1197580Y2099489D01*
X1197992Y2099702D01*
X1198409Y2099906D01*
X1198832Y2100100D01*
X1199258Y2100283D01*
X1199690Y2100455D01*
X1200125Y2100617D01*
X1200564Y2100768D01*
X1201007Y2100908D01*
X1201453Y2101038D01*
X1201902Y2101156D01*
X1202354Y2101263D01*
X1202808Y2101359D01*
X1203265Y2101444D01*
X1203723Y2101518D01*
X1204184Y2101581D01*
X1204645Y2101632D01*
X1205108Y2101672D01*
X1205571Y2101700D01*
X1206036Y2101717D01*
X1206500Y2101723D01*
X1206964Y2101717D01*
X1207429Y2101700D01*
X1207892Y2101672D01*
X1208355Y2101632D01*
X1208816Y2101581D01*
X1209277Y2101518D01*
X1209735Y2101444D01*
X1210192Y2101359D01*
X1210646Y2101263D01*
X1211098Y2101156D01*
X1211547Y2101038D01*
X1211993Y2100908D01*
X1212436Y2100768D01*
X1212875Y2100617D01*
X1213310Y2100455D01*
X1213742Y2100283D01*
X1214168Y2100100D01*
X1214591Y2099906D01*
X1215008Y2099702D01*
X1215420Y2099489D01*
X1215827Y2099265D01*
X1216228Y2099031D01*
X1216624Y2098787D01*
X1217013Y2098534D01*
X1217396Y2098271D01*
X1217772Y2097999D01*
X1218142Y2097718D01*
X1218505Y2097428D01*
X1218860Y2097129D01*
X1219208Y2096821D01*
X1219548Y2096505D01*
X1219881Y2096181D01*
X1220205Y2095848D01*
X1220521Y2095508D01*
X1220829Y2095160D01*
X1221128Y2094805D01*
X1221418Y2094442D01*
X1221699Y2094072D01*
X1221971Y2093696D01*
X1222234Y2093313D01*
X1222487Y2092924D01*
X1222731Y2092528D01*
X1222965Y2092127D01*
X1223189Y2091720D01*
X1223402Y2091308D01*
X1223606Y2090891D01*
X1223800Y2090468D01*
X1223983Y2090042D01*
X1224155Y2089610D01*
X1224317Y2089175D01*
X1224468Y2088736D01*
X1224608Y2088293D01*
X1224738Y2087847D01*
X1224856Y2087398D01*
X1224963Y2086946D01*
X1225059Y2086492D01*
X1225144Y2086035D01*
X1225218Y2085577D01*
X1225281Y2085116D01*
X1225332Y2084655D01*
X1225372Y2084192D01*
X1225400Y2083729D01*
X1225417Y2083264D01*
X1225423Y2082800D01*
X1225417Y2082336D01*
X1225400Y2081871D01*
X1225372Y2081408D01*
X1225332Y2080945D01*
X1225281Y2080484D01*
X1225218Y2080023D01*
X1225144Y2079565D01*
X1225059Y2079108D01*
X1224963Y2078654D01*
X1224856Y2078202D01*
X1224738Y2077753D01*
X1224608Y2077307D01*
X1224468Y2076864D01*
X1224317Y2076425D01*
X1224155Y2075990D01*
X1223983Y2075558D01*
X1223800Y2075132D01*
X1223606Y2074709D01*
X1223402Y2074292D01*
X1223189Y2073880D01*
X1222965Y2073473D01*
X1222731Y2073072D01*
X1222487Y2072676D01*
X1222234Y2072287D01*
X1221971Y2071904D01*
X1221699Y2071528D01*
X1221418Y2071158D01*
X1221128Y2070795D01*
X1220829Y2070440D01*
X1220521Y2070092D01*
X1220205Y2069752D01*
X1219881Y2069419D01*
X1219548Y2069095D01*
X1219208Y2068779D01*
X1218860Y2068471D01*
X1218505Y2068172D01*
X1218142Y2067882D01*
X1217772Y2067601D01*
X1217396Y2067329D01*
X1217013Y2067066D01*
X1216624Y2066813D01*
X1216228Y2066569D01*
X1215827Y2066335D01*
X1215420Y2066111D01*
X1215008Y2065898D01*
X1214591Y2065694D01*
X1214168Y2065500D01*
X1213742Y2065317D01*
X1213310Y2065145D01*
X1212875Y2064983D01*
X1212436Y2064832D01*
X1211993Y2064692D01*
X1211547Y2064562D01*
X1211098Y2064444D01*
X1210646Y2064337D01*
X1210192Y2064241D01*
X1209735Y2064156D01*
X1209277Y2064082D01*
X1208816Y2064019D01*
X1208355Y2063968D01*
X1207892Y2063928D01*
X1207429Y2063900D01*
X1206964Y2063883D01*
X1206500Y2063877D01*
X1206036Y2063883D01*
X1205571Y2063900D01*
X1205108Y2063928D01*
X1204645Y2063968D01*
X1204184Y2064019D01*
X1203723Y2064082D01*
X1203265Y2064156D01*
X1202808Y2064241D01*
X1202354Y2064337D01*
X1201902Y2064444D01*
X1201453Y2064562D01*
X1201007Y2064692D01*
X1200564Y2064832D01*
X1200125Y2064983D01*
X1199690Y2065145D01*
X1199258Y2065317D01*
X1198832Y2065500D01*
X1198409Y2065694D01*
X1197992Y2065898D01*
X1197580Y2066111D01*
X1197173Y2066335D01*
X1196772Y2066569D01*
X1196376Y2066813D01*
X1195987Y2067066D01*
X1195604Y2067329D01*
X1195228Y2067601D01*
X1194858Y2067882D01*
X1194495Y2068172D01*
X1194140Y2068471D01*
X1193792Y2068779D01*
X1193452Y2069095D01*
X1193119Y2069419D01*
X1192795Y2069752D01*
X1192479Y2070092D01*
X1192171Y2070440D01*
X1191872Y2070795D01*
X1191582Y2071158D01*
X1191301Y2071528D01*
X1191029Y2071904D01*
X1190766Y2072287D01*
X1190513Y2072676D01*
X1190269Y2073072D01*
X1190035Y2073473D01*
X1189811Y2073880D01*
X1189598Y2074292D01*
X1189394Y2074709D01*
X1189200Y2075132D01*
X1189017Y2075558D01*
X1188845Y2075990D01*
X1188683Y2076425D01*
X1188532Y2076864D01*
X1188392Y2077307D01*
X1188262Y2077753D01*
X1188144Y2078202D01*
X1188037Y2078654D01*
X1187941Y2079108D01*
X1187856Y2079565D01*
X1187782Y2080023D01*
X1187719Y2080484D01*
X1187668Y2080945D01*
X1187628Y2081408D01*
X1187600Y2081871D01*
X1187583Y2082336D01*
X1187577Y2082800D01*
X1187577Y114300D02*
X1187583Y114764D01*
X1187600Y115229D01*
X1187628Y115692D01*
X1187668Y116155D01*
X1187719Y116616D01*
X1187782Y117077D01*
X1187856Y117535D01*
X1187941Y117992D01*
X1188037Y118446D01*
X1188144Y118898D01*
X1188262Y119347D01*
X1188392Y119793D01*
X1188532Y120236D01*
X1188683Y120675D01*
X1188845Y121110D01*
X1189017Y121542D01*
X1189200Y121968D01*
X1189394Y122391D01*
X1189598Y122808D01*
X1189811Y123220D01*
X1190035Y123627D01*
X1190269Y124028D01*
X1190513Y124424D01*
X1190766Y124813D01*
X1191029Y125196D01*
X1191301Y125572D01*
X1191582Y125942D01*
X1191872Y126305D01*
X1192171Y126660D01*
X1192479Y127008D01*
X1192795Y127348D01*
X1193119Y127681D01*
X1193452Y128005D01*
X1193792Y128321D01*
X1194140Y128629D01*
X1194495Y128928D01*
X1194858Y129218D01*
X1195228Y129499D01*
X1195604Y129771D01*
X1195987Y130034D01*
X1196376Y130287D01*
X1196772Y130531D01*
X1197173Y130765D01*
X1197580Y130989D01*
X1197992Y131202D01*
X1198409Y131406D01*
X1198832Y131600D01*
X1199258Y131783D01*
X1199690Y131955D01*
X1200125Y132117D01*
X1200564Y132268D01*
X1201007Y132408D01*
X1201453Y132538D01*
X1201902Y132656D01*
X1202354Y132763D01*
X1202808Y132859D01*
X1203265Y132944D01*
X1203723Y133018D01*
X1204184Y133081D01*
X1204645Y133132D01*
X1205108Y133172D01*
X1205571Y133200D01*
X1206036Y133217D01*
X1206500Y133223D01*
X1206964Y133217D01*
X1207429Y133200D01*
X1207892Y133172D01*
X1208355Y133132D01*
X1208816Y133081D01*
X1209277Y133018D01*
X1209735Y132944D01*
X1210192Y132859D01*
X1210646Y132763D01*
X1211098Y132656D01*
X1211547Y132538D01*
X1211993Y132408D01*
X1212436Y132268D01*
X1212875Y132117D01*
X1213310Y131955D01*
X1213742Y131783D01*
X1214168Y131600D01*
X1214591Y131406D01*
X1215008Y131202D01*
X1215420Y130989D01*
X1215827Y130765D01*
X1216228Y130531D01*
X1216624Y130287D01*
X1217013Y130034D01*
X1217396Y129771D01*
X1217772Y129499D01*
X1218142Y129218D01*
X1218505Y128928D01*
X1218860Y128629D01*
X1219208Y128321D01*
X1219548Y128005D01*
X1219881Y127681D01*
X1220205Y127348D01*
X1220521Y127008D01*
X1220829Y126660D01*
X1221128Y126305D01*
X1221418Y125942D01*
X1221699Y125572D01*
X1221971Y125196D01*
X1222234Y124813D01*
X1222487Y124424D01*
X1222731Y124028D01*
X1222965Y123627D01*
X1223189Y123220D01*
X1223402Y122808D01*
X1223606Y122391D01*
X1223800Y121968D01*
X1223983Y121542D01*
X1224155Y121110D01*
X1224317Y120675D01*
X1224468Y120236D01*
X1224608Y119793D01*
X1224738Y119347D01*
X1224856Y118898D01*
X1224963Y118446D01*
X1225059Y117992D01*
X1225144Y117535D01*
X1225218Y117077D01*
X1225281Y116616D01*
X1225332Y116155D01*
X1225372Y115692D01*
X1225400Y115229D01*
X1225417Y114764D01*
X1225423Y114300D01*
X1225417Y113836D01*
X1225400Y113371D01*
X1225372Y112908D01*
X1225332Y112445D01*
X1225281Y111984D01*
X1225218Y111523D01*
X1225144Y111065D01*
X1225059Y110608D01*
X1224963Y110154D01*
X1224856Y109702D01*
X1224738Y109253D01*
X1224608Y108807D01*
X1224468Y108364D01*
X1224317Y107925D01*
X1224155Y107490D01*
X1223983Y107058D01*
X1223800Y106632D01*
X1223606Y106209D01*
X1223402Y105792D01*
X1223189Y105380D01*
X1222965Y104973D01*
X1222731Y104572D01*
X1222487Y104176D01*
X1222234Y103787D01*
X1221971Y103404D01*
X1221699Y103028D01*
X1221418Y102658D01*
X1221128Y102295D01*
X1220829Y101940D01*
X1220521Y101592D01*
X1220205Y101252D01*
X1219881Y100919D01*
X1219548Y100595D01*
X1219208Y100279D01*
X1218860Y99971D01*
X1218505Y99672D01*
X1218142Y99382D01*
X1217772Y99101D01*
X1217396Y98829D01*
X1217013Y98566D01*
X1216624Y98313D01*
X1216228Y98069D01*
X1215827Y97835D01*
X1215420Y97611D01*
X1215008Y97398D01*
X1214591Y97194D01*
X1214168Y97000D01*
X1213742Y96817D01*
X1213310Y96645D01*
X1212875Y96483D01*
X1212436Y96332D01*
X1211993Y96192D01*
X1211547Y96062D01*
X1211098Y95944D01*
X1210646Y95837D01*
X1210192Y95741D01*
X1209735Y95656D01*
X1209277Y95582D01*
X1208816Y95519D01*
X1208355Y95468D01*
X1207892Y95428D01*
X1207429Y95400D01*
X1206964Y95383D01*
X1206500Y95377D01*
X1206036Y95383D01*
X1205571Y95400D01*
X1205108Y95428D01*
X1204645Y95468D01*
X1204184Y95519D01*
X1203723Y95582D01*
X1203265Y95656D01*
X1202808Y95741D01*
X1202354Y95837D01*
X1201902Y95944D01*
X1201453Y96062D01*
X1201007Y96192D01*
X1200564Y96332D01*
X1200125Y96483D01*
X1199690Y96645D01*
X1199258Y96817D01*
X1198832Y97000D01*
X1198409Y97194D01*
X1197992Y97398D01*
X1197580Y97611D01*
X1197173Y97835D01*
X1196772Y98069D01*
X1196376Y98313D01*
X1195987Y98566D01*
X1195604Y98829D01*
X1195228Y99101D01*
X1194858Y99382D01*
X1194495Y99672D01*
X1194140Y99971D01*
X1193792Y100279D01*
X1193452Y100595D01*
X1193119Y100919D01*
X1192795Y101252D01*
X1192479Y101592D01*
X1192171Y101940D01*
X1191872Y102295D01*
X1191582Y102658D01*
X1191301Y103028D01*
X1191029Y103404D01*
X1190766Y103787D01*
X1190513Y104176D01*
X1190269Y104572D01*
X1190035Y104973D01*
X1189811Y105380D01*
X1189598Y105792D01*
X1189394Y106209D01*
X1189200Y106632D01*
X1189017Y107058D01*
X1188845Y107490D01*
X1188683Y107925D01*
X1188532Y108364D01*
X1188392Y108807D01*
X1188262Y109253D01*
X1188144Y109702D01*
X1188037Y110154D01*
X1187941Y110608D01*
X1187856Y111065D01*
X1187782Y111523D01*
X1187719Y111984D01*
X1187668Y112445D01*
X1187628Y112908D01*
X1187600Y113371D01*
X1187583Y113836D01*
X1187577Y114300D01*
X1187577Y330200D02*
X1187583Y330664D01*
X1187600Y331129D01*
X1187628Y331592D01*
X1187668Y332055D01*
X1187719Y332516D01*
X1187782Y332977D01*
X1187856Y333435D01*
X1187941Y333892D01*
X1188037Y334346D01*
X1188144Y334798D01*
X1188262Y335247D01*
X1188392Y335693D01*
X1188532Y336136D01*
X1188683Y336575D01*
X1188845Y337010D01*
X1189017Y337442D01*
X1189200Y337868D01*
X1189394Y338291D01*
X1189598Y338708D01*
X1189811Y339120D01*
X1190035Y339527D01*
X1190269Y339928D01*
X1190513Y340324D01*
X1190766Y340713D01*
X1191029Y341096D01*
X1191301Y341472D01*
X1191582Y341842D01*
X1191872Y342205D01*
X1192171Y342560D01*
X1192479Y342908D01*
X1192795Y343248D01*
X1193119Y343581D01*
X1193452Y343905D01*
X1193792Y344221D01*
X1194140Y344529D01*
X1194495Y344828D01*
X1194858Y345118D01*
X1195228Y345399D01*
X1195604Y345671D01*
X1195987Y345934D01*
X1196376Y346187D01*
X1196772Y346431D01*
X1197173Y346665D01*
X1197580Y346889D01*
X1197992Y347102D01*
X1198409Y347306D01*
X1198832Y347500D01*
X1199258Y347683D01*
X1199690Y347855D01*
X1200125Y348017D01*
X1200564Y348168D01*
X1201007Y348308D01*
X1201453Y348438D01*
X1201902Y348556D01*
X1202354Y348663D01*
X1202808Y348759D01*
X1203265Y348844D01*
X1203723Y348918D01*
X1204184Y348981D01*
X1204645Y349032D01*
X1205108Y349072D01*
X1205571Y349100D01*
X1206036Y349117D01*
X1206500Y349123D01*
X1206964Y349117D01*
X1207429Y349100D01*
X1207892Y349072D01*
X1208355Y349032D01*
X1208816Y348981D01*
X1209277Y348918D01*
X1209735Y348844D01*
X1210192Y348759D01*
X1210646Y348663D01*
X1211098Y348556D01*
X1211547Y348438D01*
X1211993Y348308D01*
X1212436Y348168D01*
X1212875Y348017D01*
X1213310Y347855D01*
X1213742Y347683D01*
X1214168Y347500D01*
X1214591Y347306D01*
X1215008Y347102D01*
X1215420Y346889D01*
X1215827Y346665D01*
X1216228Y346431D01*
X1216624Y346187D01*
X1217013Y345934D01*
X1217396Y345671D01*
X1217772Y345399D01*
X1218142Y345118D01*
X1218505Y344828D01*
X1218860Y344529D01*
X1219208Y344221D01*
X1219548Y343905D01*
X1219881Y343581D01*
X1220205Y343248D01*
X1220521Y342908D01*
X1220829Y342560D01*
X1221128Y342205D01*
X1221418Y341842D01*
X1221699Y341472D01*
X1221971Y341096D01*
X1222234Y340713D01*
X1222487Y340324D01*
X1222731Y339928D01*
X1222965Y339527D01*
X1223189Y339120D01*
X1223402Y338708D01*
X1223606Y338291D01*
X1223800Y337868D01*
X1223983Y337442D01*
X1224155Y337010D01*
X1224317Y336575D01*
X1224468Y336136D01*
X1224608Y335693D01*
X1224738Y335247D01*
X1224856Y334798D01*
X1224963Y334346D01*
X1225059Y333892D01*
X1225144Y333435D01*
X1225218Y332977D01*
X1225281Y332516D01*
X1225332Y332055D01*
X1225372Y331592D01*
X1225400Y331129D01*
X1225417Y330664D01*
X1225423Y330200D01*
X1225417Y329736D01*
X1225400Y329271D01*
X1225372Y328808D01*
X1225332Y328345D01*
X1225281Y327884D01*
X1225218Y327423D01*
X1225144Y326965D01*
X1225059Y326508D01*
X1224963Y326054D01*
X1224856Y325602D01*
X1224738Y325153D01*
X1224608Y324707D01*
X1224468Y324264D01*
X1224317Y323825D01*
X1224155Y323390D01*
X1223983Y322958D01*
X1223800Y322532D01*
X1223606Y322109D01*
X1223402Y321692D01*
X1223189Y321280D01*
X1222965Y320873D01*
X1222731Y320472D01*
X1222487Y320076D01*
X1222234Y319687D01*
X1221971Y319304D01*
X1221699Y318928D01*
X1221418Y318558D01*
X1221128Y318195D01*
X1220829Y317840D01*
X1220521Y317492D01*
X1220205Y317152D01*
X1219881Y316819D01*
X1219548Y316495D01*
X1219208Y316179D01*
X1218860Y315871D01*
X1218505Y315572D01*
X1218142Y315282D01*
X1217772Y315001D01*
X1217396Y314729D01*
X1217013Y314466D01*
X1216624Y314213D01*
X1216228Y313969D01*
X1215827Y313735D01*
X1215420Y313511D01*
X1215008Y313298D01*
X1214591Y313094D01*
X1214168Y312900D01*
X1213742Y312717D01*
X1213310Y312545D01*
X1212875Y312383D01*
X1212436Y312232D01*
X1211993Y312092D01*
X1211547Y311962D01*
X1211098Y311844D01*
X1210646Y311737D01*
X1210192Y311641D01*
X1209735Y311556D01*
X1209277Y311482D01*
X1208816Y311419D01*
X1208355Y311368D01*
X1207892Y311328D01*
X1207429Y311300D01*
X1206964Y311283D01*
X1206500Y311277D01*
X1206036Y311283D01*
X1205571Y311300D01*
X1205108Y311328D01*
X1204645Y311368D01*
X1204184Y311419D01*
X1203723Y311482D01*
X1203265Y311556D01*
X1202808Y311641D01*
X1202354Y311737D01*
X1201902Y311844D01*
X1201453Y311962D01*
X1201007Y312092D01*
X1200564Y312232D01*
X1200125Y312383D01*
X1199690Y312545D01*
X1199258Y312717D01*
X1198832Y312900D01*
X1198409Y313094D01*
X1197992Y313298D01*
X1197580Y313511D01*
X1197173Y313735D01*
X1196772Y313969D01*
X1196376Y314213D01*
X1195987Y314466D01*
X1195604Y314729D01*
X1195228Y315001D01*
X1194858Y315282D01*
X1194495Y315572D01*
X1194140Y315871D01*
X1193792Y316179D01*
X1193452Y316495D01*
X1193119Y316819D01*
X1192795Y317152D01*
X1192479Y317492D01*
X1192171Y317840D01*
X1191872Y318195D01*
X1191582Y318558D01*
X1191301Y318928D01*
X1191029Y319304D01*
X1190766Y319687D01*
X1190513Y320076D01*
X1190269Y320472D01*
X1190035Y320873D01*
X1189811Y321280D01*
X1189598Y321692D01*
X1189394Y322109D01*
X1189200Y322532D01*
X1189017Y322958D01*
X1188845Y323390D01*
X1188683Y323825D01*
X1188532Y324264D01*
X1188392Y324707D01*
X1188262Y325153D01*
X1188144Y325602D01*
X1188037Y326054D01*
X1187941Y326508D01*
X1187856Y326965D01*
X1187782Y327423D01*
X1187719Y327884D01*
X1187668Y328345D01*
X1187628Y328808D01*
X1187600Y329271D01*
X1187583Y329736D01*
X1187577Y330200D01*
X1187577Y533400D02*
X1187583Y533864D01*
X1187600Y534329D01*
X1187628Y534792D01*
X1187668Y535255D01*
X1187719Y535716D01*
X1187782Y536177D01*
X1187856Y536635D01*
X1187941Y537092D01*
X1188037Y537546D01*
X1188144Y537998D01*
X1188262Y538447D01*
X1188392Y538893D01*
X1188532Y539336D01*
X1188683Y539775D01*
X1188845Y540210D01*
X1189017Y540642D01*
X1189200Y541068D01*
X1189394Y541491D01*
X1189598Y541908D01*
X1189811Y542320D01*
X1190035Y542727D01*
X1190269Y543128D01*
X1190513Y543524D01*
X1190766Y543913D01*
X1191029Y544296D01*
X1191301Y544672D01*
X1191582Y545042D01*
X1191872Y545405D01*
X1192171Y545760D01*
X1192479Y546108D01*
X1192795Y546448D01*
X1193119Y546781D01*
X1193452Y547105D01*
X1193792Y547421D01*
X1194140Y547729D01*
X1194495Y548028D01*
X1194858Y548318D01*
X1195228Y548599D01*
X1195604Y548871D01*
X1195987Y549134D01*
X1196376Y549387D01*
X1196772Y549631D01*
X1197173Y549865D01*
X1197580Y550089D01*
X1197992Y550302D01*
X1198409Y550506D01*
X1198832Y550700D01*
X1199258Y550883D01*
X1199690Y551055D01*
X1200125Y551217D01*
X1200564Y551368D01*
X1201007Y551508D01*
X1201453Y551638D01*
X1201902Y551756D01*
X1202354Y551863D01*
X1202808Y551959D01*
X1203265Y552044D01*
X1203723Y552118D01*
X1204184Y552181D01*
X1204645Y552232D01*
X1205108Y552272D01*
X1205571Y552300D01*
X1206036Y552317D01*
X1206500Y552323D01*
X1206964Y552317D01*
X1207429Y552300D01*
X1207892Y552272D01*
X1208355Y552232D01*
X1208816Y552181D01*
X1209277Y552118D01*
X1209735Y552044D01*
X1210192Y551959D01*
X1210646Y551863D01*
X1211098Y551756D01*
X1211547Y551638D01*
X1211993Y551508D01*
X1212436Y551368D01*
X1212875Y551217D01*
X1213310Y551055D01*
X1213742Y550883D01*
X1214168Y550700D01*
X1214591Y550506D01*
X1215008Y550302D01*
X1215420Y550089D01*
X1215827Y549865D01*
X1216228Y549631D01*
X1216624Y549387D01*
X1217013Y549134D01*
X1217396Y548871D01*
X1217772Y548599D01*
X1218142Y548318D01*
X1218505Y548028D01*
X1218860Y547729D01*
X1219208Y547421D01*
X1219548Y547105D01*
X1219881Y546781D01*
X1220205Y546448D01*
X1220521Y546108D01*
X1220829Y545760D01*
X1221128Y545405D01*
X1221418Y545042D01*
X1221699Y544672D01*
X1221971Y544296D01*
X1222234Y543913D01*
X1222487Y543524D01*
X1222731Y543128D01*
X1222965Y542727D01*
X1223189Y542320D01*
X1223402Y541908D01*
X1223606Y541491D01*
X1223800Y541068D01*
X1223983Y540642D01*
X1224155Y540210D01*
X1224317Y539775D01*
X1224468Y539336D01*
X1224608Y538893D01*
X1224738Y538447D01*
X1224856Y537998D01*
X1224963Y537546D01*
X1225059Y537092D01*
X1225144Y536635D01*
X1225218Y536177D01*
X1225281Y535716D01*
X1225332Y535255D01*
X1225372Y534792D01*
X1225400Y534329D01*
X1225417Y533864D01*
X1225423Y533400D01*
X1225417Y532936D01*
X1225400Y532471D01*
X1225372Y532008D01*
X1225332Y531545D01*
X1225281Y531084D01*
X1225218Y530623D01*
X1225144Y530165D01*
X1225059Y529708D01*
X1224963Y529254D01*
X1224856Y528802D01*
X1224738Y528353D01*
X1224608Y527907D01*
X1224468Y527464D01*
X1224317Y527025D01*
X1224155Y526590D01*
X1223983Y526158D01*
X1223800Y525732D01*
X1223606Y525309D01*
X1223402Y524892D01*
X1223189Y524480D01*
X1222965Y524073D01*
X1222731Y523672D01*
X1222487Y523276D01*
X1222234Y522887D01*
X1221971Y522504D01*
X1221699Y522128D01*
X1221418Y521758D01*
X1221128Y521395D01*
X1220829Y521040D01*
X1220521Y520692D01*
X1220205Y520352D01*
X1219881Y520019D01*
X1219548Y519695D01*
X1219208Y519379D01*
X1218860Y519071D01*
X1218505Y518772D01*
X1218142Y518482D01*
X1217772Y518201D01*
X1217396Y517929D01*
X1217013Y517666D01*
X1216624Y517413D01*
X1216228Y517169D01*
X1215827Y516935D01*
X1215420Y516711D01*
X1215008Y516498D01*
X1214591Y516294D01*
X1214168Y516100D01*
X1213742Y515917D01*
X1213310Y515745D01*
X1212875Y515583D01*
X1212436Y515432D01*
X1211993Y515292D01*
X1211547Y515162D01*
X1211098Y515044D01*
X1210646Y514937D01*
X1210192Y514841D01*
X1209735Y514756D01*
X1209277Y514682D01*
X1208816Y514619D01*
X1208355Y514568D01*
X1207892Y514528D01*
X1207429Y514500D01*
X1206964Y514483D01*
X1206500Y514477D01*
X1206036Y514483D01*
X1205571Y514500D01*
X1205108Y514528D01*
X1204645Y514568D01*
X1204184Y514619D01*
X1203723Y514682D01*
X1203265Y514756D01*
X1202808Y514841D01*
X1202354Y514937D01*
X1201902Y515044D01*
X1201453Y515162D01*
X1201007Y515292D01*
X1200564Y515432D01*
X1200125Y515583D01*
X1199690Y515745D01*
X1199258Y515917D01*
X1198832Y516100D01*
X1198409Y516294D01*
X1197992Y516498D01*
X1197580Y516711D01*
X1197173Y516935D01*
X1196772Y517169D01*
X1196376Y517413D01*
X1195987Y517666D01*
X1195604Y517929D01*
X1195228Y518201D01*
X1194858Y518482D01*
X1194495Y518772D01*
X1194140Y519071D01*
X1193792Y519379D01*
X1193452Y519695D01*
X1193119Y520019D01*
X1192795Y520352D01*
X1192479Y520692D01*
X1192171Y521040D01*
X1191872Y521395D01*
X1191582Y521758D01*
X1191301Y522128D01*
X1191029Y522504D01*
X1190766Y522887D01*
X1190513Y523276D01*
X1190269Y523672D01*
X1190035Y524073D01*
X1189811Y524480D01*
X1189598Y524892D01*
X1189394Y525309D01*
X1189200Y525732D01*
X1189017Y526158D01*
X1188845Y526590D01*
X1188683Y527025D01*
X1188532Y527464D01*
X1188392Y527907D01*
X1188262Y528353D01*
X1188144Y528802D01*
X1188037Y529254D01*
X1187941Y529708D01*
X1187856Y530165D01*
X1187782Y530623D01*
X1187719Y531084D01*
X1187668Y531545D01*
X1187628Y532008D01*
X1187600Y532471D01*
X1187583Y532936D01*
X1187577Y533400D01*
X1187577Y723900D02*
X1187583Y724364D01*
X1187600Y724829D01*
X1187628Y725292D01*
X1187668Y725755D01*
X1187719Y726216D01*
X1187782Y726677D01*
X1187856Y727135D01*
X1187941Y727592D01*
X1188037Y728046D01*
X1188144Y728498D01*
X1188262Y728947D01*
X1188392Y729393D01*
X1188532Y729836D01*
X1188683Y730275D01*
X1188845Y730710D01*
X1189017Y731142D01*
X1189200Y731568D01*
X1189394Y731991D01*
X1189598Y732408D01*
X1189811Y732820D01*
X1190035Y733227D01*
X1190269Y733628D01*
X1190513Y734024D01*
X1190766Y734413D01*
X1191029Y734796D01*
X1191301Y735172D01*
X1191582Y735542D01*
X1191872Y735905D01*
X1192171Y736260D01*
X1192479Y736608D01*
X1192795Y736948D01*
X1193119Y737281D01*
X1193452Y737605D01*
X1193792Y737921D01*
X1194140Y738229D01*
X1194495Y738528D01*
X1194858Y738818D01*
X1195228Y739099D01*
X1195604Y739371D01*
X1195987Y739634D01*
X1196376Y739887D01*
X1196772Y740131D01*
X1197173Y740365D01*
X1197580Y740589D01*
X1197992Y740802D01*
X1198409Y741006D01*
X1198832Y741200D01*
X1199258Y741383D01*
X1199690Y741555D01*
X1200125Y741717D01*
X1200564Y741868D01*
X1201007Y742008D01*
X1201453Y742138D01*
X1201902Y742256D01*
X1202354Y742363D01*
X1202808Y742459D01*
X1203265Y742544D01*
X1203723Y742618D01*
X1204184Y742681D01*
X1204645Y742732D01*
X1205108Y742772D01*
X1205571Y742800D01*
X1206036Y742817D01*
X1206500Y742823D01*
X1206964Y742817D01*
X1207429Y742800D01*
X1207892Y742772D01*
X1208355Y742732D01*
X1208816Y742681D01*
X1209277Y742618D01*
X1209735Y742544D01*
X1210192Y742459D01*
X1210646Y742363D01*
X1211098Y742256D01*
X1211547Y742138D01*
X1211993Y742008D01*
X1212436Y741868D01*
X1212875Y741717D01*
X1213310Y741555D01*
X1213742Y741383D01*
X1214168Y741200D01*
X1214591Y741006D01*
X1215008Y740802D01*
X1215420Y740589D01*
X1215827Y740365D01*
X1216228Y740131D01*
X1216624Y739887D01*
X1217013Y739634D01*
X1217396Y739371D01*
X1217772Y739099D01*
X1218142Y738818D01*
X1218505Y738528D01*
X1218860Y738229D01*
X1219208Y737921D01*
X1219548Y737605D01*
X1219881Y737281D01*
X1220205Y736948D01*
X1220521Y736608D01*
X1220829Y736260D01*
X1221128Y735905D01*
X1221418Y735542D01*
X1221699Y735172D01*
X1221971Y734796D01*
X1222234Y734413D01*
X1222487Y734024D01*
X1222731Y733628D01*
X1222965Y733227D01*
X1223189Y732820D01*
X1223402Y732408D01*
X1223606Y731991D01*
X1223800Y731568D01*
X1223983Y731142D01*
X1224155Y730710D01*
X1224317Y730275D01*
X1224468Y729836D01*
X1224608Y729393D01*
X1224738Y728947D01*
X1224856Y728498D01*
X1224963Y728046D01*
X1225059Y727592D01*
X1225144Y727135D01*
X1225218Y726677D01*
X1225281Y726216D01*
X1225332Y725755D01*
X1225372Y725292D01*
X1225400Y724829D01*
X1225417Y724364D01*
X1225423Y723900D01*
X1225417Y723436D01*
X1225400Y722971D01*
X1225372Y722508D01*
X1225332Y722045D01*
X1225281Y721584D01*
X1225218Y721123D01*
X1225144Y720665D01*
X1225059Y720208D01*
X1224963Y719754D01*
X1224856Y719302D01*
X1224738Y718853D01*
X1224608Y718407D01*
X1224468Y717964D01*
X1224317Y717525D01*
X1224155Y717090D01*
X1223983Y716658D01*
X1223800Y716232D01*
X1223606Y715809D01*
X1223402Y715392D01*
X1223189Y714980D01*
X1222965Y714573D01*
X1222731Y714172D01*
X1222487Y713776D01*
X1222234Y713387D01*
X1221971Y713004D01*
X1221699Y712628D01*
X1221418Y712258D01*
X1221128Y711895D01*
X1220829Y711540D01*
X1220521Y711192D01*
X1220205Y710852D01*
X1219881Y710519D01*
X1219548Y710195D01*
X1219208Y709879D01*
X1218860Y709571D01*
X1218505Y709272D01*
X1218142Y708982D01*
X1217772Y708701D01*
X1217396Y708429D01*
X1217013Y708166D01*
X1216624Y707913D01*
X1216228Y707669D01*
X1215827Y707435D01*
X1215420Y707211D01*
X1215008Y706998D01*
X1214591Y706794D01*
X1214168Y706600D01*
X1213742Y706417D01*
X1213310Y706245D01*
X1212875Y706083D01*
X1212436Y705932D01*
X1211993Y705792D01*
X1211547Y705662D01*
X1211098Y705544D01*
X1210646Y705437D01*
X1210192Y705341D01*
X1209735Y705256D01*
X1209277Y705182D01*
X1208816Y705119D01*
X1208355Y705068D01*
X1207892Y705028D01*
X1207429Y705000D01*
X1206964Y704983D01*
X1206500Y704977D01*
X1206036Y704983D01*
X1205571Y705000D01*
X1205108Y705028D01*
X1204645Y705068D01*
X1204184Y705119D01*
X1203723Y705182D01*
X1203265Y705256D01*
X1202808Y705341D01*
X1202354Y705437D01*
X1201902Y705544D01*
X1201453Y705662D01*
X1201007Y705792D01*
X1200564Y705932D01*
X1200125Y706083D01*
X1199690Y706245D01*
X1199258Y706417D01*
X1198832Y706600D01*
X1198409Y706794D01*
X1197992Y706998D01*
X1197580Y707211D01*
X1197173Y707435D01*
X1196772Y707669D01*
X1196376Y707913D01*
X1195987Y708166D01*
X1195604Y708429D01*
X1195228Y708701D01*
X1194858Y708982D01*
X1194495Y709272D01*
X1194140Y709571D01*
X1193792Y709879D01*
X1193452Y710195D01*
X1193119Y710519D01*
X1192795Y710852D01*
X1192479Y711192D01*
X1192171Y711540D01*
X1191872Y711895D01*
X1191582Y712258D01*
X1191301Y712628D01*
X1191029Y713004D01*
X1190766Y713387D01*
X1190513Y713776D01*
X1190269Y714172D01*
X1190035Y714573D01*
X1189811Y714980D01*
X1189598Y715392D01*
X1189394Y715809D01*
X1189200Y716232D01*
X1189017Y716658D01*
X1188845Y717090D01*
X1188683Y717525D01*
X1188532Y717964D01*
X1188392Y718407D01*
X1188262Y718853D01*
X1188144Y719302D01*
X1188037Y719754D01*
X1187941Y720208D01*
X1187856Y720665D01*
X1187782Y721123D01*
X1187719Y721584D01*
X1187668Y722045D01*
X1187628Y722508D01*
X1187600Y722971D01*
X1187583Y723436D01*
X1187577Y723900D01*
X1187577Y889000D02*
X1187583Y889464D01*
X1187600Y889929D01*
X1187628Y890392D01*
X1187668Y890855D01*
X1187719Y891316D01*
X1187782Y891777D01*
X1187856Y892235D01*
X1187941Y892692D01*
X1188037Y893146D01*
X1188144Y893598D01*
X1188262Y894047D01*
X1188392Y894493D01*
X1188532Y894936D01*
X1188683Y895375D01*
X1188845Y895810D01*
X1189017Y896242D01*
X1189200Y896668D01*
X1189394Y897091D01*
X1189598Y897508D01*
X1189811Y897920D01*
X1190035Y898327D01*
X1190269Y898728D01*
X1190513Y899124D01*
X1190766Y899513D01*
X1191029Y899896D01*
X1191301Y900272D01*
X1191582Y900642D01*
X1191872Y901005D01*
X1192171Y901360D01*
X1192479Y901708D01*
X1192795Y902048D01*
X1193119Y902381D01*
X1193452Y902705D01*
X1193792Y903021D01*
X1194140Y903329D01*
X1194495Y903628D01*
X1194858Y903918D01*
X1195228Y904199D01*
X1195604Y904471D01*
X1195987Y904734D01*
X1196376Y904987D01*
X1196772Y905231D01*
X1197173Y905465D01*
X1197580Y905689D01*
X1197992Y905902D01*
X1198409Y906106D01*
X1198832Y906300D01*
X1199258Y906483D01*
X1199690Y906655D01*
X1200125Y906817D01*
X1200564Y906968D01*
X1201007Y907108D01*
X1201453Y907238D01*
X1201902Y907356D01*
X1202354Y907463D01*
X1202808Y907559D01*
X1203265Y907644D01*
X1203723Y907718D01*
X1204184Y907781D01*
X1204645Y907832D01*
X1205108Y907872D01*
X1205571Y907900D01*
X1206036Y907917D01*
X1206500Y907923D01*
X1206964Y907917D01*
X1207429Y907900D01*
X1207892Y907872D01*
X1208355Y907832D01*
X1208816Y907781D01*
X1209277Y907718D01*
X1209735Y907644D01*
X1210192Y907559D01*
X1210646Y907463D01*
X1211098Y907356D01*
X1211547Y907238D01*
X1211993Y907108D01*
X1212436Y906968D01*
X1212875Y906817D01*
X1213310Y906655D01*
X1213742Y906483D01*
X1214168Y906300D01*
X1214591Y906106D01*
X1215008Y905902D01*
X1215420Y905689D01*
X1215827Y905465D01*
X1216228Y905231D01*
X1216624Y904987D01*
X1217013Y904734D01*
X1217396Y904471D01*
X1217772Y904199D01*
X1218142Y903918D01*
X1218505Y903628D01*
X1218860Y903329D01*
X1219208Y903021D01*
X1219548Y902705D01*
X1219881Y902381D01*
X1220205Y902048D01*
X1220521Y901708D01*
X1220829Y901360D01*
X1221128Y901005D01*
X1221418Y900642D01*
X1221699Y900272D01*
X1221971Y899896D01*
X1222234Y899513D01*
X1222487Y899124D01*
X1222731Y898728D01*
X1222965Y898327D01*
X1223189Y897920D01*
X1223402Y897508D01*
X1223606Y897091D01*
X1223800Y896668D01*
X1223983Y896242D01*
X1224155Y895810D01*
X1224317Y895375D01*
X1224468Y894936D01*
X1224608Y894493D01*
X1224738Y894047D01*
X1224856Y893598D01*
X1224963Y893146D01*
X1225059Y892692D01*
X1225144Y892235D01*
X1225218Y891777D01*
X1225281Y891316D01*
X1225332Y890855D01*
X1225372Y890392D01*
X1225400Y889929D01*
X1225417Y889464D01*
X1225423Y889000D01*
X1225417Y888536D01*
X1225400Y888071D01*
X1225372Y887608D01*
X1225332Y887145D01*
X1225281Y886684D01*
X1225218Y886223D01*
X1225144Y885765D01*
X1225059Y885308D01*
X1224963Y884854D01*
X1224856Y884402D01*
X1224738Y883953D01*
X1224608Y883507D01*
X1224468Y883064D01*
X1224317Y882625D01*
X1224155Y882190D01*
X1223983Y881758D01*
X1223800Y881332D01*
X1223606Y880909D01*
X1223402Y880492D01*
X1223189Y880080D01*
X1222965Y879673D01*
X1222731Y879272D01*
X1222487Y878876D01*
X1222234Y878487D01*
X1221971Y878104D01*
X1221699Y877728D01*
X1221418Y877358D01*
X1221128Y876995D01*
X1220829Y876640D01*
X1220521Y876292D01*
X1220205Y875952D01*
X1219881Y875619D01*
X1219548Y875295D01*
X1219208Y874979D01*
X1218860Y874671D01*
X1218505Y874372D01*
X1218142Y874082D01*
X1217772Y873801D01*
X1217396Y873529D01*
X1217013Y873266D01*
X1216624Y873013D01*
X1216228Y872769D01*
X1215827Y872535D01*
X1215420Y872311D01*
X1215008Y872098D01*
X1214591Y871894D01*
X1214168Y871700D01*
X1213742Y871517D01*
X1213310Y871345D01*
X1212875Y871183D01*
X1212436Y871032D01*
X1211993Y870892D01*
X1211547Y870762D01*
X1211098Y870644D01*
X1210646Y870537D01*
X1210192Y870441D01*
X1209735Y870356D01*
X1209277Y870282D01*
X1208816Y870219D01*
X1208355Y870168D01*
X1207892Y870128D01*
X1207429Y870100D01*
X1206964Y870083D01*
X1206500Y870077D01*
X1206036Y870083D01*
X1205571Y870100D01*
X1205108Y870128D01*
X1204645Y870168D01*
X1204184Y870219D01*
X1203723Y870282D01*
X1203265Y870356D01*
X1202808Y870441D01*
X1202354Y870537D01*
X1201902Y870644D01*
X1201453Y870762D01*
X1201007Y870892D01*
X1200564Y871032D01*
X1200125Y871183D01*
X1199690Y871345D01*
X1199258Y871517D01*
X1198832Y871700D01*
X1198409Y871894D01*
X1197992Y872098D01*
X1197580Y872311D01*
X1197173Y872535D01*
X1196772Y872769D01*
X1196376Y873013D01*
X1195987Y873266D01*
X1195604Y873529D01*
X1195228Y873801D01*
X1194858Y874082D01*
X1194495Y874372D01*
X1194140Y874671D01*
X1193792Y874979D01*
X1193452Y875295D01*
X1193119Y875619D01*
X1192795Y875952D01*
X1192479Y876292D01*
X1192171Y876640D01*
X1191872Y876995D01*
X1191582Y877358D01*
X1191301Y877728D01*
X1191029Y878104D01*
X1190766Y878487D01*
X1190513Y878876D01*
X1190269Y879272D01*
X1190035Y879673D01*
X1189811Y880080D01*
X1189598Y880492D01*
X1189394Y880909D01*
X1189200Y881332D01*
X1189017Y881758D01*
X1188845Y882190D01*
X1188683Y882625D01*
X1188532Y883064D01*
X1188392Y883507D01*
X1188262Y883953D01*
X1188144Y884402D01*
X1188037Y884854D01*
X1187941Y885308D01*
X1187856Y885765D01*
X1187782Y886223D01*
X1187719Y886684D01*
X1187668Y887145D01*
X1187628Y887608D01*
X1187600Y888071D01*
X1187583Y888536D01*
X1187577Y889000D01*
X1187577Y1346200D02*
X1187583Y1346664D01*
X1187600Y1347129D01*
X1187628Y1347592D01*
X1187668Y1348055D01*
X1187719Y1348516D01*
X1187782Y1348977D01*
X1187856Y1349435D01*
X1187941Y1349892D01*
X1188037Y1350346D01*
X1188144Y1350798D01*
X1188262Y1351247D01*
X1188392Y1351693D01*
X1188532Y1352136D01*
X1188683Y1352575D01*
X1188845Y1353010D01*
X1189017Y1353442D01*
X1189200Y1353868D01*
X1189394Y1354291D01*
X1189598Y1354708D01*
X1189811Y1355120D01*
X1190035Y1355527D01*
X1190269Y1355928D01*
X1190513Y1356324D01*
X1190766Y1356713D01*
X1191029Y1357096D01*
X1191301Y1357472D01*
X1191582Y1357842D01*
X1191872Y1358205D01*
X1192171Y1358560D01*
X1192479Y1358908D01*
X1192795Y1359248D01*
X1193119Y1359581D01*
X1193452Y1359905D01*
X1193792Y1360221D01*
X1194140Y1360529D01*
X1194495Y1360828D01*
X1194858Y1361118D01*
X1195228Y1361399D01*
X1195604Y1361671D01*
X1195987Y1361934D01*
X1196376Y1362187D01*
X1196772Y1362431D01*
X1197173Y1362665D01*
X1197580Y1362889D01*
X1197992Y1363102D01*
X1198409Y1363306D01*
X1198832Y1363500D01*
X1199258Y1363683D01*
X1199690Y1363855D01*
X1200125Y1364017D01*
X1200564Y1364168D01*
X1201007Y1364308D01*
X1201453Y1364438D01*
X1201902Y1364556D01*
X1202354Y1364663D01*
X1202808Y1364759D01*
X1203265Y1364844D01*
X1203723Y1364918D01*
X1204184Y1364981D01*
X1204645Y1365032D01*
X1205108Y1365072D01*
X1205571Y1365100D01*
X1206036Y1365117D01*
X1206500Y1365123D01*
X1206964Y1365117D01*
X1207429Y1365100D01*
X1207892Y1365072D01*
X1208355Y1365032D01*
X1208816Y1364981D01*
X1209277Y1364918D01*
X1209735Y1364844D01*
X1210192Y1364759D01*
X1210646Y1364663D01*
X1211098Y1364556D01*
X1211547Y1364438D01*
X1211993Y1364308D01*
X1212436Y1364168D01*
X1212875Y1364017D01*
X1213310Y1363855D01*
X1213742Y1363683D01*
X1214168Y1363500D01*
X1214591Y1363306D01*
X1215008Y1363102D01*
X1215420Y1362889D01*
X1215827Y1362665D01*
X1216228Y1362431D01*
X1216624Y1362187D01*
X1217013Y1361934D01*
X1217396Y1361671D01*
X1217772Y1361399D01*
X1218142Y1361118D01*
X1218505Y1360828D01*
X1218860Y1360529D01*
X1219208Y1360221D01*
X1219548Y1359905D01*
X1219881Y1359581D01*
X1220205Y1359248D01*
X1220521Y1358908D01*
X1220829Y1358560D01*
X1221128Y1358205D01*
X1221418Y1357842D01*
X1221699Y1357472D01*
X1221971Y1357096D01*
X1222234Y1356713D01*
X1222487Y1356324D01*
X1222731Y1355928D01*
X1222965Y1355527D01*
X1223189Y1355120D01*
X1223402Y1354708D01*
X1223606Y1354291D01*
X1223800Y1353868D01*
X1223983Y1353442D01*
X1224155Y1353010D01*
X1224317Y1352575D01*
X1224468Y1352136D01*
X1224608Y1351693D01*
X1224738Y1351247D01*
X1224856Y1350798D01*
X1224963Y1350346D01*
X1225059Y1349892D01*
X1225144Y1349435D01*
X1225218Y1348977D01*
X1225281Y1348516D01*
X1225332Y1348055D01*
X1225372Y1347592D01*
X1225400Y1347129D01*
X1225417Y1346664D01*
X1225423Y1346200D01*
X1225417Y1345736D01*
X1225400Y1345271D01*
X1225372Y1344808D01*
X1225332Y1344345D01*
X1225281Y1343884D01*
X1225218Y1343423D01*
X1225144Y1342965D01*
X1225059Y1342508D01*
X1224963Y1342054D01*
X1224856Y1341602D01*
X1224738Y1341153D01*
X1224608Y1340707D01*
X1224468Y1340264D01*
X1224317Y1339825D01*
X1224155Y1339390D01*
X1223983Y1338958D01*
X1223800Y1338532D01*
X1223606Y1338109D01*
X1223402Y1337692D01*
X1223189Y1337280D01*
X1222965Y1336873D01*
X1222731Y1336472D01*
X1222487Y1336076D01*
X1222234Y1335687D01*
X1221971Y1335304D01*
X1221699Y1334928D01*
X1221418Y1334558D01*
X1221128Y1334195D01*
X1220829Y1333840D01*
X1220521Y1333492D01*
X1220205Y1333152D01*
X1219881Y1332819D01*
X1219548Y1332495D01*
X1219208Y1332179D01*
X1218860Y1331871D01*
X1218505Y1331572D01*
X1218142Y1331282D01*
X1217772Y1331001D01*
X1217396Y1330729D01*
X1217013Y1330466D01*
X1216624Y1330213D01*
X1216228Y1329969D01*
X1215827Y1329735D01*
X1215420Y1329511D01*
X1215008Y1329298D01*
X1214591Y1329094D01*
X1214168Y1328900D01*
X1213742Y1328717D01*
X1213310Y1328545D01*
X1212875Y1328383D01*
X1212436Y1328232D01*
X1211993Y1328092D01*
X1211547Y1327962D01*
X1211098Y1327844D01*
X1210646Y1327737D01*
X1210192Y1327641D01*
X1209735Y1327556D01*
X1209277Y1327482D01*
X1208816Y1327419D01*
X1208355Y1327368D01*
X1207892Y1327328D01*
X1207429Y1327300D01*
X1206964Y1327283D01*
X1206500Y1327277D01*
X1206036Y1327283D01*
X1205571Y1327300D01*
X1205108Y1327328D01*
X1204645Y1327368D01*
X1204184Y1327419D01*
X1203723Y1327482D01*
X1203265Y1327556D01*
X1202808Y1327641D01*
X1202354Y1327737D01*
X1201902Y1327844D01*
X1201453Y1327962D01*
X1201007Y1328092D01*
X1200564Y1328232D01*
X1200125Y1328383D01*
X1199690Y1328545D01*
X1199258Y1328717D01*
X1198832Y1328900D01*
X1198409Y1329094D01*
X1197992Y1329298D01*
X1197580Y1329511D01*
X1197173Y1329735D01*
X1196772Y1329969D01*
X1196376Y1330213D01*
X1195987Y1330466D01*
X1195604Y1330729D01*
X1195228Y1331001D01*
X1194858Y1331282D01*
X1194495Y1331572D01*
X1194140Y1331871D01*
X1193792Y1332179D01*
X1193452Y1332495D01*
X1193119Y1332819D01*
X1192795Y1333152D01*
X1192479Y1333492D01*
X1192171Y1333840D01*
X1191872Y1334195D01*
X1191582Y1334558D01*
X1191301Y1334928D01*
X1191029Y1335304D01*
X1190766Y1335687D01*
X1190513Y1336076D01*
X1190269Y1336472D01*
X1190035Y1336873D01*
X1189811Y1337280D01*
X1189598Y1337692D01*
X1189394Y1338109D01*
X1189200Y1338532D01*
X1189017Y1338958D01*
X1188845Y1339390D01*
X1188683Y1339825D01*
X1188532Y1340264D01*
X1188392Y1340707D01*
X1188262Y1341153D01*
X1188144Y1341602D01*
X1188037Y1342054D01*
X1187941Y1342508D01*
X1187856Y1342965D01*
X1187782Y1343423D01*
X1187719Y1343884D01*
X1187668Y1344345D01*
X1187628Y1344808D01*
X1187600Y1345271D01*
X1187583Y1345736D01*
X1187577Y1346200D01*
D11*
X0Y0D02*
X1450000Y0D01*
X1450000Y2200000D01*
X0Y2200000D01*
X0Y0D01*
X65000Y2149464D02*
X64924Y2148396D01*
X64771Y2147335D01*
X64543Y2146288D01*
X64241Y2145260D01*
X63867Y2144256D01*
X63422Y2143281D01*
X62908Y2142341D01*
X62329Y2141440D01*
X61687Y2140582D01*
X60985Y2139772D01*
X60228Y2139015D01*
X59418Y2138313D01*
X58560Y2137671D01*
X57659Y2137092D01*
X56719Y2136578D01*
X55744Y2136133D01*
X54740Y2135759D01*
X53712Y2135457D01*
X52665Y2135229D01*
X51604Y2135076D01*
X50536Y2135000D01*
X49464Y2135000D01*
X48396Y2135076D01*
X47335Y2135229D01*
X46288Y2135457D01*
X45260Y2135759D01*
X44256Y2136133D01*
X43281Y2136578D01*
X42341Y2137092D01*
X41440Y2137671D01*
X40582Y2138313D01*
X39772Y2139015D01*
X39015Y2139772D01*
X38313Y2140582D01*
X37671Y2141440D01*
X37092Y2142341D01*
X36578Y2143281D01*
X36133Y2144256D01*
X35759Y2145260D01*
X35457Y2146288D01*
X35229Y2147335D01*
X35076Y2148396D01*
X35000Y2149464D01*
X35000Y2150536D01*
X35076Y2151604D01*
X35229Y2152665D01*
X35457Y2153712D01*
X35759Y2154740D01*
X36133Y2155744D01*
X36578Y2156719D01*
X37092Y2157659D01*
X37671Y2158560D01*
X38313Y2159418D01*
X39015Y2160228D01*
X39772Y2160985D01*
X40582Y2161687D01*
X41440Y2162329D01*
X42341Y2162908D01*
X43281Y2163422D01*
X44256Y2163867D01*
X45260Y2164241D01*
X46288Y2164543D01*
X47335Y2164771D01*
X48396Y2164924D01*
X49464Y2165000D01*
X50536Y2165000D01*
X51604Y2164924D01*
X52665Y2164771D01*
X53712Y2164543D01*
X54740Y2164241D01*
X55744Y2163867D01*
X56719Y2163422D01*
X57659Y2162908D01*
X58560Y2162329D01*
X59418Y2161687D01*
X60228Y2160985D01*
X60985Y2160228D01*
X61687Y2159418D01*
X62329Y2158560D01*
X62908Y2157659D01*
X63422Y2156719D01*
X63867Y2155744D01*
X64241Y2154740D01*
X64543Y2153712D01*
X64771Y2152665D01*
X64924Y2151604D01*
X65000Y2150536D01*
X65000Y2149464D01*
X1415000Y2149464D02*
X1414924Y2148396D01*
X1414771Y2147335D01*
X1414543Y2146288D01*
X1414241Y2145260D01*
X1413867Y2144256D01*
X1413422Y2143281D01*
X1412908Y2142341D01*
X1412329Y2141440D01*
X1411687Y2140582D01*
X1410985Y2139772D01*
X1410228Y2139015D01*
X1409418Y2138313D01*
X1408560Y2137671D01*
X1407659Y2137092D01*
X1406719Y2136578D01*
X1405744Y2136133D01*
X1404740Y2135759D01*
X1403712Y2135457D01*
X1402665Y2135229D01*
X1401604Y2135076D01*
X1400536Y2135000D01*
X1399464Y2135000D01*
X1398396Y2135076D01*
X1397335Y2135229D01*
X1396288Y2135457D01*
X1395260Y2135759D01*
X1394256Y2136133D01*
X1393281Y2136578D01*
X1392341Y2137092D01*
X1391440Y2137671D01*
X1390582Y2138313D01*
X1389772Y2139015D01*
X1389015Y2139772D01*
X1388313Y2140582D01*
X1387671Y2141440D01*
X1387092Y2142341D01*
X1386578Y2143281D01*
X1386133Y2144256D01*
X1385759Y2145260D01*
X1385457Y2146288D01*
X1385229Y2147335D01*
X1385076Y2148396D01*
X1385000Y2149464D01*
X1385000Y2150536D01*
X1385076Y2151604D01*
X1385229Y2152665D01*
X1385457Y2153712D01*
X1385759Y2154740D01*
X1386133Y2155744D01*
X1386578Y2156719D01*
X1387092Y2157659D01*
X1387671Y2158560D01*
X1388313Y2159418D01*
X1389015Y2160228D01*
X1389772Y2160985D01*
X1390582Y2161687D01*
X1391440Y2162329D01*
X1392341Y2162908D01*
X1393281Y2163422D01*
X1394256Y2163867D01*
X1395260Y2164241D01*
X1396288Y2164543D01*
X1397335Y2164771D01*
X1398396Y2164924D01*
X1399464Y2165000D01*
X1400536Y2165000D01*
X1401604Y2164924D01*
X1402665Y2164771D01*
X1403712Y2164543D01*
X1404740Y2164241D01*
X1405744Y2163867D01*
X1406719Y2163422D01*
X1407659Y2162908D01*
X1408560Y2162329D01*
X1409418Y2161687D01*
X1410228Y2160985D01*
X1410985Y2160228D01*
X1411687Y2159418D01*
X1412329Y2158560D01*
X1412908Y2157659D01*
X1413422Y2156719D01*
X1413867Y2155744D01*
X1414241Y2154740D01*
X1414543Y2153712D01*
X1414771Y2152665D01*
X1414924Y2151604D01*
X1415000Y2150536D01*
X1415000Y2149464D01*
X1365000Y49464D02*
X1364924Y48396D01*
X1364771Y47335D01*
X1364543Y46288D01*
X1364241Y45260D01*
X1363867Y44256D01*
X1363422Y43281D01*
X1362908Y42341D01*
X1362329Y41440D01*
X1361687Y40582D01*
X1360985Y39772D01*
X1360228Y39015D01*
X1359418Y38313D01*
X1358560Y37671D01*
X1357659Y37092D01*
X1356719Y36578D01*
X1355744Y36133D01*
X1354740Y35759D01*
X1353712Y35457D01*
X1352665Y35229D01*
X1351604Y35076D01*
X1350536Y35000D01*
X1349464Y35000D01*
X1348396Y35076D01*
X1347335Y35229D01*
X1346288Y35457D01*
X1345260Y35759D01*
X1344256Y36133D01*
X1343281Y36578D01*
X1342341Y37092D01*
X1341440Y37671D01*
X1340582Y38313D01*
X1339772Y39015D01*
X1339015Y39772D01*
X1338313Y40582D01*
X1337671Y41440D01*
X1337092Y42341D01*
X1336578Y43281D01*
X1336133Y44256D01*
X1335759Y45260D01*
X1335457Y46288D01*
X1335229Y47335D01*
X1335076Y48396D01*
X1335000Y49464D01*
X1335000Y50536D01*
X1335076Y51604D01*
X1335229Y52665D01*
X1335457Y53712D01*
X1335759Y54740D01*
X1336133Y55744D01*
X1336578Y56719D01*
X1337092Y57659D01*
X1337671Y58560D01*
X1338313Y59418D01*
X1339015Y60228D01*
X1339772Y60985D01*
X1340582Y61687D01*
X1341440Y62329D01*
X1342341Y62908D01*
X1343281Y63422D01*
X1344256Y63867D01*
X1345260Y64241D01*
X1346288Y64543D01*
X1347335Y64771D01*
X1348396Y64924D01*
X1349464Y65000D01*
X1350536Y65000D01*
X1351604Y64924D01*
X1352665Y64771D01*
X1353712Y64543D01*
X1354740Y64241D01*
X1355744Y63867D01*
X1356719Y63422D01*
X1357659Y62908D01*
X1358560Y62329D01*
X1359418Y61687D01*
X1360228Y60985D01*
X1360985Y60228D01*
X1361687Y59418D01*
X1362329Y58560D01*
X1362908Y57659D01*
X1363422Y56719D01*
X1363867Y55744D01*
X1364241Y54740D01*
X1364543Y53712D01*
X1364771Y52665D01*
X1364924Y51604D01*
X1365000Y50536D01*
X1365000Y49464D01*
X65000Y49464D02*
X64924Y48396D01*
X64771Y47335D01*
X64543Y46288D01*
X64241Y45260D01*
X63867Y44256D01*
X63422Y43281D01*
X62908Y42341D01*
X62329Y41440D01*
X61687Y40582D01*
X60985Y39772D01*
X60228Y39015D01*
X59418Y38313D01*
X58560Y37671D01*
X57659Y37092D01*
X56719Y36578D01*
X55744Y36133D01*
X54740Y35759D01*
X53712Y35457D01*
X52665Y35229D01*
X51604Y35076D01*
X50536Y35000D01*
X49464Y35000D01*
X48396Y35076D01*
X47335Y35229D01*
X46288Y35457D01*
X45260Y35759D01*
X44256Y36133D01*
X43281Y36578D01*
X42341Y37092D01*
X41440Y37671D01*
X40582Y38313D01*
X39772Y39015D01*
X39015Y39772D01*
X38313Y40582D01*
X37671Y41440D01*
X37092Y42341D01*
X36578Y43281D01*
X36133Y44256D01*
X35759Y45260D01*
X35457Y46288D01*
X35229Y47335D01*
X35076Y48396D01*
X35000Y49464D01*
X35000Y50536D01*
X35076Y51604D01*
X35229Y52665D01*
X35457Y53712D01*
X35759Y54740D01*
X36133Y55744D01*
X36578Y56719D01*
X37092Y57659D01*
X37671Y58560D01*
X38313Y59418D01*
X39015Y60228D01*
X39772Y60985D01*
X40582Y61687D01*
X41440Y62329D01*
X42341Y62908D01*
X43281Y63422D01*
X44256Y63867D01*
X45260Y64241D01*
X46288Y64543D01*
X47335Y64771D01*
X48396Y64924D01*
X49464Y65000D01*
X50536Y65000D01*
X51604Y64924D01*
X52665Y64771D01*
X53712Y64543D01*
X54740Y64241D01*
X55744Y63867D01*
X56719Y63422D01*
X57659Y62908D01*
X58560Y62329D01*
X59418Y61687D01*
X60228Y60985D01*
X60985Y60228D01*
X61687Y59418D01*
X62329Y58560D01*
X62908Y57659D01*
X63422Y56719D01*
X63867Y55744D01*
X64241Y54740D01*
X64543Y53712D01*
X64771Y52665D01*
X64924Y51604D01*
X65000Y50536D01*
X65000Y49464D01*
X715000Y949464D02*
X714924Y948396D01*
X714771Y947335D01*
X714543Y946288D01*
X714241Y945260D01*
X713867Y944256D01*
X713422Y943281D01*
X712908Y942341D01*
X712329Y941440D01*
X711687Y940582D01*
X710985Y939772D01*
X710228Y939015D01*
X709418Y938313D01*
X708560Y937671D01*
X707659Y937092D01*
X706719Y936578D01*
X705744Y936133D01*
X704740Y935759D01*
X703712Y935457D01*
X702665Y935229D01*
X701604Y935076D01*
X700536Y935000D01*
X699464Y935000D01*
X698396Y935076D01*
X697335Y935229D01*
X696288Y935457D01*
X695260Y935759D01*
X694256Y936133D01*
X693281Y936578D01*
X692341Y937092D01*
X691440Y937671D01*
X690582Y938313D01*
X689772Y939015D01*
X689015Y939772D01*
X688313Y940582D01*
X687671Y941440D01*
X687092Y942341D01*
X686578Y943281D01*
X686133Y944256D01*
X685759Y945260D01*
X685457Y946288D01*
X685229Y947335D01*
X685076Y948396D01*
X685000Y949464D01*
X685000Y950536D01*
X685076Y951604D01*
X685229Y952665D01*
X685457Y953712D01*
X685759Y954740D01*
X686133Y955744D01*
X686578Y956719D01*
X687092Y957659D01*
X687671Y958560D01*
X688313Y959418D01*
X689015Y960228D01*
X689772Y960985D01*
X690582Y961687D01*
X691440Y962329D01*
X692341Y962908D01*
X693281Y963422D01*
X694256Y963867D01*
X695260Y964241D01*
X696288Y964543D01*
X697335Y964771D01*
X698396Y964924D01*
X699464Y965000D01*
X700536Y965000D01*
X701604Y964924D01*
X702665Y964771D01*
X703712Y964543D01*
X704740Y964241D01*
X705744Y963867D01*
X706719Y963422D01*
X707659Y962908D01*
X708560Y962329D01*
X709418Y961687D01*
X710228Y960985D01*
X710985Y960228D01*
X711687Y959418D01*
X712329Y958560D01*
X712908Y957659D01*
X713422Y956719D01*
X713867Y955744D01*
X714241Y954740D01*
X714543Y953712D01*
X714771Y952665D01*
X714924Y951604D01*
X715000Y950536D01*
X715000Y949464D01*
X765000Y1649464D02*
X764924Y1648396D01*
X764771Y1647335D01*
X764543Y1646288D01*
X764241Y1645260D01*
X763867Y1644256D01*
X763422Y1643281D01*
X762908Y1642341D01*
X762329Y1641440D01*
X761687Y1640582D01*
X760985Y1639772D01*
X760228Y1639015D01*
X759418Y1638313D01*
X758560Y1637671D01*
X757659Y1637092D01*
X756719Y1636578D01*
X755744Y1636133D01*
X754740Y1635759D01*
X753712Y1635457D01*
X752665Y1635229D01*
X751604Y1635076D01*
X750536Y1635000D01*
X749464Y1635000D01*
X748396Y1635076D01*
X747335Y1635229D01*
X746288Y1635457D01*
X745260Y1635759D01*
X744256Y1636133D01*
X743281Y1636578D01*
X742341Y1637092D01*
X741440Y1637671D01*
X740582Y1638313D01*
X739772Y1639015D01*
X739015Y1639772D01*
X738313Y1640582D01*
X737671Y1641440D01*
X737092Y1642341D01*
X736578Y1643281D01*
X736133Y1644256D01*
X735759Y1645260D01*
X735457Y1646288D01*
X735229Y1647335D01*
X735076Y1648396D01*
X735000Y1649464D01*
X735000Y1650536D01*
X735076Y1651604D01*
X735229Y1652665D01*
X735457Y1653712D01*
X735759Y1654740D01*
X736133Y1655744D01*
X736578Y1656719D01*
X737092Y1657659D01*
X737671Y1658560D01*
X738313Y1659418D01*
X739015Y1660228D01*
X739772Y1660985D01*
X740582Y1661687D01*
X741440Y1662329D01*
X742341Y1662908D01*
X743281Y1663422D01*
X744256Y1663867D01*
X745260Y1664241D01*
X746288Y1664543D01*
X747335Y1664771D01*
X748396Y1664924D01*
X749464Y1665000D01*
X750536Y1665000D01*
X751604Y1664924D01*
X752665Y1664771D01*
X753712Y1664543D01*
X754740Y1664241D01*
X755744Y1663867D01*
X756719Y1663422D01*
X757659Y1662908D01*
X758560Y1662329D01*
X759418Y1661687D01*
X760228Y1660985D01*
X760985Y1660228D01*
X761687Y1659418D01*
X762329Y1658560D01*
X762908Y1657659D01*
X763422Y1656719D01*
X763867Y1655744D01*
X764241Y1654740D01*
X764543Y1653712D01*
X764771Y1652665D01*
X764924Y1651604D01*
X765000Y1650536D01*
X765000Y1649464D01*
X1015000Y749464D02*
X1014924Y748396D01*
X1014771Y747335D01*
X1014543Y746288D01*
X1014241Y745260D01*
X1013867Y744256D01*
X1013422Y743281D01*
X1012908Y742341D01*
X1012329Y741440D01*
X1011687Y740582D01*
X1010985Y739772D01*
X1010228Y739015D01*
X1009418Y738313D01*
X1008560Y737671D01*
X1007659Y737092D01*
X1006719Y736578D01*
X1005744Y736133D01*
X1004740Y735759D01*
X1003712Y735457D01*
X1002665Y735229D01*
X1001604Y735076D01*
X1000536Y735000D01*
X999464Y735000D01*
X998396Y735076D01*
X997335Y735229D01*
X996288Y735457D01*
X995260Y735759D01*
X994256Y736133D01*
X993281Y736578D01*
X992341Y737092D01*
X991440Y737671D01*
X990582Y738313D01*
X989772Y739015D01*
X989015Y739772D01*
X988313Y740582D01*
X987671Y741440D01*
X987092Y742341D01*
X986578Y743281D01*
X986133Y744256D01*
X985759Y745260D01*
X985457Y746288D01*
X985229Y747335D01*
X985076Y748396D01*
X985000Y749464D01*
X985000Y750536D01*
X985076Y751604D01*
X985229Y752665D01*
X985457Y753712D01*
X985759Y754740D01*
X986133Y755744D01*
X986578Y756719D01*
X987092Y757659D01*
X987671Y758560D01*
X988313Y759418D01*
X989015Y760228D01*
X989772Y760985D01*
X990582Y761687D01*
X991440Y762329D01*
X992341Y762908D01*
X993281Y763422D01*
X994256Y763867D01*
X995260Y764241D01*
X996288Y764543D01*
X997335Y764771D01*
X998396Y764924D01*
X999464Y765000D01*
X1000536Y765000D01*
X1001604Y764924D01*
X1002665Y764771D01*
X1003712Y764543D01*
X1004740Y764241D01*
X1005744Y763867D01*
X1006719Y763422D01*
X1007659Y762908D01*
X1008560Y762329D01*
X1009418Y761687D01*
X1010228Y760985D01*
X1010985Y760228D01*
X1011687Y759418D01*
X1012329Y758560D01*
X1012908Y757659D01*
X1013422Y756719D01*
X1013867Y755744D01*
X1014241Y754740D01*
X1014543Y753712D01*
X1014771Y752665D01*
X1014924Y751604D01*
X1015000Y750536D01*
X1015000Y749464D01*
X1207072Y1593723D02*
X1208213Y1593654D01*
X1209349Y1593516D01*
X1210473Y1593310D01*
X1211584Y1593036D01*
X1212676Y1592696D01*
X1213745Y1592291D01*
X1214788Y1591821D01*
X1215800Y1591290D01*
X1216779Y1590698D01*
X1217720Y1590049D01*
X1218620Y1589343D01*
X1219476Y1588585D01*
X1220285Y1587776D01*
X1221043Y1586920D01*
X1221749Y1586020D01*
X1222398Y1585079D01*
X1222990Y1584100D01*
X1223521Y1583088D01*
X1223991Y1582045D01*
X1224396Y1580976D01*
X1224736Y1579884D01*
X1225010Y1578773D01*
X1225216Y1577649D01*
X1225354Y1576513D01*
X1225423Y1575372D01*
X1225423Y1574228D01*
X1225354Y1573087D01*
X1225216Y1571951D01*
X1225010Y1570827D01*
X1224736Y1569716D01*
X1224396Y1568624D01*
X1223991Y1567555D01*
X1223521Y1566512D01*
X1222990Y1565500D01*
X1222398Y1564521D01*
X1221749Y1563580D01*
X1221043Y1562680D01*
X1220285Y1561824D01*
X1219476Y1561015D01*
X1218620Y1560257D01*
X1217720Y1559552D01*
X1216779Y1558902D01*
X1215800Y1558310D01*
X1214788Y1557779D01*
X1213745Y1557309D01*
X1212676Y1556904D01*
X1211584Y1556564D01*
X1210473Y1556290D01*
X1209349Y1556084D01*
X1208213Y1555946D01*
X1207072Y1555877D01*
X1205928Y1555877D01*
X1204787Y1555946D01*
X1203651Y1556084D01*
X1202527Y1556290D01*
X1201416Y1556564D01*
X1200324Y1556904D01*
X1199255Y1557309D01*
X1198212Y1557779D01*
X1197200Y1558310D01*
X1196221Y1558902D01*
X1195280Y1559552D01*
X1194380Y1560257D01*
X1193524Y1561015D01*
X1192715Y1561824D01*
X1191957Y1562680D01*
X1191252Y1563580D01*
X1190602Y1564521D01*
X1190010Y1565500D01*
X1189479Y1566512D01*
X1189009Y1567555D01*
X1188604Y1568624D01*
X1188264Y1569716D01*
X1187990Y1570827D01*
X1187784Y1571951D01*
X1187646Y1573087D01*
X1187577Y1574228D01*
X1187577Y1575372D01*
X1187646Y1576513D01*
X1187784Y1577649D01*
X1187990Y1578773D01*
X1188264Y1579884D01*
X1188604Y1580976D01*
X1189009Y1582045D01*
X1189479Y1583088D01*
X1190010Y1584100D01*
X1190602Y1585079D01*
X1191252Y1586020D01*
X1191957Y1586920D01*
X1192715Y1587776D01*
X1193524Y1588585D01*
X1194380Y1589343D01*
X1195280Y1590049D01*
X1196221Y1590698D01*
X1197200Y1591290D01*
X1198212Y1591821D01*
X1199255Y1592291D01*
X1200324Y1592696D01*
X1201416Y1593036D01*
X1202527Y1593310D01*
X1203651Y1593516D01*
X1204787Y1593654D01*
X1205928Y1593723D01*
X1207072Y1593723D01*
X1205928Y1759077D02*
X1204787Y1759146D01*
X1203651Y1759284D01*
X1202527Y1759490D01*
X1201416Y1759764D01*
X1200324Y1760104D01*
X1199255Y1760509D01*
X1198212Y1760979D01*
X1197200Y1761510D01*
X1196221Y1762102D01*
X1195280Y1762752D01*
X1194380Y1763457D01*
X1193524Y1764215D01*
X1192715Y1765024D01*
X1191957Y1765880D01*
X1191252Y1766780D01*
X1190602Y1767721D01*
X1190010Y1768700D01*
X1189479Y1769712D01*
X1189009Y1770755D01*
X1188604Y1771824D01*
X1188264Y1772916D01*
X1187990Y1774027D01*
X1187784Y1775151D01*
X1187646Y1776287D01*
X1187577Y1777428D01*
X1187577Y1778572D01*
X1187646Y1779713D01*
X1187784Y1780849D01*
X1187990Y1781973D01*
X1188264Y1783084D01*
X1188604Y1784176D01*
X1189009Y1785245D01*
X1189479Y1786288D01*
X1190010Y1787300D01*
X1190602Y1788279D01*
X1191252Y1789220D01*
X1191957Y1790120D01*
X1192715Y1790976D01*
X1193524Y1791785D01*
X1194380Y1792543D01*
X1195280Y1793249D01*
X1196221Y1793898D01*
X1197200Y1794490D01*
X1198212Y1795021D01*
X1199255Y1795491D01*
X1200324Y1795896D01*
X1201416Y1796236D01*
X1202527Y1796510D01*
X1203651Y1796716D01*
X1204787Y1796854D01*
X1205928Y1796923D01*
X1207072Y1796923D01*
X1208213Y1796854D01*
X1209349Y1796716D01*
X1210473Y1796510D01*
X1211584Y1796236D01*
X1212676Y1795896D01*
X1213745Y1795491D01*
X1214788Y1795021D01*
X1215800Y1794490D01*
X1216779Y1793898D01*
X1217720Y1793249D01*
X1218620Y1792543D01*
X1219476Y1791785D01*
X1220285Y1790976D01*
X1221043Y1790120D01*
X1221749Y1789220D01*
X1222398Y1788279D01*
X1222990Y1787300D01*
X1223521Y1786288D01*
X1223991Y1785245D01*
X1224396Y1784176D01*
X1224736Y1783084D01*
X1225010Y1781973D01*
X1225216Y1780849D01*
X1225354Y1779713D01*
X1225423Y1778572D01*
X1225423Y1777428D01*
X1225354Y1776287D01*
X1225216Y1775151D01*
X1225010Y1774027D01*
X1224736Y1772916D01*
X1224396Y1771824D01*
X1223991Y1770755D01*
X1223521Y1769712D01*
X1222990Y1768700D01*
X1222398Y1767721D01*
X1221749Y1766780D01*
X1221043Y1765880D01*
X1220285Y1765024D01*
X1219476Y1764215D01*
X1218620Y1763457D01*
X1217720Y1762752D01*
X1216779Y1762102D01*
X1215800Y1761510D01*
X1214788Y1760979D01*
X1213745Y1760509D01*
X1212676Y1760104D01*
X1211584Y1759764D01*
X1210473Y1759490D01*
X1209349Y1759284D01*
X1208213Y1759146D01*
X1207072Y1759077D01*
X1205928Y1759077D01*
X1207072Y1987423D02*
X1208213Y1987354D01*
X1209349Y1987216D01*
X1210473Y1987010D01*
X1211584Y1986736D01*
X1212676Y1986396D01*
X1213745Y1985991D01*
X1214788Y1985521D01*
X1215800Y1984990D01*
X1216779Y1984398D01*
X1217720Y1983749D01*
X1218620Y1983043D01*
X1219476Y1982285D01*
X1220285Y1981476D01*
X1221043Y1980620D01*
X1221749Y1979720D01*
X1222398Y1978779D01*
X1222990Y1977800D01*
X1223521Y1976788D01*
X1223991Y1975745D01*
X1224396Y1974676D01*
X1224736Y1973584D01*
X1225010Y1972473D01*
X1225216Y1971349D01*
X1225354Y1970213D01*
X1225423Y1969072D01*
X1225423Y1967928D01*
X1225354Y1966787D01*
X1225216Y1965651D01*
X1225010Y1964527D01*
X1224736Y1963416D01*
X1224396Y1962324D01*
X1223991Y1961255D01*
X1223521Y1960212D01*
X1222990Y1959200D01*
X1222398Y1958221D01*
X1221749Y1957280D01*
X1221043Y1956380D01*
X1220285Y1955524D01*
X1219476Y1954715D01*
X1218620Y1953957D01*
X1217720Y1953252D01*
X1216779Y1952602D01*
X1215800Y1952010D01*
X1214788Y1951479D01*
X1213745Y1951009D01*
X1212676Y1950604D01*
X1211584Y1950264D01*
X1210473Y1949990D01*
X1209349Y1949784D01*
X1208213Y1949646D01*
X1207072Y1949577D01*
X1205928Y1949577D01*
X1204787Y1949646D01*
X1203651Y1949784D01*
X1202527Y1949990D01*
X1201416Y1950264D01*
X1200324Y1950604D01*
X1199255Y1951009D01*
X1198212Y1951479D01*
X1197200Y1952010D01*
X1196221Y1952602D01*
X1195280Y1953252D01*
X1194380Y1953957D01*
X1193524Y1954715D01*
X1192715Y1955524D01*
X1191957Y1956380D01*
X1191252Y1957280D01*
X1190602Y1958221D01*
X1190010Y1959200D01*
X1189479Y1960212D01*
X1189009Y1961255D01*
X1188604Y1962324D01*
X1188264Y1963416D01*
X1187990Y1964527D01*
X1187784Y1965651D01*
X1187646Y1966787D01*
X1187577Y1967928D01*
X1187577Y1969072D01*
X1187646Y1970213D01*
X1187784Y1971349D01*
X1187990Y1972473D01*
X1188264Y1973584D01*
X1188604Y1974676D01*
X1189009Y1975745D01*
X1189479Y1976788D01*
X1190010Y1977800D01*
X1190602Y1978779D01*
X1191252Y1979720D01*
X1191957Y1980620D01*
X1192715Y1981476D01*
X1193524Y1982285D01*
X1194380Y1983043D01*
X1195280Y1983749D01*
X1196221Y1984398D01*
X1197200Y1984990D01*
X1198212Y1985521D01*
X1199255Y1985991D01*
X1200324Y1986396D01*
X1201416Y1986736D01*
X1202527Y1987010D01*
X1203651Y1987216D01*
X1204787Y1987354D01*
X1205928Y1987423D01*
X1207072Y1987423D01*
X1149223Y1028128D02*
X1149154Y1026987D01*
X1149016Y1025851D01*
X1148810Y1024727D01*
X1148536Y1023616D01*
X1148196Y1022524D01*
X1147791Y1021455D01*
X1147321Y1020412D01*
X1146790Y1019400D01*
X1146198Y1018421D01*
X1145549Y1017480D01*
X1144843Y1016580D01*
X1144085Y1015724D01*
X1143276Y1014915D01*
X1142420Y1014157D01*
X1141520Y1013452D01*
X1140579Y1012802D01*
X1139600Y1012210D01*
X1138588Y1011679D01*
X1137545Y1011209D01*
X1136476Y1010804D01*
X1135384Y1010464D01*
X1134273Y1010190D01*
X1133149Y1009984D01*
X1132013Y1009846D01*
X1130872Y1009777D01*
X1129728Y1009777D01*
X1128587Y1009846D01*
X1127451Y1009984D01*
X1126327Y1010190D01*
X1125216Y1010464D01*
X1124124Y1010804D01*
X1123055Y1011209D01*
X1122012Y1011679D01*
X1121000Y1012210D01*
X1120021Y1012802D01*
X1119080Y1013452D01*
X1118180Y1014157D01*
X1117324Y1014915D01*
X1116515Y1015724D01*
X1115757Y1016580D01*
X1115052Y1017480D01*
X1114402Y1018421D01*
X1113810Y1019400D01*
X1113279Y1020412D01*
X1112809Y1021455D01*
X1112404Y1022524D01*
X1112064Y1023616D01*
X1111790Y1024727D01*
X1111584Y1025851D01*
X1111446Y1026987D01*
X1111377Y1028128D01*
X1111377Y1029272D01*
X1111446Y1030413D01*
X1111584Y1031549D01*
X1111790Y1032673D01*
X1112064Y1033784D01*
X1112404Y1034876D01*
X1112809Y1035945D01*
X1113279Y1036988D01*
X1113810Y1038000D01*
X1114402Y1038979D01*
X1115052Y1039920D01*
X1115757Y1040820D01*
X1116515Y1041676D01*
X1117324Y1042485D01*
X1118180Y1043243D01*
X1119080Y1043949D01*
X1120021Y1044598D01*
X1121000Y1045190D01*
X1122012Y1045721D01*
X1123055Y1046191D01*
X1124124Y1046596D01*
X1125216Y1046936D01*
X1126327Y1047210D01*
X1127451Y1047416D01*
X1128587Y1047554D01*
X1129728Y1047623D01*
X1130872Y1047623D01*
X1132013Y1047554D01*
X1133149Y1047416D01*
X1134273Y1047210D01*
X1135384Y1046936D01*
X1136476Y1046596D01*
X1137545Y1046191D01*
X1138588Y1045721D01*
X1139600Y1045190D01*
X1140579Y1044598D01*
X1141520Y1043949D01*
X1142420Y1043243D01*
X1143276Y1042485D01*
X1144085Y1041676D01*
X1144843Y1040820D01*
X1145549Y1039920D01*
X1146198Y1038979D01*
X1146790Y1038000D01*
X1147321Y1036988D01*
X1147791Y1035945D01*
X1148196Y1034876D01*
X1148536Y1033784D01*
X1148810Y1032673D01*
X1149016Y1031549D01*
X1149154Y1030413D01*
X1149223Y1029272D01*
X1149223Y1028128D01*
X1205928Y2063877D02*
X1204787Y2063946D01*
X1203651Y2064084D01*
X1202527Y2064290D01*
X1201416Y2064564D01*
X1200324Y2064904D01*
X1199255Y2065309D01*
X1198212Y2065779D01*
X1197200Y2066310D01*
X1196221Y2066902D01*
X1195280Y2067552D01*
X1194380Y2068257D01*
X1193524Y2069015D01*
X1192715Y2069824D01*
X1191957Y2070680D01*
X1191252Y2071580D01*
X1190602Y2072521D01*
X1190010Y2073500D01*
X1189479Y2074512D01*
X1189009Y2075555D01*
X1188604Y2076624D01*
X1188264Y2077716D01*
X1187990Y2078827D01*
X1187784Y2079951D01*
X1187646Y2081087D01*
X1187577Y2082228D01*
X1187577Y2083372D01*
X1187646Y2084513D01*
X1187784Y2085649D01*
X1187990Y2086773D01*
X1188264Y2087884D01*
X1188604Y2088976D01*
X1189009Y2090045D01*
X1189479Y2091088D01*
X1190010Y2092100D01*
X1190602Y2093079D01*
X1191252Y2094020D01*
X1191957Y2094920D01*
X1192715Y2095776D01*
X1193524Y2096585D01*
X1194380Y2097343D01*
X1195280Y2098049D01*
X1196221Y2098698D01*
X1197200Y2099290D01*
X1198212Y2099821D01*
X1199255Y2100291D01*
X1200324Y2100696D01*
X1201416Y2101036D01*
X1202527Y2101310D01*
X1203651Y2101516D01*
X1204787Y2101654D01*
X1205928Y2101723D01*
X1207072Y2101723D01*
X1208213Y2101654D01*
X1209349Y2101516D01*
X1210473Y2101310D01*
X1211584Y2101036D01*
X1212676Y2100696D01*
X1213745Y2100291D01*
X1214788Y2099821D01*
X1215800Y2099290D01*
X1216779Y2098698D01*
X1217720Y2098049D01*
X1218620Y2097343D01*
X1219476Y2096585D01*
X1220285Y2095776D01*
X1221043Y2094920D01*
X1221749Y2094020D01*
X1222398Y2093079D01*
X1222990Y2092100D01*
X1223521Y2091088D01*
X1223991Y2090045D01*
X1224396Y2088976D01*
X1224736Y2087884D01*
X1225010Y2086773D01*
X1225216Y2085649D01*
X1225354Y2084513D01*
X1225423Y2083372D01*
X1225423Y2082228D01*
X1225354Y2081087D01*
X1225216Y2079951D01*
X1225010Y2078827D01*
X1224736Y2077716D01*
X1224396Y2076624D01*
X1223991Y2075555D01*
X1223521Y2074512D01*
X1222990Y2073500D01*
X1222398Y2072521D01*
X1221749Y2071580D01*
X1221043Y2070680D01*
X1220285Y2069824D01*
X1219476Y2069015D01*
X1218620Y2068257D01*
X1217720Y2067552D01*
X1216779Y2066902D01*
X1215800Y2066310D01*
X1214788Y2065779D01*
X1213745Y2065309D01*
X1212676Y2064904D01*
X1211584Y2064564D01*
X1210473Y2064290D01*
X1209349Y2064084D01*
X1208213Y2063946D01*
X1207072Y2063877D01*
X1205928Y2063877D01*
X1207072Y133223D02*
X1208213Y133154D01*
X1209349Y133016D01*
X1210473Y132810D01*
X1211584Y132536D01*
X1212676Y132196D01*
X1213745Y131791D01*
X1214788Y131321D01*
X1215800Y130790D01*
X1216779Y130198D01*
X1217720Y129549D01*
X1218620Y128843D01*
X1219476Y128085D01*
X1220285Y127276D01*
X1221043Y126420D01*
X1221749Y125520D01*
X1222398Y124579D01*
X1222990Y123600D01*
X1223521Y122588D01*
X1223991Y121545D01*
X1224396Y120476D01*
X1224736Y119384D01*
X1225010Y118273D01*
X1225216Y117149D01*
X1225354Y116013D01*
X1225423Y114872D01*
X1225423Y113728D01*
X1225354Y112587D01*
X1225216Y111451D01*
X1225010Y110327D01*
X1224736Y109216D01*
X1224396Y108124D01*
X1223991Y107055D01*
X1223521Y106012D01*
X1222990Y105000D01*
X1222398Y104021D01*
X1221749Y103080D01*
X1221043Y102180D01*
X1220285Y101324D01*
X1219476Y100515D01*
X1218620Y99757D01*
X1217720Y99052D01*
X1216779Y98402D01*
X1215800Y97810D01*
X1214788Y97279D01*
X1213745Y96809D01*
X1212676Y96404D01*
X1211584Y96064D01*
X1210473Y95790D01*
X1209349Y95584D01*
X1208213Y95446D01*
X1207072Y95377D01*
X1205928Y95377D01*
X1204787Y95446D01*
X1203651Y95584D01*
X1202527Y95790D01*
X1201416Y96064D01*
X1200324Y96404D01*
X1199255Y96809D01*
X1198212Y97279D01*
X1197200Y97810D01*
X1196221Y98402D01*
X1195280Y99052D01*
X1194380Y99757D01*
X1193524Y100515D01*
X1192715Y101324D01*
X1191957Y102180D01*
X1191252Y103080D01*
X1190602Y104021D01*
X1190010Y105000D01*
X1189479Y106012D01*
X1189009Y107055D01*
X1188604Y108124D01*
X1188264Y109216D01*
X1187990Y110327D01*
X1187784Y111451D01*
X1187646Y112587D01*
X1187577Y113728D01*
X1187577Y114872D01*
X1187646Y116013D01*
X1187784Y117149D01*
X1187990Y118273D01*
X1188264Y119384D01*
X1188604Y120476D01*
X1189009Y121545D01*
X1189479Y122588D01*
X1190010Y123600D01*
X1190602Y124579D01*
X1191252Y125520D01*
X1191957Y126420D01*
X1192715Y127276D01*
X1193524Y128085D01*
X1194380Y128843D01*
X1195280Y129549D01*
X1196221Y130198D01*
X1197200Y130790D01*
X1198212Y131321D01*
X1199255Y131791D01*
X1200324Y132196D01*
X1201416Y132536D01*
X1202527Y132810D01*
X1203651Y133016D01*
X1204787Y133154D01*
X1205928Y133223D01*
X1207072Y133223D01*
X1205928Y311277D02*
X1204787Y311346D01*
X1203651Y311484D01*
X1202527Y311690D01*
X1201416Y311964D01*
X1200324Y312304D01*
X1199255Y312709D01*
X1198212Y313179D01*
X1197200Y313710D01*
X1196221Y314302D01*
X1195280Y314952D01*
X1194380Y315657D01*
X1193524Y316415D01*
X1192715Y317224D01*
X1191957Y318080D01*
X1191252Y318980D01*
X1190602Y319921D01*
X1190010Y320900D01*
X1189479Y321912D01*
X1189009Y322955D01*
X1188604Y324024D01*
X1188264Y325116D01*
X1187990Y326227D01*
X1187784Y327351D01*
X1187646Y328487D01*
X1187577Y329628D01*
X1187577Y330772D01*
X1187646Y331913D01*
X1187784Y333049D01*
X1187990Y334173D01*
X1188264Y335284D01*
X1188604Y336376D01*
X1189009Y337445D01*
X1189479Y338488D01*
X1190010Y339500D01*
X1190602Y340479D01*
X1191252Y341420D01*
X1191957Y342320D01*
X1192715Y343176D01*
X1193524Y343985D01*
X1194380Y344743D01*
X1195280Y345449D01*
X1196221Y346098D01*
X1197200Y346690D01*
X1198212Y347221D01*
X1199255Y347691D01*
X1200324Y348096D01*
X1201416Y348436D01*
X1202527Y348710D01*
X1203651Y348916D01*
X1204787Y349054D01*
X1205928Y349123D01*
X1207072Y349123D01*
X1208213Y349054D01*
X1209349Y348916D01*
X1210473Y348710D01*
X1211584Y348436D01*
X1212676Y348096D01*
X1213745Y347691D01*
X1214788Y347221D01*
X1215800Y346690D01*
X1216779Y346098D01*
X1217720Y345449D01*
X1218620Y344743D01*
X1219476Y343985D01*
X1220285Y343176D01*
X1221043Y342320D01*
X1221749Y341420D01*
X1222398Y340479D01*
X1222990Y339500D01*
X1223521Y338488D01*
X1223991Y337445D01*
X1224396Y336376D01*
X1224736Y335284D01*
X1225010Y334173D01*
X1225216Y333049D01*
X1225354Y331913D01*
X1225423Y330772D01*
X1225423Y329628D01*
X1225354Y328487D01*
X1225216Y327351D01*
X1225010Y326227D01*
X1224736Y325116D01*
X1224396Y324024D01*
X1223991Y322955D01*
X1223521Y321912D01*
X1222990Y320900D01*
X1222398Y319921D01*
X1221749Y318980D01*
X1221043Y318080D01*
X1220285Y317224D01*
X1219476Y316415D01*
X1218620Y315657D01*
X1217720Y314952D01*
X1216779Y314302D01*
X1215800Y313710D01*
X1214788Y313179D01*
X1213745Y312709D01*
X1212676Y312304D01*
X1211584Y311964D01*
X1210473Y311690D01*
X1209349Y311484D01*
X1208213Y311346D01*
X1207072Y311277D01*
X1205928Y311277D01*
X1207072Y552323D02*
X1208213Y552254D01*
X1209349Y552116D01*
X1210473Y551910D01*
X1211584Y551636D01*
X1212676Y551296D01*
X1213745Y550891D01*
X1214788Y550421D01*
X1215800Y549890D01*
X1216779Y549298D01*
X1217720Y548649D01*
X1218620Y547943D01*
X1219476Y547185D01*
X1220285Y546376D01*
X1221043Y545520D01*
X1221749Y544620D01*
X1222398Y543679D01*
X1222990Y542700D01*
X1223521Y541688D01*
X1223991Y540645D01*
X1224396Y539576D01*
X1224736Y538484D01*
X1225010Y537373D01*
X1225216Y536249D01*
X1225354Y535113D01*
X1225423Y533972D01*
X1225423Y532828D01*
X1225354Y531687D01*
X1225216Y530551D01*
X1225010Y529427D01*
X1224736Y528316D01*
X1224396Y527224D01*
X1223991Y526155D01*
X1223521Y525112D01*
X1222990Y524100D01*
X1222398Y523121D01*
X1221749Y522180D01*
X1221043Y521280D01*
X1220285Y520424D01*
X1219476Y519615D01*
X1218620Y518857D01*
X1217720Y518152D01*
X1216779Y517502D01*
X1215800Y516910D01*
X1214788Y516379D01*
X1213745Y515909D01*
X1212676Y515504D01*
X1211584Y515164D01*
X1210473Y514890D01*
X1209349Y514684D01*
X1208213Y514546D01*
X1207072Y514477D01*
X1205928Y514477D01*
X1204787Y514546D01*
X1203651Y514684D01*
X1202527Y514890D01*
X1201416Y515164D01*
X1200324Y515504D01*
X1199255Y515909D01*
X1198212Y516379D01*
X1197200Y516910D01*
X1196221Y517502D01*
X1195280Y518152D01*
X1194380Y518857D01*
X1193524Y519615D01*
X1192715Y520424D01*
X1191957Y521280D01*
X1191252Y522180D01*
X1190602Y523121D01*
X1190010Y524100D01*
X1189479Y525112D01*
X1189009Y526155D01*
X1188604Y527224D01*
X1188264Y528316D01*
X1187990Y529427D01*
X1187784Y530551D01*
X1187646Y531687D01*
X1187577Y532828D01*
X1187577Y533972D01*
X1187646Y535113D01*
X1187784Y536249D01*
X1187990Y537373D01*
X1188264Y538484D01*
X1188604Y539576D01*
X1189009Y540645D01*
X1189479Y541688D01*
X1190010Y542700D01*
X1190602Y543679D01*
X1191252Y544620D01*
X1191957Y545520D01*
X1192715Y546376D01*
X1193524Y547185D01*
X1194380Y547943D01*
X1195280Y548649D01*
X1196221Y549298D01*
X1197200Y549890D01*
X1198212Y550421D01*
X1199255Y550891D01*
X1200324Y551296D01*
X1201416Y551636D01*
X1202527Y551910D01*
X1203651Y552116D01*
X1204787Y552254D01*
X1205928Y552323D01*
X1207072Y552323D01*
X1205928Y704977D02*
X1204787Y705046D01*
X1203651Y705184D01*
X1202527Y705390D01*
X1201416Y705664D01*
X1200324Y706004D01*
X1199255Y706409D01*
X1198212Y706879D01*
X1197200Y707410D01*
X1196221Y708002D01*
X1195280Y708652D01*
X1194380Y709357D01*
X1193524Y710115D01*
X1192715Y710924D01*
X1191957Y711780D01*
X1191252Y712680D01*
X1190602Y713621D01*
X1190010Y714600D01*
X1189479Y715612D01*
X1189009Y716655D01*
X1188604Y717724D01*
X1188264Y718816D01*
X1187990Y719927D01*
X1187784Y721051D01*
X1187646Y722187D01*
X1187577Y723328D01*
X1187577Y724472D01*
X1187646Y725613D01*
X1187784Y726749D01*
X1187990Y727873D01*
X1188264Y728984D01*
X1188604Y730076D01*
X1189009Y731145D01*
X1189479Y732188D01*
X1190010Y733200D01*
X1190602Y734179D01*
X1191252Y735120D01*
X1191957Y736020D01*
X1192715Y736876D01*
X1193524Y737685D01*
X1194380Y738443D01*
X1195280Y739149D01*
X1196221Y739798D01*
X1197200Y740390D01*
X1198212Y740921D01*
X1199255Y741391D01*
X1200324Y741796D01*
X1201416Y742136D01*
X1202527Y742410D01*
X1203651Y742616D01*
X1204787Y742754D01*
X1205928Y742823D01*
X1207072Y742823D01*
X1208213Y742754D01*
X1209349Y742616D01*
X1210473Y742410D01*
X1211584Y742136D01*
X1212676Y741796D01*
X1213745Y741391D01*
X1214788Y740921D01*
X1215800Y740390D01*
X1216779Y739798D01*
X1217720Y739149D01*
X1218620Y738443D01*
X1219476Y737685D01*
X1220285Y736876D01*
X1221043Y736020D01*
X1221749Y735120D01*
X1222398Y734179D01*
X1222990Y733200D01*
X1223521Y732188D01*
X1223991Y731145D01*
X1224396Y730076D01*
X1224736Y728984D01*
X1225010Y727873D01*
X1225216Y726749D01*
X1225354Y725613D01*
X1225423Y724472D01*
X1225423Y723328D01*
X1225354Y722187D01*
X1225216Y721051D01*
X1225010Y719927D01*
X1224736Y718816D01*
X1224396Y717724D01*
X1223991Y716655D01*
X1223521Y715612D01*
X1222990Y714600D01*
X1222398Y713621D01*
X1221749Y712680D01*
X1221043Y711780D01*
X1220285Y710924D01*
X1219476Y710115D01*
X1218620Y709357D01*
X1217720Y708652D01*
X1216779Y708002D01*
X1215800Y707410D01*
X1214788Y706879D01*
X1213745Y706409D01*
X1212676Y706004D01*
X1211584Y705664D01*
X1210473Y705390D01*
X1209349Y705184D01*
X1208213Y705046D01*
X1207072Y704977D01*
X1205928Y704977D01*
X1207072Y907923D02*
X1208213Y907854D01*
X1209349Y907716D01*
X1210473Y907510D01*
X1211584Y907236D01*
X1212676Y906896D01*
X1213745Y906491D01*
X1214788Y906021D01*
X1215800Y905490D01*
X1216779Y904898D01*
X1217720Y904249D01*
X1218620Y903543D01*
X1219476Y902785D01*
X1220285Y901976D01*
X1221043Y901120D01*
X1221749Y900220D01*
X1222398Y899279D01*
X1222990Y898300D01*
X1223521Y897288D01*
X1223991Y896245D01*
X1224396Y895176D01*
X1224736Y894084D01*
X1225010Y892973D01*
X1225216Y891849D01*
X1225354Y890713D01*
X1225423Y889572D01*
X1225423Y888428D01*
X1225354Y887287D01*
X1225216Y886151D01*
X1225010Y885027D01*
X1224736Y883916D01*
X1224396Y882824D01*
X1223991Y881755D01*
X1223521Y880712D01*
X1222990Y879700D01*
X1222398Y878721D01*
X1221749Y877780D01*
X1221043Y876880D01*
X1220285Y876024D01*
X1219476Y875215D01*
X1218620Y874457D01*
X1217720Y873752D01*
X1216779Y873102D01*
X1215800Y872510D01*
X1214788Y871979D01*
X1213745Y871509D01*
X1212676Y871104D01*
X1211584Y870764D01*
X1210473Y870490D01*
X1209349Y870284D01*
X1208213Y870146D01*
X1207072Y870077D01*
X1205928Y870077D01*
X1204787Y870146D01*
X1203651Y870284D01*
X1202527Y870490D01*
X1201416Y870764D01*
X1200324Y871104D01*
X1199255Y871509D01*
X1198212Y871979D01*
X1197200Y872510D01*
X1196221Y873102D01*
X1195280Y873752D01*
X1194380Y874457D01*
X1193524Y875215D01*
X1192715Y876024D01*
X1191957Y876880D01*
X1191252Y877780D01*
X1190602Y878721D01*
X1190010Y879700D01*
X1189479Y880712D01*
X1189009Y881755D01*
X1188604Y882824D01*
X1188264Y883916D01*
X1187990Y885027D01*
X1187784Y886151D01*
X1187646Y887287D01*
X1187577Y888428D01*
X1187577Y889572D01*
X1187646Y890713D01*
X1187784Y891849D01*
X1187990Y892973D01*
X1188264Y894084D01*
X1188604Y895176D01*
X1189009Y896245D01*
X1189479Y897288D01*
X1190010Y898300D01*
X1190602Y899279D01*
X1191252Y900220D01*
X1191957Y901120D01*
X1192715Y901976D01*
X1193524Y902785D01*
X1194380Y903543D01*
X1195280Y904249D01*
X1196221Y904898D01*
X1197200Y905490D01*
X1198212Y906021D01*
X1199255Y906491D01*
X1200324Y906896D01*
X1201416Y907236D01*
X1202527Y907510D01*
X1203651Y907716D01*
X1204787Y907854D01*
X1205928Y907923D01*
X1207072Y907923D01*
X1205928Y1327277D02*
X1204787Y1327346D01*
X1203651Y1327484D01*
X1202527Y1327690D01*
X1201416Y1327964D01*
X1200324Y1328304D01*
X1199255Y1328709D01*
X1198212Y1329179D01*
X1197200Y1329710D01*
X1196221Y1330302D01*
X1195280Y1330952D01*
X1194380Y1331657D01*
X1193524Y1332415D01*
X1192715Y1333224D01*
X1191957Y1334080D01*
X1191252Y1334980D01*
X1190602Y1335921D01*
X1190010Y1336900D01*
X1189479Y1337912D01*
X1189009Y1338955D01*
X1188604Y1340024D01*
X1188264Y1341116D01*
X1187990Y1342227D01*
X1187784Y1343351D01*
X1187646Y1344487D01*
X1187577Y1345628D01*
X1187577Y1346772D01*
X1187646Y1347913D01*
X1187784Y1349049D01*
X1187990Y1350173D01*
X1188264Y1351284D01*
X1188604Y1352376D01*
X1189009Y1353445D01*
X1189479Y1354488D01*
X1190010Y1355500D01*
X1190602Y1356479D01*
X1191252Y1357420D01*
X1191957Y1358320D01*
X1192715Y1359176D01*
X1193524Y1359985D01*
X1194380Y1360743D01*
X1195280Y1361449D01*
X1196221Y1362098D01*
X1197200Y1362690D01*
X1198212Y1363221D01*
X1199255Y1363691D01*
X1200324Y1364096D01*
X1201416Y1364436D01*
X1202527Y1364710D01*
X1203651Y1364916D01*
X1204787Y1365054D01*
X1205928Y1365123D01*
X1207072Y1365123D01*
X1208213Y1365054D01*
X1209349Y1364916D01*
X1210473Y1364710D01*
X1211584Y1364436D01*
X1212676Y1364096D01*
X1213745Y1363691D01*
X1214788Y1363221D01*
X1215800Y1362690D01*
X1216779Y1362098D01*
X1217720Y1361449D01*
X1218620Y1360743D01*
X1219476Y1359985D01*
X1220285Y1359176D01*
X1221043Y1358320D01*
X1221749Y1357420D01*
X1222398Y1356479D01*
X1222990Y1355500D01*
X1223521Y1354488D01*
X1223991Y1353445D01*
X1224396Y1352376D01*
X1224736Y1351284D01*
X1225010Y1350173D01*
X1225216Y1349049D01*
X1225354Y1347913D01*
X1225423Y1346772D01*
X1225423Y1345628D01*
X1225354Y1344487D01*
X1225216Y1343351D01*
X1225010Y1342227D01*
X1224736Y1341116D01*
X1224396Y1340024D01*
X1223991Y1338955D01*
X1223521Y1337912D01*
X1222990Y1336900D01*
X1222398Y1335921D01*
X1221749Y1334980D01*
X1221043Y1334080D01*
X1220285Y1333224D01*
X1219476Y1332415D01*
X1218620Y1331657D01*
X1217720Y1330952D01*
X1216779Y1330302D01*
X1215800Y1329710D01*
X1214788Y1329179D01*
X1213745Y1328709D01*
X1212676Y1328304D01*
X1211584Y1327964D01*
X1210473Y1327690D01*
X1209349Y1327484D01*
X1208213Y1327346D01*
X1207072Y1327277D01*
X1205928Y1327277D01*
M02*
