G04 EAGLE Gerber RS-274X export*
G75*
%MOMM*%
%FSLAX34Y34*%
%LPD*%
%INBottom Copper*%
%IPPOS*%
%AMOC8*
5,1,8,0,0,1.08239X$1,22.5*%
G01*
%ADD10R,2.700000X1.600000*%
%ADD11R,1.600000X2.700000*%
%ADD12R,0.800000X1.200000*%
%ADD13R,2.550000X2.550000*%
%ADD14C,2.550000*%
%ADD15R,2.300000X2.300000*%
%ADD16R,0.400000X0.560000*%
%ADD17R,3.360000X4.860000*%
%ADD18R,1.390000X1.400000*%
%ADD19R,1.200000X0.700000*%
%ADD20R,1.000000X0.800000*%
%ADD21C,3.740000*%
%ADD22C,2.000000*%
%ADD23P,1.649562X8X112.500000*%
%ADD24C,0.150000*%
%ADD25R,1.200000X0.800000*%
%ADD26R,1.800000X3.200000*%
%ADD27R,3.200000X1.800000*%
%ADD28C,0.756400*%
%ADD29C,0.304800*%
%ADD30C,1.016000*%
%ADD31C,0.812800*%

G36*
X1103237Y1040650D02*
X1103237Y1040650D01*
X1103305Y1040651D01*
X1103358Y1040669D01*
X1103413Y1040679D01*
X1103473Y1040710D01*
X1103537Y1040733D01*
X1103581Y1040767D01*
X1103630Y1040794D01*
X1103677Y1040842D01*
X1103730Y1040884D01*
X1103777Y1040948D01*
X1103800Y1040972D01*
X1103809Y1040991D01*
X1103830Y1041019D01*
X1107027Y1046558D01*
X1112442Y1051973D01*
X1119074Y1055802D01*
X1126471Y1057784D01*
X1130545Y1057784D01*
X1130590Y1057791D01*
X1130636Y1057789D01*
X1130711Y1057811D01*
X1130788Y1057823D01*
X1130828Y1057845D01*
X1130872Y1057858D01*
X1130936Y1057902D01*
X1131005Y1057939D01*
X1131037Y1057972D01*
X1131074Y1057998D01*
X1131121Y1058061D01*
X1131174Y1058117D01*
X1131194Y1058159D01*
X1131221Y1058195D01*
X1131245Y1058269D01*
X1131278Y1058340D01*
X1131283Y1058386D01*
X1131297Y1058429D01*
X1131297Y1058507D01*
X1131305Y1058584D01*
X1131295Y1058629D01*
X1131295Y1058675D01*
X1131257Y1058807D01*
X1131253Y1058825D01*
X1131250Y1058829D01*
X1131248Y1058836D01*
X1129443Y1063194D01*
X1129443Y1070406D01*
X1132203Y1077069D01*
X1137303Y1082169D01*
X1143966Y1084929D01*
X1151178Y1084929D01*
X1157841Y1082169D01*
X1162941Y1077069D01*
X1165701Y1070406D01*
X1165701Y1063194D01*
X1162941Y1056531D01*
X1157841Y1051431D01*
X1152430Y1049190D01*
X1152391Y1049166D01*
X1152347Y1049150D01*
X1152287Y1049101D01*
X1152220Y1049060D01*
X1152191Y1049025D01*
X1152155Y1048996D01*
X1152113Y1048931D01*
X1152064Y1048871D01*
X1152047Y1048828D01*
X1152022Y1048789D01*
X1152003Y1048714D01*
X1151975Y1048641D01*
X1151974Y1048595D01*
X1151962Y1048551D01*
X1151968Y1048473D01*
X1151965Y1048395D01*
X1151978Y1048351D01*
X1151981Y1048305D01*
X1152012Y1048234D01*
X1152034Y1048159D01*
X1152060Y1048121D01*
X1152078Y1048079D01*
X1152163Y1047972D01*
X1152174Y1047957D01*
X1152178Y1047954D01*
X1152183Y1047948D01*
X1153573Y1046558D01*
X1156770Y1041019D01*
X1156813Y1040967D01*
X1156848Y1040909D01*
X1156891Y1040873D01*
X1156926Y1040829D01*
X1156983Y1040793D01*
X1157035Y1040749D01*
X1157087Y1040728D01*
X1157135Y1040698D01*
X1157200Y1040683D01*
X1157263Y1040657D01*
X1157342Y1040649D01*
X1157374Y1040641D01*
X1157394Y1040643D01*
X1157430Y1040639D01*
X1206500Y1040639D01*
X1206520Y1040642D01*
X1206539Y1040640D01*
X1206641Y1040662D01*
X1206743Y1040679D01*
X1206760Y1040688D01*
X1206780Y1040692D01*
X1206869Y1040745D01*
X1206960Y1040794D01*
X1206974Y1040808D01*
X1206991Y1040818D01*
X1207058Y1040897D01*
X1207130Y1040972D01*
X1207138Y1040990D01*
X1207151Y1041005D01*
X1207190Y1041101D01*
X1207233Y1041195D01*
X1207235Y1041215D01*
X1207243Y1041233D01*
X1207261Y1041400D01*
X1207261Y1192723D01*
X1207247Y1192814D01*
X1207239Y1192904D01*
X1207227Y1192934D01*
X1207222Y1192966D01*
X1207179Y1193047D01*
X1207143Y1193131D01*
X1207117Y1193163D01*
X1207106Y1193184D01*
X1207083Y1193206D01*
X1207038Y1193262D01*
X1186972Y1213328D01*
X1186898Y1213381D01*
X1186828Y1213441D01*
X1186798Y1213453D01*
X1186772Y1213472D01*
X1186685Y1213499D01*
X1186600Y1213533D01*
X1186559Y1213537D01*
X1186537Y1213544D01*
X1186505Y1213543D01*
X1186433Y1213551D01*
X1181733Y1213551D01*
X1181391Y1213693D01*
X1181303Y1213714D01*
X1181216Y1213742D01*
X1181183Y1213742D01*
X1181152Y1213749D01*
X1181061Y1213740D01*
X1180970Y1213740D01*
X1180930Y1213728D01*
X1180907Y1213726D01*
X1180878Y1213713D01*
X1180809Y1213693D01*
X1180467Y1213551D01*
X1163333Y1213551D01*
X1160345Y1214789D01*
X1158059Y1217075D01*
X1156821Y1220063D01*
X1156821Y1233678D01*
X1156818Y1233698D01*
X1156820Y1233717D01*
X1156798Y1233819D01*
X1156782Y1233921D01*
X1156772Y1233938D01*
X1156768Y1233958D01*
X1156715Y1234047D01*
X1156666Y1234138D01*
X1156652Y1234152D01*
X1156642Y1234169D01*
X1156563Y1234236D01*
X1156488Y1234308D01*
X1156470Y1234316D01*
X1156455Y1234329D01*
X1156359Y1234368D01*
X1156265Y1234411D01*
X1156245Y1234413D01*
X1156227Y1234421D01*
X1156060Y1234439D01*
X1150122Y1234439D01*
X1146854Y1235793D01*
X1144353Y1238294D01*
X1142999Y1241562D01*
X1142999Y1427978D01*
X1143987Y1430364D01*
X1144008Y1430452D01*
X1144036Y1430539D01*
X1144036Y1430572D01*
X1144043Y1430603D01*
X1144035Y1430694D01*
X1144034Y1430785D01*
X1144023Y1430825D01*
X1144020Y1430848D01*
X1144007Y1430877D01*
X1143987Y1430946D01*
X1142999Y1433332D01*
X1142999Y1656578D01*
X1144353Y1659846D01*
X1146586Y1662080D01*
X1146634Y1662146D01*
X1146640Y1662152D01*
X1146641Y1662156D01*
X1146699Y1662223D01*
X1146711Y1662253D01*
X1146730Y1662279D01*
X1146757Y1662366D01*
X1146791Y1662451D01*
X1146795Y1662492D01*
X1146802Y1662515D01*
X1146801Y1662547D01*
X1146809Y1662618D01*
X1146809Y1688339D01*
X1150112Y1688339D01*
X1150132Y1688342D01*
X1150151Y1688340D01*
X1150253Y1688362D01*
X1150355Y1688379D01*
X1150372Y1688388D01*
X1150392Y1688392D01*
X1150481Y1688445D01*
X1150572Y1688494D01*
X1150586Y1688508D01*
X1150603Y1688518D01*
X1150670Y1688597D01*
X1150742Y1688672D01*
X1150750Y1688690D01*
X1150763Y1688705D01*
X1150802Y1688801D01*
X1150845Y1688895D01*
X1150847Y1688915D01*
X1150855Y1688933D01*
X1150873Y1689100D01*
X1150873Y1860009D01*
X1152781Y1861917D01*
X1152792Y1861933D01*
X1152808Y1861945D01*
X1152864Y1862033D01*
X1152924Y1862116D01*
X1152930Y1862135D01*
X1152941Y1862152D01*
X1152966Y1862253D01*
X1152997Y1862352D01*
X1152996Y1862371D01*
X1153001Y1862391D01*
X1152993Y1862494D01*
X1152990Y1862597D01*
X1152983Y1862616D01*
X1152982Y1862636D01*
X1152941Y1862731D01*
X1152906Y1862828D01*
X1152893Y1862844D01*
X1152885Y1862862D01*
X1152781Y1862993D01*
X1150873Y1864901D01*
X1150873Y2008599D01*
X1153701Y2011427D01*
X1206500Y2011427D01*
X1206520Y2011430D01*
X1206539Y2011428D01*
X1206641Y2011450D01*
X1206743Y2011466D01*
X1206760Y2011476D01*
X1206780Y2011480D01*
X1206869Y2011533D01*
X1206960Y2011582D01*
X1206974Y2011596D01*
X1206991Y2011606D01*
X1207058Y2011685D01*
X1207130Y2011760D01*
X1207138Y2011778D01*
X1207151Y2011793D01*
X1207190Y2011889D01*
X1207233Y2011983D01*
X1207235Y2012003D01*
X1207243Y2012021D01*
X1207261Y2012188D01*
X1207261Y2052955D01*
X1207258Y2052975D01*
X1207260Y2052994D01*
X1207238Y2053096D01*
X1207222Y2053198D01*
X1207212Y2053215D01*
X1207208Y2053235D01*
X1207155Y2053324D01*
X1207106Y2053415D01*
X1207092Y2053429D01*
X1207082Y2053446D01*
X1207003Y2053513D01*
X1206928Y2053585D01*
X1206910Y2053593D01*
X1206895Y2053606D01*
X1206799Y2053645D01*
X1206705Y2053688D01*
X1206685Y2053690D01*
X1206667Y2053698D01*
X1206500Y2053716D01*
X1202671Y2053716D01*
X1195274Y2055698D01*
X1188642Y2059527D01*
X1183227Y2064942D01*
X1179398Y2071574D01*
X1177416Y2078971D01*
X1177416Y2086629D01*
X1179398Y2094026D01*
X1183227Y2100658D01*
X1188642Y2106073D01*
X1195274Y2109902D01*
X1202671Y2111884D01*
X1206500Y2111884D01*
X1206520Y2111887D01*
X1206539Y2111885D01*
X1206641Y2111907D01*
X1206743Y2111923D01*
X1206760Y2111933D01*
X1206780Y2111937D01*
X1206869Y2111990D01*
X1206960Y2112039D01*
X1206974Y2112053D01*
X1206991Y2112063D01*
X1207058Y2112142D01*
X1207130Y2112217D01*
X1207138Y2112235D01*
X1207151Y2112250D01*
X1207190Y2112346D01*
X1207233Y2112440D01*
X1207235Y2112460D01*
X1207243Y2112478D01*
X1207261Y2112645D01*
X1207261Y2189078D01*
X1207258Y2189098D01*
X1207260Y2189117D01*
X1207238Y2189219D01*
X1207222Y2189321D01*
X1207212Y2189338D01*
X1207208Y2189358D01*
X1207155Y2189447D01*
X1207106Y2189538D01*
X1207092Y2189552D01*
X1207082Y2189569D01*
X1207003Y2189636D01*
X1206928Y2189708D01*
X1206910Y2189716D01*
X1206895Y2189729D01*
X1206799Y2189768D01*
X1206705Y2189811D01*
X1206685Y2189813D01*
X1206667Y2189821D01*
X1206500Y2189839D01*
X38100Y2189839D01*
X38080Y2189836D01*
X38061Y2189838D01*
X37959Y2189816D01*
X37857Y2189800D01*
X37840Y2189790D01*
X37820Y2189786D01*
X37731Y2189733D01*
X37640Y2189684D01*
X37626Y2189670D01*
X37609Y2189660D01*
X37542Y2189581D01*
X37471Y2189506D01*
X37462Y2189488D01*
X37449Y2189473D01*
X37410Y2189377D01*
X37367Y2189283D01*
X37365Y2189263D01*
X37357Y2189245D01*
X37339Y2189078D01*
X37339Y2173062D01*
X37354Y2172968D01*
X37363Y2172873D01*
X37374Y2172847D01*
X37379Y2172819D01*
X37423Y2172735D01*
X37461Y2172647D01*
X37480Y2172626D01*
X37494Y2172602D01*
X37563Y2172536D01*
X37627Y2172465D01*
X37651Y2172452D01*
X37672Y2172432D01*
X37759Y2172392D01*
X37842Y2172346D01*
X37869Y2172340D01*
X37895Y2172329D01*
X37990Y2172318D01*
X38083Y2172301D01*
X38111Y2172305D01*
X38139Y2172301D01*
X38233Y2172322D01*
X38327Y2172335D01*
X38359Y2172349D01*
X38380Y2172354D01*
X38408Y2172371D01*
X38481Y2172402D01*
X40288Y2173446D01*
X46688Y2175161D01*
X53312Y2175161D01*
X59712Y2173446D01*
X65449Y2170134D01*
X70134Y2165449D01*
X73446Y2159712D01*
X75161Y2153312D01*
X75161Y2146688D01*
X73446Y2140288D01*
X70134Y2134551D01*
X65449Y2129866D01*
X59712Y2126554D01*
X53312Y2124839D01*
X46688Y2124839D01*
X40288Y2126554D01*
X38481Y2127598D01*
X38392Y2127631D01*
X38305Y2127671D01*
X38277Y2127675D01*
X38251Y2127685D01*
X38155Y2127688D01*
X38061Y2127699D01*
X38033Y2127693D01*
X38005Y2127694D01*
X37913Y2127667D01*
X37820Y2127646D01*
X37796Y2127632D01*
X37769Y2127624D01*
X37691Y2127569D01*
X37609Y2127520D01*
X37591Y2127499D01*
X37568Y2127482D01*
X37511Y2127406D01*
X37449Y2127333D01*
X37439Y2127307D01*
X37422Y2127284D01*
X37393Y2127194D01*
X37357Y2127105D01*
X37353Y2127070D01*
X37347Y2127050D01*
X37348Y2127017D01*
X37339Y2126938D01*
X37339Y1917700D01*
X37342Y1917680D01*
X37340Y1917661D01*
X37362Y1917559D01*
X37379Y1917457D01*
X37388Y1917440D01*
X37392Y1917420D01*
X37445Y1917331D01*
X37494Y1917240D01*
X37508Y1917226D01*
X37518Y1917209D01*
X37597Y1917142D01*
X37672Y1917071D01*
X37690Y1917062D01*
X37705Y1917049D01*
X37801Y1917010D01*
X37895Y1916967D01*
X37915Y1916965D01*
X37933Y1916957D01*
X38100Y1916939D01*
X63500Y1916939D01*
X63590Y1916954D01*
X63681Y1916961D01*
X63711Y1916973D01*
X63743Y1916979D01*
X63823Y1917021D01*
X63907Y1917057D01*
X63939Y1917083D01*
X63960Y1917094D01*
X63982Y1917117D01*
X64038Y1917162D01*
X127315Y1980439D01*
X558485Y1980439D01*
X570739Y1968185D01*
X570739Y1867215D01*
X558485Y1854961D01*
X266700Y1854961D01*
X266610Y1854947D01*
X266519Y1854939D01*
X266489Y1854927D01*
X266457Y1854922D01*
X266377Y1854879D01*
X266293Y1854843D01*
X266261Y1854817D01*
X266240Y1854806D01*
X266218Y1854783D01*
X266162Y1854738D01*
X228062Y1816638D01*
X228009Y1816564D01*
X227949Y1816495D01*
X227937Y1816465D01*
X227918Y1816439D01*
X227891Y1816352D01*
X227857Y1816267D01*
X227853Y1816226D01*
X227846Y1816203D01*
X227847Y1816171D01*
X227839Y1816100D01*
X227839Y1689100D01*
X227842Y1689080D01*
X227840Y1689061D01*
X227862Y1688959D01*
X227879Y1688857D01*
X227888Y1688840D01*
X227892Y1688820D01*
X227945Y1688731D01*
X227994Y1688640D01*
X228008Y1688626D01*
X228018Y1688609D01*
X228097Y1688542D01*
X228172Y1688471D01*
X228190Y1688462D01*
X228205Y1688449D01*
X228301Y1688410D01*
X228395Y1688367D01*
X228415Y1688365D01*
X228433Y1688357D01*
X228600Y1688339D01*
X1053339Y1688339D01*
X1053339Y1549654D01*
X1053342Y1549634D01*
X1053340Y1549615D01*
X1053362Y1549513D01*
X1053379Y1549411D01*
X1053388Y1549394D01*
X1053392Y1549374D01*
X1053445Y1549285D01*
X1053494Y1549194D01*
X1053508Y1549180D01*
X1053518Y1549163D01*
X1053597Y1549096D01*
X1053672Y1549024D01*
X1053690Y1549016D01*
X1053705Y1549003D01*
X1053801Y1548964D01*
X1053895Y1548921D01*
X1053915Y1548919D01*
X1053933Y1548911D01*
X1054100Y1548893D01*
X1078115Y1548893D01*
X1082597Y1547036D01*
X1099996Y1529637D01*
X1101853Y1525155D01*
X1101853Y1510145D01*
X1099996Y1505663D01*
X1096567Y1502234D01*
X1092085Y1500377D01*
X1087235Y1500377D01*
X1082753Y1502234D01*
X1079324Y1505663D01*
X1077467Y1510145D01*
X1077467Y1517364D01*
X1077453Y1517454D01*
X1077445Y1517545D01*
X1077433Y1517575D01*
X1077428Y1517607D01*
X1077385Y1517688D01*
X1077349Y1517772D01*
X1077323Y1517804D01*
X1077312Y1517824D01*
X1077289Y1517847D01*
X1077244Y1517903D01*
X1070863Y1524284D01*
X1070789Y1524337D01*
X1070719Y1524397D01*
X1070689Y1524409D01*
X1070663Y1524428D01*
X1070576Y1524455D01*
X1070491Y1524489D01*
X1070450Y1524493D01*
X1070428Y1524500D01*
X1070396Y1524499D01*
X1070324Y1524507D01*
X1054100Y1524507D01*
X1054080Y1524504D01*
X1054061Y1524506D01*
X1053959Y1524484D01*
X1053857Y1524468D01*
X1053840Y1524458D01*
X1053820Y1524454D01*
X1053731Y1524401D01*
X1053640Y1524352D01*
X1053626Y1524338D01*
X1053609Y1524328D01*
X1053542Y1524249D01*
X1053471Y1524174D01*
X1053462Y1524156D01*
X1053449Y1524141D01*
X1053410Y1524045D01*
X1053367Y1523951D01*
X1053365Y1523931D01*
X1053357Y1523913D01*
X1053339Y1523746D01*
X1053339Y1471422D01*
X1053342Y1471402D01*
X1053340Y1471383D01*
X1053362Y1471281D01*
X1053379Y1471179D01*
X1053388Y1471162D01*
X1053392Y1471142D01*
X1053445Y1471053D01*
X1053494Y1470962D01*
X1053508Y1470948D01*
X1053518Y1470931D01*
X1053597Y1470864D01*
X1053672Y1470792D01*
X1053690Y1470784D01*
X1053705Y1470771D01*
X1053801Y1470732D01*
X1053895Y1470689D01*
X1053915Y1470687D01*
X1053933Y1470679D01*
X1054100Y1470661D01*
X1054598Y1470661D01*
X1057866Y1469307D01*
X1059029Y1468144D01*
X1061637Y1465536D01*
X1062991Y1462268D01*
X1062991Y1428252D01*
X1061637Y1424984D01*
X1057866Y1421213D01*
X1054598Y1419859D01*
X927100Y1419859D01*
X927080Y1419856D01*
X927061Y1419858D01*
X926959Y1419836D01*
X926857Y1419820D01*
X926840Y1419810D01*
X926820Y1419806D01*
X926731Y1419753D01*
X926640Y1419704D01*
X926626Y1419690D01*
X926609Y1419680D01*
X926542Y1419601D01*
X926471Y1419526D01*
X926462Y1419508D01*
X926449Y1419493D01*
X926410Y1419397D01*
X926367Y1419303D01*
X926365Y1419283D01*
X926357Y1419265D01*
X926339Y1419098D01*
X926339Y1257554D01*
X926342Y1257534D01*
X926340Y1257515D01*
X926362Y1257413D01*
X926379Y1257311D01*
X926388Y1257294D01*
X926392Y1257274D01*
X926445Y1257185D01*
X926494Y1257094D01*
X926508Y1257080D01*
X926518Y1257063D01*
X926597Y1256996D01*
X926672Y1256924D01*
X926690Y1256916D01*
X926705Y1256903D01*
X926801Y1256864D01*
X926895Y1256821D01*
X926915Y1256819D01*
X926933Y1256811D01*
X927100Y1256793D01*
X980325Y1256793D01*
X980799Y1256597D01*
X980862Y1256582D01*
X980923Y1256557D01*
X981006Y1256548D01*
X981038Y1256541D01*
X981057Y1256542D01*
X981090Y1256539D01*
X1015685Y1256539D01*
X1027939Y1244285D01*
X1027939Y1212120D01*
X1027954Y1212030D01*
X1027961Y1211939D01*
X1027973Y1211909D01*
X1027979Y1211877D01*
X1028021Y1211796D01*
X1028057Y1211712D01*
X1028083Y1211680D01*
X1028094Y1211660D01*
X1028117Y1211637D01*
X1028162Y1211581D01*
X1048767Y1190976D01*
X1048841Y1190923D01*
X1048911Y1190863D01*
X1048941Y1190851D01*
X1048967Y1190832D01*
X1049054Y1190805D01*
X1049139Y1190771D01*
X1049180Y1190767D01*
X1049202Y1190760D01*
X1049234Y1190761D01*
X1049306Y1190753D01*
X1074305Y1190753D01*
X1078787Y1188896D01*
X1082216Y1185467D01*
X1084073Y1180985D01*
X1084073Y1165975D01*
X1082216Y1161493D01*
X1078787Y1158064D01*
X1074305Y1156207D01*
X1069455Y1156207D01*
X1064973Y1158064D01*
X1061544Y1161493D01*
X1059719Y1165897D01*
X1059658Y1165997D01*
X1059598Y1166097D01*
X1059593Y1166101D01*
X1059590Y1166106D01*
X1059500Y1166181D01*
X1059411Y1166257D01*
X1059405Y1166259D01*
X1059400Y1166263D01*
X1059292Y1166305D01*
X1059183Y1166349D01*
X1059175Y1166350D01*
X1059171Y1166351D01*
X1059152Y1166352D01*
X1059016Y1166367D01*
X1041515Y1166367D01*
X1037033Y1168224D01*
X1029238Y1176019D01*
X1029180Y1176060D01*
X1029128Y1176110D01*
X1029081Y1176132D01*
X1029039Y1176162D01*
X1028970Y1176183D01*
X1028905Y1176213D01*
X1028853Y1176219D01*
X1028803Y1176234D01*
X1028732Y1176233D01*
X1028661Y1176241D01*
X1028610Y1176229D01*
X1028558Y1176228D01*
X1028490Y1176203D01*
X1028420Y1176188D01*
X1028376Y1176162D01*
X1028327Y1176144D01*
X1028271Y1176099D01*
X1028209Y1176062D01*
X1028175Y1176023D01*
X1028135Y1175990D01*
X1028096Y1175930D01*
X1028049Y1175875D01*
X1028030Y1175827D01*
X1028002Y1175783D01*
X1027984Y1175714D01*
X1027957Y1175647D01*
X1027949Y1175576D01*
X1027941Y1175545D01*
X1027943Y1175521D01*
X1027939Y1175480D01*
X1027939Y1168715D01*
X1024606Y1165382D01*
X1024553Y1165308D01*
X1024493Y1165239D01*
X1024481Y1165209D01*
X1024462Y1165183D01*
X1024435Y1165096D01*
X1024401Y1165011D01*
X1024397Y1164970D01*
X1024390Y1164947D01*
X1024391Y1164915D01*
X1024383Y1164844D01*
X1024383Y1162165D01*
X1022526Y1157683D01*
X1018990Y1154147D01*
X1018990Y1154146D01*
X959407Y1094564D01*
X954925Y1092707D01*
X914400Y1092707D01*
X914380Y1092704D01*
X914361Y1092706D01*
X914259Y1092684D01*
X914157Y1092668D01*
X914140Y1092658D01*
X914120Y1092654D01*
X914031Y1092601D01*
X913940Y1092552D01*
X913926Y1092538D01*
X913909Y1092528D01*
X913842Y1092449D01*
X913771Y1092374D01*
X913762Y1092356D01*
X913749Y1092341D01*
X913710Y1092245D01*
X913667Y1092151D01*
X913665Y1092131D01*
X913657Y1092113D01*
X913639Y1091946D01*
X913639Y1041400D01*
X913642Y1041380D01*
X913640Y1041361D01*
X913662Y1041259D01*
X913679Y1041157D01*
X913688Y1041140D01*
X913692Y1041120D01*
X913745Y1041031D01*
X913794Y1040940D01*
X913808Y1040926D01*
X913818Y1040909D01*
X913897Y1040842D01*
X913972Y1040771D01*
X913990Y1040762D01*
X914005Y1040749D01*
X914101Y1040710D01*
X914195Y1040667D01*
X914215Y1040665D01*
X914233Y1040657D01*
X914400Y1040639D01*
X1103170Y1040639D01*
X1103237Y1040650D01*
G37*
G36*
X1206520Y62742D02*
X1206520Y62742D01*
X1206539Y62740D01*
X1206641Y62762D01*
X1206743Y62779D01*
X1206760Y62788D01*
X1206780Y62792D01*
X1206869Y62845D01*
X1206960Y62894D01*
X1206974Y62908D01*
X1206991Y62918D01*
X1207058Y62997D01*
X1207130Y63072D01*
X1207138Y63090D01*
X1207151Y63105D01*
X1207190Y63201D01*
X1207233Y63295D01*
X1207235Y63315D01*
X1207243Y63333D01*
X1207261Y63500D01*
X1207261Y84455D01*
X1207258Y84475D01*
X1207260Y84494D01*
X1207238Y84596D01*
X1207222Y84698D01*
X1207212Y84715D01*
X1207208Y84735D01*
X1207155Y84824D01*
X1207106Y84915D01*
X1207092Y84929D01*
X1207082Y84946D01*
X1207003Y85013D01*
X1206928Y85085D01*
X1206910Y85093D01*
X1206895Y85106D01*
X1206799Y85145D01*
X1206705Y85188D01*
X1206685Y85190D01*
X1206667Y85198D01*
X1206500Y85216D01*
X1202671Y85216D01*
X1195274Y87198D01*
X1188642Y91027D01*
X1183227Y96442D01*
X1179398Y103074D01*
X1179264Y103575D01*
X1179246Y103615D01*
X1179237Y103658D01*
X1179196Y103726D01*
X1179163Y103799D01*
X1179133Y103831D01*
X1179111Y103869D01*
X1179050Y103921D01*
X1178995Y103979D01*
X1178957Y104000D01*
X1178924Y104029D01*
X1178849Y104059D01*
X1178779Y104097D01*
X1178736Y104104D01*
X1178695Y104121D01*
X1178551Y104137D01*
X1178537Y104139D01*
X1178534Y104139D01*
X1178529Y104139D01*
X1150122Y104139D01*
X1146854Y105493D01*
X1144353Y107994D01*
X1142999Y111262D01*
X1142999Y208778D01*
X1143724Y210529D01*
X1143745Y210618D01*
X1143773Y210704D01*
X1143773Y210737D01*
X1143780Y210768D01*
X1143772Y210859D01*
X1143771Y210950D01*
X1143760Y210990D01*
X1143757Y211013D01*
X1143744Y211042D01*
X1143724Y211111D01*
X1142999Y212862D01*
X1142999Y411978D01*
X1143724Y413729D01*
X1143745Y413817D01*
X1143773Y413904D01*
X1143773Y413937D01*
X1143780Y413968D01*
X1143772Y414059D01*
X1143771Y414150D01*
X1143759Y414190D01*
X1143757Y414213D01*
X1143744Y414242D01*
X1143724Y414311D01*
X1142999Y416062D01*
X1142999Y615178D01*
X1143724Y616929D01*
X1143745Y617017D01*
X1143773Y617104D01*
X1143773Y617137D01*
X1143780Y617168D01*
X1143772Y617259D01*
X1143771Y617350D01*
X1143759Y617390D01*
X1143757Y617413D01*
X1143744Y617442D01*
X1143724Y617511D01*
X1142999Y619262D01*
X1142999Y792978D01*
X1143724Y794729D01*
X1143745Y794818D01*
X1143773Y794904D01*
X1143773Y794937D01*
X1143780Y794968D01*
X1143772Y795059D01*
X1143771Y795150D01*
X1143760Y795190D01*
X1143757Y795213D01*
X1143744Y795242D01*
X1143724Y795311D01*
X1142999Y797062D01*
X1142999Y919978D01*
X1144353Y923246D01*
X1146854Y925747D01*
X1150122Y927101D01*
X1206500Y927101D01*
X1206520Y927104D01*
X1206539Y927102D01*
X1206641Y927124D01*
X1206743Y927140D01*
X1206760Y927150D01*
X1206780Y927154D01*
X1206869Y927207D01*
X1206960Y927256D01*
X1206974Y927270D01*
X1206991Y927280D01*
X1207058Y927359D01*
X1207130Y927434D01*
X1207138Y927452D01*
X1207151Y927467D01*
X1207190Y927563D01*
X1207233Y927657D01*
X1207235Y927677D01*
X1207243Y927695D01*
X1207261Y927862D01*
X1207261Y1028700D01*
X1207258Y1028720D01*
X1207260Y1028739D01*
X1207238Y1028841D01*
X1207222Y1028943D01*
X1207212Y1028960D01*
X1207208Y1028980D01*
X1207155Y1029069D01*
X1207106Y1029160D01*
X1207092Y1029174D01*
X1207082Y1029191D01*
X1207003Y1029258D01*
X1206928Y1029330D01*
X1206910Y1029338D01*
X1206895Y1029351D01*
X1206799Y1029390D01*
X1206705Y1029433D01*
X1206685Y1029435D01*
X1206667Y1029443D01*
X1206500Y1029461D01*
X1160145Y1029461D01*
X1160125Y1029458D01*
X1160106Y1029460D01*
X1160004Y1029438D01*
X1159902Y1029422D01*
X1159885Y1029412D01*
X1159865Y1029408D01*
X1159776Y1029355D01*
X1159685Y1029306D01*
X1159671Y1029292D01*
X1159654Y1029282D01*
X1159587Y1029203D01*
X1159515Y1029128D01*
X1159507Y1029110D01*
X1159494Y1029095D01*
X1159455Y1028999D01*
X1159412Y1028905D01*
X1159410Y1028885D01*
X1159402Y1028867D01*
X1159384Y1028700D01*
X1159384Y1024871D01*
X1157402Y1017474D01*
X1153573Y1010842D01*
X1148158Y1005427D01*
X1141526Y1001598D01*
X1134129Y999616D01*
X1126471Y999616D01*
X1119074Y1001598D01*
X1112442Y1005427D01*
X1107027Y1010842D01*
X1103198Y1017474D01*
X1101216Y1024871D01*
X1101216Y1028700D01*
X1101213Y1028720D01*
X1101215Y1028739D01*
X1101193Y1028841D01*
X1101177Y1028943D01*
X1101167Y1028960D01*
X1101163Y1028980D01*
X1101110Y1029069D01*
X1101061Y1029160D01*
X1101047Y1029174D01*
X1101037Y1029191D01*
X1100958Y1029258D01*
X1100883Y1029330D01*
X1100865Y1029338D01*
X1100850Y1029351D01*
X1100754Y1029390D01*
X1100660Y1029433D01*
X1100640Y1029435D01*
X1100622Y1029443D01*
X1100455Y1029461D01*
X902461Y1029461D01*
X902461Y1052830D01*
X902458Y1052850D01*
X902460Y1052869D01*
X902438Y1052971D01*
X902422Y1053073D01*
X902412Y1053090D01*
X902408Y1053110D01*
X902355Y1053199D01*
X902306Y1053290D01*
X902292Y1053304D01*
X902282Y1053321D01*
X902203Y1053388D01*
X902128Y1053460D01*
X902110Y1053468D01*
X902095Y1053481D01*
X901999Y1053520D01*
X901905Y1053563D01*
X901885Y1053565D01*
X901867Y1053573D01*
X901700Y1053591D01*
X506473Y1053591D01*
X506428Y1053584D01*
X506382Y1053586D01*
X506307Y1053564D01*
X506230Y1053552D01*
X506190Y1053530D01*
X506146Y1053517D01*
X506082Y1053473D01*
X506013Y1053436D01*
X505981Y1053403D01*
X505944Y1053377D01*
X505897Y1053314D01*
X505844Y1053258D01*
X505824Y1053216D01*
X505797Y1053180D01*
X505773Y1053106D01*
X505740Y1053035D01*
X505735Y1052989D01*
X505721Y1052946D01*
X505721Y1052868D01*
X505713Y1052791D01*
X505723Y1052746D01*
X505723Y1052700D01*
X505761Y1052568D01*
X505765Y1052550D01*
X505768Y1052546D01*
X505770Y1052539D01*
X506223Y1051445D01*
X506223Y1046595D01*
X504366Y1042113D01*
X500937Y1038684D01*
X496455Y1036827D01*
X355886Y1036827D01*
X355796Y1036813D01*
X355705Y1036805D01*
X355675Y1036793D01*
X355643Y1036788D01*
X355562Y1036745D01*
X355478Y1036709D01*
X355446Y1036683D01*
X355426Y1036672D01*
X355403Y1036649D01*
X355347Y1036604D01*
X291562Y972819D01*
X291509Y972745D01*
X291449Y972675D01*
X291437Y972645D01*
X291418Y972619D01*
X291391Y972532D01*
X291357Y972447D01*
X291353Y972406D01*
X291346Y972384D01*
X291347Y972352D01*
X291339Y972280D01*
X291339Y863600D01*
X291342Y863580D01*
X291340Y863561D01*
X291362Y863459D01*
X291379Y863357D01*
X291388Y863340D01*
X291392Y863320D01*
X291445Y863231D01*
X291494Y863140D01*
X291508Y863126D01*
X291518Y863109D01*
X291597Y863042D01*
X291672Y862971D01*
X291690Y862962D01*
X291705Y862949D01*
X291801Y862910D01*
X291895Y862867D01*
X291915Y862865D01*
X291933Y862857D01*
X292100Y862839D01*
X333470Y862839D01*
X333560Y862854D01*
X333651Y862861D01*
X333681Y862873D01*
X333713Y862879D01*
X333794Y862921D01*
X333878Y862957D01*
X333910Y862983D01*
X333930Y862994D01*
X333953Y863017D01*
X334009Y863062D01*
X470613Y999666D01*
X475095Y1001523D01*
X501535Y1001523D01*
X506017Y999666D01*
X509446Y996237D01*
X511303Y991755D01*
X511303Y986905D01*
X509446Y982423D01*
X506017Y978994D01*
X501535Y977137D01*
X482886Y977137D01*
X482796Y977123D01*
X482705Y977115D01*
X482675Y977103D01*
X482643Y977098D01*
X482562Y977055D01*
X482478Y977019D01*
X482446Y976993D01*
X482426Y976982D01*
X482403Y976959D01*
X482347Y976914D01*
X369571Y864138D01*
X369530Y864080D01*
X369480Y864028D01*
X369458Y863981D01*
X369428Y863939D01*
X369407Y863870D01*
X369377Y863805D01*
X369371Y863753D01*
X369356Y863703D01*
X369357Y863632D01*
X369349Y863561D01*
X369361Y863510D01*
X369362Y863458D01*
X369387Y863390D01*
X369402Y863320D01*
X369428Y863276D01*
X369446Y863227D01*
X369491Y863171D01*
X369528Y863109D01*
X369567Y863075D01*
X369600Y863035D01*
X369660Y862996D01*
X369715Y862949D01*
X369763Y862930D01*
X369807Y862902D01*
X369876Y862884D01*
X369943Y862857D01*
X370014Y862849D01*
X370045Y862841D01*
X370069Y862843D01*
X370110Y862839D01*
X824739Y862839D01*
X824739Y840390D01*
X824742Y840370D01*
X824740Y840351D01*
X824762Y840249D01*
X824779Y840147D01*
X824788Y840130D01*
X824792Y840110D01*
X824845Y840021D01*
X824894Y839930D01*
X824908Y839916D01*
X824918Y839899D01*
X824997Y839832D01*
X825072Y839760D01*
X825090Y839752D01*
X825105Y839739D01*
X825201Y839700D01*
X825295Y839657D01*
X825315Y839655D01*
X825333Y839647D01*
X825500Y839629D01*
X829032Y839629D01*
X835856Y837800D01*
X841973Y834268D01*
X846968Y829273D01*
X850500Y823156D01*
X852329Y816332D01*
X852329Y809268D01*
X850500Y802444D01*
X846968Y796327D01*
X841973Y791332D01*
X835856Y787800D01*
X829032Y785971D01*
X825500Y785971D01*
X825480Y785968D01*
X825461Y785970D01*
X825359Y785948D01*
X825257Y785932D01*
X825240Y785922D01*
X825220Y785918D01*
X825131Y785865D01*
X825040Y785816D01*
X825026Y785802D01*
X825009Y785792D01*
X824942Y785713D01*
X824871Y785638D01*
X824862Y785620D01*
X824849Y785605D01*
X824810Y785509D01*
X824767Y785415D01*
X824765Y785395D01*
X824757Y785377D01*
X824739Y785210D01*
X824739Y671586D01*
X824747Y671539D01*
X824745Y671491D01*
X824766Y671418D01*
X824779Y671343D01*
X824801Y671301D01*
X824815Y671255D01*
X824858Y671193D01*
X824894Y671126D01*
X824928Y671093D01*
X824956Y671053D01*
X825017Y671009D01*
X825072Y670956D01*
X825115Y670936D01*
X825154Y670908D01*
X825226Y670885D01*
X825295Y670853D01*
X825343Y670847D01*
X825388Y670833D01*
X825464Y670834D01*
X825539Y670826D01*
X825586Y670836D01*
X825634Y670837D01*
X825706Y670862D01*
X825780Y670878D01*
X825821Y670903D01*
X825866Y670918D01*
X825926Y670965D01*
X825991Y671004D01*
X826022Y671040D01*
X826060Y671070D01*
X826136Y671174D01*
X826151Y671191D01*
X826153Y671197D01*
X826159Y671205D01*
X829432Y676873D01*
X834427Y681868D01*
X840544Y685400D01*
X847368Y687229D01*
X854432Y687229D01*
X861256Y685400D01*
X867373Y681868D01*
X872368Y676873D01*
X875900Y670756D01*
X877729Y663932D01*
X877729Y656868D01*
X875900Y650044D01*
X872368Y643927D01*
X867373Y638932D01*
X861256Y635400D01*
X854432Y633571D01*
X847368Y633571D01*
X840544Y635400D01*
X834427Y638932D01*
X829432Y643927D01*
X826159Y649595D01*
X826129Y649632D01*
X826106Y649674D01*
X826051Y649726D01*
X826003Y649785D01*
X825963Y649811D01*
X825928Y649844D01*
X825859Y649876D01*
X825795Y649916D01*
X825748Y649927D01*
X825705Y649947D01*
X825630Y649956D01*
X825556Y649973D01*
X825508Y649969D01*
X825461Y649974D01*
X825386Y649958D01*
X825311Y649952D01*
X825267Y649932D01*
X825220Y649922D01*
X825155Y649883D01*
X825086Y649853D01*
X825050Y649820D01*
X825009Y649796D01*
X824960Y649738D01*
X824904Y649687D01*
X824880Y649645D01*
X824849Y649609D01*
X824821Y649539D01*
X824784Y649473D01*
X824775Y649425D01*
X824757Y649381D01*
X824743Y649253D01*
X824739Y649231D01*
X824740Y649224D01*
X824739Y649214D01*
X824739Y488220D01*
X824750Y488149D01*
X824752Y488077D01*
X824770Y488028D01*
X824779Y487977D01*
X824812Y487914D01*
X824837Y487846D01*
X824869Y487806D01*
X824894Y487760D01*
X824946Y487710D01*
X824990Y487654D01*
X825034Y487626D01*
X825072Y487590D01*
X825137Y487560D01*
X825197Y487521D01*
X825248Y487509D01*
X825295Y487487D01*
X825366Y487479D01*
X825436Y487461D01*
X825488Y487465D01*
X825539Y487459D01*
X825610Y487475D01*
X825681Y487480D01*
X825729Y487501D01*
X825780Y487512D01*
X825841Y487549D01*
X825907Y487577D01*
X825963Y487621D01*
X825991Y487638D01*
X826006Y487656D01*
X826038Y487681D01*
X903956Y565600D01*
X907493Y569136D01*
X911975Y570993D01*
X1043825Y570993D01*
X1048307Y569136D01*
X1073326Y544117D01*
X1075183Y539635D01*
X1075183Y522085D01*
X1073326Y517603D01*
X1069897Y514174D01*
X1065415Y512317D01*
X1060565Y512317D01*
X1056083Y514174D01*
X1052654Y517603D01*
X1050797Y522085D01*
X1050797Y531844D01*
X1050783Y531934D01*
X1050775Y532025D01*
X1050763Y532055D01*
X1050758Y532087D01*
X1050715Y532168D01*
X1050679Y532252D01*
X1050653Y532284D01*
X1050642Y532304D01*
X1050619Y532327D01*
X1050574Y532383D01*
X1036573Y546384D01*
X1036499Y546437D01*
X1036429Y546497D01*
X1036399Y546509D01*
X1036373Y546528D01*
X1036286Y546555D01*
X1036201Y546589D01*
X1036160Y546593D01*
X1036138Y546600D01*
X1036106Y546599D01*
X1036034Y546607D01*
X919766Y546607D01*
X919676Y546593D01*
X919585Y546585D01*
X919555Y546573D01*
X919523Y546568D01*
X919442Y546525D01*
X919358Y546489D01*
X919326Y546463D01*
X919306Y546452D01*
X919283Y546429D01*
X919227Y546384D01*
X835915Y463072D01*
X835874Y463014D01*
X835824Y462962D01*
X835802Y462915D01*
X835772Y462873D01*
X835751Y462804D01*
X835721Y462739D01*
X835715Y462687D01*
X835699Y462637D01*
X835701Y462566D01*
X835693Y462495D01*
X835705Y462444D01*
X835706Y462392D01*
X835730Y462324D01*
X835746Y462254D01*
X835772Y462210D01*
X835790Y462161D01*
X835835Y462105D01*
X835872Y462043D01*
X835911Y462009D01*
X835944Y461969D01*
X836004Y461930D01*
X836059Y461883D01*
X836107Y461864D01*
X836151Y461836D01*
X836220Y461818D01*
X836287Y461791D01*
X836358Y461783D01*
X836389Y461775D01*
X836413Y461777D01*
X836454Y461773D01*
X930624Y461773D01*
X930714Y461787D01*
X930805Y461795D01*
X930835Y461807D01*
X930867Y461812D01*
X930948Y461855D01*
X931032Y461891D01*
X931064Y461917D01*
X931084Y461928D01*
X931107Y461951D01*
X931163Y461996D01*
X992154Y522987D01*
X992207Y523061D01*
X992267Y523131D01*
X992279Y523161D01*
X992298Y523187D01*
X992325Y523274D01*
X992359Y523359D01*
X992363Y523400D01*
X992370Y523422D01*
X992369Y523454D01*
X992377Y523526D01*
X992377Y530745D01*
X994234Y535227D01*
X997663Y538656D01*
X1002145Y540513D01*
X1006995Y540513D01*
X1011477Y538656D01*
X1014906Y535227D01*
X1016763Y530745D01*
X1016763Y515735D01*
X1014906Y511253D01*
X942897Y439244D01*
X938415Y437387D01*
X825500Y437387D01*
X825480Y437384D01*
X825461Y437386D01*
X825359Y437364D01*
X825257Y437348D01*
X825240Y437338D01*
X825220Y437334D01*
X825131Y437281D01*
X825040Y437232D01*
X825026Y437218D01*
X825009Y437208D01*
X824942Y437129D01*
X824871Y437054D01*
X824862Y437036D01*
X824849Y437021D01*
X824810Y436925D01*
X824767Y436831D01*
X824765Y436811D01*
X824757Y436793D01*
X824739Y436626D01*
X824739Y257584D01*
X824742Y257564D01*
X824740Y257545D01*
X824762Y257443D01*
X824779Y257341D01*
X824788Y257324D01*
X824792Y257304D01*
X824845Y257215D01*
X824894Y257124D01*
X824908Y257110D01*
X824918Y257093D01*
X824997Y257026D01*
X825072Y256954D01*
X825090Y256946D01*
X825105Y256933D01*
X825201Y256894D01*
X825295Y256851D01*
X825315Y256849D01*
X825333Y256841D01*
X825500Y256823D01*
X941023Y256823D01*
X941113Y256837D01*
X941204Y256845D01*
X941234Y256857D01*
X941266Y256862D01*
X941347Y256905D01*
X941430Y256941D01*
X941463Y256967D01*
X941483Y256978D01*
X941505Y257001D01*
X941561Y257046D01*
X978542Y294026D01*
X983024Y295883D01*
X1035006Y295883D01*
X1039488Y294026D01*
X1068562Y264952D01*
X1068616Y264914D01*
X1068662Y264868D01*
X1068736Y264827D01*
X1068762Y264808D01*
X1068781Y264803D01*
X1068809Y264787D01*
X1069897Y264336D01*
X1073326Y260907D01*
X1075183Y256425D01*
X1075183Y241415D01*
X1073326Y236933D01*
X1069897Y233504D01*
X1065415Y231647D01*
X1060565Y231647D01*
X1056083Y233504D01*
X1052654Y236933D01*
X1050797Y241415D01*
X1050797Y247915D01*
X1050783Y248006D01*
X1050775Y248096D01*
X1050763Y248126D01*
X1050758Y248158D01*
X1050715Y248239D01*
X1050679Y248323D01*
X1050653Y248355D01*
X1050642Y248376D01*
X1050619Y248398D01*
X1050574Y248454D01*
X1027754Y271274D01*
X1027680Y271327D01*
X1027610Y271387D01*
X1027580Y271399D01*
X1027554Y271418D01*
X1027467Y271445D01*
X1027382Y271479D01*
X1027341Y271483D01*
X1027319Y271490D01*
X1027287Y271489D01*
X1027215Y271497D01*
X990815Y271497D01*
X990724Y271483D01*
X990634Y271475D01*
X990604Y271463D01*
X990572Y271458D01*
X990491Y271415D01*
X990407Y271379D01*
X990375Y271353D01*
X990354Y271342D01*
X990332Y271319D01*
X990276Y271274D01*
X953295Y234294D01*
X948814Y232437D01*
X825500Y232437D01*
X825480Y232434D01*
X825461Y232436D01*
X825359Y232414D01*
X825257Y232398D01*
X825240Y232388D01*
X825220Y232384D01*
X825131Y232331D01*
X825040Y232282D01*
X825026Y232268D01*
X825009Y232258D01*
X824942Y232179D01*
X824871Y232104D01*
X824862Y232086D01*
X824849Y232071D01*
X824810Y231975D01*
X824767Y231881D01*
X824765Y231861D01*
X824757Y231843D01*
X824739Y231676D01*
X824739Y222984D01*
X824742Y222964D01*
X824740Y222945D01*
X824762Y222843D01*
X824779Y222741D01*
X824788Y222724D01*
X824792Y222704D01*
X824845Y222615D01*
X824894Y222524D01*
X824908Y222510D01*
X824918Y222493D01*
X824997Y222426D01*
X825072Y222354D01*
X825090Y222346D01*
X825105Y222333D01*
X825201Y222294D01*
X825295Y222251D01*
X825315Y222249D01*
X825333Y222241D01*
X825500Y222223D01*
X971744Y222223D01*
X971834Y222237D01*
X971925Y222245D01*
X971955Y222257D01*
X971987Y222262D01*
X972068Y222305D01*
X972152Y222341D01*
X972184Y222367D01*
X972204Y222378D01*
X972227Y222401D01*
X972283Y222446D01*
X992154Y242317D01*
X992207Y242391D01*
X992267Y242461D01*
X992279Y242491D01*
X992298Y242517D01*
X992325Y242604D01*
X992359Y242689D01*
X992363Y242730D01*
X992370Y242752D01*
X992369Y242784D01*
X992377Y242856D01*
X992377Y250075D01*
X994234Y254557D01*
X997663Y257986D01*
X1002145Y259843D01*
X1006995Y259843D01*
X1011477Y257986D01*
X1014906Y254557D01*
X1016763Y250075D01*
X1016763Y235065D01*
X1014906Y230583D01*
X984017Y199694D01*
X979535Y197837D01*
X825500Y197837D01*
X825480Y197834D01*
X825461Y197836D01*
X825359Y197814D01*
X825257Y197798D01*
X825240Y197788D01*
X825220Y197784D01*
X825131Y197731D01*
X825040Y197682D01*
X825026Y197668D01*
X825009Y197658D01*
X824942Y197579D01*
X824871Y197504D01*
X824862Y197486D01*
X824849Y197471D01*
X824810Y197375D01*
X824767Y197281D01*
X824765Y197261D01*
X824757Y197243D01*
X824739Y197076D01*
X824739Y63500D01*
X824742Y63480D01*
X824740Y63461D01*
X824762Y63359D01*
X824779Y63257D01*
X824788Y63240D01*
X824792Y63220D01*
X824845Y63131D01*
X824894Y63040D01*
X824908Y63026D01*
X824918Y63009D01*
X824997Y62942D01*
X825072Y62871D01*
X825090Y62862D01*
X825105Y62849D01*
X825201Y62810D01*
X825295Y62767D01*
X825315Y62765D01*
X825333Y62757D01*
X825500Y62739D01*
X1206500Y62739D01*
X1206520Y62742D01*
G37*
G36*
X1230650Y620272D02*
X1230650Y620272D01*
X1230669Y620270D01*
X1230771Y620292D01*
X1230873Y620309D01*
X1230890Y620318D01*
X1230910Y620322D01*
X1230999Y620375D01*
X1231090Y620424D01*
X1231104Y620438D01*
X1231121Y620448D01*
X1231188Y620527D01*
X1231260Y620602D01*
X1231268Y620620D01*
X1231281Y620635D01*
X1231320Y620731D01*
X1231363Y620825D01*
X1231365Y620845D01*
X1231373Y620863D01*
X1231391Y621030D01*
X1231391Y706004D01*
X1231384Y706052D01*
X1231385Y706100D01*
X1231364Y706172D01*
X1231352Y706247D01*
X1231329Y706290D01*
X1231315Y706336D01*
X1231272Y706398D01*
X1231236Y706465D01*
X1231202Y706498D01*
X1231174Y706537D01*
X1231113Y706582D01*
X1231058Y706634D01*
X1231015Y706654D01*
X1230976Y706683D01*
X1230904Y706706D01*
X1230835Y706738D01*
X1230787Y706743D01*
X1230742Y706757D01*
X1230666Y706756D01*
X1230591Y706765D01*
X1230544Y706754D01*
X1230496Y706754D01*
X1230424Y706729D01*
X1230350Y706712D01*
X1230309Y706688D01*
X1230264Y706672D01*
X1230204Y706625D01*
X1230139Y706586D01*
X1230108Y706550D01*
X1230070Y706520D01*
X1229994Y706417D01*
X1229979Y706399D01*
X1229977Y706393D01*
X1229971Y706385D01*
X1229773Y706042D01*
X1224358Y700627D01*
X1217726Y696798D01*
X1210329Y694816D01*
X1202671Y694816D01*
X1195274Y696798D01*
X1188642Y700627D01*
X1183227Y706042D01*
X1179398Y712674D01*
X1177416Y720071D01*
X1177416Y727729D01*
X1179398Y735126D01*
X1183227Y741758D01*
X1188642Y747173D01*
X1195274Y751002D01*
X1202671Y752984D01*
X1210329Y752984D01*
X1217726Y751002D01*
X1224358Y747173D01*
X1229773Y741758D01*
X1229971Y741415D01*
X1230001Y741378D01*
X1230024Y741335D01*
X1230079Y741283D01*
X1230127Y741225D01*
X1230167Y741199D01*
X1230202Y741166D01*
X1230271Y741134D01*
X1230335Y741094D01*
X1230382Y741083D01*
X1230425Y741062D01*
X1230500Y741054D01*
X1230574Y741036D01*
X1230622Y741041D01*
X1230669Y741035D01*
X1230744Y741051D01*
X1230819Y741058D01*
X1230863Y741077D01*
X1230910Y741088D01*
X1230975Y741127D01*
X1231044Y741157D01*
X1231080Y741189D01*
X1231121Y741214D01*
X1231170Y741271D01*
X1231226Y741322D01*
X1231250Y741364D01*
X1231281Y741401D01*
X1231309Y741471D01*
X1231346Y741537D01*
X1231355Y741584D01*
X1231373Y741629D01*
X1231387Y741757D01*
X1231391Y741779D01*
X1231390Y741786D01*
X1231391Y741796D01*
X1231391Y791210D01*
X1231388Y791230D01*
X1231390Y791249D01*
X1231368Y791351D01*
X1231352Y791453D01*
X1231342Y791470D01*
X1231338Y791490D01*
X1231285Y791579D01*
X1231236Y791670D01*
X1231222Y791684D01*
X1231212Y791701D01*
X1231133Y791768D01*
X1231058Y791840D01*
X1231040Y791848D01*
X1231025Y791861D01*
X1230929Y791900D01*
X1230835Y791943D01*
X1230815Y791945D01*
X1230797Y791953D01*
X1230630Y791971D01*
X1151890Y791971D01*
X1151870Y791968D01*
X1151851Y791970D01*
X1151749Y791948D01*
X1151647Y791932D01*
X1151630Y791922D01*
X1151610Y791918D01*
X1151521Y791865D01*
X1151430Y791816D01*
X1151416Y791802D01*
X1151399Y791792D01*
X1151332Y791713D01*
X1151261Y791638D01*
X1151252Y791620D01*
X1151239Y791605D01*
X1151200Y791509D01*
X1151157Y791415D01*
X1151155Y791395D01*
X1151147Y791377D01*
X1151129Y791210D01*
X1151129Y621030D01*
X1151132Y621010D01*
X1151130Y620991D01*
X1151152Y620889D01*
X1151169Y620787D01*
X1151178Y620770D01*
X1151182Y620750D01*
X1151235Y620661D01*
X1151284Y620570D01*
X1151298Y620556D01*
X1151308Y620539D01*
X1151387Y620472D01*
X1151462Y620401D01*
X1151480Y620392D01*
X1151495Y620379D01*
X1151591Y620340D01*
X1151685Y620297D01*
X1151705Y620295D01*
X1151723Y620287D01*
X1151890Y620269D01*
X1230630Y620269D01*
X1230650Y620272D01*
G37*
G36*
X1206520Y1434342D02*
X1206520Y1434342D01*
X1206539Y1434340D01*
X1206641Y1434362D01*
X1206743Y1434379D01*
X1206760Y1434388D01*
X1206780Y1434392D01*
X1206869Y1434445D01*
X1206960Y1434494D01*
X1206974Y1434508D01*
X1206991Y1434518D01*
X1207058Y1434597D01*
X1207130Y1434672D01*
X1207138Y1434690D01*
X1207151Y1434705D01*
X1207190Y1434801D01*
X1207233Y1434895D01*
X1207235Y1434915D01*
X1207243Y1434933D01*
X1207261Y1435100D01*
X1207261Y1544955D01*
X1207258Y1544975D01*
X1207260Y1544994D01*
X1207238Y1545096D01*
X1207222Y1545198D01*
X1207212Y1545215D01*
X1207208Y1545235D01*
X1207155Y1545324D01*
X1207106Y1545415D01*
X1207092Y1545429D01*
X1207082Y1545446D01*
X1207003Y1545513D01*
X1206928Y1545585D01*
X1206910Y1545593D01*
X1206895Y1545606D01*
X1206799Y1545645D01*
X1206705Y1545688D01*
X1206685Y1545690D01*
X1206667Y1545698D01*
X1206500Y1545716D01*
X1202671Y1545716D01*
X1195274Y1547698D01*
X1188642Y1551527D01*
X1183227Y1556942D01*
X1179398Y1563574D01*
X1177416Y1570971D01*
X1177416Y1578629D01*
X1179398Y1586026D01*
X1183227Y1592658D01*
X1188642Y1598073D01*
X1195274Y1601902D01*
X1202671Y1603884D01*
X1206500Y1603884D01*
X1206520Y1603887D01*
X1206539Y1603885D01*
X1206641Y1603907D01*
X1206743Y1603923D01*
X1206760Y1603933D01*
X1206780Y1603937D01*
X1206869Y1603990D01*
X1206960Y1604039D01*
X1206974Y1604053D01*
X1206991Y1604063D01*
X1207058Y1604142D01*
X1207130Y1604217D01*
X1207138Y1604235D01*
X1207151Y1604250D01*
X1207190Y1604346D01*
X1207233Y1604440D01*
X1207235Y1604460D01*
X1207243Y1604478D01*
X1207261Y1604645D01*
X1207261Y1654810D01*
X1207258Y1654830D01*
X1207260Y1654849D01*
X1207238Y1654951D01*
X1207222Y1655053D01*
X1207212Y1655070D01*
X1207208Y1655090D01*
X1207155Y1655179D01*
X1207106Y1655270D01*
X1207092Y1655284D01*
X1207082Y1655301D01*
X1207003Y1655368D01*
X1206928Y1655440D01*
X1206910Y1655448D01*
X1206895Y1655461D01*
X1206799Y1655500D01*
X1206705Y1655543D01*
X1206685Y1655545D01*
X1206667Y1655553D01*
X1206500Y1655571D01*
X1151890Y1655571D01*
X1151870Y1655568D01*
X1151851Y1655570D01*
X1151749Y1655548D01*
X1151647Y1655532D01*
X1151630Y1655522D01*
X1151610Y1655518D01*
X1151521Y1655465D01*
X1151430Y1655416D01*
X1151416Y1655402D01*
X1151399Y1655392D01*
X1151332Y1655313D01*
X1151261Y1655238D01*
X1151252Y1655220D01*
X1151239Y1655205D01*
X1151200Y1655109D01*
X1151157Y1655015D01*
X1151155Y1654995D01*
X1151147Y1654977D01*
X1151129Y1654810D01*
X1151129Y1435100D01*
X1151132Y1435080D01*
X1151130Y1435061D01*
X1151152Y1434959D01*
X1151169Y1434857D01*
X1151178Y1434840D01*
X1151182Y1434820D01*
X1151235Y1434731D01*
X1151284Y1434640D01*
X1151298Y1434626D01*
X1151308Y1434609D01*
X1151387Y1434542D01*
X1151462Y1434471D01*
X1151480Y1434462D01*
X1151495Y1434449D01*
X1151591Y1434410D01*
X1151685Y1434367D01*
X1151705Y1434365D01*
X1151723Y1434357D01*
X1151890Y1434339D01*
X1206500Y1434339D01*
X1206520Y1434342D01*
G37*
G36*
X699790Y691392D02*
X699790Y691392D01*
X699809Y691390D01*
X699911Y691412D01*
X700013Y691429D01*
X700030Y691438D01*
X700050Y691442D01*
X700139Y691495D01*
X700230Y691544D01*
X700244Y691558D01*
X700261Y691568D01*
X700328Y691647D01*
X700400Y691722D01*
X700408Y691740D01*
X700421Y691755D01*
X700460Y691851D01*
X700503Y691945D01*
X700505Y691965D01*
X700513Y691983D01*
X700531Y692150D01*
X700531Y708660D01*
X700517Y708750D01*
X700509Y708841D01*
X700497Y708871D01*
X700492Y708903D01*
X700449Y708983D01*
X700413Y709067D01*
X700387Y709099D01*
X700376Y709120D01*
X700353Y709142D01*
X700308Y709198D01*
X629188Y780318D01*
X629114Y780371D01*
X629045Y780431D01*
X629015Y780443D01*
X628989Y780462D01*
X628902Y780489D01*
X628817Y780523D01*
X628776Y780527D01*
X628753Y780534D01*
X628721Y780533D01*
X628650Y780541D01*
X440690Y780541D01*
X440600Y780527D01*
X440509Y780519D01*
X440479Y780507D01*
X440447Y780502D01*
X440367Y780459D01*
X440283Y780423D01*
X440251Y780397D01*
X440230Y780386D01*
X440208Y780363D01*
X440152Y780318D01*
X435072Y775238D01*
X435019Y775164D01*
X434959Y775095D01*
X434947Y775065D01*
X434928Y775039D01*
X434901Y774952D01*
X434867Y774867D01*
X434863Y774826D01*
X434856Y774803D01*
X434857Y774771D01*
X434849Y774700D01*
X434849Y742950D01*
X434852Y742930D01*
X434850Y742911D01*
X434872Y742809D01*
X434889Y742707D01*
X434898Y742690D01*
X434902Y742670D01*
X434955Y742581D01*
X435004Y742490D01*
X435018Y742476D01*
X435028Y742459D01*
X435107Y742392D01*
X435182Y742321D01*
X435200Y742312D01*
X435215Y742299D01*
X435311Y742260D01*
X435405Y742217D01*
X435425Y742215D01*
X435443Y742207D01*
X435610Y742189D01*
X635955Y742189D01*
X671069Y707075D01*
X671069Y693420D01*
X671084Y693330D01*
X671091Y693239D01*
X671103Y693209D01*
X671109Y693177D01*
X671151Y693097D01*
X671187Y693013D01*
X671213Y692981D01*
X671224Y692960D01*
X671247Y692938D01*
X671292Y692882D01*
X672562Y691612D01*
X672636Y691559D01*
X672705Y691499D01*
X672735Y691487D01*
X672761Y691468D01*
X672848Y691441D01*
X672933Y691407D01*
X672974Y691403D01*
X672997Y691396D01*
X673029Y691397D01*
X673100Y691389D01*
X699770Y691389D01*
X699790Y691392D01*
G37*
G36*
X1206520Y213872D02*
X1206520Y213872D01*
X1206539Y213870D01*
X1206641Y213892D01*
X1206743Y213909D01*
X1206760Y213918D01*
X1206780Y213922D01*
X1206869Y213975D01*
X1206960Y214024D01*
X1206974Y214038D01*
X1206991Y214048D01*
X1207058Y214127D01*
X1207130Y214202D01*
X1207138Y214220D01*
X1207151Y214235D01*
X1207190Y214331D01*
X1207233Y214425D01*
X1207235Y214445D01*
X1207243Y214463D01*
X1207261Y214630D01*
X1207261Y300355D01*
X1207258Y300375D01*
X1207260Y300394D01*
X1207238Y300496D01*
X1207222Y300598D01*
X1207212Y300615D01*
X1207208Y300635D01*
X1207155Y300724D01*
X1207106Y300815D01*
X1207092Y300829D01*
X1207082Y300846D01*
X1207003Y300913D01*
X1206928Y300985D01*
X1206910Y300993D01*
X1206895Y301006D01*
X1206799Y301045D01*
X1206705Y301088D01*
X1206685Y301090D01*
X1206667Y301098D01*
X1206500Y301116D01*
X1202671Y301116D01*
X1195274Y303098D01*
X1188642Y306927D01*
X1183227Y312342D01*
X1179398Y318974D01*
X1177416Y326371D01*
X1177416Y334029D01*
X1179398Y341426D01*
X1183227Y348058D01*
X1188642Y353473D01*
X1195274Y357302D01*
X1202671Y359284D01*
X1206500Y359284D01*
X1206520Y359287D01*
X1206539Y359285D01*
X1206641Y359307D01*
X1206743Y359323D01*
X1206760Y359333D01*
X1206780Y359337D01*
X1206869Y359390D01*
X1206960Y359439D01*
X1206974Y359453D01*
X1206991Y359463D01*
X1207058Y359542D01*
X1207130Y359617D01*
X1207138Y359635D01*
X1207151Y359650D01*
X1207190Y359746D01*
X1207233Y359840D01*
X1207235Y359860D01*
X1207243Y359878D01*
X1207261Y360045D01*
X1207261Y410210D01*
X1207258Y410230D01*
X1207260Y410249D01*
X1207238Y410351D01*
X1207222Y410453D01*
X1207212Y410470D01*
X1207208Y410490D01*
X1207155Y410579D01*
X1207106Y410670D01*
X1207092Y410684D01*
X1207082Y410701D01*
X1207003Y410768D01*
X1206928Y410840D01*
X1206910Y410848D01*
X1206895Y410861D01*
X1206799Y410900D01*
X1206705Y410943D01*
X1206685Y410945D01*
X1206667Y410953D01*
X1206500Y410971D01*
X1151890Y410971D01*
X1151870Y410968D01*
X1151851Y410970D01*
X1151749Y410948D01*
X1151647Y410932D01*
X1151630Y410922D01*
X1151610Y410918D01*
X1151521Y410865D01*
X1151430Y410816D01*
X1151416Y410802D01*
X1151399Y410792D01*
X1151332Y410713D01*
X1151261Y410638D01*
X1151252Y410620D01*
X1151239Y410605D01*
X1151200Y410509D01*
X1151157Y410415D01*
X1151155Y410395D01*
X1151147Y410377D01*
X1151129Y410210D01*
X1151129Y214630D01*
X1151132Y214610D01*
X1151130Y214591D01*
X1151152Y214489D01*
X1151169Y214387D01*
X1151178Y214370D01*
X1151182Y214350D01*
X1151235Y214261D01*
X1151284Y214170D01*
X1151298Y214156D01*
X1151308Y214139D01*
X1151387Y214072D01*
X1151462Y214001D01*
X1151480Y213992D01*
X1151495Y213979D01*
X1151591Y213940D01*
X1151685Y213897D01*
X1151705Y213895D01*
X1151723Y213887D01*
X1151890Y213869D01*
X1206500Y213869D01*
X1206520Y213872D01*
G37*
G36*
X1206520Y417072D02*
X1206520Y417072D01*
X1206539Y417070D01*
X1206641Y417092D01*
X1206743Y417109D01*
X1206760Y417118D01*
X1206780Y417122D01*
X1206869Y417175D01*
X1206960Y417224D01*
X1206974Y417238D01*
X1206991Y417248D01*
X1207058Y417327D01*
X1207130Y417402D01*
X1207138Y417420D01*
X1207151Y417435D01*
X1207190Y417531D01*
X1207233Y417625D01*
X1207235Y417645D01*
X1207243Y417663D01*
X1207261Y417830D01*
X1207261Y503555D01*
X1207258Y503575D01*
X1207260Y503594D01*
X1207238Y503696D01*
X1207222Y503798D01*
X1207212Y503815D01*
X1207208Y503835D01*
X1207155Y503924D01*
X1207106Y504015D01*
X1207092Y504029D01*
X1207082Y504046D01*
X1207003Y504113D01*
X1206928Y504185D01*
X1206910Y504193D01*
X1206895Y504206D01*
X1206799Y504245D01*
X1206705Y504288D01*
X1206685Y504290D01*
X1206667Y504298D01*
X1206500Y504316D01*
X1202671Y504316D01*
X1195274Y506298D01*
X1188642Y510127D01*
X1183227Y515542D01*
X1179398Y522174D01*
X1177416Y529571D01*
X1177416Y537229D01*
X1179398Y544626D01*
X1183227Y551258D01*
X1188642Y556673D01*
X1195274Y560502D01*
X1202671Y562484D01*
X1206500Y562484D01*
X1206520Y562487D01*
X1206539Y562485D01*
X1206641Y562507D01*
X1206743Y562523D01*
X1206760Y562533D01*
X1206780Y562537D01*
X1206869Y562590D01*
X1206960Y562639D01*
X1206974Y562653D01*
X1206991Y562663D01*
X1207058Y562742D01*
X1207130Y562817D01*
X1207138Y562835D01*
X1207151Y562850D01*
X1207190Y562946D01*
X1207233Y563040D01*
X1207235Y563060D01*
X1207243Y563078D01*
X1207261Y563245D01*
X1207261Y613410D01*
X1207258Y613430D01*
X1207260Y613449D01*
X1207238Y613551D01*
X1207222Y613653D01*
X1207212Y613670D01*
X1207208Y613690D01*
X1207155Y613779D01*
X1207106Y613870D01*
X1207092Y613884D01*
X1207082Y613901D01*
X1207003Y613968D01*
X1206928Y614040D01*
X1206910Y614048D01*
X1206895Y614061D01*
X1206799Y614100D01*
X1206705Y614143D01*
X1206685Y614145D01*
X1206667Y614153D01*
X1206500Y614171D01*
X1151890Y614171D01*
X1151870Y614168D01*
X1151851Y614170D01*
X1151749Y614148D01*
X1151647Y614132D01*
X1151630Y614122D01*
X1151610Y614118D01*
X1151521Y614065D01*
X1151430Y614016D01*
X1151416Y614002D01*
X1151399Y613992D01*
X1151332Y613913D01*
X1151261Y613838D01*
X1151252Y613820D01*
X1151239Y613805D01*
X1151200Y613709D01*
X1151157Y613615D01*
X1151155Y613595D01*
X1151147Y613577D01*
X1151129Y613410D01*
X1151129Y417830D01*
X1151132Y417810D01*
X1151130Y417791D01*
X1151152Y417689D01*
X1151169Y417587D01*
X1151178Y417570D01*
X1151182Y417550D01*
X1151235Y417461D01*
X1151284Y417370D01*
X1151298Y417356D01*
X1151308Y417339D01*
X1151387Y417272D01*
X1151462Y417201D01*
X1151480Y417192D01*
X1151495Y417179D01*
X1151591Y417140D01*
X1151685Y417097D01*
X1151705Y417095D01*
X1151723Y417087D01*
X1151890Y417069D01*
X1206500Y417069D01*
X1206520Y417072D01*
G37*
G36*
X1206520Y1242572D02*
X1206520Y1242572D01*
X1206539Y1242570D01*
X1206641Y1242592D01*
X1206743Y1242609D01*
X1206760Y1242618D01*
X1206780Y1242622D01*
X1206869Y1242675D01*
X1206960Y1242724D01*
X1206974Y1242738D01*
X1206991Y1242748D01*
X1207058Y1242827D01*
X1207130Y1242902D01*
X1207138Y1242920D01*
X1207151Y1242935D01*
X1207190Y1243031D01*
X1207233Y1243125D01*
X1207235Y1243145D01*
X1207243Y1243163D01*
X1207261Y1243330D01*
X1207261Y1316355D01*
X1207258Y1316375D01*
X1207260Y1316394D01*
X1207238Y1316496D01*
X1207222Y1316598D01*
X1207212Y1316615D01*
X1207208Y1316635D01*
X1207155Y1316724D01*
X1207106Y1316815D01*
X1207092Y1316829D01*
X1207082Y1316846D01*
X1207003Y1316913D01*
X1206928Y1316985D01*
X1206910Y1316993D01*
X1206895Y1317006D01*
X1206799Y1317045D01*
X1206705Y1317088D01*
X1206685Y1317090D01*
X1206667Y1317098D01*
X1206500Y1317116D01*
X1202671Y1317116D01*
X1195274Y1319098D01*
X1188642Y1322927D01*
X1183227Y1328342D01*
X1179398Y1334974D01*
X1177416Y1342371D01*
X1177416Y1350029D01*
X1179398Y1357426D01*
X1183227Y1364058D01*
X1188642Y1369473D01*
X1195274Y1373302D01*
X1202671Y1375284D01*
X1206500Y1375284D01*
X1206520Y1375287D01*
X1206539Y1375285D01*
X1206641Y1375307D01*
X1206743Y1375323D01*
X1206760Y1375333D01*
X1206780Y1375337D01*
X1206869Y1375390D01*
X1206960Y1375439D01*
X1206974Y1375453D01*
X1206991Y1375463D01*
X1207058Y1375542D01*
X1207130Y1375617D01*
X1207138Y1375635D01*
X1207151Y1375650D01*
X1207190Y1375746D01*
X1207233Y1375840D01*
X1207235Y1375860D01*
X1207243Y1375878D01*
X1207261Y1376045D01*
X1207261Y1426210D01*
X1207258Y1426230D01*
X1207260Y1426249D01*
X1207238Y1426351D01*
X1207222Y1426453D01*
X1207212Y1426470D01*
X1207208Y1426490D01*
X1207155Y1426579D01*
X1207106Y1426670D01*
X1207092Y1426684D01*
X1207082Y1426701D01*
X1207003Y1426768D01*
X1206928Y1426840D01*
X1206910Y1426848D01*
X1206895Y1426861D01*
X1206799Y1426900D01*
X1206705Y1426943D01*
X1206685Y1426945D01*
X1206667Y1426953D01*
X1206500Y1426971D01*
X1151890Y1426971D01*
X1151870Y1426968D01*
X1151851Y1426970D01*
X1151749Y1426948D01*
X1151647Y1426932D01*
X1151630Y1426922D01*
X1151610Y1426918D01*
X1151521Y1426865D01*
X1151430Y1426816D01*
X1151416Y1426802D01*
X1151399Y1426792D01*
X1151332Y1426713D01*
X1151261Y1426638D01*
X1151252Y1426620D01*
X1151239Y1426605D01*
X1151200Y1426509D01*
X1151157Y1426415D01*
X1151155Y1426395D01*
X1151147Y1426377D01*
X1151129Y1426210D01*
X1151129Y1243330D01*
X1151132Y1243310D01*
X1151130Y1243291D01*
X1151152Y1243189D01*
X1151169Y1243087D01*
X1151178Y1243070D01*
X1151182Y1243050D01*
X1151235Y1242961D01*
X1151284Y1242870D01*
X1151298Y1242856D01*
X1151308Y1242839D01*
X1151387Y1242772D01*
X1151462Y1242701D01*
X1151480Y1242692D01*
X1151495Y1242679D01*
X1151591Y1242640D01*
X1151685Y1242597D01*
X1151705Y1242595D01*
X1151723Y1242587D01*
X1151890Y1242569D01*
X1206500Y1242569D01*
X1206520Y1242572D01*
G37*
G36*
X1206520Y1662942D02*
X1206520Y1662942D01*
X1206539Y1662940D01*
X1206641Y1662962D01*
X1206743Y1662979D01*
X1206760Y1662988D01*
X1206780Y1662992D01*
X1206869Y1663045D01*
X1206960Y1663094D01*
X1206974Y1663108D01*
X1206991Y1663118D01*
X1207058Y1663197D01*
X1207130Y1663272D01*
X1207138Y1663290D01*
X1207151Y1663305D01*
X1207190Y1663401D01*
X1207233Y1663495D01*
X1207235Y1663515D01*
X1207243Y1663533D01*
X1207261Y1663700D01*
X1207261Y1748155D01*
X1207258Y1748175D01*
X1207260Y1748194D01*
X1207238Y1748296D01*
X1207222Y1748398D01*
X1207212Y1748415D01*
X1207208Y1748435D01*
X1207155Y1748524D01*
X1207106Y1748615D01*
X1207092Y1748629D01*
X1207082Y1748646D01*
X1207003Y1748713D01*
X1206928Y1748785D01*
X1206910Y1748793D01*
X1206895Y1748806D01*
X1206799Y1748845D01*
X1206705Y1748888D01*
X1206685Y1748890D01*
X1206667Y1748898D01*
X1206500Y1748916D01*
X1202671Y1748916D01*
X1195274Y1750898D01*
X1188642Y1754727D01*
X1183227Y1760142D01*
X1179398Y1766774D01*
X1177416Y1774171D01*
X1177416Y1781829D01*
X1179398Y1789226D01*
X1183227Y1795858D01*
X1188642Y1801273D01*
X1195274Y1805102D01*
X1202671Y1807084D01*
X1206500Y1807084D01*
X1206520Y1807087D01*
X1206539Y1807085D01*
X1206641Y1807107D01*
X1206743Y1807123D01*
X1206760Y1807133D01*
X1206780Y1807137D01*
X1206869Y1807190D01*
X1206960Y1807239D01*
X1206974Y1807253D01*
X1206991Y1807263D01*
X1207058Y1807342D01*
X1207130Y1807417D01*
X1207138Y1807435D01*
X1207151Y1807450D01*
X1207190Y1807546D01*
X1207233Y1807640D01*
X1207235Y1807660D01*
X1207243Y1807678D01*
X1207261Y1807845D01*
X1207261Y1858010D01*
X1207258Y1858030D01*
X1207260Y1858049D01*
X1207238Y1858151D01*
X1207222Y1858253D01*
X1207212Y1858270D01*
X1207208Y1858290D01*
X1207155Y1858379D01*
X1207106Y1858470D01*
X1207092Y1858484D01*
X1207082Y1858501D01*
X1207003Y1858568D01*
X1206928Y1858640D01*
X1206910Y1858648D01*
X1206895Y1858661D01*
X1206799Y1858700D01*
X1206705Y1858743D01*
X1206685Y1858745D01*
X1206667Y1858753D01*
X1206500Y1858771D01*
X1155700Y1858771D01*
X1155680Y1858768D01*
X1155661Y1858770D01*
X1155559Y1858748D01*
X1155457Y1858732D01*
X1155440Y1858722D01*
X1155420Y1858718D01*
X1155331Y1858665D01*
X1155240Y1858616D01*
X1155226Y1858602D01*
X1155209Y1858592D01*
X1155142Y1858513D01*
X1155071Y1858438D01*
X1155062Y1858420D01*
X1155049Y1858405D01*
X1155010Y1858309D01*
X1154967Y1858215D01*
X1154965Y1858195D01*
X1154957Y1858177D01*
X1154939Y1858010D01*
X1154939Y1663700D01*
X1154942Y1663680D01*
X1154940Y1663661D01*
X1154962Y1663559D01*
X1154979Y1663457D01*
X1154988Y1663440D01*
X1154992Y1663420D01*
X1155045Y1663331D01*
X1155094Y1663240D01*
X1155108Y1663226D01*
X1155118Y1663209D01*
X1155197Y1663142D01*
X1155272Y1663071D01*
X1155290Y1663062D01*
X1155305Y1663049D01*
X1155401Y1663010D01*
X1155495Y1662967D01*
X1155515Y1662965D01*
X1155533Y1662957D01*
X1155700Y1662939D01*
X1206500Y1662939D01*
X1206520Y1662942D01*
G37*
G36*
X710001Y1482133D02*
X710001Y1482133D01*
X710092Y1482141D01*
X710122Y1482153D01*
X710154Y1482158D01*
X710234Y1482201D01*
X710318Y1482237D01*
X710350Y1482263D01*
X710371Y1482274D01*
X710393Y1482297D01*
X710449Y1482342D01*
X713008Y1484901D01*
X713061Y1484975D01*
X713121Y1485044D01*
X713133Y1485074D01*
X713152Y1485100D01*
X713179Y1485188D01*
X713213Y1485272D01*
X713217Y1485313D01*
X713224Y1485336D01*
X713223Y1485368D01*
X713231Y1485439D01*
X713231Y1510030D01*
X713228Y1510050D01*
X713230Y1510069D01*
X713208Y1510171D01*
X713192Y1510273D01*
X713182Y1510290D01*
X713178Y1510310D01*
X713125Y1510399D01*
X713076Y1510490D01*
X713062Y1510504D01*
X713052Y1510521D01*
X712973Y1510588D01*
X712898Y1510660D01*
X712880Y1510668D01*
X712865Y1510681D01*
X712769Y1510720D01*
X712675Y1510763D01*
X712655Y1510765D01*
X712637Y1510773D01*
X712470Y1510791D01*
X683575Y1510791D01*
X605058Y1589308D01*
X604984Y1589361D01*
X604915Y1589421D01*
X604885Y1589433D01*
X604859Y1589452D01*
X604772Y1589479D01*
X604687Y1589513D01*
X604646Y1589517D01*
X604623Y1589524D01*
X604591Y1589523D01*
X604520Y1589531D01*
X552450Y1589531D01*
X552430Y1589528D01*
X552411Y1589530D01*
X552309Y1589508D01*
X552207Y1589492D01*
X552190Y1589482D01*
X552170Y1589478D01*
X552081Y1589425D01*
X551990Y1589376D01*
X551976Y1589362D01*
X551959Y1589352D01*
X551892Y1589273D01*
X551821Y1589198D01*
X551812Y1589180D01*
X551799Y1589165D01*
X551760Y1589069D01*
X551717Y1588975D01*
X551715Y1588955D01*
X551707Y1588937D01*
X551689Y1588770D01*
X551689Y1562100D01*
X551704Y1562010D01*
X551711Y1561919D01*
X551723Y1561889D01*
X551729Y1561857D01*
X551771Y1561777D01*
X551807Y1561693D01*
X551833Y1561661D01*
X551844Y1561640D01*
X551867Y1561618D01*
X551912Y1561562D01*
X553182Y1560292D01*
X553256Y1560239D01*
X553325Y1560179D01*
X553355Y1560167D01*
X553381Y1560148D01*
X553468Y1560121D01*
X553553Y1560087D01*
X553594Y1560083D01*
X553617Y1560076D01*
X553649Y1560077D01*
X553720Y1560069D01*
X567375Y1560069D01*
X645102Y1482342D01*
X645176Y1482289D01*
X645245Y1482229D01*
X645275Y1482217D01*
X645301Y1482198D01*
X645388Y1482171D01*
X645473Y1482137D01*
X645514Y1482133D01*
X645537Y1482126D01*
X645569Y1482127D01*
X645640Y1482119D01*
X709911Y1482119D01*
X710001Y1482133D01*
G37*
G36*
X875120Y1419114D02*
X875120Y1419114D01*
X875211Y1419121D01*
X875241Y1419133D01*
X875273Y1419139D01*
X875353Y1419181D01*
X875437Y1419217D01*
X875469Y1419243D01*
X875490Y1419254D01*
X875512Y1419277D01*
X875568Y1419322D01*
X884235Y1427989D01*
X1052830Y1427989D01*
X1052920Y1428004D01*
X1053011Y1428011D01*
X1053041Y1428023D01*
X1053073Y1428029D01*
X1053153Y1428071D01*
X1053237Y1428107D01*
X1053269Y1428133D01*
X1053290Y1428144D01*
X1053312Y1428167D01*
X1053368Y1428212D01*
X1054638Y1429482D01*
X1054691Y1429556D01*
X1054751Y1429625D01*
X1054763Y1429655D01*
X1054782Y1429681D01*
X1054809Y1429768D01*
X1054843Y1429853D01*
X1054847Y1429894D01*
X1054854Y1429917D01*
X1054853Y1429949D01*
X1054861Y1430020D01*
X1054861Y1460500D01*
X1054847Y1460590D01*
X1054839Y1460681D01*
X1054827Y1460711D01*
X1054822Y1460743D01*
X1054779Y1460823D01*
X1054743Y1460907D01*
X1054717Y1460939D01*
X1054706Y1460960D01*
X1054683Y1460982D01*
X1054638Y1461038D01*
X1053368Y1462308D01*
X1053294Y1462361D01*
X1053225Y1462421D01*
X1053195Y1462433D01*
X1053169Y1462452D01*
X1053082Y1462479D01*
X1052997Y1462513D01*
X1052956Y1462517D01*
X1052933Y1462524D01*
X1052901Y1462523D01*
X1052830Y1462531D01*
X999490Y1462531D01*
X999400Y1462517D01*
X999309Y1462509D01*
X999279Y1462497D01*
X999247Y1462492D01*
X999167Y1462449D01*
X999083Y1462413D01*
X999051Y1462387D01*
X999030Y1462376D01*
X999008Y1462353D01*
X998952Y1462308D01*
X995365Y1458721D01*
X892810Y1458721D01*
X892720Y1458707D01*
X892629Y1458699D01*
X892599Y1458687D01*
X892567Y1458682D01*
X892487Y1458639D01*
X892403Y1458603D01*
X892371Y1458577D01*
X892350Y1458566D01*
X892328Y1458543D01*
X892272Y1458498D01*
X883605Y1449831D01*
X855980Y1449831D01*
X855960Y1449828D01*
X855941Y1449830D01*
X855839Y1449808D01*
X855737Y1449792D01*
X855720Y1449782D01*
X855700Y1449778D01*
X855611Y1449725D01*
X855520Y1449676D01*
X855506Y1449662D01*
X855489Y1449652D01*
X855422Y1449573D01*
X855351Y1449498D01*
X855342Y1449480D01*
X855329Y1449465D01*
X855290Y1449369D01*
X855247Y1449275D01*
X855245Y1449255D01*
X855237Y1449237D01*
X855219Y1449070D01*
X855219Y1421130D01*
X855234Y1421040D01*
X855241Y1420949D01*
X855253Y1420919D01*
X855259Y1420887D01*
X855301Y1420807D01*
X855337Y1420723D01*
X855363Y1420691D01*
X855374Y1420670D01*
X855397Y1420648D01*
X855442Y1420592D01*
X856712Y1419322D01*
X856786Y1419269D01*
X856855Y1419209D01*
X856885Y1419197D01*
X856911Y1419178D01*
X856998Y1419151D01*
X857083Y1419117D01*
X857124Y1419113D01*
X857147Y1419106D01*
X857179Y1419107D01*
X857250Y1419099D01*
X875030Y1419099D01*
X875120Y1419114D01*
G37*
G36*
X236259Y1544840D02*
X236259Y1544840D01*
X236362Y1544842D01*
X236381Y1544849D01*
X236401Y1544851D01*
X236496Y1544891D01*
X236593Y1544927D01*
X236609Y1544939D01*
X236627Y1544947D01*
X236758Y1545052D01*
X237805Y1546099D01*
X323850Y1546099D01*
X323870Y1546102D01*
X323889Y1546100D01*
X323991Y1546122D01*
X324093Y1546139D01*
X324110Y1546148D01*
X324130Y1546152D01*
X324219Y1546205D01*
X324310Y1546254D01*
X324324Y1546268D01*
X324341Y1546278D01*
X324408Y1546357D01*
X324480Y1546432D01*
X324488Y1546450D01*
X324501Y1546465D01*
X324540Y1546561D01*
X324583Y1546655D01*
X324585Y1546675D01*
X324593Y1546693D01*
X324611Y1546860D01*
X324611Y1583690D01*
X324597Y1583780D01*
X324589Y1583871D01*
X324577Y1583901D01*
X324572Y1583933D01*
X324529Y1584013D01*
X324493Y1584097D01*
X324467Y1584129D01*
X324456Y1584150D01*
X324433Y1584172D01*
X324388Y1584228D01*
X304068Y1604548D01*
X303994Y1604601D01*
X303925Y1604661D01*
X303895Y1604673D01*
X303869Y1604692D01*
X303782Y1604719D01*
X303697Y1604753D01*
X303656Y1604757D01*
X303633Y1604764D01*
X303601Y1604763D01*
X303530Y1604771D01*
X209550Y1604771D01*
X209530Y1604768D01*
X209511Y1604770D01*
X209409Y1604748D01*
X209307Y1604732D01*
X209290Y1604722D01*
X209270Y1604718D01*
X209181Y1604665D01*
X209090Y1604616D01*
X209076Y1604602D01*
X209059Y1604592D01*
X208992Y1604513D01*
X208921Y1604438D01*
X208912Y1604420D01*
X208899Y1604405D01*
X208860Y1604309D01*
X208817Y1604215D01*
X208815Y1604195D01*
X208807Y1604177D01*
X208789Y1604010D01*
X208789Y1572260D01*
X208804Y1572170D01*
X208811Y1572079D01*
X208823Y1572049D01*
X208829Y1572017D01*
X208871Y1571937D01*
X208907Y1571853D01*
X208933Y1571821D01*
X208944Y1571800D01*
X208967Y1571778D01*
X208993Y1571745D01*
X208994Y1571743D01*
X208996Y1571742D01*
X209012Y1571722D01*
X235682Y1545052D01*
X235698Y1545040D01*
X235710Y1545025D01*
X235798Y1544968D01*
X235881Y1544908D01*
X235900Y1544902D01*
X235917Y1544892D01*
X236018Y1544866D01*
X236117Y1544836D01*
X236136Y1544836D01*
X236156Y1544831D01*
X236259Y1544840D01*
G37*
G36*
X1206520Y1866142D02*
X1206520Y1866142D01*
X1206539Y1866140D01*
X1206641Y1866162D01*
X1206743Y1866179D01*
X1206760Y1866188D01*
X1206780Y1866192D01*
X1206869Y1866245D01*
X1206960Y1866294D01*
X1206974Y1866308D01*
X1206991Y1866318D01*
X1207058Y1866397D01*
X1207130Y1866472D01*
X1207138Y1866490D01*
X1207151Y1866505D01*
X1207190Y1866601D01*
X1207233Y1866695D01*
X1207235Y1866715D01*
X1207243Y1866733D01*
X1207261Y1866900D01*
X1207261Y1938655D01*
X1207258Y1938675D01*
X1207260Y1938694D01*
X1207238Y1938796D01*
X1207222Y1938898D01*
X1207212Y1938915D01*
X1207208Y1938935D01*
X1207155Y1939024D01*
X1207106Y1939115D01*
X1207092Y1939129D01*
X1207082Y1939146D01*
X1207003Y1939213D01*
X1206928Y1939285D01*
X1206910Y1939293D01*
X1206895Y1939306D01*
X1206799Y1939345D01*
X1206705Y1939388D01*
X1206685Y1939390D01*
X1206667Y1939398D01*
X1206500Y1939416D01*
X1202671Y1939416D01*
X1195274Y1941398D01*
X1188642Y1945227D01*
X1183227Y1950642D01*
X1179398Y1957274D01*
X1177416Y1964671D01*
X1177416Y1972329D01*
X1179398Y1979726D01*
X1183227Y1986358D01*
X1188642Y1991773D01*
X1195274Y1995602D01*
X1202671Y1997584D01*
X1206500Y1997584D01*
X1206520Y1997587D01*
X1206539Y1997585D01*
X1206641Y1997607D01*
X1206743Y1997623D01*
X1206760Y1997633D01*
X1206780Y1997637D01*
X1206869Y1997690D01*
X1206960Y1997739D01*
X1206974Y1997753D01*
X1206991Y1997763D01*
X1207058Y1997842D01*
X1207130Y1997917D01*
X1207138Y1997935D01*
X1207151Y1997950D01*
X1207190Y1998046D01*
X1207233Y1998140D01*
X1207235Y1998160D01*
X1207243Y1998178D01*
X1207261Y1998345D01*
X1207261Y2006600D01*
X1207258Y2006620D01*
X1207260Y2006639D01*
X1207238Y2006741D01*
X1207222Y2006843D01*
X1207212Y2006860D01*
X1207208Y2006880D01*
X1207155Y2006969D01*
X1207106Y2007060D01*
X1207092Y2007074D01*
X1207082Y2007091D01*
X1207003Y2007158D01*
X1206928Y2007230D01*
X1206910Y2007238D01*
X1206895Y2007251D01*
X1206799Y2007290D01*
X1206705Y2007333D01*
X1206685Y2007335D01*
X1206667Y2007343D01*
X1206500Y2007361D01*
X1155700Y2007361D01*
X1155680Y2007358D01*
X1155661Y2007360D01*
X1155559Y2007338D01*
X1155457Y2007322D01*
X1155440Y2007312D01*
X1155420Y2007308D01*
X1155331Y2007255D01*
X1155240Y2007206D01*
X1155226Y2007192D01*
X1155209Y2007182D01*
X1155142Y2007103D01*
X1155071Y2007028D01*
X1155062Y2007010D01*
X1155049Y2006995D01*
X1155010Y2006899D01*
X1154967Y2006805D01*
X1154965Y2006785D01*
X1154957Y2006767D01*
X1154939Y2006600D01*
X1154939Y1866900D01*
X1154942Y1866880D01*
X1154940Y1866861D01*
X1154962Y1866759D01*
X1154979Y1866657D01*
X1154988Y1866640D01*
X1154992Y1866620D01*
X1155045Y1866531D01*
X1155094Y1866440D01*
X1155108Y1866426D01*
X1155118Y1866409D01*
X1155197Y1866342D01*
X1155272Y1866271D01*
X1155290Y1866262D01*
X1155305Y1866249D01*
X1155401Y1866210D01*
X1155495Y1866167D01*
X1155515Y1866165D01*
X1155533Y1866157D01*
X1155700Y1866139D01*
X1206500Y1866139D01*
X1206520Y1866142D01*
G37*
G36*
X1206520Y798072D02*
X1206520Y798072D01*
X1206539Y798070D01*
X1206641Y798092D01*
X1206743Y798109D01*
X1206760Y798118D01*
X1206780Y798122D01*
X1206869Y798175D01*
X1206960Y798224D01*
X1206974Y798238D01*
X1206991Y798248D01*
X1207058Y798327D01*
X1207130Y798402D01*
X1207138Y798420D01*
X1207151Y798435D01*
X1207190Y798531D01*
X1207233Y798625D01*
X1207235Y798645D01*
X1207243Y798663D01*
X1207261Y798830D01*
X1207261Y859155D01*
X1207258Y859175D01*
X1207260Y859194D01*
X1207238Y859296D01*
X1207222Y859398D01*
X1207212Y859415D01*
X1207208Y859435D01*
X1207155Y859524D01*
X1207106Y859615D01*
X1207092Y859629D01*
X1207082Y859646D01*
X1207003Y859713D01*
X1206928Y859785D01*
X1206910Y859793D01*
X1206895Y859806D01*
X1206799Y859845D01*
X1206705Y859888D01*
X1206685Y859890D01*
X1206667Y859898D01*
X1206500Y859916D01*
X1202671Y859916D01*
X1195274Y861898D01*
X1188642Y865727D01*
X1183227Y871142D01*
X1179398Y877774D01*
X1177416Y885171D01*
X1177416Y892829D01*
X1179398Y900226D01*
X1183227Y906858D01*
X1188642Y912273D01*
X1195274Y916102D01*
X1200398Y917475D01*
X1200420Y917485D01*
X1200444Y917489D01*
X1200532Y917535D01*
X1200622Y917576D01*
X1200640Y917592D01*
X1200661Y917604D01*
X1200730Y917676D01*
X1200803Y917743D01*
X1200814Y917764D01*
X1200831Y917782D01*
X1200872Y917872D01*
X1200920Y917959D01*
X1200924Y917983D01*
X1200934Y918005D01*
X1200945Y918104D01*
X1200962Y918202D01*
X1200959Y918226D01*
X1200961Y918249D01*
X1200940Y918347D01*
X1200925Y918445D01*
X1200914Y918466D01*
X1200909Y918490D01*
X1200858Y918575D01*
X1200813Y918664D01*
X1200795Y918680D01*
X1200783Y918701D01*
X1200707Y918766D01*
X1200636Y918835D01*
X1200614Y918845D01*
X1200596Y918861D01*
X1200504Y918898D01*
X1200414Y918941D01*
X1200390Y918944D01*
X1200368Y918953D01*
X1200201Y918971D01*
X1151890Y918971D01*
X1151870Y918968D01*
X1151851Y918970D01*
X1151749Y918948D01*
X1151647Y918932D01*
X1151630Y918922D01*
X1151610Y918918D01*
X1151521Y918865D01*
X1151430Y918816D01*
X1151416Y918802D01*
X1151399Y918792D01*
X1151332Y918713D01*
X1151261Y918638D01*
X1151252Y918620D01*
X1151239Y918605D01*
X1151200Y918509D01*
X1151157Y918415D01*
X1151155Y918395D01*
X1151147Y918377D01*
X1151129Y918210D01*
X1151129Y798830D01*
X1151132Y798810D01*
X1151130Y798791D01*
X1151152Y798689D01*
X1151169Y798587D01*
X1151178Y798570D01*
X1151182Y798550D01*
X1151235Y798461D01*
X1151284Y798370D01*
X1151298Y798356D01*
X1151308Y798339D01*
X1151387Y798272D01*
X1151462Y798201D01*
X1151480Y798192D01*
X1151495Y798179D01*
X1151591Y798140D01*
X1151685Y798097D01*
X1151705Y798095D01*
X1151723Y798087D01*
X1151890Y798069D01*
X1206500Y798069D01*
X1206520Y798072D01*
G37*
G36*
X710020Y536464D02*
X710020Y536464D01*
X710111Y536471D01*
X710141Y536483D01*
X710173Y536489D01*
X710253Y536531D01*
X710337Y536567D01*
X710369Y536593D01*
X710390Y536604D01*
X710412Y536627D01*
X710468Y536672D01*
X711738Y537942D01*
X711791Y538016D01*
X711851Y538085D01*
X711863Y538115D01*
X711882Y538141D01*
X711909Y538228D01*
X711943Y538313D01*
X711947Y538354D01*
X711954Y538377D01*
X711953Y538409D01*
X711961Y538480D01*
X711961Y618490D01*
X711947Y618580D01*
X711939Y618671D01*
X711927Y618701D01*
X711922Y618733D01*
X711879Y618813D01*
X711843Y618897D01*
X711817Y618929D01*
X711806Y618950D01*
X711783Y618972D01*
X711738Y619028D01*
X704341Y626425D01*
X704341Y675640D01*
X704327Y675730D01*
X704319Y675821D01*
X704307Y675851D01*
X704302Y675883D01*
X704259Y675963D01*
X704223Y676047D01*
X704197Y676079D01*
X704186Y676100D01*
X704163Y676122D01*
X704118Y676178D01*
X700308Y679988D01*
X700234Y680041D01*
X700165Y680101D01*
X700135Y680113D01*
X700109Y680132D01*
X700022Y680159D01*
X699937Y680193D01*
X699896Y680197D01*
X699873Y680204D01*
X699841Y680203D01*
X699770Y680211D01*
X673100Y680211D01*
X673080Y680208D01*
X673061Y680210D01*
X672959Y680188D01*
X672857Y680172D01*
X672840Y680162D01*
X672820Y680158D01*
X672731Y680105D01*
X672640Y680056D01*
X672626Y680042D01*
X672609Y680032D01*
X672542Y679953D01*
X672471Y679878D01*
X672462Y679860D01*
X672449Y679845D01*
X672410Y679749D01*
X672367Y679655D01*
X672365Y679635D01*
X672357Y679617D01*
X672339Y679450D01*
X672339Y547370D01*
X672354Y547280D01*
X672361Y547189D01*
X672373Y547159D01*
X672379Y547127D01*
X672421Y547047D01*
X672457Y546963D01*
X672483Y546931D01*
X672494Y546910D01*
X672517Y546888D01*
X672562Y546832D01*
X682722Y536672D01*
X682796Y536619D01*
X682865Y536559D01*
X682895Y536547D01*
X682921Y536528D01*
X683008Y536501D01*
X683093Y536467D01*
X683134Y536463D01*
X683157Y536456D01*
X683189Y536457D01*
X683260Y536449D01*
X709930Y536449D01*
X710020Y536464D01*
G37*
G36*
X1176675Y112272D02*
X1176675Y112272D01*
X1176694Y112270D01*
X1176796Y112292D01*
X1176898Y112309D01*
X1176915Y112318D01*
X1176935Y112322D01*
X1177024Y112375D01*
X1177115Y112424D01*
X1177129Y112438D01*
X1177146Y112448D01*
X1177213Y112527D01*
X1177285Y112602D01*
X1177293Y112620D01*
X1177306Y112635D01*
X1177345Y112731D01*
X1177388Y112825D01*
X1177390Y112845D01*
X1177398Y112863D01*
X1177416Y113030D01*
X1177416Y118129D01*
X1179398Y125526D01*
X1183227Y132158D01*
X1188642Y137573D01*
X1195274Y141402D01*
X1202671Y143384D01*
X1206500Y143384D01*
X1206520Y143387D01*
X1206539Y143385D01*
X1206641Y143407D01*
X1206743Y143423D01*
X1206760Y143433D01*
X1206780Y143437D01*
X1206869Y143490D01*
X1206960Y143539D01*
X1206974Y143553D01*
X1206991Y143563D01*
X1207058Y143642D01*
X1207130Y143717D01*
X1207138Y143735D01*
X1207151Y143750D01*
X1207190Y143846D01*
X1207233Y143940D01*
X1207235Y143960D01*
X1207243Y143978D01*
X1207261Y144145D01*
X1207261Y207010D01*
X1207258Y207030D01*
X1207260Y207049D01*
X1207238Y207151D01*
X1207222Y207253D01*
X1207212Y207270D01*
X1207208Y207290D01*
X1207155Y207379D01*
X1207106Y207470D01*
X1207092Y207484D01*
X1207082Y207501D01*
X1207003Y207568D01*
X1206928Y207640D01*
X1206910Y207648D01*
X1206895Y207661D01*
X1206799Y207700D01*
X1206705Y207743D01*
X1206685Y207745D01*
X1206667Y207753D01*
X1206500Y207771D01*
X1151890Y207771D01*
X1151870Y207768D01*
X1151851Y207770D01*
X1151749Y207748D01*
X1151647Y207732D01*
X1151630Y207722D01*
X1151610Y207718D01*
X1151521Y207665D01*
X1151430Y207616D01*
X1151416Y207602D01*
X1151399Y207592D01*
X1151332Y207513D01*
X1151261Y207438D01*
X1151252Y207420D01*
X1151239Y207405D01*
X1151200Y207309D01*
X1151157Y207215D01*
X1151155Y207195D01*
X1151147Y207177D01*
X1151129Y207010D01*
X1151129Y113030D01*
X1151132Y113010D01*
X1151130Y112991D01*
X1151152Y112889D01*
X1151169Y112787D01*
X1151178Y112770D01*
X1151182Y112750D01*
X1151235Y112661D01*
X1151284Y112570D01*
X1151298Y112556D01*
X1151308Y112539D01*
X1151387Y112472D01*
X1151462Y112401D01*
X1151480Y112392D01*
X1151495Y112379D01*
X1151591Y112340D01*
X1151685Y112297D01*
X1151705Y112295D01*
X1151723Y112287D01*
X1151890Y112269D01*
X1176655Y112269D01*
X1176675Y112272D01*
G37*
G36*
X248940Y742192D02*
X248940Y742192D01*
X248959Y742190D01*
X249061Y742212D01*
X249163Y742229D01*
X249180Y742238D01*
X249200Y742242D01*
X249289Y742295D01*
X249380Y742344D01*
X249394Y742358D01*
X249411Y742368D01*
X249478Y742447D01*
X249550Y742522D01*
X249558Y742540D01*
X249571Y742555D01*
X249610Y742651D01*
X249653Y742745D01*
X249655Y742765D01*
X249663Y742783D01*
X249681Y742950D01*
X249681Y777240D01*
X249667Y777330D01*
X249659Y777421D01*
X249647Y777451D01*
X249642Y777483D01*
X249599Y777563D01*
X249563Y777647D01*
X249537Y777679D01*
X249526Y777700D01*
X249503Y777722D01*
X249458Y777778D01*
X248188Y779048D01*
X248114Y779101D01*
X248045Y779161D01*
X248015Y779173D01*
X247989Y779192D01*
X247902Y779219D01*
X247817Y779253D01*
X247776Y779257D01*
X247753Y779264D01*
X247721Y779263D01*
X247650Y779271D01*
X130810Y779271D01*
X130720Y779257D01*
X130629Y779249D01*
X130599Y779237D01*
X130567Y779232D01*
X130487Y779189D01*
X130403Y779153D01*
X130371Y779127D01*
X130350Y779116D01*
X130328Y779093D01*
X130272Y779048D01*
X127732Y776508D01*
X127679Y776434D01*
X127619Y776365D01*
X127607Y776335D01*
X127588Y776309D01*
X127561Y776222D01*
X127527Y776137D01*
X127523Y776096D01*
X127516Y776073D01*
X127517Y776041D01*
X127509Y775970D01*
X127509Y742950D01*
X127512Y742930D01*
X127510Y742911D01*
X127532Y742809D01*
X127549Y742707D01*
X127558Y742690D01*
X127562Y742670D01*
X127615Y742581D01*
X127664Y742490D01*
X127678Y742476D01*
X127688Y742459D01*
X127767Y742392D01*
X127842Y742321D01*
X127860Y742312D01*
X127875Y742299D01*
X127971Y742260D01*
X128065Y742217D01*
X128085Y742215D01*
X128103Y742207D01*
X128270Y742189D01*
X248920Y742189D01*
X248940Y742192D01*
G37*
G36*
X541110Y1558811D02*
X541110Y1558811D01*
X541162Y1558812D01*
X541230Y1558837D01*
X541300Y1558852D01*
X541344Y1558879D01*
X541393Y1558897D01*
X541449Y1558942D01*
X541511Y1558978D01*
X541545Y1559018D01*
X541585Y1559050D01*
X541624Y1559111D01*
X541671Y1559165D01*
X541690Y1559213D01*
X541718Y1559257D01*
X541736Y1559327D01*
X541763Y1559393D01*
X541771Y1559465D01*
X541779Y1559496D01*
X541777Y1559519D01*
X541781Y1559560D01*
X541781Y1587500D01*
X541778Y1587520D01*
X541780Y1587539D01*
X541758Y1587641D01*
X541742Y1587743D01*
X541732Y1587760D01*
X541728Y1587780D01*
X541675Y1587869D01*
X541626Y1587960D01*
X541612Y1587974D01*
X541602Y1587991D01*
X541523Y1588058D01*
X541448Y1588130D01*
X541430Y1588138D01*
X541415Y1588151D01*
X541319Y1588190D01*
X541225Y1588233D01*
X541205Y1588235D01*
X541187Y1588243D01*
X541020Y1588261D01*
X526095Y1588261D01*
X452658Y1661698D01*
X452584Y1661751D01*
X452515Y1661811D01*
X452485Y1661823D01*
X452459Y1661842D01*
X452372Y1661869D01*
X452287Y1661903D01*
X452246Y1661907D01*
X452223Y1661914D01*
X452191Y1661913D01*
X452120Y1661921D01*
X410210Y1661921D01*
X410190Y1661918D01*
X410171Y1661920D01*
X410069Y1661898D01*
X409967Y1661882D01*
X409950Y1661872D01*
X409930Y1661868D01*
X409841Y1661815D01*
X409750Y1661766D01*
X409736Y1661752D01*
X409719Y1661742D01*
X409652Y1661663D01*
X409581Y1661588D01*
X409572Y1661570D01*
X409559Y1661555D01*
X409520Y1661459D01*
X409477Y1661365D01*
X409475Y1661345D01*
X409467Y1661327D01*
X409449Y1661160D01*
X409449Y1625600D01*
X409464Y1625510D01*
X409471Y1625419D01*
X409483Y1625389D01*
X409489Y1625357D01*
X409531Y1625277D01*
X409567Y1625193D01*
X409593Y1625161D01*
X409604Y1625140D01*
X409627Y1625118D01*
X409672Y1625062D01*
X410942Y1623792D01*
X411016Y1623739D01*
X411085Y1623679D01*
X411115Y1623667D01*
X411141Y1623648D01*
X411228Y1623621D01*
X411313Y1623587D01*
X411354Y1623583D01*
X411377Y1623576D01*
X411409Y1623577D01*
X411480Y1623569D01*
X458155Y1623569D01*
X521432Y1560292D01*
X521506Y1560239D01*
X521575Y1560179D01*
X521605Y1560167D01*
X521631Y1560148D01*
X521718Y1560121D01*
X521803Y1560087D01*
X521844Y1560083D01*
X521867Y1560076D01*
X521899Y1560077D01*
X521970Y1560069D01*
X539435Y1560069D01*
X540482Y1559022D01*
X540540Y1558980D01*
X540592Y1558931D01*
X540639Y1558909D01*
X540681Y1558878D01*
X540750Y1558857D01*
X540815Y1558827D01*
X540867Y1558821D01*
X540917Y1558806D01*
X540988Y1558808D01*
X541059Y1558800D01*
X541110Y1558811D01*
G37*
G36*
X449600Y1544832D02*
X449600Y1544832D01*
X449619Y1544830D01*
X449721Y1544852D01*
X449823Y1544869D01*
X449840Y1544878D01*
X449860Y1544882D01*
X449949Y1544935D01*
X450040Y1544984D01*
X450054Y1544998D01*
X450071Y1545008D01*
X450138Y1545087D01*
X450210Y1545162D01*
X450218Y1545180D01*
X450231Y1545195D01*
X450270Y1545291D01*
X450313Y1545385D01*
X450315Y1545405D01*
X450323Y1545423D01*
X450341Y1545590D01*
X450341Y1583690D01*
X450338Y1583710D01*
X450340Y1583729D01*
X450318Y1583831D01*
X450302Y1583933D01*
X450292Y1583950D01*
X450288Y1583970D01*
X450235Y1584059D01*
X450186Y1584150D01*
X450172Y1584164D01*
X450162Y1584181D01*
X450083Y1584248D01*
X450008Y1584320D01*
X449990Y1584328D01*
X449975Y1584341D01*
X449879Y1584380D01*
X449785Y1584423D01*
X449765Y1584425D01*
X449747Y1584433D01*
X449580Y1584451D01*
X345440Y1584451D01*
X345350Y1584437D01*
X345259Y1584429D01*
X345229Y1584417D01*
X345197Y1584412D01*
X345117Y1584369D01*
X345033Y1584333D01*
X345001Y1584307D01*
X344980Y1584296D01*
X344958Y1584273D01*
X344902Y1584228D01*
X336012Y1575338D01*
X335959Y1575264D01*
X335899Y1575195D01*
X335887Y1575165D01*
X335868Y1575139D01*
X335841Y1575052D01*
X335807Y1574967D01*
X335803Y1574926D01*
X335796Y1574903D01*
X335797Y1574871D01*
X335789Y1574800D01*
X335789Y1545590D01*
X335792Y1545570D01*
X335790Y1545551D01*
X335812Y1545449D01*
X335829Y1545347D01*
X335838Y1545330D01*
X335842Y1545310D01*
X335895Y1545221D01*
X335944Y1545130D01*
X335958Y1545116D01*
X335968Y1545099D01*
X336047Y1545032D01*
X336122Y1544961D01*
X336140Y1544952D01*
X336155Y1544939D01*
X336251Y1544900D01*
X336345Y1544857D01*
X336365Y1544855D01*
X336383Y1544847D01*
X336550Y1544829D01*
X449580Y1544829D01*
X449600Y1544832D01*
G37*
G36*
X792500Y475492D02*
X792500Y475492D01*
X792519Y475490D01*
X792621Y475512D01*
X792723Y475529D01*
X792740Y475538D01*
X792760Y475542D01*
X792849Y475595D01*
X792940Y475644D01*
X792954Y475658D01*
X792971Y475668D01*
X793038Y475747D01*
X793110Y475822D01*
X793118Y475840D01*
X793131Y475855D01*
X793170Y475951D01*
X793213Y476045D01*
X793215Y476065D01*
X793223Y476083D01*
X793241Y476250D01*
X793241Y582930D01*
X793238Y582950D01*
X793240Y582969D01*
X793218Y583071D01*
X793202Y583173D01*
X793192Y583190D01*
X793188Y583210D01*
X793135Y583299D01*
X793086Y583390D01*
X793072Y583404D01*
X793062Y583421D01*
X792983Y583488D01*
X792908Y583560D01*
X792890Y583568D01*
X792875Y583581D01*
X792779Y583620D01*
X792685Y583663D01*
X792665Y583665D01*
X792647Y583673D01*
X792480Y583691D01*
X756920Y583691D01*
X756830Y583677D01*
X756739Y583669D01*
X756709Y583657D01*
X756677Y583652D01*
X756597Y583609D01*
X756513Y583573D01*
X756481Y583547D01*
X756460Y583536D01*
X756438Y583513D01*
X756382Y583468D01*
X755112Y582198D01*
X755059Y582124D01*
X754999Y582055D01*
X754987Y582025D01*
X754968Y581999D01*
X754941Y581912D01*
X754907Y581827D01*
X754903Y581786D01*
X754896Y581763D01*
X754897Y581731D01*
X754889Y581660D01*
X754889Y478790D01*
X754904Y478700D01*
X754911Y478609D01*
X754923Y478579D01*
X754929Y478547D01*
X754971Y478467D01*
X755007Y478383D01*
X755033Y478351D01*
X755044Y478330D01*
X755067Y478308D01*
X755112Y478252D01*
X757652Y475712D01*
X757726Y475659D01*
X757795Y475599D01*
X757825Y475587D01*
X757851Y475568D01*
X757938Y475541D01*
X758023Y475507D01*
X758064Y475503D01*
X758087Y475496D01*
X758119Y475497D01*
X758190Y475489D01*
X792480Y475489D01*
X792500Y475492D01*
G37*
G36*
X716370Y365014D02*
X716370Y365014D01*
X716461Y365021D01*
X716491Y365033D01*
X716523Y365039D01*
X716603Y365081D01*
X716687Y365117D01*
X716719Y365143D01*
X716740Y365154D01*
X716762Y365177D01*
X716818Y365222D01*
X771205Y419609D01*
X789940Y419609D01*
X790030Y419624D01*
X790121Y419631D01*
X790151Y419643D01*
X790183Y419649D01*
X790263Y419691D01*
X790347Y419727D01*
X790379Y419753D01*
X790400Y419764D01*
X790422Y419787D01*
X790478Y419832D01*
X791748Y421102D01*
X791801Y421176D01*
X791861Y421245D01*
X791873Y421275D01*
X791892Y421301D01*
X791919Y421388D01*
X791953Y421473D01*
X791957Y421514D01*
X791964Y421537D01*
X791963Y421569D01*
X791971Y421640D01*
X791971Y438150D01*
X791968Y438170D01*
X791970Y438189D01*
X791948Y438291D01*
X791932Y438393D01*
X791922Y438410D01*
X791918Y438430D01*
X791865Y438519D01*
X791816Y438610D01*
X791802Y438624D01*
X791792Y438641D01*
X791713Y438708D01*
X791638Y438780D01*
X791620Y438788D01*
X791605Y438801D01*
X791509Y438840D01*
X791415Y438883D01*
X791395Y438885D01*
X791377Y438893D01*
X791210Y438911D01*
X739140Y438911D01*
X739050Y438897D01*
X738959Y438889D01*
X738929Y438877D01*
X738897Y438872D01*
X738817Y438829D01*
X738733Y438793D01*
X738701Y438767D01*
X738680Y438756D01*
X738658Y438733D01*
X738602Y438688D01*
X680182Y380268D01*
X680129Y380194D01*
X680069Y380125D01*
X680057Y380095D01*
X680038Y380069D01*
X680011Y379982D01*
X679977Y379897D01*
X679973Y379856D01*
X679966Y379833D01*
X679967Y379801D01*
X679959Y379730D01*
X679959Y365760D01*
X679962Y365740D01*
X679960Y365721D01*
X679982Y365619D01*
X679999Y365517D01*
X680008Y365500D01*
X680012Y365480D01*
X680065Y365391D01*
X680114Y365300D01*
X680128Y365286D01*
X680138Y365269D01*
X680217Y365202D01*
X680292Y365131D01*
X680310Y365122D01*
X680325Y365109D01*
X680421Y365070D01*
X680515Y365027D01*
X680535Y365025D01*
X680553Y365017D01*
X680720Y364999D01*
X716280Y364999D01*
X716370Y365014D01*
G37*
G36*
X471190Y664722D02*
X471190Y664722D01*
X471209Y664720D01*
X471311Y664742D01*
X471413Y664759D01*
X471430Y664768D01*
X471450Y664772D01*
X471539Y664825D01*
X471630Y664874D01*
X471644Y664888D01*
X471661Y664898D01*
X471728Y664977D01*
X471800Y665052D01*
X471808Y665070D01*
X471821Y665085D01*
X471860Y665181D01*
X471903Y665275D01*
X471905Y665295D01*
X471913Y665313D01*
X471931Y665480D01*
X471931Y695960D01*
X471930Y695968D01*
X471930Y695969D01*
X471928Y695979D01*
X471917Y696050D01*
X471909Y696141D01*
X471897Y696171D01*
X471892Y696203D01*
X471849Y696283D01*
X471813Y696367D01*
X471787Y696399D01*
X471776Y696420D01*
X471753Y696442D01*
X471708Y696498D01*
X469168Y699038D01*
X469094Y699091D01*
X469025Y699151D01*
X468995Y699163D01*
X468969Y699182D01*
X468882Y699209D01*
X468797Y699243D01*
X468756Y699247D01*
X468733Y699254D01*
X468701Y699253D01*
X468630Y699261D01*
X361950Y699261D01*
X361930Y699258D01*
X361911Y699260D01*
X361809Y699238D01*
X361707Y699222D01*
X361690Y699212D01*
X361670Y699208D01*
X361581Y699155D01*
X361490Y699106D01*
X361476Y699092D01*
X361459Y699082D01*
X361392Y699003D01*
X361321Y698928D01*
X361312Y698910D01*
X361299Y698895D01*
X361260Y698799D01*
X361217Y698705D01*
X361215Y698685D01*
X361207Y698667D01*
X361189Y698500D01*
X361189Y670560D01*
X361204Y670470D01*
X361211Y670379D01*
X361223Y670349D01*
X361229Y670317D01*
X361271Y670237D01*
X361307Y670153D01*
X361333Y670121D01*
X361344Y670100D01*
X361367Y670078D01*
X361412Y670022D01*
X366492Y664942D01*
X366566Y664889D01*
X366635Y664829D01*
X366665Y664817D01*
X366691Y664798D01*
X366778Y664771D01*
X366863Y664737D01*
X366904Y664733D01*
X366927Y664726D01*
X366959Y664727D01*
X367030Y664719D01*
X471170Y664719D01*
X471190Y664722D01*
G37*
G36*
X802660Y1492762D02*
X802660Y1492762D01*
X802679Y1492760D01*
X802781Y1492782D01*
X802883Y1492799D01*
X802900Y1492808D01*
X802920Y1492812D01*
X803009Y1492865D01*
X803100Y1492914D01*
X803114Y1492928D01*
X803131Y1492938D01*
X803198Y1493017D01*
X803270Y1493092D01*
X803278Y1493110D01*
X803291Y1493125D01*
X803330Y1493221D01*
X803373Y1493315D01*
X803375Y1493335D01*
X803383Y1493353D01*
X803401Y1493520D01*
X803401Y1570990D01*
X803398Y1571010D01*
X803400Y1571029D01*
X803378Y1571131D01*
X803362Y1571233D01*
X803352Y1571250D01*
X803348Y1571270D01*
X803295Y1571359D01*
X803246Y1571450D01*
X803232Y1571464D01*
X803222Y1571481D01*
X803143Y1571548D01*
X803068Y1571620D01*
X803050Y1571628D01*
X803035Y1571641D01*
X802939Y1571680D01*
X802845Y1571723D01*
X802825Y1571725D01*
X802807Y1571733D01*
X802640Y1571751D01*
X801685Y1571751D01*
X800638Y1572798D01*
X800564Y1572851D01*
X800495Y1572911D01*
X800465Y1572923D01*
X800439Y1572942D01*
X800352Y1572969D01*
X800267Y1573003D01*
X800226Y1573007D01*
X800203Y1573014D01*
X800171Y1573013D01*
X800100Y1573021D01*
X760730Y1573021D01*
X760710Y1573018D01*
X760691Y1573020D01*
X760589Y1572998D01*
X760487Y1572982D01*
X760470Y1572972D01*
X760450Y1572968D01*
X760361Y1572915D01*
X760270Y1572866D01*
X760256Y1572852D01*
X760239Y1572842D01*
X760172Y1572763D01*
X760101Y1572688D01*
X760092Y1572670D01*
X760079Y1572655D01*
X760040Y1572559D01*
X759997Y1572465D01*
X759995Y1572445D01*
X759987Y1572427D01*
X759969Y1572260D01*
X759969Y1494790D01*
X759984Y1494700D01*
X759991Y1494609D01*
X760003Y1494579D01*
X760009Y1494547D01*
X760051Y1494467D01*
X760087Y1494383D01*
X760113Y1494351D01*
X760124Y1494330D01*
X760147Y1494308D01*
X760192Y1494252D01*
X761462Y1492982D01*
X761536Y1492929D01*
X761605Y1492869D01*
X761635Y1492857D01*
X761661Y1492838D01*
X761748Y1492811D01*
X761833Y1492777D01*
X761874Y1492773D01*
X761897Y1492766D01*
X761929Y1492767D01*
X762000Y1492759D01*
X802640Y1492759D01*
X802660Y1492762D01*
G37*
G36*
X763360Y1151144D02*
X763360Y1151144D01*
X763451Y1151151D01*
X763481Y1151163D01*
X763513Y1151169D01*
X763593Y1151211D01*
X763677Y1151247D01*
X763709Y1151273D01*
X763730Y1151284D01*
X763752Y1151307D01*
X763808Y1151352D01*
X786668Y1174212D01*
X786714Y1174275D01*
X786737Y1174299D01*
X786742Y1174309D01*
X786781Y1174355D01*
X786793Y1174385D01*
X786812Y1174411D01*
X786839Y1174498D01*
X786873Y1174583D01*
X786877Y1174624D01*
X786884Y1174647D01*
X786883Y1174679D01*
X786891Y1174750D01*
X786891Y1226820D01*
X786877Y1226910D01*
X786869Y1227001D01*
X786857Y1227031D01*
X786852Y1227063D01*
X786809Y1227143D01*
X786773Y1227227D01*
X786747Y1227259D01*
X786736Y1227280D01*
X786713Y1227302D01*
X786668Y1227358D01*
X785398Y1228628D01*
X785324Y1228681D01*
X785255Y1228741D01*
X785225Y1228753D01*
X785199Y1228772D01*
X785112Y1228799D01*
X785027Y1228833D01*
X784986Y1228837D01*
X784963Y1228844D01*
X784931Y1228843D01*
X784860Y1228851D01*
X751840Y1228851D01*
X751750Y1228837D01*
X751659Y1228829D01*
X751629Y1228817D01*
X751597Y1228812D01*
X751517Y1228769D01*
X751433Y1228733D01*
X751401Y1228707D01*
X751380Y1228696D01*
X751358Y1228673D01*
X751302Y1228628D01*
X741142Y1218468D01*
X741089Y1218394D01*
X741029Y1218325D01*
X741017Y1218295D01*
X740998Y1218269D01*
X740971Y1218182D01*
X740937Y1218097D01*
X740933Y1218056D01*
X740926Y1218033D01*
X740927Y1218001D01*
X740919Y1217930D01*
X740919Y1154430D01*
X740934Y1154340D01*
X740941Y1154249D01*
X740953Y1154219D01*
X740959Y1154187D01*
X741001Y1154107D01*
X741037Y1154023D01*
X741063Y1153991D01*
X741074Y1153970D01*
X741097Y1153948D01*
X741142Y1153892D01*
X743682Y1151352D01*
X743756Y1151299D01*
X743825Y1151239D01*
X743855Y1151227D01*
X743881Y1151208D01*
X743968Y1151181D01*
X744053Y1151147D01*
X744094Y1151143D01*
X744117Y1151136D01*
X744149Y1151137D01*
X744220Y1151129D01*
X763270Y1151129D01*
X763360Y1151144D01*
G37*
G36*
X171470Y1571502D02*
X171470Y1571502D01*
X171489Y1571500D01*
X171591Y1571522D01*
X171693Y1571539D01*
X171710Y1571548D01*
X171730Y1571552D01*
X171819Y1571605D01*
X171910Y1571654D01*
X171924Y1571668D01*
X171941Y1571678D01*
X172008Y1571757D01*
X172080Y1571832D01*
X172088Y1571850D01*
X172101Y1571865D01*
X172140Y1571961D01*
X172183Y1572055D01*
X172185Y1572075D01*
X172193Y1572093D01*
X172211Y1572260D01*
X172211Y1619250D01*
X172197Y1619340D01*
X172189Y1619431D01*
X172177Y1619461D01*
X172172Y1619493D01*
X172129Y1619573D01*
X172093Y1619657D01*
X172067Y1619689D01*
X172056Y1619710D01*
X172033Y1619732D01*
X171988Y1619788D01*
X127538Y1664238D01*
X127464Y1664291D01*
X127395Y1664351D01*
X127365Y1664363D01*
X127339Y1664382D01*
X127252Y1664409D01*
X127167Y1664443D01*
X127126Y1664447D01*
X127103Y1664454D01*
X127071Y1664453D01*
X127000Y1664461D01*
X111760Y1664461D01*
X111670Y1664447D01*
X111579Y1664439D01*
X111549Y1664427D01*
X111517Y1664422D01*
X111437Y1664379D01*
X111353Y1664343D01*
X111321Y1664317D01*
X111300Y1664306D01*
X111278Y1664283D01*
X111222Y1664238D01*
X109952Y1662968D01*
X109899Y1662894D01*
X109839Y1662825D01*
X109827Y1662795D01*
X109808Y1662769D01*
X109781Y1662682D01*
X109747Y1662597D01*
X109743Y1662556D01*
X109736Y1662533D01*
X109737Y1662501D01*
X109729Y1662430D01*
X109729Y1630680D01*
X109744Y1630590D01*
X109751Y1630499D01*
X109763Y1630469D01*
X109769Y1630437D01*
X109811Y1630357D01*
X109847Y1630273D01*
X109873Y1630241D01*
X109884Y1630220D01*
X109907Y1630198D01*
X109952Y1630142D01*
X151639Y1588455D01*
X151639Y1572260D01*
X151642Y1572240D01*
X151640Y1572221D01*
X151662Y1572119D01*
X151679Y1572017D01*
X151688Y1572000D01*
X151692Y1571980D01*
X151745Y1571891D01*
X151794Y1571800D01*
X151808Y1571786D01*
X151818Y1571769D01*
X151897Y1571702D01*
X151972Y1571631D01*
X151990Y1571622D01*
X152005Y1571609D01*
X152101Y1571570D01*
X152195Y1571527D01*
X152215Y1571525D01*
X152233Y1571517D01*
X152400Y1571499D01*
X171450Y1571499D01*
X171470Y1571502D01*
G37*
G36*
X711220Y262132D02*
X711220Y262132D01*
X711239Y262130D01*
X711341Y262152D01*
X711443Y262169D01*
X711460Y262178D01*
X711480Y262182D01*
X711569Y262235D01*
X711660Y262284D01*
X711674Y262298D01*
X711691Y262308D01*
X711758Y262387D01*
X711830Y262462D01*
X711838Y262480D01*
X711851Y262495D01*
X711890Y262591D01*
X711933Y262685D01*
X711935Y262705D01*
X711943Y262723D01*
X711961Y262890D01*
X711961Y355600D01*
X711958Y355620D01*
X711960Y355639D01*
X711938Y355741D01*
X711922Y355843D01*
X711912Y355860D01*
X711908Y355880D01*
X711855Y355969D01*
X711806Y356060D01*
X711792Y356074D01*
X711782Y356091D01*
X711703Y356158D01*
X711628Y356230D01*
X711610Y356238D01*
X711595Y356251D01*
X711499Y356290D01*
X711405Y356333D01*
X711385Y356335D01*
X711367Y356343D01*
X711200Y356361D01*
X679450Y356361D01*
X679430Y356358D01*
X679411Y356360D01*
X679309Y356338D01*
X679207Y356322D01*
X679190Y356312D01*
X679170Y356308D01*
X679081Y356255D01*
X678990Y356206D01*
X678976Y356192D01*
X678959Y356182D01*
X678892Y356103D01*
X678821Y356028D01*
X678812Y356010D01*
X678799Y355995D01*
X678760Y355899D01*
X678717Y355805D01*
X678715Y355785D01*
X678707Y355767D01*
X678689Y355600D01*
X678689Y262890D01*
X678692Y262870D01*
X678690Y262851D01*
X678712Y262749D01*
X678729Y262647D01*
X678738Y262630D01*
X678742Y262610D01*
X678795Y262521D01*
X678844Y262430D01*
X678858Y262416D01*
X678868Y262399D01*
X678947Y262332D01*
X679022Y262261D01*
X679040Y262252D01*
X679055Y262239D01*
X679151Y262200D01*
X679245Y262157D01*
X679265Y262155D01*
X679283Y262147D01*
X679450Y262129D01*
X711200Y262129D01*
X711220Y262132D01*
G37*
G36*
X844570Y1420372D02*
X844570Y1420372D01*
X844589Y1420370D01*
X844691Y1420392D01*
X844793Y1420409D01*
X844810Y1420418D01*
X844830Y1420422D01*
X844919Y1420475D01*
X845010Y1420524D01*
X845024Y1420538D01*
X845041Y1420548D01*
X845108Y1420627D01*
X845180Y1420702D01*
X845188Y1420720D01*
X845201Y1420735D01*
X845240Y1420831D01*
X845283Y1420925D01*
X845285Y1420945D01*
X845293Y1420963D01*
X845311Y1421130D01*
X845311Y1449070D01*
X845297Y1449160D01*
X845289Y1449251D01*
X845277Y1449281D01*
X845272Y1449313D01*
X845229Y1449393D01*
X845193Y1449477D01*
X845167Y1449509D01*
X845156Y1449530D01*
X845133Y1449552D01*
X845088Y1449608D01*
X837468Y1457228D01*
X837394Y1457281D01*
X837325Y1457341D01*
X837295Y1457353D01*
X837269Y1457372D01*
X837182Y1457399D01*
X837097Y1457433D01*
X837056Y1457437D01*
X837033Y1457444D01*
X837001Y1457443D01*
X836930Y1457451D01*
X772160Y1457451D01*
X772070Y1457437D01*
X771979Y1457429D01*
X771949Y1457417D01*
X771917Y1457412D01*
X771837Y1457369D01*
X771753Y1457333D01*
X771721Y1457307D01*
X771700Y1457296D01*
X771678Y1457273D01*
X771622Y1457228D01*
X769082Y1454688D01*
X769029Y1454614D01*
X768969Y1454545D01*
X768957Y1454515D01*
X768938Y1454489D01*
X768911Y1454402D01*
X768877Y1454317D01*
X768873Y1454276D01*
X768866Y1454253D01*
X768867Y1454221D01*
X768859Y1454150D01*
X768859Y1421130D01*
X768862Y1421110D01*
X768860Y1421091D01*
X768882Y1420989D01*
X768899Y1420887D01*
X768908Y1420870D01*
X768912Y1420850D01*
X768965Y1420761D01*
X769014Y1420670D01*
X769028Y1420656D01*
X769038Y1420639D01*
X769117Y1420572D01*
X769192Y1420501D01*
X769210Y1420492D01*
X769225Y1420479D01*
X769321Y1420440D01*
X769415Y1420397D01*
X769435Y1420395D01*
X769453Y1420387D01*
X769620Y1420369D01*
X844550Y1420369D01*
X844570Y1420372D01*
G37*
G36*
X788690Y268482D02*
X788690Y268482D01*
X788709Y268480D01*
X788811Y268502D01*
X788913Y268519D01*
X788930Y268528D01*
X788950Y268532D01*
X789039Y268585D01*
X789130Y268634D01*
X789144Y268648D01*
X789161Y268658D01*
X789228Y268737D01*
X789300Y268812D01*
X789308Y268830D01*
X789321Y268845D01*
X789360Y268941D01*
X789403Y269035D01*
X789405Y269055D01*
X789413Y269073D01*
X789431Y269240D01*
X789431Y298450D01*
X789417Y298540D01*
X789409Y298631D01*
X789397Y298661D01*
X789392Y298693D01*
X789349Y298773D01*
X789313Y298857D01*
X789287Y298889D01*
X789276Y298910D01*
X789253Y298932D01*
X789208Y298988D01*
X758728Y329468D01*
X758654Y329521D01*
X758585Y329581D01*
X758555Y329593D01*
X758529Y329612D01*
X758442Y329639D01*
X758357Y329673D01*
X758316Y329677D01*
X758293Y329684D01*
X758261Y329683D01*
X758190Y329691D01*
X721360Y329691D01*
X721340Y329688D01*
X721321Y329690D01*
X721219Y329668D01*
X721117Y329652D01*
X721100Y329642D01*
X721080Y329638D01*
X720991Y329585D01*
X720900Y329536D01*
X720886Y329522D01*
X720869Y329512D01*
X720802Y329433D01*
X720731Y329358D01*
X720722Y329340D01*
X720709Y329325D01*
X720670Y329229D01*
X720627Y329135D01*
X720625Y329115D01*
X720617Y329097D01*
X720599Y328930D01*
X720599Y302260D01*
X720602Y302240D01*
X720600Y302221D01*
X720622Y302119D01*
X720639Y302017D01*
X720648Y302000D01*
X720652Y301980D01*
X720705Y301891D01*
X720754Y301800D01*
X720768Y301786D01*
X720778Y301769D01*
X720857Y301702D01*
X720932Y301631D01*
X720950Y301622D01*
X720965Y301609D01*
X721061Y301570D01*
X721155Y301527D01*
X721175Y301525D01*
X721193Y301517D01*
X721360Y301499D01*
X743905Y301499D01*
X754889Y290515D01*
X754889Y271780D01*
X754904Y271690D01*
X754911Y271599D01*
X754923Y271569D01*
X754929Y271537D01*
X754971Y271457D01*
X755007Y271373D01*
X755033Y271341D01*
X755044Y271320D01*
X755067Y271298D01*
X755112Y271242D01*
X757652Y268702D01*
X757726Y268649D01*
X757795Y268589D01*
X757825Y268577D01*
X757851Y268558D01*
X757938Y268531D01*
X758023Y268497D01*
X758064Y268493D01*
X758087Y268486D01*
X758119Y268487D01*
X758190Y268479D01*
X788670Y268479D01*
X788690Y268482D01*
G37*
G36*
X349340Y671084D02*
X349340Y671084D01*
X349431Y671091D01*
X349461Y671103D01*
X349493Y671109D01*
X349573Y671151D01*
X349657Y671187D01*
X349689Y671213D01*
X349710Y671224D01*
X349732Y671247D01*
X349788Y671292D01*
X351058Y672562D01*
X351111Y672636D01*
X351171Y672705D01*
X351183Y672735D01*
X351202Y672761D01*
X351229Y672848D01*
X351263Y672933D01*
X351267Y672974D01*
X351274Y672997D01*
X351273Y673029D01*
X351281Y673100D01*
X351281Y698500D01*
X351280Y698509D01*
X351280Y698513D01*
X351276Y698534D01*
X351267Y698590D01*
X351259Y698681D01*
X351247Y698711D01*
X351242Y698743D01*
X351199Y698823D01*
X351163Y698907D01*
X351137Y698939D01*
X351126Y698960D01*
X351103Y698982D01*
X351058Y699038D01*
X350011Y700085D01*
X350011Y712470D01*
X349997Y712560D01*
X349989Y712651D01*
X349977Y712681D01*
X349972Y712713D01*
X349929Y712793D01*
X349893Y712877D01*
X349867Y712909D01*
X349856Y712930D01*
X349833Y712952D01*
X349788Y713008D01*
X304291Y758505D01*
X304291Y777240D01*
X304288Y777260D01*
X304290Y777279D01*
X304268Y777381D01*
X304252Y777483D01*
X304242Y777500D01*
X304238Y777520D01*
X304185Y777609D01*
X304136Y777700D01*
X304122Y777714D01*
X304112Y777731D01*
X304033Y777798D01*
X303958Y777870D01*
X303940Y777878D01*
X303925Y777891D01*
X303829Y777930D01*
X303735Y777973D01*
X303715Y777975D01*
X303697Y777983D01*
X303530Y778001D01*
X285750Y778001D01*
X285730Y777998D01*
X285711Y778000D01*
X285609Y777978D01*
X285507Y777962D01*
X285490Y777952D01*
X285470Y777948D01*
X285381Y777895D01*
X285290Y777846D01*
X285276Y777832D01*
X285259Y777822D01*
X285192Y777743D01*
X285121Y777668D01*
X285112Y777650D01*
X285099Y777635D01*
X285060Y777539D01*
X285017Y777445D01*
X285015Y777425D01*
X285007Y777407D01*
X284989Y777240D01*
X284989Y746760D01*
X285004Y746670D01*
X285011Y746579D01*
X285023Y746549D01*
X285029Y746517D01*
X285071Y746437D01*
X285107Y746353D01*
X285133Y746321D01*
X285144Y746300D01*
X285167Y746278D01*
X285212Y746222D01*
X333249Y698185D01*
X333249Y671830D01*
X333252Y671810D01*
X333250Y671791D01*
X333272Y671689D01*
X333289Y671587D01*
X333298Y671570D01*
X333302Y671550D01*
X333355Y671461D01*
X333404Y671370D01*
X333418Y671356D01*
X333428Y671339D01*
X333507Y671272D01*
X333582Y671201D01*
X333600Y671192D01*
X333615Y671179D01*
X333711Y671140D01*
X333805Y671097D01*
X333825Y671095D01*
X333843Y671087D01*
X334010Y671069D01*
X349250Y671069D01*
X349340Y671084D01*
G37*
%LPC*%
G36*
X1037868Y100171D02*
X1037868Y100171D01*
X1031044Y102000D01*
X1024927Y105532D01*
X1019932Y110527D01*
X1016400Y116644D01*
X1014571Y123468D01*
X1014571Y130532D01*
X1016400Y137356D01*
X1019932Y143473D01*
X1024927Y148468D01*
X1031044Y152000D01*
X1037868Y153829D01*
X1044932Y153829D01*
X1051756Y152000D01*
X1057873Y148468D01*
X1062868Y143473D01*
X1066400Y137356D01*
X1068229Y130532D01*
X1068229Y123468D01*
X1066400Y116644D01*
X1062868Y110527D01*
X1057873Y105532D01*
X1051756Y102000D01*
X1044932Y100171D01*
X1037868Y100171D01*
G37*
%LPD*%
%LPC*%
G36*
X1025168Y900271D02*
X1025168Y900271D01*
X1018344Y902100D01*
X1012227Y905632D01*
X1007232Y910627D01*
X1003700Y916744D01*
X1001871Y923568D01*
X1001871Y930632D01*
X1003700Y937456D01*
X1007232Y943573D01*
X1012227Y948568D01*
X1018344Y952100D01*
X1025168Y953929D01*
X1032232Y953929D01*
X1039056Y952100D01*
X1045173Y948568D01*
X1050168Y943573D01*
X1053700Y937456D01*
X1055529Y930632D01*
X1055529Y923568D01*
X1053700Y916744D01*
X1050168Y910627D01*
X1045173Y905632D01*
X1039056Y902100D01*
X1032232Y900271D01*
X1025168Y900271D01*
G37*
%LPD*%
%LPC*%
G36*
X1012468Y354171D02*
X1012468Y354171D01*
X1005644Y356000D01*
X999527Y359532D01*
X994532Y364527D01*
X991000Y370644D01*
X989171Y377468D01*
X989171Y384532D01*
X991000Y391356D01*
X994532Y397473D01*
X999527Y402468D01*
X1005644Y406000D01*
X1012468Y407829D01*
X1019532Y407829D01*
X1026356Y406000D01*
X1032473Y402468D01*
X1037468Y397473D01*
X1041000Y391356D01*
X1042829Y384532D01*
X1042829Y377468D01*
X1041000Y370644D01*
X1037468Y364527D01*
X1032473Y359532D01*
X1026356Y356000D01*
X1019532Y354171D01*
X1012468Y354171D01*
G37*
%LPD*%
G36*
X720129Y1143520D02*
X720129Y1143520D01*
X720232Y1143522D01*
X720251Y1143529D01*
X720271Y1143531D01*
X720366Y1143571D01*
X720463Y1143607D01*
X720479Y1143619D01*
X720497Y1143627D01*
X720628Y1143732D01*
X730788Y1153892D01*
X730841Y1153966D01*
X730901Y1154035D01*
X730913Y1154065D01*
X730932Y1154091D01*
X730959Y1154178D01*
X730993Y1154263D01*
X730997Y1154304D01*
X731004Y1154327D01*
X731003Y1154359D01*
X731011Y1154430D01*
X731011Y1181100D01*
X730997Y1181190D01*
X730989Y1181281D01*
X730977Y1181311D01*
X730972Y1181343D01*
X730929Y1181423D01*
X730893Y1181507D01*
X730867Y1181539D01*
X730856Y1181560D01*
X730833Y1181582D01*
X730788Y1181638D01*
X728248Y1184178D01*
X728174Y1184231D01*
X728105Y1184291D01*
X728075Y1184303D01*
X728049Y1184322D01*
X727962Y1184349D01*
X727877Y1184383D01*
X727836Y1184387D01*
X727813Y1184394D01*
X727781Y1184393D01*
X727710Y1184401D01*
X678180Y1184401D01*
X678090Y1184387D01*
X677999Y1184379D01*
X677969Y1184367D01*
X677937Y1184362D01*
X677857Y1184319D01*
X677773Y1184283D01*
X677741Y1184257D01*
X677720Y1184246D01*
X677698Y1184223D01*
X677642Y1184178D01*
X672562Y1179098D01*
X672509Y1179024D01*
X672449Y1178955D01*
X672437Y1178925D01*
X672418Y1178899D01*
X672391Y1178812D01*
X672357Y1178727D01*
X672353Y1178686D01*
X672346Y1178663D01*
X672347Y1178631D01*
X672339Y1178560D01*
X672339Y1145540D01*
X672342Y1145520D01*
X672340Y1145501D01*
X672362Y1145399D01*
X672379Y1145297D01*
X672388Y1145280D01*
X672392Y1145260D01*
X672445Y1145171D01*
X672494Y1145080D01*
X672508Y1145066D01*
X672518Y1145049D01*
X672597Y1144982D01*
X672672Y1144911D01*
X672690Y1144902D01*
X672705Y1144889D01*
X672801Y1144850D01*
X672895Y1144807D01*
X672915Y1144805D01*
X672933Y1144797D01*
X673100Y1144779D01*
X718505Y1144779D01*
X719552Y1143732D01*
X719568Y1143720D01*
X719580Y1143705D01*
X719668Y1143648D01*
X719751Y1143588D01*
X719770Y1143582D01*
X719787Y1143572D01*
X719888Y1143546D01*
X719987Y1143516D01*
X720006Y1143516D01*
X720026Y1143511D01*
X720129Y1143520D01*
G37*
%LPC*%
G36*
X696688Y924839D02*
X696688Y924839D01*
X690288Y926554D01*
X684551Y929866D01*
X679866Y934551D01*
X676554Y940288D01*
X674839Y946688D01*
X674839Y953312D01*
X676554Y959712D01*
X679866Y965449D01*
X684551Y970134D01*
X690288Y973446D01*
X696688Y975161D01*
X703312Y975161D01*
X709712Y973446D01*
X715449Y970134D01*
X720134Y965449D01*
X723446Y959712D01*
X725161Y953312D01*
X725161Y946688D01*
X723446Y940288D01*
X720134Y934551D01*
X715449Y929866D01*
X709712Y926554D01*
X703312Y924839D01*
X696688Y924839D01*
G37*
%LPD*%
%LPC*%
G36*
X996688Y724839D02*
X996688Y724839D01*
X990288Y726554D01*
X984551Y729866D01*
X979866Y734551D01*
X976554Y740288D01*
X974839Y746688D01*
X974839Y753312D01*
X976554Y759712D01*
X979866Y765449D01*
X984551Y770134D01*
X990288Y773446D01*
X996688Y775161D01*
X1003312Y775161D01*
X1009712Y773446D01*
X1015449Y770134D01*
X1020134Y765449D01*
X1023446Y759712D01*
X1025161Y753312D01*
X1025161Y746688D01*
X1023446Y740288D01*
X1020134Y734551D01*
X1015449Y729866D01*
X1009712Y726554D01*
X1003312Y724839D01*
X996688Y724839D01*
G37*
%LPD*%
%LPC*%
G36*
X1011091Y445289D02*
X1011091Y445289D01*
X1006713Y447103D01*
X1003363Y450453D01*
X1001549Y454831D01*
X1001549Y459569D01*
X1002551Y461989D01*
X1002572Y462077D01*
X1002601Y462164D01*
X1002600Y462197D01*
X1002608Y462228D01*
X1002599Y462319D01*
X1002598Y462410D01*
X1002587Y462450D01*
X1002585Y462473D01*
X1002571Y462502D01*
X1002551Y462571D01*
X1001549Y464991D01*
X1001549Y469729D01*
X1002551Y472149D01*
X1002572Y472237D01*
X1002601Y472324D01*
X1002600Y472357D01*
X1002608Y472388D01*
X1002599Y472479D01*
X1002598Y472570D01*
X1002587Y472610D01*
X1002585Y472633D01*
X1002571Y472662D01*
X1002551Y472731D01*
X1001549Y475151D01*
X1001549Y479889D01*
X1003363Y484267D01*
X1006713Y487617D01*
X1011091Y489431D01*
X1015829Y489431D01*
X1018249Y488429D01*
X1018337Y488408D01*
X1018424Y488379D01*
X1018457Y488380D01*
X1018488Y488372D01*
X1018579Y488381D01*
X1018670Y488382D01*
X1018710Y488393D01*
X1018733Y488395D01*
X1018762Y488409D01*
X1018831Y488429D01*
X1021251Y489431D01*
X1025989Y489431D01*
X1028409Y488429D01*
X1028497Y488408D01*
X1028584Y488379D01*
X1028617Y488380D01*
X1028648Y488372D01*
X1028739Y488381D01*
X1028830Y488382D01*
X1028870Y488393D01*
X1028893Y488395D01*
X1028922Y488409D01*
X1028991Y488429D01*
X1031411Y489431D01*
X1036149Y489431D01*
X1040527Y487617D01*
X1043877Y484267D01*
X1045691Y479889D01*
X1045691Y475151D01*
X1044689Y472731D01*
X1044668Y472643D01*
X1044639Y472556D01*
X1044640Y472523D01*
X1044632Y472492D01*
X1044641Y472401D01*
X1044642Y472310D01*
X1044653Y472270D01*
X1044655Y472247D01*
X1044669Y472218D01*
X1044689Y472149D01*
X1045691Y469729D01*
X1045691Y464991D01*
X1044689Y462571D01*
X1044668Y462483D01*
X1044639Y462396D01*
X1044640Y462363D01*
X1044632Y462332D01*
X1044641Y462241D01*
X1044642Y462150D01*
X1044653Y462110D01*
X1044655Y462087D01*
X1044669Y462058D01*
X1044689Y461989D01*
X1045691Y459569D01*
X1045691Y454831D01*
X1043877Y450453D01*
X1040527Y447103D01*
X1036149Y445289D01*
X1031411Y445289D01*
X1028991Y446291D01*
X1028903Y446312D01*
X1028816Y446341D01*
X1028783Y446340D01*
X1028752Y446348D01*
X1028661Y446339D01*
X1028570Y446338D01*
X1028530Y446327D01*
X1028507Y446325D01*
X1028478Y446311D01*
X1028409Y446291D01*
X1025989Y445289D01*
X1021251Y445289D01*
X1018831Y446291D01*
X1018743Y446312D01*
X1018656Y446341D01*
X1018623Y446340D01*
X1018592Y446348D01*
X1018501Y446339D01*
X1018410Y446338D01*
X1018370Y446327D01*
X1018347Y446325D01*
X1018318Y446311D01*
X1018249Y446291D01*
X1015829Y445289D01*
X1011091Y445289D01*
G37*
%LPD*%
%LPC*%
G36*
X537381Y985039D02*
X537381Y985039D01*
X533003Y986853D01*
X529653Y990203D01*
X527839Y994581D01*
X527839Y999319D01*
X528841Y1001739D01*
X528862Y1001827D01*
X528891Y1001914D01*
X528890Y1001947D01*
X528898Y1001978D01*
X528889Y1002069D01*
X528888Y1002160D01*
X528877Y1002200D01*
X528875Y1002223D01*
X528861Y1002252D01*
X528841Y1002321D01*
X527839Y1004741D01*
X527839Y1009479D01*
X528841Y1011899D01*
X528862Y1011987D01*
X528891Y1012074D01*
X528890Y1012107D01*
X528898Y1012138D01*
X528889Y1012229D01*
X528888Y1012320D01*
X528877Y1012360D01*
X528875Y1012383D01*
X528861Y1012412D01*
X528841Y1012481D01*
X527839Y1014901D01*
X527839Y1019639D01*
X529653Y1024017D01*
X533003Y1027367D01*
X537381Y1029181D01*
X542119Y1029181D01*
X544539Y1028179D01*
X544627Y1028158D01*
X544714Y1028129D01*
X544747Y1028130D01*
X544778Y1028122D01*
X544869Y1028131D01*
X544960Y1028132D01*
X545000Y1028143D01*
X545023Y1028145D01*
X545052Y1028159D01*
X545121Y1028179D01*
X547541Y1029181D01*
X552279Y1029181D01*
X554699Y1028179D01*
X554787Y1028158D01*
X554874Y1028129D01*
X554907Y1028130D01*
X554938Y1028122D01*
X555029Y1028131D01*
X555120Y1028132D01*
X555160Y1028143D01*
X555183Y1028145D01*
X555212Y1028159D01*
X555281Y1028179D01*
X557701Y1029181D01*
X562439Y1029181D01*
X566817Y1027367D01*
X570167Y1024017D01*
X571981Y1019639D01*
X571981Y1014901D01*
X570979Y1012481D01*
X570958Y1012393D01*
X570929Y1012306D01*
X570930Y1012273D01*
X570922Y1012242D01*
X570931Y1012151D01*
X570932Y1012060D01*
X570943Y1012020D01*
X570945Y1011997D01*
X570959Y1011968D01*
X570979Y1011899D01*
X571981Y1009479D01*
X571981Y1004741D01*
X570979Y1002321D01*
X570958Y1002233D01*
X570929Y1002146D01*
X570930Y1002113D01*
X570922Y1002082D01*
X570931Y1001991D01*
X570932Y1001900D01*
X570943Y1001860D01*
X570945Y1001837D01*
X570959Y1001808D01*
X570979Y1001739D01*
X571981Y999319D01*
X571981Y994581D01*
X570167Y990203D01*
X566817Y986853D01*
X562439Y985039D01*
X557701Y985039D01*
X555281Y986041D01*
X555193Y986062D01*
X555106Y986091D01*
X555073Y986090D01*
X555042Y986098D01*
X554951Y986089D01*
X554860Y986088D01*
X554820Y986077D01*
X554797Y986075D01*
X554768Y986061D01*
X554699Y986041D01*
X552279Y985039D01*
X547541Y985039D01*
X545121Y986041D01*
X545033Y986062D01*
X544946Y986091D01*
X544913Y986090D01*
X544882Y986098D01*
X544791Y986089D01*
X544700Y986088D01*
X544660Y986077D01*
X544637Y986075D01*
X544608Y986061D01*
X544539Y986041D01*
X542119Y985039D01*
X537381Y985039D01*
G37*
%LPD*%
%LPC*%
G36*
X1012361Y1081559D02*
X1012361Y1081559D01*
X1007983Y1083373D01*
X1004633Y1086723D01*
X1002819Y1091101D01*
X1002819Y1095839D01*
X1003821Y1098259D01*
X1003842Y1098347D01*
X1003871Y1098434D01*
X1003870Y1098467D01*
X1003878Y1098498D01*
X1003869Y1098589D01*
X1003868Y1098680D01*
X1003857Y1098720D01*
X1003855Y1098743D01*
X1003841Y1098772D01*
X1003821Y1098841D01*
X1002819Y1101261D01*
X1002819Y1105999D01*
X1003821Y1108419D01*
X1003842Y1108507D01*
X1003871Y1108594D01*
X1003870Y1108627D01*
X1003878Y1108658D01*
X1003869Y1108749D01*
X1003868Y1108840D01*
X1003857Y1108880D01*
X1003855Y1108903D01*
X1003841Y1108932D01*
X1003821Y1109001D01*
X1002819Y1111421D01*
X1002819Y1116159D01*
X1004633Y1120537D01*
X1007983Y1123887D01*
X1012361Y1125701D01*
X1017099Y1125701D01*
X1019519Y1124699D01*
X1019607Y1124678D01*
X1019694Y1124649D01*
X1019727Y1124650D01*
X1019758Y1124642D01*
X1019849Y1124651D01*
X1019940Y1124652D01*
X1019980Y1124663D01*
X1020003Y1124665D01*
X1020032Y1124679D01*
X1020101Y1124699D01*
X1022521Y1125701D01*
X1027259Y1125701D01*
X1029679Y1124699D01*
X1029767Y1124678D01*
X1029854Y1124649D01*
X1029887Y1124650D01*
X1029918Y1124642D01*
X1030009Y1124651D01*
X1030100Y1124652D01*
X1030140Y1124663D01*
X1030163Y1124665D01*
X1030192Y1124679D01*
X1030261Y1124699D01*
X1032681Y1125701D01*
X1037419Y1125701D01*
X1041797Y1123887D01*
X1045147Y1120537D01*
X1046961Y1116159D01*
X1046961Y1111421D01*
X1045959Y1109001D01*
X1045938Y1108913D01*
X1045909Y1108826D01*
X1045910Y1108793D01*
X1045902Y1108762D01*
X1045911Y1108671D01*
X1045912Y1108580D01*
X1045923Y1108540D01*
X1045925Y1108517D01*
X1045939Y1108488D01*
X1045959Y1108419D01*
X1046961Y1105999D01*
X1046961Y1101261D01*
X1045959Y1098841D01*
X1045938Y1098753D01*
X1045909Y1098666D01*
X1045910Y1098633D01*
X1045902Y1098602D01*
X1045911Y1098511D01*
X1045912Y1098420D01*
X1045923Y1098380D01*
X1045925Y1098357D01*
X1045939Y1098328D01*
X1045959Y1098259D01*
X1046961Y1095839D01*
X1046961Y1091101D01*
X1045147Y1086723D01*
X1041797Y1083373D01*
X1037419Y1081559D01*
X1032681Y1081559D01*
X1030261Y1082561D01*
X1030173Y1082582D01*
X1030086Y1082611D01*
X1030053Y1082610D01*
X1030022Y1082618D01*
X1029931Y1082609D01*
X1029840Y1082608D01*
X1029800Y1082597D01*
X1029777Y1082595D01*
X1029748Y1082581D01*
X1029679Y1082561D01*
X1027259Y1081559D01*
X1022521Y1081559D01*
X1020101Y1082561D01*
X1020013Y1082582D01*
X1019926Y1082611D01*
X1019893Y1082610D01*
X1019862Y1082618D01*
X1019771Y1082609D01*
X1019680Y1082608D01*
X1019640Y1082597D01*
X1019617Y1082595D01*
X1019588Y1082581D01*
X1019519Y1082561D01*
X1017099Y1081559D01*
X1012361Y1081559D01*
G37*
%LPD*%
%LPC*%
G36*
X1011091Y164619D02*
X1011091Y164619D01*
X1006713Y166433D01*
X1003363Y169783D01*
X1001549Y174161D01*
X1001549Y178899D01*
X1002551Y181319D01*
X1002572Y181407D01*
X1002601Y181494D01*
X1002600Y181527D01*
X1002608Y181558D01*
X1002599Y181649D01*
X1002598Y181740D01*
X1002587Y181780D01*
X1002585Y181803D01*
X1002571Y181832D01*
X1002551Y181901D01*
X1001549Y184321D01*
X1001549Y189059D01*
X1002551Y191479D01*
X1002572Y191568D01*
X1002601Y191654D01*
X1002600Y191687D01*
X1002608Y191718D01*
X1002599Y191809D01*
X1002598Y191900D01*
X1002587Y191940D01*
X1002585Y191963D01*
X1002571Y191992D01*
X1002551Y192061D01*
X1001549Y194481D01*
X1001549Y199219D01*
X1003363Y203597D01*
X1006713Y206947D01*
X1011091Y208761D01*
X1015829Y208761D01*
X1018249Y207759D01*
X1018338Y207738D01*
X1018424Y207709D01*
X1018457Y207710D01*
X1018488Y207702D01*
X1018579Y207711D01*
X1018670Y207712D01*
X1018710Y207723D01*
X1018733Y207725D01*
X1018762Y207739D01*
X1018831Y207759D01*
X1021251Y208761D01*
X1025989Y208761D01*
X1028409Y207759D01*
X1028498Y207738D01*
X1028584Y207709D01*
X1028617Y207710D01*
X1028648Y207702D01*
X1028739Y207711D01*
X1028830Y207712D01*
X1028870Y207723D01*
X1028893Y207725D01*
X1028922Y207739D01*
X1028991Y207759D01*
X1031411Y208761D01*
X1036149Y208761D01*
X1040527Y206947D01*
X1043877Y203597D01*
X1045691Y199219D01*
X1045691Y194481D01*
X1044689Y192061D01*
X1044668Y191973D01*
X1044639Y191886D01*
X1044640Y191853D01*
X1044632Y191822D01*
X1044641Y191731D01*
X1044642Y191640D01*
X1044653Y191600D01*
X1044655Y191577D01*
X1044669Y191548D01*
X1044689Y191479D01*
X1045691Y189059D01*
X1045691Y184321D01*
X1044689Y181901D01*
X1044668Y181813D01*
X1044639Y181726D01*
X1044640Y181693D01*
X1044632Y181662D01*
X1044641Y181571D01*
X1044642Y181480D01*
X1044653Y181440D01*
X1044655Y181417D01*
X1044669Y181388D01*
X1044689Y181319D01*
X1045691Y178899D01*
X1045691Y174161D01*
X1043877Y169783D01*
X1040527Y166433D01*
X1036149Y164619D01*
X1031411Y164619D01*
X1028991Y165621D01*
X1028903Y165642D01*
X1028816Y165671D01*
X1028783Y165670D01*
X1028752Y165678D01*
X1028661Y165669D01*
X1028570Y165668D01*
X1028530Y165657D01*
X1028507Y165655D01*
X1028478Y165641D01*
X1028409Y165621D01*
X1025989Y164619D01*
X1021251Y164619D01*
X1018831Y165621D01*
X1018743Y165642D01*
X1018656Y165671D01*
X1018623Y165670D01*
X1018592Y165678D01*
X1018501Y165669D01*
X1018410Y165668D01*
X1018370Y165657D01*
X1018347Y165655D01*
X1018318Y165641D01*
X1018249Y165621D01*
X1015829Y164619D01*
X1011091Y164619D01*
G37*
%LPD*%
%LPC*%
G36*
X884472Y1894935D02*
X884472Y1894935D01*
X876105Y1898401D01*
X869701Y1904805D01*
X866235Y1913172D01*
X866235Y1922228D01*
X869701Y1930595D01*
X876105Y1936999D01*
X884472Y1940465D01*
X893528Y1940465D01*
X901895Y1936999D01*
X908299Y1930595D01*
X911765Y1922228D01*
X911765Y1913172D01*
X908299Y1904805D01*
X901895Y1898401D01*
X893528Y1894935D01*
X884472Y1894935D01*
G37*
%LPD*%
%LPC*%
G36*
X884472Y1755235D02*
X884472Y1755235D01*
X876105Y1758701D01*
X869701Y1765105D01*
X866235Y1773472D01*
X866235Y1782528D01*
X869701Y1790895D01*
X876105Y1797299D01*
X884472Y1800765D01*
X893528Y1800765D01*
X901895Y1797299D01*
X908299Y1790895D01*
X911765Y1782528D01*
X911765Y1773472D01*
X908299Y1765105D01*
X901895Y1758701D01*
X893528Y1755235D01*
X884472Y1755235D01*
G37*
%LPD*%
D10*
X685800Y699800D03*
X685800Y671800D03*
X694690Y374680D03*
X694690Y346680D03*
D11*
X1249710Y778510D03*
X1221710Y778510D03*
X532100Y1574800D03*
X560100Y1574800D03*
D12*
X384700Y393700D03*
X402700Y393700D03*
X385970Y1314450D03*
X403970Y1314450D03*
D11*
X341600Y685800D03*
X369600Y685800D03*
D13*
X1358900Y1237900D03*
D14*
X1358900Y1198300D03*
X1358900Y1158700D03*
X1358900Y1119100D03*
X1358900Y1079500D03*
X1358900Y1039900D03*
X1358900Y1000300D03*
X1358900Y960700D03*
X1358900Y921100D03*
D13*
X1397000Y324200D03*
D14*
X1397000Y363800D03*
X1397000Y403400D03*
X1397000Y443000D03*
X1397000Y482600D03*
X1397000Y522200D03*
X1397000Y561800D03*
X1397000Y601400D03*
X1397000Y641000D03*
D15*
X368300Y422000D03*
X368300Y467000D03*
D16*
X275590Y1070380D03*
X275590Y1086080D03*
D17*
X1181100Y1459000D03*
D18*
X1190300Y1419180D03*
X1171900Y1419180D03*
D17*
X1181100Y1687600D03*
D18*
X1190300Y1647780D03*
X1171900Y1647780D03*
D17*
X1181100Y1890800D03*
D18*
X1190300Y1850980D03*
X1171900Y1850980D03*
D15*
X359410Y1309730D03*
X359410Y1354730D03*
D17*
X1181100Y239800D03*
D18*
X1190300Y199980D03*
X1171900Y199980D03*
D17*
X1181100Y443000D03*
D18*
X1190300Y403180D03*
X1171900Y403180D03*
D17*
X1181100Y646200D03*
D18*
X1190300Y606380D03*
X1171900Y606380D03*
D17*
X1181100Y824000D03*
D18*
X1190300Y784180D03*
X1171900Y784180D03*
D19*
X339810Y1076960D03*
X302810Y1076960D03*
D20*
X349410Y1113790D03*
X369410Y1113790D03*
D17*
X1181100Y1268500D03*
D18*
X1190300Y1228680D03*
X1171900Y1228680D03*
D21*
X1041400Y127000D03*
X850900Y1295400D03*
X939800Y1651000D03*
X889000Y1778000D03*
X889000Y1917700D03*
X1079500Y2108200D03*
X1016000Y381000D03*
X850900Y660400D03*
X825500Y812800D03*
X1028700Y927100D03*
X939800Y939800D03*
D22*
X1168400Y1592072D03*
X1244600Y1557528D03*
X1244600Y1760728D03*
X1168400Y1795272D03*
X1168400Y1985772D03*
X1244600Y1951228D03*
X1147572Y1066800D03*
X1113028Y990600D03*
X1244600Y2065528D03*
X1168400Y2100072D03*
X1168400Y131572D03*
X1244600Y97028D03*
X1244600Y312928D03*
X1168400Y347472D03*
X1168400Y550672D03*
X1244600Y516128D03*
X1244600Y706628D03*
X1168400Y741172D03*
X1168400Y906272D03*
X1244600Y871728D03*
X1244600Y1328928D03*
X1168400Y1363472D03*
D23*
X1409700Y101600D03*
X1409700Y127000D03*
X1409700Y152400D03*
X1409700Y177800D03*
D24*
X308100Y1116650D02*
X297300Y1116650D01*
X308100Y1116650D02*
X308100Y1112150D01*
X297300Y1112150D01*
X297300Y1116650D01*
X297300Y1113575D02*
X308100Y1113575D01*
X308100Y1115000D02*
X297300Y1115000D01*
X297300Y1116425D02*
X308100Y1116425D01*
X308100Y1097650D02*
X297300Y1097650D01*
X308100Y1097650D02*
X308100Y1093150D01*
X297300Y1093150D01*
X297300Y1097650D01*
X297300Y1094575D02*
X308100Y1094575D01*
X308100Y1096000D02*
X297300Y1096000D01*
X297300Y1097425D02*
X308100Y1097425D01*
X286900Y1107150D02*
X276100Y1107150D01*
X286900Y1107150D02*
X286900Y1102650D01*
X276100Y1102650D01*
X276100Y1107150D01*
X276100Y1104075D02*
X286900Y1104075D01*
X286900Y1105500D02*
X276100Y1105500D01*
X276100Y1106925D02*
X286900Y1106925D01*
D12*
X372000Y1094740D03*
X390000Y1094740D03*
D25*
X356870Y1094850D03*
X356870Y1076850D03*
D21*
X88900Y139700D03*
X74930Y1276350D03*
D26*
X294700Y762000D03*
X238700Y762000D03*
D27*
X774700Y429200D03*
X774700Y485200D03*
D11*
X730280Y316230D03*
X702280Y316230D03*
D26*
X218500Y1587500D03*
X162500Y1587500D03*
D11*
X316200Y1562100D03*
X344200Y1562100D03*
D27*
X787400Y1445200D03*
X787400Y1501200D03*
D11*
X836900Y1435100D03*
X864900Y1435100D03*
X750600Y1168400D03*
X722600Y1168400D03*
D28*
X213360Y1912620D03*
X223520Y1912620D03*
X233680Y1912620D03*
X213360Y1902460D03*
X213360Y1892300D03*
X223520Y1892300D03*
X223520Y1902460D03*
X233680Y1902460D03*
X233680Y1892300D03*
X516890Y1906270D03*
X527050Y1906270D03*
X537210Y1906270D03*
X516890Y1896110D03*
X516890Y1885950D03*
X527050Y1885950D03*
X527050Y1896110D03*
X537210Y1896110D03*
X537210Y1885950D03*
X1047750Y1455420D03*
X1047750Y1445260D03*
X1047750Y1435100D03*
X1037590Y1455420D03*
X1027430Y1455420D03*
X1027430Y1445260D03*
X1037590Y1445260D03*
X1037590Y1435100D03*
X1027430Y1435100D03*
X1035050Y1113790D03*
X1035050Y1103630D03*
X1035050Y1093470D03*
X1024890Y1113790D03*
X1014730Y1113790D03*
X1014730Y1103630D03*
X1024890Y1103630D03*
X1024890Y1093470D03*
X1014730Y1093470D03*
X698500Y1170940D03*
X698500Y1160780D03*
X698500Y1150620D03*
X688340Y1150620D03*
X688340Y1160780D03*
X688340Y1170940D03*
X678180Y1170940D03*
X678180Y1160780D03*
X678180Y1150620D03*
X259080Y1291590D03*
X196850Y1268730D03*
X196850Y1192530D03*
X261620Y1184910D03*
X256540Y1391920D03*
X266700Y1391920D03*
X276860Y1391920D03*
X132080Y770890D03*
X142240Y770890D03*
X132080Y760730D03*
X142240Y760730D03*
X152400Y760730D03*
X152400Y749300D03*
X142240Y749300D03*
X132080Y749300D03*
X293370Y1244600D03*
X293370Y1231900D03*
X293370Y1219200D03*
X308610Y1207770D03*
X321310Y1207770D03*
X341630Y1228090D03*
X341630Y1244600D03*
D29*
X348800Y1114400D02*
X302700Y1114400D01*
X348800Y1114400D02*
X349410Y1113790D01*
X356980Y1094740D02*
X372000Y1094740D01*
X356980Y1094740D02*
X356870Y1094850D01*
X349410Y1102310D01*
X349410Y1113790D01*
D28*
X266700Y1110770D03*
D29*
X274349Y1110770D02*
X274527Y1110948D01*
X274349Y1110770D02*
X266700Y1110770D01*
X299248Y1110948D02*
X302700Y1114400D01*
X299248Y1110948D02*
X274527Y1110948D01*
D30*
X1249710Y778510D02*
X1282700Y811500D01*
X1282700Y1136280D02*
X1190300Y1228680D01*
X1282700Y1136280D02*
X1282700Y811500D01*
X1190300Y1228680D02*
X1171900Y1228680D01*
D31*
X1249710Y807690D02*
X1249710Y778510D01*
X1233400Y824000D02*
X1181100Y824000D01*
X1233400Y824000D02*
X1249710Y807690D01*
D28*
X444500Y690880D03*
X454660Y690880D03*
X464820Y690880D03*
X464820Y680720D03*
X454660Y680720D03*
X444500Y680720D03*
X444500Y670560D03*
X454660Y670560D03*
X464820Y670560D03*
X783590Y575310D03*
X783590Y565150D03*
X773430Y575310D03*
X773430Y565150D03*
X773430Y554990D03*
X762000Y554990D03*
X762000Y565150D03*
X762000Y575310D03*
X345440Y435610D03*
D29*
X368300Y410100D02*
X384700Y393700D01*
X368300Y410100D02*
X368300Y422000D01*
X359050Y422000D01*
X345440Y435610D01*
D28*
X309880Y414020D03*
X119380Y439420D03*
X309880Y403860D03*
X119380Y416560D03*
X309880Y393700D03*
X119380Y406400D03*
X539750Y1017270D03*
X549910Y1017270D03*
X560070Y1017270D03*
X539750Y1007110D03*
X539750Y996950D03*
X549910Y996950D03*
X549910Y1007110D03*
X560070Y1007110D03*
X560070Y996950D03*
X247650Y1023620D03*
X257810Y1023620D03*
X267970Y1023620D03*
X247650Y1013460D03*
X247650Y1003300D03*
X257810Y1003300D03*
X257810Y1013460D03*
X267970Y1013460D03*
X267970Y1003300D03*
X254000Y387350D03*
X199390Y364490D03*
X199390Y292100D03*
X280670Y285750D03*
X256540Y477520D03*
X266700Y477520D03*
X276860Y477520D03*
X306070Y344170D03*
X306070Y330200D03*
X306070Y316230D03*
X316230Y306070D03*
X330200Y306070D03*
X344170Y306070D03*
X354330Y316230D03*
X354330Y328930D03*
X354330Y341630D03*
X344170Y354330D03*
X331470Y354330D03*
X318770Y354330D03*
X1033780Y477520D03*
X1033780Y467360D03*
X1033780Y457200D03*
X1023620Y477520D03*
X1013460Y477520D03*
X1013460Y467360D03*
X1023620Y467360D03*
X1023620Y457200D03*
X1013460Y457200D03*
X704850Y288290D03*
X704850Y278130D03*
X704850Y267970D03*
X694690Y267970D03*
X694690Y278130D03*
X694690Y288290D03*
X684530Y288290D03*
X684530Y278130D03*
X684530Y267970D03*
X1033780Y196850D03*
X1033780Y186690D03*
X1033780Y176530D03*
X1023620Y196850D03*
X1013460Y196850D03*
X1013460Y186690D03*
X1023620Y186690D03*
X1023620Y176530D03*
X1013460Y176530D03*
X134620Y690880D03*
X144780Y690880D03*
X154940Y690880D03*
X154940Y680720D03*
X144780Y680720D03*
X134620Y680720D03*
X134620Y670560D03*
X144780Y670560D03*
X154940Y670560D03*
X440690Y770890D03*
X450850Y770890D03*
X440690Y760730D03*
X450850Y760730D03*
X461010Y760730D03*
X461010Y749300D03*
X450850Y749300D03*
X440690Y749300D03*
X105410Y549910D03*
X415290Y398780D03*
D29*
X410210Y393700D01*
X402700Y393700D01*
D28*
X704850Y568960D03*
X704850Y558800D03*
X704850Y548640D03*
X694690Y548640D03*
X694690Y558800D03*
X694690Y568960D03*
X684530Y568960D03*
X684530Y558800D03*
X684530Y548640D03*
X783590Y294640D03*
X783590Y284480D03*
X773430Y294640D03*
X773430Y284480D03*
X773430Y274320D03*
X762000Y274320D03*
X762000Y284480D03*
X762000Y294640D03*
X283210Y609600D03*
X398780Y447040D03*
X590550Y612140D03*
X448310Y389890D03*
X461010Y321310D03*
X632460Y430530D03*
X444500Y261620D03*
X632460Y149860D03*
X304800Y232410D03*
X292100Y254000D03*
X283210Y234950D03*
X173990Y274320D03*
X184150Y274320D03*
X1062990Y254000D03*
X1062990Y243840D03*
D31*
X184150Y274320D02*
X173990Y274320D01*
X262890Y274320D02*
X269748Y267462D01*
X262890Y274320D02*
X184150Y274320D01*
X985449Y283690D02*
X1032581Y283690D01*
X1062271Y254000D01*
X1062990Y254000D01*
X946389Y244630D02*
X430459Y244630D01*
X946389Y244630D02*
X985449Y283690D01*
X407627Y267462D02*
X269748Y267462D01*
X407627Y267462D02*
X430459Y244630D01*
X1062990Y243840D02*
X1062990Y254000D01*
D28*
X148590Y327660D03*
X158750Y327660D03*
X1062990Y534670D03*
X1062990Y524510D03*
D31*
X158750Y327660D02*
X148590Y327660D01*
X1062990Y524510D02*
X1062990Y534670D01*
X165608Y334518D02*
X158750Y327660D01*
X465371Y393700D02*
X622300Y393700D01*
X465371Y393700D02*
X445841Y374170D01*
X214419Y334518D02*
X165608Y334518D01*
X214419Y334518D02*
X254071Y374170D01*
X445841Y374170D01*
X622300Y393700D02*
X693420Y464820D01*
X820420Y464820D01*
X914400Y558800D01*
X1041400Y558800D01*
X1062990Y537210D01*
X1062990Y534670D01*
D28*
X483870Y1049020D03*
X494030Y1049020D03*
X148590Y356870D03*
X158750Y356870D03*
D31*
X148590Y356870D01*
X158750Y356870D02*
X166370Y356870D01*
X190500Y381000D01*
X197330Y603730D02*
X257810Y664210D01*
X197330Y425379D02*
X190500Y418549D01*
X197330Y425379D02*
X197330Y603730D01*
X257810Y664210D02*
X257810Y956310D01*
X350520Y1049020D01*
X483870Y1049020D01*
X190500Y418549D02*
X190500Y381000D01*
X483870Y1049020D02*
X494030Y1049020D01*
D28*
X191770Y1052830D03*
X201930Y1052830D03*
X148590Y382270D03*
X158750Y382270D03*
D31*
X148590Y382270D01*
X125730Y382270D01*
X88900Y419100D01*
X88900Y949960D01*
X191770Y1052830D01*
X201930Y1052830D01*
D28*
X187960Y457200D03*
X321310Y245110D03*
X186690Y427990D03*
X127000Y495300D03*
X209550Y1076960D03*
D29*
X269010Y1076960D01*
X275590Y1070380D01*
D28*
X593090Y944880D03*
X593090Y934720D03*
X593090Y924560D03*
X603250Y944880D03*
X603250Y934720D03*
X603250Y924560D03*
X613410Y944880D03*
X613410Y934720D03*
X613410Y924560D03*
X300990Y944880D03*
X300990Y934720D03*
X300990Y924560D03*
X311150Y944880D03*
X311150Y934720D03*
X311150Y924560D03*
X321310Y944880D03*
X321310Y934720D03*
X321310Y924560D03*
X157480Y455930D03*
X957580Y424180D03*
X947420Y424180D03*
X937260Y424180D03*
X957580Y414020D03*
X947420Y414020D03*
X937260Y414020D03*
X957580Y403860D03*
X947420Y403860D03*
X937260Y403860D03*
X957580Y143510D03*
X947420Y143510D03*
X937260Y143510D03*
X957580Y133350D03*
X947420Y133350D03*
X937260Y133350D03*
X957580Y123190D03*
X947420Y123190D03*
X937260Y123190D03*
D29*
X368300Y467000D02*
X359770Y467000D01*
X347980Y478790D01*
D28*
X347980Y478790D03*
D29*
X275590Y1098990D02*
X281500Y1104900D01*
X275590Y1098990D02*
X275590Y1086080D01*
X302700Y1077070D02*
X302700Y1095400D01*
X302700Y1077070D02*
X302810Y1076960D01*
X369410Y1113790D02*
X370950Y1113790D01*
X390000Y1094740D01*
X356760Y1076960D02*
X339810Y1076960D01*
X356760Y1076960D02*
X356870Y1076850D01*
D28*
X403860Y223520D03*
X684530Y193040D03*
X173990Y262890D03*
X184150Y262890D03*
X1004570Y247650D03*
X1004570Y237490D03*
D31*
X184150Y262890D02*
X173990Y262890D01*
X237010Y210030D02*
X977110Y210030D01*
X1004570Y237490D01*
X237010Y210030D02*
X184150Y262890D01*
X1004570Y247650D02*
X1004570Y237490D01*
D28*
X449580Y318770D03*
X684530Y473710D03*
X148590Y302260D03*
X158750Y302260D03*
X1004570Y528320D03*
X1004570Y518160D03*
D31*
X158750Y302260D02*
X148590Y302260D01*
X1004570Y518160D02*
X1004570Y528320D01*
X276309Y314960D02*
X171450Y314960D01*
X158750Y302260D01*
X276309Y314960D02*
X302189Y289080D01*
X479580Y289080D01*
X654050Y369570D02*
X734060Y449580D01*
X935990Y449580D02*
X1004570Y518160D01*
X560070Y369570D02*
X479580Y289080D01*
X560070Y369570D02*
X654050Y369570D01*
X734060Y449580D02*
X935990Y449580D01*
D28*
X547370Y664210D03*
X438150Y383540D03*
X488950Y989330D03*
X499110Y989330D03*
X148590Y344170D03*
X158750Y344170D03*
D31*
X148590Y344170D01*
X488950Y989330D02*
X499110Y989330D01*
X488950Y989330D02*
X477520Y989330D01*
X273050Y784860D01*
X215900Y367749D02*
X192321Y344170D01*
X158750Y344170D01*
X273050Y514350D02*
X273050Y784860D01*
X273050Y514350D02*
X215900Y457200D01*
X215900Y367749D01*
D28*
X237490Y664210D03*
X424180Y431800D03*
X196850Y994410D03*
X207010Y994410D03*
X148590Y369570D03*
X158750Y369570D03*
D31*
X148590Y369570D01*
X196850Y994410D02*
X207010Y994410D01*
X161798Y372618D02*
X158750Y369570D01*
X161798Y372618D02*
X162748Y372618D01*
X177800Y387670D01*
X177800Y406400D01*
X139700Y444500D01*
X139700Y635000D02*
X114300Y660400D01*
X114300Y911860D01*
X196850Y994410D01*
X139700Y635000D02*
X139700Y444500D01*
D28*
X420370Y1167130D03*
X626110Y1079500D03*
X387350Y1132840D03*
X674370Y1122680D03*
X1012190Y1174750D03*
X1012190Y1164590D03*
X148590Y1177290D03*
X158750Y1177290D03*
D31*
X148590Y1177290D01*
X158750Y1177290D02*
X170970Y1165070D01*
X316301Y1165070D01*
X325671Y1155700D01*
X609600Y1155700D02*
X660400Y1104900D01*
X952500Y1104900D01*
X1012190Y1164590D01*
X609600Y1155700D02*
X325671Y1155700D01*
X1012190Y1164590D02*
X1012190Y1174750D01*
D28*
X1071880Y1178560D03*
X1071880Y1168400D03*
X148590Y1188720D03*
X158750Y1188720D03*
D31*
X148590Y1188720D01*
X158750Y1188720D02*
X187409Y1188720D01*
X192969Y1183160D01*
X686280Y1194280D02*
X736600Y1244600D01*
X686280Y1194280D02*
X257739Y1194280D01*
X246619Y1183160D02*
X192969Y1183160D01*
X246619Y1183160D02*
X257739Y1194280D01*
X736600Y1244600D02*
X977900Y1244600D01*
X1043940Y1178560D02*
X1071880Y1178560D01*
X1043940Y1178560D02*
X977900Y1244600D01*
X1071880Y1178560D02*
X1071880Y1168400D01*
D28*
X453390Y1234440D03*
X641350Y1412240D03*
X708660Y1506220D03*
X708660Y1496060D03*
X708660Y1485900D03*
X698500Y1485900D03*
X698500Y1496060D03*
X698500Y1506220D03*
X688340Y1506220D03*
X688340Y1496060D03*
X688340Y1485900D03*
X779780Y1223010D03*
X779780Y1212850D03*
X769620Y1223010D03*
X769620Y1212850D03*
X769620Y1202690D03*
X758190Y1202690D03*
X758190Y1212850D03*
X758190Y1223010D03*
X439420Y1226820D03*
X689610Y1456690D03*
X1028700Y1517650D03*
X1028700Y1507490D03*
X148590Y1207770D03*
X158750Y1207770D03*
D31*
X148590Y1207770D01*
X158750Y1207770D02*
X190500Y1207770D01*
X1028700Y1507490D02*
X1028700Y1517650D01*
X252730Y1270000D02*
X190500Y1207770D01*
X725678Y1467358D02*
X884108Y1467358D01*
X924240Y1507490D02*
X1028700Y1507490D01*
X924240Y1507490D02*
X884108Y1467358D01*
X528320Y1270000D02*
X252730Y1270000D01*
X528320Y1270000D02*
X725678Y1467358D01*
D28*
X1089660Y1522730D03*
X1089660Y1512570D03*
X149860Y1230630D03*
X160020Y1230630D03*
D31*
X149860Y1230630D01*
X1089660Y1512570D02*
X1089660Y1522730D01*
X188750Y1259360D02*
X160020Y1230630D01*
X188750Y1259360D02*
X200731Y1259360D01*
X712541Y1476530D02*
X721911Y1485900D01*
X417901Y1476530D02*
X200731Y1259360D01*
X417901Y1476530D02*
X712541Y1476530D01*
X876300Y1485900D02*
X927100Y1536700D01*
X1075690Y1536700D01*
X1089660Y1522730D01*
X876300Y1485900D02*
X721911Y1485900D01*
D28*
X567690Y1499870D03*
X445770Y1287780D03*
X420370Y1576070D03*
X430530Y1576070D03*
X440690Y1576070D03*
X440690Y1565910D03*
X430530Y1565910D03*
X420370Y1565910D03*
X420370Y1555750D03*
X430530Y1555750D03*
X440690Y1555750D03*
X789940Y1562100D03*
X789940Y1551940D03*
X779780Y1562100D03*
X779780Y1551940D03*
X779780Y1541780D03*
X768350Y1541780D03*
X768350Y1551940D03*
X768350Y1562100D03*
X427990Y1287780D03*
X521970Y1548130D03*
X467360Y1893570D03*
X477520Y1893570D03*
X148590Y1258570D03*
X158750Y1258570D03*
D31*
X148590Y1258570D01*
X158750Y1258570D02*
X172720Y1258570D01*
X201352Y1811712D02*
X283210Y1893570D01*
X467360Y1893570D01*
X201352Y1811712D02*
X201352Y1287202D01*
X172720Y1258570D01*
X467360Y1893570D02*
X477520Y1893570D01*
D28*
X464820Y1953260D03*
X474980Y1953260D03*
X148590Y1271270D03*
X158750Y1271270D03*
D31*
X148590Y1271270D01*
X158750Y1271270D02*
X167640Y1271270D01*
X184150Y1287780D01*
X184150Y1817370D02*
X320040Y1953260D01*
X464820Y1953260D01*
X184150Y1817370D02*
X184150Y1287780D01*
X464820Y1953260D02*
X474980Y1953260D01*
D28*
X260350Y1498600D03*
X403860Y1356360D03*
X114300Y1578610D03*
X124460Y1578610D03*
X134620Y1578610D03*
X134620Y1568450D03*
X124460Y1568450D03*
X114300Y1568450D03*
X114300Y1558290D03*
X124460Y1558290D03*
X134620Y1558290D03*
X402590Y1301750D03*
X416560Y1656080D03*
X426720Y1656080D03*
X416560Y1645920D03*
X426720Y1645920D03*
X436880Y1645920D03*
X436880Y1634490D03*
X426720Y1634490D03*
X416560Y1634490D03*
D31*
X403970Y1314450D02*
X403970Y1303130D01*
X402590Y1301750D01*
D28*
X114300Y1657350D03*
X124460Y1657350D03*
X114300Y1647190D03*
X124460Y1647190D03*
X134620Y1647190D03*
X134620Y1635760D03*
X124460Y1635760D03*
X114300Y1635760D03*
X215900Y1553210D03*
X400050Y1338580D03*
X262890Y1832610D03*
X262890Y1822450D03*
X262890Y1812290D03*
X273050Y1832610D03*
X273050Y1822450D03*
X273050Y1812290D03*
X283210Y1832610D03*
X283210Y1822450D03*
X283210Y1812290D03*
X567690Y1833880D03*
X567690Y1823720D03*
X567690Y1813560D03*
X577850Y1833880D03*
X577850Y1823720D03*
X577850Y1813560D03*
X588010Y1833880D03*
X588010Y1823720D03*
X588010Y1813560D03*
X970280Y1413510D03*
X960120Y1413510D03*
X949960Y1413510D03*
X970280Y1403350D03*
X960120Y1403350D03*
X949960Y1403350D03*
X970280Y1393190D03*
X960120Y1393190D03*
X949960Y1393190D03*
X957580Y1070610D03*
X947420Y1070610D03*
X937260Y1070610D03*
X957580Y1060450D03*
X947420Y1060450D03*
X937260Y1060450D03*
X957580Y1050290D03*
X947420Y1050290D03*
X937260Y1050290D03*
X63500Y1981200D03*
X163830Y1892300D03*
X173990Y1892300D03*
X148590Y1283970D03*
X158750Y1283970D03*
D31*
X148590Y1283970D01*
X163830Y1283970D02*
X172212Y1292352D01*
X163830Y1283970D02*
X158750Y1283970D01*
X172212Y1292352D02*
X172212Y1326388D01*
X88900Y1409700D01*
X88900Y1854200D01*
X127000Y1892300D02*
X163830Y1892300D01*
X127000Y1892300D02*
X88900Y1854200D01*
X163830Y1892300D02*
X173990Y1892300D01*
D28*
X152400Y1955800D03*
X165100Y1955800D03*
X148590Y1296670D03*
X158750Y1296670D03*
D31*
X148590Y1296670D01*
X63500Y1381760D01*
X63500Y1892300D01*
X127000Y1955800D01*
X152400Y1955800D01*
X165100Y1955800D01*
D28*
X283210Y1155700D03*
X55880Y1183640D03*
X270510Y1130300D03*
X76200Y1163320D03*
X299720Y1131570D03*
X91440Y1143000D03*
X321310Y1146810D03*
X83820Y1200150D03*
X336550Y1303020D03*
D31*
X343260Y1309730D01*
X359410Y1309730D01*
X381250Y1309730D01*
X385970Y1314450D01*
D28*
X307340Y1346200D03*
D31*
X350880Y1346200D02*
X359410Y1354730D01*
X350880Y1346200D02*
X307340Y1346200D01*
M02*
